<svg xmlns="http://www.w3.org/2000/svg" width="85" height="85" viewBox="0 0 85 85">
  <g id="Grupo_877684" data-name="Grupo 877684" transform="translate(-285 -525)">
    <circle id="Elipse_5155" data-name="Elipse 5155" cx="42.5" cy="42.5" r="42.5" transform="translate(285 525)" fill="#0273bc"/>
    <g id="Flat" transform="translate(297.36 537.209)">
      <path id="Trazado_604497" data-name="Trazado 604497" d="M55.677,4.686c-3.3-3.492-14.187-1.36-21.913,1.99a8.73,8.73,0,0,1-6.935,0C19.1,3.325,8.221,1.2,4.916,4.686c-2.639,2.789-2.934,8.067-.293,12.558q26.216,12.561,51.348,0c2.64-4.491,2.346-9.769-.293-12.558Z" transform="translate(-0.143)" fill="#ff6687"/>
      <path id="Trazado_604498" data-name="Trazado 604498" d="M57.767,35.135c-.588,1.411-6.509,2.246-6.81.993a2.708,2.708,0,0,1-.094.287c-.562,1.294-5.179,2.053-7.358,1.622-.615-.126-1.038-.341-1.119-.665V37.35A1.9,1.9,0,0,1,40.845,38.8a25.983,25.983,0,0,1-6.527.314c-.481-.04-1.271-.234-1.5-.737-.157-.341-.427-.341-.584,0-.229.5-1.02.7-1.5.737a25.982,25.982,0,0,1-6.527-.314,1.9,1.9,0,0,1-1.541-1.451v.022c-.382,1.478-7.758.7-8.477-.957a2.706,2.706,0,0,1-.094-.287c-.3,1.253-6.222.418-6.81-.993-.427-1.029-.818-6.293.135-7.915,1.285-2.2,5.211-.984,6.347,2.107a.2.2,0,0,0,.391-.031,7.3,7.3,0,0,1,.593-2.026c.777-1.478,3.755-1.491,5.763,0a6.219,6.219,0,0,1,1.8,3.091.184.184,0,0,0,.359-.045c.031-.44.072-.867.117-1.132.836-4.829,8.041-3.558,9.155,1.226.094.4.175.8.247,1.213a.337.337,0,0,0,.665,0c.072-.409.153-.818.247-1.213,1.114-4.784,8.319-6.055,9.155-1.226.022.126.04.292.063.476v.049c.022.189.04.4.054.606a.184.184,0,0,0,.359.045c.1-.3.207-.6.323-.889a4.907,4.907,0,0,1,1.478-2.2c2.008-1.491,4.986-1.478,5.763,0a7.3,7.3,0,0,1,.593,2.026.2.2,0,0,0,.391.031c1.137-3.091,5.063-4.3,6.347-2.107.952,1.621.562,6.886.135,7.915Z" transform="translate(-2.372 -12.781)" fill="#ebecff"/>
      <path id="Trazado_604499" data-name="Trazado 604499" d="M53.161,84.144H7.118C1.41,91.155,1.684,97.8,4.355,100.618c3.251,3.435,13.73,1.511,21.517-1.707a11.2,11.2,0,0,1,8.539,0c7.786,3.216,18.265,5.14,21.517,1.707C58.6,97.8,58.869,91.155,53.161,84.144Z" transform="translate(0 -44.751)" fill="#ff6687"/>
      <path id="Trazado_604500" data-name="Trazado 604500" d="M58.724,78.681A1.766,1.766,0,0,0,57.577,77.2c-1.053-.449-5.592-.657-5.847,1.091a1.65,1.65,0,0,0-1.625-.96c-.983-.052-5.677-.363-6.172,1.535a1.913,1.913,0,0,0-1.821-1,19.277,19.277,0,0,0-4.8.2,1.68,1.68,0,0,0-1.556,1.652,1.681,1.681,0,0,0-1.556-1.652,19.276,19.276,0,0,0-4.8-.2,1.913,1.913,0,0,0-1.821,1c-.494-1.9-5.188-1.587-6.172-1.535a1.653,1.653,0,0,0-1.625.96C19.538,76.539,15,76.745,13.946,77.2A1.766,1.766,0,0,0,12.8,78.681a13.628,13.628,0,0,0,1.123,6.491,2.93,2.93,0,0,0,4.388,1.309,4.107,4.107,0,0,0,1.561-3.419.08.08,0,0,1,.157.015,7.954,7.954,0,0,0,.21,1.539c1.154,3.521,3.526,4.357,5.432,2.65.809-.724,1.455-1.638,1.736-4.481a.085.085,0,0,1,.17,0,15.373,15.373,0,0,0,.282,2.682,4.814,4.814,0,0,0,.733,1.69c1.721,2.524,4.884,2.822,6.3-.312a10.018,10.018,0,0,0,.817-3.927.056.056,0,1,1,.111,0,10,10,0,0,0,.817,3.927c1.411,3.134,4.575,2.836,6.3.312a4.814,4.814,0,0,0,.733-1.69,15.373,15.373,0,0,0,.282-2.682.085.085,0,0,1,.17,0c.281,2.843.929,3.757,1.736,4.481,1.906,1.707,4.278.872,5.432-2.65a7.954,7.954,0,0,0,.21-1.539.08.08,0,0,1,.157-.015,4.107,4.107,0,0,0,1.561,3.419A2.93,2.93,0,0,0,57.6,85.171,13.611,13.611,0,0,0,58.724,78.681Z" transform="translate(-5.622 -40.75)" fill="#ebecff"/>
    </g>
  </g>
</svg>
