<svg xmlns="http://www.w3.org/2000/svg" width="85" height="78" viewBox="0 0 85 78">
  <g id="Grupo_877679" data-name="Grupo 877679" transform="translate(-354 6361)">
    <g id="Grupo_877643" data-name="Grupo 877643" transform="translate(1439 -2203) rotate(180)">
      <path id="Rectángulo_47602" data-name="Rectángulo 47602" d="M0,0H67A18,18,0,0,1,85,18V60A18,18,0,0,1,67,78H0a0,0,0,0,1,0,0V0A0,0,0,0,1,0,0Z" transform="translate(1000 4080)" fill="#0273bc"/>
    </g>
    <g id="craneo" transform="translate(367 -6352)">
      <g id="Grupo_877651" data-name="Grupo 877651" transform="translate(0)">
        <g id="Grupo_877650" data-name="Grupo 877650" transform="translate(0)">
          <path id="Trazado_604559" data-name="Trazado 604559" d="M31.326,0c-15.772,0-28.6,10.387-28.6,23.154a5.534,5.534,0,0,0,1.085,2.806L.194,31.987a1.363,1.363,0,0,0,.58,1.929c1.564.75,3.312,2.151,3.312,2.9,0,1.119-.484,1.4-.476,1.4a1.364,1.364,0,0,0-.742,1.885l1.059,2.115L2.867,44.337a1.381,1.381,0,0,0-.144.609v8.172c0,3.946,1.718,6.81,4.086,6.81,1.341,0,19.366-3.66,21.606-7.483,1.559-2.663,1.636-10.53,1.583-14.176a14.82,14.82,0,0,1,5.2,2.522c2.1,1.373,4.27,2.793,7.026,2.793,9.805,0,17.7-11.177,17.7-20.43C59.928,10.387,47.1,0,31.326,0ZM26.064,51.068C24.851,53.14,9.305,57.131,6.81,57.2c-.4,0-1.362-1.433-1.362-4.086V49.025c4.314-.044,11.8-.328,13.221-1.753,1.1-1.1,1.886-4.859,2.316-7.461.138-.055.275-.106.413-.161a17.221,17.221,0,0,1,5.874-1.471C27.339,42.741,27.083,49.329,26.064,51.068ZM42.225,40.86c-1.945,0-3.61-1.088-5.536-2.349-2.221-1.452-4.738-3.1-8.087-3.1a19.858,19.858,0,0,0-8.217,1.708,10.208,10.208,0,0,1-4.041,1.016,4.718,4.718,0,0,1-4.24-1.991A1.362,1.362,0,0,0,9.688,37.4a7.342,7.342,0,0,0,6.656,3.457,9.7,9.7,0,0,0,1.71-.161,21.2,21.2,0,0,1-1.218,4.569c-.864.512-6,.959-11.388,1.026V45.268l1.218-2.437a1.364,1.364,0,0,0,0-1.218l-.872-1.746A4.569,4.569,0,0,0,6.81,36.818c0-2.066-2.078-3.722-3.554-4.638l3.36-5.6a1.363,1.363,0,0,0-.12-1.57,5.047,5.047,0,0,1-1.048-1.855c0-11.266,11.609-20.43,25.878-20.43S57.2,11.888,57.2,23.154C57.2,31.124,50.293,40.86,42.225,40.86Z" transform="translate(0)" fill="#fff"/>
          <path id="Trazado_604560" data-name="Trazado 604560" d="M65.361,192a1.362,1.362,0,1,0,0,2.724c.476,0,1.362,1.4,1.362,4.086a1.362,1.362,0,1,0,2.724,0C69.447,194.737,67.806,192,65.361,192Z" transform="translate(-55.827 -167.484)" fill="#fff"/>
          <path id="Trazado_604561" data-name="Trazado 604561" d="M104.8,111.378c-2.442,2.441-7.023,2.487-8.917,2.4a18.144,18.144,0,0,0-4.139-6.486c-.787-.786-1.436-1.393-1.971-1.889-1.636-1.524-1.716-1.647-1.716-2.6,0-.854,1.891-3,3.589-4.395a1.362,1.362,0,0,0-1.726-2.107c-1.077.881-4.586,3.954-4.586,6.5,0,2.183.865,2.987,2.583,4.589.516.48,1.144,1.064,1.9,1.822a15.143,15.143,0,0,1,3.73,6.181,1.366,1.366,0,0,0,1.152,1.018,18.809,18.809,0,0,0,2.173.112c2.644,0,7.087-.459,9.853-3.224a1.362,1.362,0,0,0-1.926-1.926Z" transform="translate(-74.436 -83.739)" fill="#fff"/>
        </g>
      </g>
    </g>
  </g>
</svg>
