<svg xmlns="http://www.w3.org/2000/svg" width="85" height="78" viewBox="0 0 85 78">
  <g id="Grupo_877681" data-name="Grupo 877681" transform="translate(-354 5880)">
    <g id="Grupo_877645" data-name="Grupo 877645" transform="translate(1439 -1722) rotate(180)">
      <path id="Rectángulo_47602" data-name="Rectángulo 47602" d="M0,0H67A18,18,0,0,1,85,18V60A18,18,0,0,1,67,78H0a0,0,0,0,1,0,0V0A0,0,0,0,1,0,0Z" transform="translate(1000 4080)" fill="#0273bc"/>
    </g>
    <path id="hablar-burbuja" d="M51.606,33.441a2.182,2.182,0,1,0-4.045,1.635l2.569,6.356L42.5,38.069a2.18,2.18,0,0,0-1.736-.011,21.041,21.041,0,0,1-8.3,1.677c-11.68,0-19.526-9.145-19.526-17.686,0-9.752,8.759-17.686,19.526-17.686S51.985,12.3,51.985,22.049a17.761,17.761,0,0,1-.194,2.5,2.182,2.182,0,1,0,4.316.644,22.036,22.036,0,0,0,.242-3.143A21.086,21.086,0,0,0,49.281,6.391,24.792,24.792,0,0,0,32.459,0,24.792,24.792,0,0,0,15.637,6.391a21.2,21.2,0,0,0-6.98,13.781A17.637,17.637,0,0,0,.5,34.854,16.925,16.925,0,0,0,3.844,44.968L.657,52.85a2.182,2.182,0,0,0,2.9,2.814l9.188-4.05a20.764,20.764,0,0,0,7.276,1.3c.055,0,.108,0,.161-.008A20.651,20.651,0,0,0,30.45,50.119a18.78,18.78,0,0,0,6.6-6.427,25.131,25.131,0,0,0,4.532-1.26l11.7,5.16a2.182,2.182,0,0,0,2.9-2.814Zm-31.582,15.1c-.03,0-.059,0-.088,0a16.359,16.359,0,0,1-6.374-1.3,2.182,2.182,0,0,0-1.736.01L6.716,49.5l1.648-4.077A2.182,2.182,0,0,0,8,43.194a12.735,12.735,0,0,1-3.14-8.341A12.979,12.979,0,0,1,8.894,25.56a22.023,22.023,0,0,0,6.454,11.794A24.387,24.387,0,0,0,31.22,44.069a16.035,16.035,0,0,1-11.2,4.472Zm15.6-24.434a2.182,2.182,0,1,1,0,4.363H22.533a2.182,2.182,0,1,1,0-4.363Zm6.545-4.363H22.533a2.182,2.182,0,1,1,0-4.363H42.168a2.182,2.182,0,0,1,0,4.363Zm0,0" transform="translate(368.002 -5868.5)" fill="#fff" stroke="#0273bc" stroke-width="1"/>
  </g>
</svg>
