<svg xmlns="http://www.w3.org/2000/svg" width="85" height="78" viewBox="0 0 85 78">
  <g id="Grupo_877642" data-name="Grupo 877642" transform="translate(1085 4158) rotate(180)">
    <g id="Grupo_877687" data-name="Grupo 877687">
      <path id="Rectángulo_47602" data-name="Rectángulo 47602" d="M0,0H67A18,18,0,0,1,85,18V60A18,18,0,0,1,67,78H0a0,0,0,0,1,0,0V0A0,0,0,0,1,0,0Z" transform="translate(1000 4080)" fill="#0273bc"/>
      <g id="levantamiento_1_" data-name="levantamiento(1)" transform="translate(1068 4145) rotate(180)">
        <path id="Trazado_604580" data-name="Trazado 604580" d="M168.306,296.205a1.5,1.5,0,0,0-2.084-.4,2.237,2.237,0,0,1-2.49,0,1.5,1.5,0,0,0-1.684,2.484,5.262,5.262,0,0,0,5.857,0,1.5,1.5,0,0,0,.4-2.084Z" transform="translate(-145.248 -265.985)" fill="#fff"/>
        <path id="Trazado_604581" data-name="Trazado 604581" d="M283.71,295.805a2.237,2.237,0,0,1-2.49,0,1.5,1.5,0,0,0-1.683,2.484,5.262,5.262,0,0,0,5.857,0,1.5,1.5,0,0,0-1.684-2.484Z" transform="translate(-250.985 -265.985)" fill="#fff"/>
        <path id="Trazado_604582" data-name="Trazado 604582" d="M216.745,396.466a3.248,3.248,0,0,1-4.288,0,1.5,1.5,0,0,0-1.913,2.312,6.218,6.218,0,0,0,8.114,0,1.5,1.5,0,1,0-1.913-2.312Z" transform="translate(-188.996 -356.5)" fill="#fff"/>
        <path id="Trazado_604583" data-name="Trazado 604583" d="M80.024,34.493a4.761,4.761,0,0,0,.29-9.513v-.655a16.808,16.808,0,0,0-4.963-11.971,17.082,17.082,0,0,0-2.813-2.271c.028-.292.043-.587.043-.883a9.2,9.2,0,1,0-18.4,0c0,.306.016.612.046.916a17.108,17.108,0,0,0-7.78,14.355v.507a4.761,4.761,0,0,0,.29,9.513h1.279v1.359A15.219,15.219,0,0,0,51.1,45.082a15.37,15.37,0,0,0,16.756,5.466,15.376,15.376,0,0,0,10.895-14.7V34.493Zm1.761-4.761a1.763,1.763,0,0,1-1.761,1.761H78.746V27.971h1.279A1.763,1.763,0,0,1,81.785,29.732ZM63.379,3a6.21,6.21,0,0,1,6.167,5.554A16.932,16.932,0,0,0,63.379,7.4H63.37a16.727,16.727,0,0,0-6.161,1.173A6.21,6.21,0,0,1,63.379,3ZM49.444,24.473A14.021,14.021,0,0,1,63.372,10.4h.007a13.948,13.948,0,0,1,13.935,14.5,16.358,16.358,0,0,1-5.194-1.333c-5.984-2.642-7.24-5.822-7.24-8.025a1.5,1.5,0,1,0-3,0h0c0,2.2-1.256,5.382-7.241,8.024a16.356,16.356,0,0,1-5.194,1.333v-.432Zm-2.711,7.019a1.761,1.761,0,1,1,0-3.521h1.279v3.521H46.733Zm29.012,4.36a12.367,12.367,0,0,1-24.733,0V27.736a19.3,19.3,0,0,0,4.838-1.419c3.526-1.557,6.059-3.511,7.529-5.777,1.47,2.266,4,4.22,7.529,5.777a19.3,19.3,0,0,0,4.838,1.419v8.117Z" transform="translate(-37.774)" fill="#fff"/>
        <path id="Trazado_604584" data-name="Trazado 604584" d="M428.767,402.385l-3.1-2.815a1.511,1.511,0,0,0-2.018,0l-3.1,2.815a1.5,1.5,0,0,0,2.018,2.22l.588-.534v4.9a1.5,1.5,0,1,0,3,0v-4.9l.588.534a1.5,1.5,0,0,0,2.018-2.22Z" transform="translate(-378.049 -359.258)" fill="#fff"/>
        <path id="Trazado_604585" data-name="Trazado 604585" d="M5.607,399.569a1.51,1.51,0,0,0-2.018,0l-3.1,2.815a1.5,1.5,0,1,0,2.018,2.22l.588-.534v4.9a1.5,1.5,0,1,0,3,0v-4.9l.588.534a1.5,1.5,0,1,0,2.018-2.22Z" transform="translate(0 -359.257)" fill="#fff"/>
        <path id="Trazado_604586" data-name="Trazado 604586" d="M1.5,5.351h.85V6.2a1.5,1.5,0,0,0,3,0v-.85H6.2a1.5,1.5,0,1,0,0-3h-.85V1.5a1.5,1.5,0,0,0-3,0v.85H1.5a1.5,1.5,0,0,0,0,3Z" transform="translate(0)" fill="#fff"/>
        <circle id="Elipse_5158" data-name="Elipse 5158" cx="1.639" cy="1.639" r="1.639" transform="translate(7.784 8.194)" fill="#fff"/>
        <circle id="Elipse_5159" data-name="Elipse 5159" cx="1.639" cy="1.639" r="1.639" transform="translate(1.229 14.748)" fill="#fff"/>
        <path id="Trazado_604587" data-name="Trazado 604587" d="M386.5,35.351h.85v.85a1.5,1.5,0,0,0,3,0v-.85h.85a1.5,1.5,0,0,0,0-3h-.85V31.5a1.5,1.5,0,0,0-3,0v.85h-.85a1.5,1.5,0,0,0,0,3Z" transform="translate(-346.493 -26.999)" fill="#fff"/>
        <ellipse id="Elipse_5160" data-name="Elipse 5160" cx="1.229" cy="1.639" rx="1.229" ry="1.639" transform="translate(47.113 12.29)" fill="#fff"/>
      </g>
    </g>
  </g>
</svg>
