<svg xmlns="http://www.w3.org/2000/svg" width="85" height="78" viewBox="0 0 85 78">
  <g id="Grupo_877682" data-name="Grupo 877682" transform="translate(-354 6124)">
    <g id="Grupo_877644" data-name="Grupo 877644" transform="translate(1439 -1966) rotate(180)">
      <path id="Rectángulo_47602" data-name="Rectángulo 47602" d="M0,0H67A18,18,0,0,1,85,18V60A18,18,0,0,1,67,78H0a0,0,0,0,1,0,0V0A0,0,0,0,1,0,0Z" transform="translate(1000 4080)" fill="#0273bc"/>
    </g>
    <g id="Grupo_877680" data-name="Grupo 877680">
      <path id="dentadura-postiza_1_" data-name="dentadura-postiza(1)" d="M29.412,31.442a3.027,3.027,0,0,0-1.982-.762h-6.2a3.044,3.044,0,0,0-2.033.8,3.317,3.317,0,0,0-2.16-.8H11.282a3.374,3.374,0,0,0-2.6,1.245,3.831,3.831,0,0,0-.851,2.77c.038.432.089.889.14,1.347a10.8,10.8,0,0,0-2.63,1.27A2.905,2.905,0,0,0,3.99,39.56c0,3.964,2.211,7.28,5.742,9.8,4.942,3.519,12.539,5.45,19.667,5.45s14.725-1.931,19.667-5.45c3.532-2.515,5.742-5.831,5.742-9.8a2.905,2.905,0,0,0-1.347-2.249,10.8,10.8,0,0,0-2.63-1.27c.064-.457.114-.915.14-1.347a3.831,3.831,0,0,0-.851-2.77,3.374,3.374,0,0,0-2.6-1.245H41.76a3.342,3.342,0,0,0-2.16.8,3.044,3.044,0,0,0-2.033-.8h-6.2a2.963,2.963,0,0,0-1.982.762ZM8.449,38.582a9.118,9.118,0,0,0-1.207.546,2.59,2.59,0,0,0-.559.394,1.266,1.266,0,0,0-.127.14c.038,3.113,1.88,5.654,4.675,7.635,4.574,3.252,11.612,4.98,18.193,4.98s13.632-1.728,18.193-4.98c2.782-1.982,4.637-4.523,4.675-7.635a1.266,1.266,0,0,0-.127-.14,4.822,4.822,0,0,0-.559-.394,9.118,9.118,0,0,0-1.207-.546,12.189,12.189,0,0,1-1.359,3.456,4.936,4.936,0,0,1-8.715,0A10.823,10.823,0,0,1,39.6,40.6a10.265,10.265,0,0,1-.724,1.448,4.948,4.948,0,0,1-8.715,0,8.563,8.563,0,0,1-.724-1.448,11,11,0,0,1-.724,1.448,4.948,4.948,0,0,1-8.715,0,8.563,8.563,0,0,1-.724-1.448,8.919,8.919,0,0,1-.724,1.436,4.936,4.936,0,0,1-8.715,0,11.825,11.825,0,0,1-1.359-3.456ZM21.4,49.673a29.254,29.254,0,0,0,8.029,1.334,29.253,29.253,0,0,0,8.029-1.334,1.266,1.266,0,1,0-.8-2.4,26.135,26.135,0,0,1-7.216,1.207,26.135,26.135,0,0,1-7.216-1.207,1.266,1.266,0,1,0-.8,2.4Zm16.2-16.452a.594.594,0,0,1,.445.28,1.427,1.427,0,0,1,.254,1,17.342,17.342,0,0,1-1.182,5.374c-.546,1.232-1.321,2.236-2.63,2.236s-2.084-1-2.63-2.236A17.713,17.713,0,0,1,30.669,34.5a1.494,1.494,0,0,1,.254-1,.561.561,0,0,1,.445-.279h6.2Zm-26.3,0H17.05a.837.837,0,0,1,.648.33,1.3,1.3,0,0,1,.279.94,17.858,17.858,0,0,1-1.169,5.387c-.546,1.232-1.321,2.249-2.63,2.249s-2.084-1-2.63-2.249a17.482,17.482,0,0,1-1.169-5.387,1.3,1.3,0,0,1,.279-.94.857.857,0,0,1,.648-.33Zm9.948,0h6.2a.594.594,0,0,1,.445.28,1.427,1.427,0,0,1,.254,1,17.342,17.342,0,0,1-1.182,5.374c-.546,1.232-1.321,2.236-2.63,2.236s-2.084-1-2.63-2.236A17.713,17.713,0,0,1,20.519,34.5a1.494,1.494,0,0,1,.254-1,.561.561,0,0,1,.445-.279Zm20.543,0h5.755a.837.837,0,0,1,.648.33,1.3,1.3,0,0,1,.279.94A17.858,17.858,0,0,1,47.3,39.877c-.546,1.232-1.321,2.249-2.63,2.249s-2.084-1-2.63-2.249a17.482,17.482,0,0,1-1.169-5.387,1.3,1.3,0,0,1,.279-.94.837.837,0,0,1,.648-.33ZM7.979,22.765c-.064.457-.114.915-.14,1.347a3.831,3.831,0,0,0,.851,2.77,3.374,3.374,0,0,0,2.6,1.245H17.05a3.342,3.342,0,0,0,2.16-.8,3.044,3.044,0,0,0,2.033.8h6.2a2.963,2.963,0,0,0,1.982-.762,3.027,3.027,0,0,0,1.982.762h6.2a3.044,3.044,0,0,0,2.033-.8,3.317,3.317,0,0,0,2.16.8h5.755a3.374,3.374,0,0,0,2.6-1.245,3.831,3.831,0,0,0,.851-2.77c-.038-.432-.089-.889-.14-1.347a10.8,10.8,0,0,0,2.63-1.27,2.905,2.905,0,0,0,1.347-2.249c0-3.964-2.211-7.28-5.742-9.8C44.162,5.931,36.564,4,29.437,4S14.713,5.931,9.771,9.45c-3.532,2.515-5.742,5.831-5.742,9.8a2.905,2.905,0,0,0,1.347,2.249A10.8,10.8,0,0,0,8,22.765ZM37.593,25.6h-6.2a.594.594,0,0,1-.445-.279,1.427,1.427,0,0,1-.254-1,17.342,17.342,0,0,1,1.182-5.374c.546-1.232,1.321-2.236,2.63-2.236s2.084,1,2.63,2.236a17.713,17.713,0,0,1,1.182,5.374,1.494,1.494,0,0,1-.254,1,.561.561,0,0,1-.445.279Zm-16.363,0a.594.594,0,0,1-.445-.279,1.427,1.427,0,0,1-.254-1,17.342,17.342,0,0,1,1.182-5.374c.546-1.232,1.321-2.236,2.63-2.236s2.084,1,2.63,2.236a17.713,17.713,0,0,1,1.182,5.374,1.494,1.494,0,0,1-.254,1,.561.561,0,0,1-.445.279h-6.2Zm26.3,0H41.773a.837.837,0,0,1-.648-.33,1.3,1.3,0,0,1-.279-.94,17.858,17.858,0,0,1,1.169-5.387c.546-1.232,1.321-2.249,2.63-2.249s2.084,1,2.63,2.249a17.482,17.482,0,0,1,1.169,5.387,1.3,1.3,0,0,1-.279.94.857.857,0,0,1-.648.33Zm-30.491,0H11.282a.837.837,0,0,1-.648-.33,1.3,1.3,0,0,1-.279-.94,17.858,17.858,0,0,1,1.169-5.387c.546-1.232,1.321-2.249,2.63-2.249s2.084,1,2.63,2.249a17.482,17.482,0,0,1,1.169,5.387,1.3,1.3,0,0,1-.279.94.837.837,0,0,1-.648.33Zm33.337-5.361a9.119,9.119,0,0,0,1.207-.546,2.59,2.59,0,0,0,.559-.394,1.265,1.265,0,0,0,.127-.14c-.038-3.113-1.88-5.653-4.675-7.635C43.018,8.269,35.98,6.541,29.4,6.541s-13.632,1.728-18.193,4.98C8.424,13.5,6.569,16.044,6.531,19.156a1.265,1.265,0,0,0,.127.14,4.823,4.823,0,0,0,.559.394,9.119,9.119,0,0,0,1.207.546,12.189,12.189,0,0,1,1.359-3.456,4.936,4.936,0,0,1,8.715,0,10.823,10.823,0,0,1,.724,1.436,10.264,10.264,0,0,1,.724-1.448,4.948,4.948,0,0,1,8.715,0,8.563,8.563,0,0,1,.724,1.448,11,11,0,0,1,.724-1.448,4.948,4.948,0,0,1,8.715,0,8.563,8.563,0,0,1,.724,1.448,8.919,8.919,0,0,1,.724-1.436,4.936,4.936,0,0,1,8.715,0,11.825,11.825,0,0,1,1.359,3.456Zm-28.191-8.69A26.135,26.135,0,0,1,29.4,10.34a26.135,26.135,0,0,1,7.216,1.207,1.266,1.266,0,1,0,.8-2.4,29.254,29.254,0,0,0-8.029-1.334,29.254,29.254,0,0,0-8.029,1.334,1.266,1.266,0,0,0,.8,2.4Z" transform="translate(367.01 -6114)" fill="#fff" fill-rule="evenodd"/>
    </g>
  </g>
</svg>
