<svg xmlns="http://www.w3.org/2000/svg" width="85" height="78" viewBox="0 0 85 78">
  <g id="Grupo_877689" data-name="Grupo 877689" transform="translate(-354 5661)">
    <g id="Grupo_877683" data-name="Grupo 877683">
      <g id="Grupo_877646" data-name="Grupo 877646" transform="translate(1439 -1503) rotate(180)">
        <path id="Rectángulo_47602" data-name="Rectángulo 47602" d="M0,0H67A18,18,0,0,1,85,18V60A18,18,0,0,1,67,78H0a0,0,0,0,1,0,0V0A0,0,0,0,1,0,0Z" transform="translate(1000 4080)" fill="#0273bc"/>
      </g>
    </g>
    <path id="hora" d="M21.082,48.821a2.048,2.048,0,0,1-.313-.024A24.543,24.543,0,1,1,48.859,21.215a2.037,2.037,0,1,1-4.036.548A20.47,20.47,0,1,0,21.39,44.771a2.037,2.037,0,0,1-.308,4.05ZM18.456,33.612l7.536-7.637a2.037,2.037,0,0,0,.587-1.43V9.371a2.037,2.037,0,1,0-4.073,0V23.708l-6.949,7.043a2.037,2.037,0,0,0,2.9,2.861ZM52.1,40.9a2.037,2.037,0,0,0-4.006-.739,9.666,9.666,0,1,1-6.9-11.088,2.037,2.037,0,0,0,1.1-3.923A13.749,13.749,0,1,0,52.1,40.9ZM41.1,41.928,50,33.119a2.037,2.037,0,1,0-2.865-2.9l-8.539,8.452-2.641-2.641a2.037,2.037,0,0,0-2.88,2.88l3,3a3.572,3.572,0,0,0,5.027.013Z" transform="translate(370 -5648.002)" fill="#fff"/>
  </g>
</svg>
