<svg xmlns="http://www.w3.org/2000/svg" width="188.347" height="523.404" viewBox="0 0 188.347 523.404">
  <g id="Grupo_876245" data-name="Grupo 876245" transform="translate(0 0.404)">
    <g id="Grupo_876244" data-name="Grupo 876244" transform="translate(0 0)">
      <g id="Grupo_876243" data-name="Grupo 876243" transform="translate(0)">
        <path id="Trazado_599893" data-name="Trazado 599893" d="M814.91,480.932c0,4.2,26.749,7.6,59.747,7.6s59.745-3.405,59.745-7.6-26.749-7.6-59.745-7.6S814.91,476.732,814.91,480.932Z" transform="translate(-769.932 34.463)" fill="#bbc5d4" opacity="0.52"/>
        <path id="Trazado_599894" data-name="Trazado 599894" d="M818.4,457.2l20.319.286q-2.534,11.484-5.486,23.514l-13.995-.2Z" transform="translate(-680.849 20.079)" fill="#fcc6ba"/>
        <path id="Trazado_599895" data-name="Trazado 599895" d="M845.92,455.381l21.5.3-7.79,22.521-16.023-5.654S844.465,466.062,845.92,455.381Z" transform="translate(-757.24 18.46)" fill="#fcc6ba"/>
        <path id="Trazado_599896" data-name="Trazado 599896" d="M832.948,468.391l20.19-.062s4.5,3.9,6.462,21.127l-42.2.129s-1.179-10.183,9.9-14.135Z" transform="translate(-699.77 30.007)" fill="#223242"/>
        <path id="Trazado_599897" data-name="Trazado 599897" d="M893.579,465.563s1.25,13.407-.518,18.864l-46.514.465s-2.552-11.9,27.254-19.269Z" transform="translate(-789.283 27.54)" fill="#223242"/>
        <path id="Trazado_599898" data-name="Trazado 599898" d="M837.688,472.483l2.681-6.078a28.551,28.551,0,0,0-18.253-.919l.023,7.366Z" transform="translate(-689.528 26.509)" fill="#223242"/>
        <path id="Trazado_599899" data-name="Trazado 599899" d="M860.565,469.6l1.754-6.01a9.909,9.909,0,0,0-10.28-1.362l-.276,7.361Z" transform="translate(-767.565 23.761)" fill="#223242"/>
        <path id="Trazado_599900" data-name="Trazado 599900" d="M845.5,276.842l-19.587-3.621L837.331,220.9l17.964,3.922Z" transform="translate(-711.63 -190.634)" fill="#fcc6ba"/>
        <path id="Trazado_599901" data-name="Trazado 599901" d="M861.916,207.8s-28.883-6.858-26.878,9.364,7.381,21.341,7.381,21.341Z" transform="translate(-735.333 -203.602)" fill="#223242"/>
        <path id="Trazado_599902" data-name="Trazado 599902" d="M820.567,228.076c-3.163,14.487,5.772,28.741,19.958,31.838s28.247-6.137,31.41-20.624-5.773-28.741-19.958-31.838S823.73,213.589,820.567,228.076Z" transform="translate(-717.6 -203.16)" fill="#fcc6ba"/>
        <path id="Trazado_599903" data-name="Trazado 599903" d="M824.739,216.068s-9.43,29.838,3.233,45.816a3.5,3.5,0,0,0,2.675,1.322c6.324.121,34.286-2.944,42.265-27.676Z" transform="translate(-720.649 -194.943)" fill="#fcc6ba"/>
        <path id="Trazado_599904" data-name="Trazado 599904" d="M860.12,231.1s-21.906-9.436-24.269-3.831c0,0-1.873,27.977,9.185,27.992C864.11,255.291,860.12,231.1,860.12,231.1Z" transform="translate(-735.386 -186.541)" fill="#fff"/>
        <path id="Trazado_599905" data-name="Trazado 599905" d="M844.4,223.732s-5.312,8.573-12.262,11.888" transform="translate(-712.507 -188.109)" fill="none" stroke="#fff" stroke-linecap="round" stroke-miterlimit="10" stroke-width="0.75"/>
        <path id="Trazado_599906" data-name="Trazado 599906" d="M848.05,230.532a32.569,32.569,0,0,1-17.818,15.813" transform="translate(-712.566 -182.045)" fill="none" stroke="#fff" stroke-linecap="round" stroke-miterlimit="10" stroke-width="0.75"/>
        <path id="Trazado_599907" data-name="Trazado 599907" d="M817.761,217.515s9.056,22.078,23.476,23.857c0,0,6.912-5.562,9.018-.465s-1.32,11.538-5.67,11.842c0,0,3.71,9.428,2.633,15.145,0,0,10.162-3.85,14.145-8.195,5.2-5.677,8.346-19.772,6.053-32.939C864.778,211.606,829.97,192.985,817.761,217.515Z" transform="translate(-709.101 -204.262)" fill="#223242"/>
        <path id="Trazado_599908" data-name="Trazado 599908" d="M809.486,218.469c.568-6.131,6.963-12.527,14.4-12.262,5.6.2,9.986,4.111,11.984,8.2,3.549,7.268.482,16.967-5.3,19.648C822.526,237.782,808.576,228.272,809.486,218.469Z" transform="translate(-662.573 -203.744)" fill="#223242"/>
        <path id="Trazado_599909" data-name="Trazado 599909" d="M841.484,211.521s-3.369,8.418,6.311,17.2" transform="translate(-732.521 -198.998)" fill="none" stroke="#223242" stroke-linecap="round" stroke-miterlimit="10" stroke-width="0.75"/>
        <path id="Trazado_599910" data-name="Trazado 599910" d="M817.242,218.344s-2.4-12.33,11.5-13.443" transform="translate(-668.384 -204.901)" fill="none" stroke="#223242" stroke-linecap="round" stroke-miterlimit="10" stroke-width="0.75"/>
        <path id="Trazado_599911" data-name="Trazado 599911" d="M833.288,242.754s9.907-2.323,13.422-4.514c0,0-10.064,6.772-14.059,7.54Z" transform="translate(-715.799 -175.171)" fill="#223242"/>
        <path id="Trazado_599912" data-name="Trazado 599912" d="M833.75,233.26a2.953,2.953,0,1,1-1.595-3.859A2.953,2.953,0,0,1,833.75,233.26Z" transform="translate(-694.401 -183.255)" fill="#fff"/>
        <path id="Trazado_599913" data-name="Trazado 599913" d="M823.457,312.134c31.7,0,83.378,2.4,83.378,2.4,1.307,6.142-.764,4.483,2.5,11.248a52.139,52.139,0,0,1,4.237,33.035c-.815,4.014-1.684,8.271-2.514,12.291,0,0-.45,23.6,0,38.552s5.371,41.79,8.647,55.81,5.132,26.473,4.37,43.109-10.965,81.636-10.965,81.636-7.2,9-22.18,0c0,0-1.3-93.149-4.281-103.495s-3.222-4.075-11.443-20.6c-3.713-7.463-10.887-35.237-17.635-63.451-.161,6.939-.13,13.193.208,17.9,1.657,22.986,10.539,53.822,11.424,63.912s-2.486,99.817-2.486,99.817-8.379,10.41-24.909,1.952c0,0-5.322-84.317-4.975-93.758s-18.047-38.463-22.578-63.129S813.707,334.96,823.457,312.134Z" transform="translate(-755.006 -109.278)" fill="#223242"/>
        <path id="Trazado_599914" data-name="Trazado 599914" d="M816.824,313.135a73.845,73.845,0,0,1,3.583,37.846c-3.583,21.061,3.163,89.954,11.424,110.941s8.031,53.04-3.259,129.4" transform="translate(-676.742 -108.385)" fill="none" stroke="#6588fc" stroke-linecap="round" stroke-linejoin="round" stroke-width="0.75"/>
        <line id="Línea_225" data-name="Línea 225" x1="11.875" y1="26.546" transform="translate(90.688 266.851)" fill="none" stroke="#223242" stroke-linecap="round" stroke-linejoin="round" stroke-width="0.75"/>
        <path id="Trazado_599915" data-name="Trazado 599915" d="M855.036,550.606s3.392-92.436,0-103.385-14.46-54.293-7.075-92.53" transform="translate(-749.887 -71.328)" fill="none" stroke="#6588fc" stroke-linecap="round" stroke-linejoin="round" stroke-width="0.75"/>
        <path id="Trazado_599916" data-name="Trazado 599916" d="M876.834,349.512c-10.458-17.75-11.511-20.249-25.323-52.1l11.046-5.263,18.737,23.376c2.255-3.715,16.683-25.559,20.423-40.954,5.562-22.892,28.015-27.243,28.015-27.243-1.7,9.305-7.226,19.46-10.819,23.605h0l3.021,9.029C916.416,285.4,896.873,375.489,876.834,349.512Z" transform="translate(-834.502 -167.066)" fill="#fff"/>
        <path id="Trazado_599917" data-name="Trazado 599917" d="M873.942,271.023,892.679,294.4c1.445-2.382,6.659-11.184,12.94-22.264,10.316,3.369,12.519,10.6,16.083,18.537-8.819,25.292-21.055,53.822-33.484,37.712-10.458-17.75-10.911-18.482-26.445-55.774Z" transform="translate(-845.887 -145.938)" fill="#fcc6ba"/>
        <path id="Trazado_599918" data-name="Trazado 599918" d="M817.706,283.954s14.419-30.9,13.687-31.346c0,0,3.973-3.768,29.63-7.342l1.623,6.511,15.646-3.382s22.014,3.8,33.627,15.054c0,0,1.423,25.7-1.239,38.4l-1.474,7.039c-1.952,9.33-21.248,36.529-21.248,36.529l8.791,28.743s-55.379,9.837-83.378-2.4L826.4,335.755Z" transform="translate(-744.921 -168.906)" fill="#fff"/>
        <path id="Trazado_599919" data-name="Trazado 599919" d="M900.529,303.459s20.083,47.354,20.312,71.517,4.029,95.865,4.029,95.865-58.984,19.676-109.995-6.521c0,0-10.832-115.322,25.673-172Z" transform="translate(-757.49 -126.943)" fill="#fff"/>
        <path id="Trazado_599920" data-name="Trazado 599920" d="M866.95,246.65c1.617,6.865,4.368,9.9,4.368,9.9l6.5-4.866L873.564,263.2s-14.182,36.806-16.454,47.146-32.165,138.963-2.845,206.392" transform="translate(-763.576 -167.672)" fill="none" stroke="#223242" stroke-linecap="round" stroke-linejoin="round" stroke-width="0.75"/>
        <path id="Trazado_599921" data-name="Trazado 599921" d="M845.921,243.659l-19.683,11.2,12.012,10.053,14.3-10.3S852.854,247.966,845.921,243.659Z" transform="translate(-709.51 -170.339)" fill="#fff"/>
        <path id="Trazado_599922" data-name="Trazado 599922" d="M839.62,249.331s5.878-5.819,13.121-6.271l1.177,10.685" transform="translate(-736.192 -170.873)" fill="#fff"/>
        <path id="Trazado_599923" data-name="Trazado 599923" d="M864.651,249.449l-14.3,10.3-9.289-9.428-14.826,24.61" transform="translate(-721.613 -165.176)" fill="none" stroke="#223242" stroke-linecap="round" stroke-linejoin="round" stroke-width="0.75"/>
        <rect id="Rectángulo_47536" data-name="Rectángulo 47536" width="32.953" height="15.83" rx="2.145" transform="translate(161.943 489.669) rotate(-174.786)" fill="#223242"/>
        <rect id="Rectángulo_47537" data-name="Rectángulo 47537" width="32.953" height="15.83" rx="2.145" transform="translate(81.826 467.11)" fill="#223242"/>
        <g id="Grupo_876241" data-name="Grupo 876241" transform="translate(0 89.348)">
          <path id="Trazado_599924" data-name="Trazado 599924" d="M861.183,283.275l2.568-2.036,23.764,28.673-3.835,3.04Z" transform="translate(-810.58 -226.176)" fill="#bbc5d4"/>
          <g id="Grupo_876239" data-name="Grupo 876239" transform="translate(67.677 78.222)">
            <path id="Rectángulo_47538" data-name="Rectángulo 47538" d="M0,0H11.718a0,0,0,0,1,0,0V4.006a1.067,1.067,0,0,1-1.067,1.067H1.067A1.067,1.067,0,0,1,0,4.006V0A0,0,0,0,1,0,0Z" transform="matrix(-0.784, 0.621, -0.621, -0.784, 12.333, 3.975)" fill="#bbc5d4"/>
          </g>
          <path id="Trazado_599925" data-name="Trazado 599925" d="M822.819,302.441l2.594-2.056,3.835-3.04,2.075-1.644a1.709,1.709,0,0,1,2.4.278L901.5,381.472a7.133,7.133,0,1,1-11.18,8.863l-67.779-85.493A1.708,1.708,0,0,1,822.819,302.441Z" transform="translate(-752.313 -213.609)" fill="#bbc5d4"/>
          <line id="Línea_226" data-name="Línea 226" x2="72.325" y2="92.275" transform="translate(75.704 85.61)" fill="none" stroke="#223242" stroke-linecap="round" stroke-linejoin="round" stroke-width="0.387"/>
          <g id="Grupo_876240" data-name="Grupo 876240" transform="translate(140.591 170.81)">
            <path id="Rectángulo_47539" data-name="Rectángulo 47539" d="M1.893,0h8.943a1.893,1.893,0,0,1,1.893,1.893V4.368a0,0,0,0,1,0,0H0a0,0,0,0,1,0,0V1.893A1.893,1.893,0,0,1,1.893,0Z" transform="translate(12.688 3.423) rotate(141.593)" fill="#bbc5d4"/>
          </g>
          <ellipse id="Elipse_5061" data-name="Elipse 5061" cx="28.868" cy="24.055" rx="28.868" ry="24.055" transform="matrix(-0.621, -0.784, 0.784, -0.621, 35.869, 75.131)" fill="#909ab5"/>
          <path id="Trazado_599926" data-name="Trazado 599926" d="M876.957,294.937c8.2,10.338,21.827,13.184,30.442,6.352s8.956-20.75.759-31.091-21.827-13.183-30.444-6.352S868.759,284.6,876.957,294.937Z" transform="translate(-855.773 -245.002)" fill="#fff" opacity="0.5"/>
          <path id="Trazado_599927" data-name="Trazado 599927" d="M879.233,294.937c-8.2-10.34-7.858-24.26.757-31.091s22.247-3.986,30.444,6.352c.59.745,1.124,1.513,1.627,2.293-4.814-1.353-9.379-1.487-13.015.9-9.109,5.98-5.471,23.166-7.336,30.453A26.938,26.938,0,0,1,879.233,294.937Z" transform="translate(-858.049 -245.002)" fill="#fff" opacity="0.5"/>
        </g>
        <path id="Trazado_599928" data-name="Trazado 599928" d="M827.76,351.336c-.32-.026,4.485-5.5,9.063-10.8-2.37-12.192-19.031-84.01,2.684-85.66,0,0,19.158,21.588,21.327,76.439.059.458-.025,15.068-.029,15.068-.463,5.121-31.2,37-48.672,47.233-3.343-3.254-6.579-6.617-9.846-9.947Z" transform="translate(-672.509 -160.335)" fill="#fff"/>
        <path id="Trazado_599929" data-name="Trazado 599929" d="M802.288,352.858l25.472-32.335c-.32-.026,4.485-5.5,9.063-10.8-.407-2.09-1.237-5.908-2.219-10.76,12.76-8.783,19.755-9.78,25.472-9.489.342,3.513.607,7.175.759,11.029.059.456-.025,15.068-.029,15.068-.463,5.121-31.2,37-48.672,47.233C808.792,359.551,805.555,356.187,802.288,352.858Z" transform="translate(-672.509 -129.521)" fill="#fcc6ba"/>
        <g id="Grupo_876242" data-name="Grupo 876242" transform="translate(90.687 202.856)">
          <path id="Trazado_599930" data-name="Trazado 599930" d="M848.418,329.706s-10.011-9.8-11.8-15.45-5.681,1.2-3.38,6.5,4.164,9.317,4.164,9.317l-9.863,2.334s-5.957,12.421,14.385,17.4l15.3-6.886S855.063,332.589,848.418,329.706Z" transform="translate(-805.786 -312.134)" fill="#6588fc"/>
          <path id="Trazado_599931" data-name="Trazado 599931" d="M860.947,322.6s-13.344,1.29-14.8,1.324c-6.689.155-7.4,3.961-4.092,3.846,5.11-.18,21.3.312,21.3.312Z" transform="translate(-837.281 -302.798)" fill="#6588fc"/>
          <path id="Trazado_599932" data-name="Trazado 599932" d="M864.009,331.129s-25,3.057-24.757,1.547,4.533-4.355,8.619-4.754c6.311-.617,19.118-2.781,19.118-2.781Z" transform="translate(-839.25 -300.535)" fill="#6588fc"/>
          <path id="Trazado_599933" data-name="Trazado 599933" d="M859.621,333.8s-22.8,4.285-22.744,2.787,3.714-4.517,7.453-5.119c5.772-.927,17.389-3.712,17.389-3.712Z" transform="translate(-829.489 -298.203)" fill="#6588fc"/>
          <path id="Trazado_599934" data-name="Trazado 599934" d="M851.483,333.844s-17.689,10.3-18.083,9.035,1.752-4.852,4.682-6.456c4.525-2.478,13.358-8.223,13.358-8.223Z" transform="translate(-812.589 -297.808)" fill="#6588fc"/>
          <path id="Trazado_599935" data-name="Trazado 599935" d="M831.55,341.514s9.033-3.216,12.68-5.025c4.062-2.013-7.342-18.393-13.411-20.448s-1.92,4.336-9.228,6.9Z" transform="translate(-783.943 -309.007)" fill="#6588fc"/>
          <path id="Trazado_599936" data-name="Trazado 599936" d="M841.28,319.221s2.6,6.156-6.574,6.81l13.35.45Z" transform="translate(-811.722 -305.814)" fill="#6588fc"/>
        </g>
        <line id="Línea_227" data-name="Línea 227" x1="6.52" y1="23.572" transform="translate(151.829 128.397)" fill="none" stroke="#223242" stroke-linecap="round" stroke-linejoin="round" stroke-width="0.75"/>
        <path id="Trazado_599937" data-name="Trazado 599937" d="M866.046,310.82s-8.089-8.4-8.1-17.41c-.013-8.356,8.961-18.123,8.961-18.123l.971-14.1" transform="translate(-784.82 -154.707)" fill="#fff" stroke="#223242" stroke-linecap="round" stroke-linejoin="round" stroke-width="0.75"/>
        <path id="Trazado_599938" data-name="Trazado 599938" d="M862.524,287.425a40.643,40.643,0,0,1-32.555,3.8" transform="translate(-726.541 -131.312)" fill="#fff" stroke="#223242" stroke-linecap="round" stroke-linejoin="round" stroke-width="0.75"/>
        <rect id="Rectángulo_47540" data-name="Rectángulo 47540" width="18" height="6.411" transform="translate(135.643 136.743) rotate(-165.529)" fill="#6588fc"/>
        <path id="Trazado_599939" data-name="Trazado 599939" d="M838.465,471.165a12.893,12.893,0,0,0-11.526,0" transform="translate(-696.751 31.298)" fill="none" stroke="#fff" stroke-linecap="round" stroke-miterlimit="10" stroke-width="0.75"/>
        <path id="Trazado_599940" data-name="Trazado 599940" d="M840.052,472.933a12.886,12.886,0,0,0-11.526,0" transform="translate(-701.34 32.873)" fill="none" stroke="#fff" stroke-linecap="round" stroke-miterlimit="10" stroke-width="0.75"/>
        <path id="Trazado_599941" data-name="Trazado 599941" d="M866.006,468.468a13.41,13.41,0,0,0-7.631-1.271" transform="translate(-783.76 28.892)" fill="none" stroke="#fff" stroke-linecap="round" stroke-miterlimit="10" stroke-width="0.75"/>
        <path id="Trazado_599942" data-name="Trazado 599942" d="M862.665,467.41a13.421,13.421,0,0,0-7.633-1.271" transform="translate(-774.095 27.948)" fill="none" stroke="#fff" stroke-linecap="round" stroke-miterlimit="10" stroke-width="0.75"/>
      </g>
      <path id="Trazado_599943" data-name="Trazado 599943" d="M880.162,262.72c1.254-1.839,2.145-2.145,2.145-2.145s.957.165,3.214-1.341,2.44-.153,3.191-.8,5.181-1.194,5.543-1.445a19.589,19.589,0,0,1,2.9-.751s-.5-1.672-.668-2.592.668-.919,1.421-.585a40.8,40.8,0,0,0,6.685.753c1.088,0,1.839,1.687,1.839,1.687l3.613,8.174a27.62,27.62,0,0,0-6.9-1.621l-.851-2.385-.8-.938c-.356-.414-.738,4.625-.738,4.625l.878.866c1.22,1.9.551,6.585.793,7.31.25.751-3.259,1.754-3.259,1.754a4.871,4.871,0,0,1-3.093,1.839c-1.756.085-2.675-3.259-3.008-3.509a12.909,12.909,0,0,1-1.254-2.257l-.168,2.841a4.97,4.97,0,0,1-2.841,0c-1.169-.5-1.421-2.675-1.5-3.509s-1.266-1.1-1.266-1.1,1.322,4.366.235,4.449-2.928-1.326-2.928-1.326l-.825,1.273S878.908,264.559,880.162,262.72Z" transform="translate(-868.512 -162.136)" fill="#6588fc"/>
    </g>
  </g>
</svg>
