<svg xmlns="http://www.w3.org/2000/svg" width="85.523" height="139" viewBox="0 0 85.523 139">
  <g id="Grupo_158485" data-name="Grupo 158485" transform="translate(-285 -571)">
    <g id="Grupo_156356" data-name="Grupo 156356" transform="translate(285 639.037)">
      <g id="Grupo_156332" data-name="Grupo 156332" transform="translate(0.001)">
        <path id="Trazado_99257" data-name="Trazado 99257" d="M418.688,104.917a2.239,2.239,0,1,1-2.238-2.138A2.19,2.19,0,0,1,418.688,104.917Z" transform="translate(-414.214 -102.779)" fill="#13c6cc"/>
        <path id="Trazado_116526" data-name="Trazado 116526" d="M418.688,104.917a2.239,2.239,0,1,1-2.238-2.138A2.19,2.19,0,0,1,418.688,104.917Z" transform="translate(-363.559 -102.779)" fill="#13c6cc"/>
        <path id="Trazado_99258" data-name="Trazado 99258" d="M427.134,104.917a2.239,2.239,0,1,1-2.236-2.138A2.189,2.189,0,0,1,427.134,104.917Z" transform="translate(-412.529 -102.779)" fill="#13c6cc"/>
        <path id="Trazado_116527" data-name="Trazado 116527" d="M427.134,104.917a2.239,2.239,0,1,1-2.236-2.138A2.189,2.189,0,0,1,427.134,104.917Z" transform="translate(-361.873 -102.779)" fill="#13c6cc"/>
        <path id="Trazado_99259" data-name="Trazado 99259" d="M435.58,104.917a2.239,2.239,0,1,1-2.236-2.138A2.189,2.189,0,0,1,435.58,104.917Z" transform="translate(-410.844 -102.779)" fill="#13c6cc"/>
        <path id="Trazado_116531" data-name="Trazado 116531" d="M435.58,104.917a2.239,2.239,0,1,1-2.236-2.138A2.189,2.189,0,0,1,435.58,104.917Z" transform="translate(-360.189 -102.779)" fill="#13c6cc"/>
        <path id="Trazado_99260" data-name="Trazado 99260" d="M444.027,104.917a2.239,2.239,0,1,1-2.238-2.138A2.19,2.19,0,0,1,444.027,104.917Z" transform="translate(-409.16 -102.779)" fill="#13c6cc"/>
        <path id="Trazado_116532" data-name="Trazado 116532" d="M444.027,104.917a2.239,2.239,0,1,1-2.238-2.138A2.19,2.19,0,0,1,444.027,104.917Z" transform="translate(-358.504 -102.779)" fill="#13c6cc"/>
        <path id="Trazado_99261" data-name="Trazado 99261" d="M452.473,104.917a2.239,2.239,0,1,1-2.236-2.138A2.189,2.189,0,0,1,452.473,104.917Z" transform="translate(-407.475 -102.779)" fill="#13c6cc"/>
      </g>
      <g id="Grupo_156331" data-name="Grupo 156331" transform="translate(0 11.112)">
        <ellipse id="Elipse_3975" data-name="Elipse 3975" cx="2.237" cy="2.139" rx="2.237" ry="2.139" transform="translate(0 0.001)" fill="#13c6cc"/>
        <ellipse id="Elipse_4742" data-name="Elipse 4742" cx="2.237" cy="2.139" rx="2.237" ry="2.139" transform="translate(50.656 0.001)" fill="#13c6cc"/>
        <path id="Trazado_99268" data-name="Trazado 99268" d="M427.134,112.425a2.239,2.239,0,1,1-2.236-2.138A2.19,2.19,0,0,1,427.134,112.425Z" transform="translate(-412.529 -110.287)" fill="#13c6cc"/>
        <path id="Trazado_116528" data-name="Trazado 116528" d="M427.134,112.425a2.239,2.239,0,1,1-2.236-2.138A2.19,2.19,0,0,1,427.134,112.425Z" transform="translate(-361.873 -110.287)" fill="#13c6cc"/>
        <ellipse id="Elipse_3976" data-name="Elipse 3976" cx="2.237" cy="2.139" rx="2.237" ry="2.139" transform="translate(20.262 0.001)" fill="#13c6cc"/>
        <ellipse id="Elipse_4743" data-name="Elipse 4743" cx="2.237" cy="2.139" rx="2.237" ry="2.139" transform="translate(70.918 0.001)" fill="#13c6cc"/>
        <path id="Trazado_99269" data-name="Trazado 99269" d="M444.027,112.425a2.239,2.239,0,1,1-2.238-2.138A2.191,2.191,0,0,1,444.027,112.425Z" transform="translate(-409.16 -110.287)" fill="#13c6cc"/>
        <path id="Trazado_116533" data-name="Trazado 116533" d="M444.027,112.425a2.239,2.239,0,1,1-2.238-2.138A2.191,2.191,0,0,1,444.027,112.425Z" transform="translate(-358.504 -110.287)" fill="#13c6cc"/>
        <path id="Trazado_99270" data-name="Trazado 99270" d="M452.473,112.425a2.239,2.239,0,1,1-2.236-2.138A2.19,2.19,0,0,1,452.473,112.425Z" transform="translate(-407.475 -110.287)" fill="#13c6cc"/>
      </g>
      <g id="Grupo_156330" data-name="Grupo 156330" transform="translate(0.001 22.227)">
        <path id="Trazado_99274" data-name="Trazado 99274" d="M418.688,119.934a2.239,2.239,0,1,1-2.238-2.14A2.191,2.191,0,0,1,418.688,119.934Z" transform="translate(-414.214 -117.794)" fill="#13c6cc"/>
        <path id="Trazado_116529" data-name="Trazado 116529" d="M418.688,119.934a2.239,2.239,0,1,1-2.238-2.14A2.191,2.191,0,0,1,418.688,119.934Z" transform="translate(-363.559 -117.794)" fill="#13c6cc"/>
        <path id="Trazado_99275" data-name="Trazado 99275" d="M427.134,119.934a2.239,2.239,0,1,1-2.236-2.14A2.19,2.19,0,0,1,427.134,119.934Z" transform="translate(-412.529 -117.794)" fill="#13c6cc"/>
        <path id="Trazado_116530" data-name="Trazado 116530" d="M427.134,119.934a2.239,2.239,0,1,1-2.236-2.14A2.19,2.19,0,0,1,427.134,119.934Z" transform="translate(-361.873 -117.794)" fill="#13c6cc"/>
        <path id="Trazado_99276" data-name="Trazado 99276" d="M435.58,119.934a2.239,2.239,0,1,1-2.236-2.14A2.191,2.191,0,0,1,435.58,119.934Z" transform="translate(-410.844 -117.794)" fill="#13c6cc"/>
        <path id="Trazado_116534" data-name="Trazado 116534" d="M435.58,119.934a2.239,2.239,0,1,1-2.236-2.14A2.191,2.191,0,0,1,435.58,119.934Z" transform="translate(-360.189 -117.794)" fill="#13c6cc"/>
        <path id="Trazado_99277" data-name="Trazado 99277" d="M444.027,119.934a2.239,2.239,0,1,1-2.238-2.14A2.191,2.191,0,0,1,444.027,119.934Z" transform="translate(-409.16 -117.794)" fill="#13c6cc"/>
        <path id="Trazado_116535" data-name="Trazado 116535" d="M444.027,119.934a2.239,2.239,0,1,1-2.238-2.14A2.191,2.191,0,0,1,444.027,119.934Z" transform="translate(-358.504 -117.794)" fill="#13c6cc"/>
        <path id="Trazado_99278" data-name="Trazado 99278" d="M452.473,119.934a2.239,2.239,0,1,1-2.236-2.14A2.19,2.19,0,0,1,452.473,119.934Z" transform="translate(-407.475 -117.794)" fill="#13c6cc"/>
      </g>
      <g id="Grupo_156327" data-name="Grupo 156327" transform="translate(0.001 55.569)">
        <path id="Trazado_116550" data-name="Trazado 116550" d="M418.688,119.934a2.239,2.239,0,1,1-2.238-2.14A2.191,2.191,0,0,1,418.688,119.934Z" transform="translate(-414.214 -117.794)" fill="#13c6cc"/>
        <path id="Trazado_116551" data-name="Trazado 116551" d="M418.688,119.934a2.239,2.239,0,1,1-2.238-2.14A2.191,2.191,0,0,1,418.688,119.934Z" transform="translate(-363.559 -117.794)" fill="#13c6cc"/>
        <path id="Trazado_116552" data-name="Trazado 116552" d="M427.134,119.934a2.239,2.239,0,1,1-2.236-2.14A2.19,2.19,0,0,1,427.134,119.934Z" transform="translate(-412.529 -117.794)" fill="#13c6cc"/>
        <path id="Trazado_116553" data-name="Trazado 116553" d="M427.134,119.934a2.239,2.239,0,1,1-2.236-2.14A2.19,2.19,0,0,1,427.134,119.934Z" transform="translate(-361.873 -117.794)" fill="#13c6cc"/>
        <path id="Trazado_116554" data-name="Trazado 116554" d="M435.58,119.934a2.239,2.239,0,1,1-2.236-2.14A2.191,2.191,0,0,1,435.58,119.934Z" transform="translate(-410.844 -117.794)" fill="#13c6cc"/>
        <path id="Trazado_116555" data-name="Trazado 116555" d="M435.58,119.934a2.239,2.239,0,1,1-2.236-2.14A2.191,2.191,0,0,1,435.58,119.934Z" transform="translate(-360.189 -117.794)" fill="#13c6cc"/>
        <path id="Trazado_116556" data-name="Trazado 116556" d="M444.027,119.934a2.239,2.239,0,1,1-2.238-2.14A2.191,2.191,0,0,1,444.027,119.934Z" transform="translate(-409.16 -117.794)" fill="#13c6cc"/>
        <path id="Trazado_116557" data-name="Trazado 116557" d="M444.027,119.934a2.239,2.239,0,1,1-2.238-2.14A2.191,2.191,0,0,1,444.027,119.934Z" transform="translate(-358.504 -117.794)" fill="#13c6cc"/>
        <path id="Trazado_116558" data-name="Trazado 116558" d="M452.473,119.934a2.239,2.239,0,1,1-2.236-2.14A2.19,2.19,0,0,1,452.473,119.934Z" transform="translate(-407.475 -117.794)" fill="#13c6cc"/>
      </g>
      <g id="Grupo_156329" data-name="Grupo 156329" transform="translate(0 33.341)">
        <ellipse id="Elipse_3980" data-name="Elipse 3980" cx="2.237" cy="2.139" rx="2.237" ry="2.139" transform="translate(0 0.002)" fill="#13c6cc"/>
        <ellipse id="Elipse_4744" data-name="Elipse 4744" cx="2.237" cy="2.139" rx="2.237" ry="2.139" transform="translate(50.656 0.002)" fill="#13c6cc"/>
        <path id="Trazado_99285" data-name="Trazado 99285" d="M427.134,127.442a2.239,2.239,0,1,1-2.236-2.14A2.189,2.189,0,0,1,427.134,127.442Z" transform="translate(-412.529 -125.302)" fill="#13c6cc"/>
        <path id="Trazado_116536" data-name="Trazado 116536" d="M427.134,127.442a2.239,2.239,0,1,1-2.236-2.14A2.189,2.189,0,0,1,427.134,127.442Z" transform="translate(-361.873 -125.302)" fill="#13c6cc"/>
        <ellipse id="Elipse_3981" data-name="Elipse 3981" cx="2.237" cy="2.139" rx="2.237" ry="2.139" transform="translate(20.262 0.002)" fill="#13c6cc"/>
        <ellipse id="Elipse_4745" data-name="Elipse 4745" cx="2.237" cy="2.139" rx="2.237" ry="2.139" transform="translate(70.918 0.002)" fill="#13c6cc"/>
        <path id="Trazado_99286" data-name="Trazado 99286" d="M444.027,127.442a2.239,2.239,0,1,1-2.238-2.14A2.189,2.189,0,0,1,444.027,127.442Z" transform="translate(-409.16 -125.302)" fill="#13c6cc"/>
        <path id="Trazado_116537" data-name="Trazado 116537" d="M444.027,127.442a2.239,2.239,0,1,1-2.238-2.14A2.189,2.189,0,0,1,444.027,127.442Z" transform="translate(-358.504 -125.302)" fill="#13c6cc"/>
        <path id="Trazado_99287" data-name="Trazado 99287" d="M452.473,127.442a2.239,2.239,0,1,1-2.236-2.14A2.189,2.189,0,0,1,452.473,127.442Z" transform="translate(-407.475 -125.302)" fill="#13c6cc"/>
      </g>
      <g id="Grupo_156326" data-name="Grupo 156326" transform="translate(0 66.684)">
        <ellipse id="Elipse_4754" data-name="Elipse 4754" cx="2.237" cy="2.139" rx="2.237" ry="2.139" transform="translate(0 0.001)" fill="#13c6cc"/>
        <ellipse id="Elipse_4750" data-name="Elipse 4750" cx="2.237" cy="2.139" rx="2.237" ry="2.139" transform="translate(50.656 0.001)" fill="#13c6cc"/>
        <path id="Trazado_116548" data-name="Trazado 116548" d="M427.134,127.442a2.239,2.239,0,1,1-2.236-2.14A2.189,2.189,0,0,1,427.134,127.442Z" transform="translate(-412.529 -125.302)" fill="#13c6cc"/>
        <path id="Trazado_116542" data-name="Trazado 116542" d="M427.134,127.442a2.239,2.239,0,1,1-2.236-2.14A2.189,2.189,0,0,1,427.134,127.442Z" transform="translate(-361.873 -125.302)" fill="#13c6cc"/>
        <ellipse id="Elipse_4751" data-name="Elipse 4751" cx="2.237" cy="2.139" rx="2.237" ry="2.139" transform="translate(20.262 0.001)" fill="#13c6cc"/>
        <ellipse id="Elipse_4752" data-name="Elipse 4752" cx="2.237" cy="2.139" rx="2.237" ry="2.139" transform="translate(70.918 0.001)" fill="#13c6cc"/>
        <path id="Trazado_116543" data-name="Trazado 116543" d="M444.027,127.442a2.239,2.239,0,1,1-2.238-2.14A2.189,2.189,0,0,1,444.027,127.442Z" transform="translate(-409.16 -125.302)" fill="#13c6cc"/>
        <path id="Trazado_116544" data-name="Trazado 116544" d="M444.027,127.442a2.239,2.239,0,1,1-2.238-2.14A2.189,2.189,0,0,1,444.027,127.442Z" transform="translate(-358.504 -125.302)" fill="#13c6cc"/>
        <path id="Trazado_116545" data-name="Trazado 116545" d="M452.473,127.442a2.239,2.239,0,1,1-2.236-2.14A2.189,2.189,0,0,1,452.473,127.442Z" transform="translate(-407.475 -125.302)" fill="#13c6cc"/>
      </g>
      <g id="Grupo_156328" data-name="Grupo 156328" transform="translate(0 44.456)">
        <ellipse id="Elipse_3985" data-name="Elipse 3985" cx="2.237" cy="2.139" rx="2.237" ry="2.139" transform="translate(0 0)" fill="#13c6cc"/>
        <ellipse id="Elipse_4746" data-name="Elipse 4746" cx="2.237" cy="2.139" rx="2.237" ry="2.139" transform="translate(50.656 0)" fill="#13c6cc"/>
        <path id="Trazado_99291" data-name="Trazado 99291" d="M427.134,134.95a2.239,2.239,0,1,1-2.236-2.14A2.189,2.189,0,0,1,427.134,134.95Z" transform="translate(-412.529 -132.81)" fill="#13c6cc"/>
        <path id="Trazado_116538" data-name="Trazado 116538" d="M427.134,134.95a2.239,2.239,0,1,1-2.236-2.14A2.189,2.189,0,0,1,427.134,134.95Z" transform="translate(-361.873 -132.81)" fill="#13c6cc"/>
        <ellipse id="Elipse_3986" data-name="Elipse 3986" cx="2.237" cy="2.139" rx="2.237" ry="2.139" transform="translate(20.262 0)" fill="#13c6cc"/>
        <ellipse id="Elipse_4747" data-name="Elipse 4747" cx="2.237" cy="2.139" rx="2.237" ry="2.139" transform="translate(70.918 0)" fill="#13c6cc"/>
        <path id="Trazado_99292" data-name="Trazado 99292" d="M444.027,134.95a2.239,2.239,0,1,1-2.238-2.14A2.189,2.189,0,0,1,444.027,134.95Z" transform="translate(-409.16 -132.81)" fill="#13c6cc"/>
        <path id="Trazado_116539" data-name="Trazado 116539" d="M444.027,134.95a2.239,2.239,0,1,1-2.238-2.14A2.189,2.189,0,0,1,444.027,134.95Z" transform="translate(-358.504 -132.81)" fill="#13c6cc"/>
        <path id="Trazado_99293" data-name="Trazado 99293" d="M452.473,134.95a2.239,2.239,0,1,1-2.236-2.14A2.189,2.189,0,0,1,452.473,134.95Z" transform="translate(-407.475 -132.81)" fill="#13c6cc"/>
      </g>
    </g>
    <g id="libro-de-derecho" transform="translate(299.93 571)">
      <path id="Trazado_598930" data-name="Trazado 598930" d="M101.373,123.366H40.5V48h60.873a1.452,1.452,0,0,1,1.449,1.449v72.467A1.454,1.454,0,0,1,101.373,123.366ZM49.2,108.871v5.8H94.125v-5.8ZM82.53,82.9V71.192H60.793V82.9a10.114,10.114,0,0,0-8.7,10.03c0,5.608,4.535,2.892,10.146,2.892l2.769.042c1.333,2.016,3.927,4.307,8.827,4.307,5.159,0,3.416-2.551,4.69-4.625l2.551.277c5.611,0,10.146,2.716,10.146-2.892a10.114,10.114,0,0,0-8.7-10.03Zm0,0" transform="translate(-32.753 -39.303)" fill="#0a5686"/>
      <path id="Trazado_598931" data-name="Trazado 598931" d="M7.747,32.7V28.348h-2.9A4.342,4.342,0,0,1,.5,24V99.366a4.343,4.343,0,0,0,4.348,4.348h2.9Zm0,0" transform="translate(0 -19.652)" fill="#0a3856"/>
      <path id="Trazado_598932" data-name="Trazado 598932" d="M11.4,429.759H74.446l.725-.723v-5.075H11.4a2.9,2.9,0,1,0,0,5.8Zm0,0" transform="translate(-6.551 -347.145)" fill="#e6e9ed"/>
      <path id="Trazado_598933" data-name="Trazado 598933" d="M102.822,1.449V73.917a1.452,1.452,0,0,1-1.449,1.449H40.5V0h60.873A1.454,1.454,0,0,1,102.822,1.449Zm-8.7,13.045V8.7H49.2v5.8Zm0,0" transform="translate(-32.753)" fill="#0273bc"/>
      <path id="Trazado_598934" data-name="Trazado 598934" d="M131.979,48a1.453,1.453,0,0,1,1.449,1.449v2.9a1.453,1.453,0,0,1-1.449,1.449H89.949A1.453,1.453,0,0,1,88.5,52.348v-2.9A1.453,1.453,0,0,1,89.949,48Zm0,0" transform="translate(-72.056 -39.303)" fill="#e6e9ed"/>
      <path id="Trazado_598935" data-name="Trazado 598935" d="M7.747,71.018v4.348h-2.9A4.342,4.342,0,0,0,.5,79.715V4.348A4.342,4.342,0,0,1,4.848,0h2.9Zm0,0" fill="#0a5686"/>
      <path id="Trazado_598936" data-name="Trazado 598936" d="M21.225,435.969a.725.725,0,1,0,0,1.449H85v-1.449Zm0,0" transform="translate(-16.376 -356.978)" fill="#ccd1d9"/>
      <path id="Trazado_598937" data-name="Trazado 598937" d="M155.658,61.449H125.225a.725.725,0,1,1,0-1.449h30.434a.725.725,0,0,1,0,1.449Zm0,0" transform="translate(-101.533 -49.129)" fill="#0a3856"/>
      <path id="Trazado_598938" data-name="Trazado 598938" d="M145.456,349.411H109.225a.725.725,0,0,1,0-1.45h36.232a.725.725,0,1,1,0,1.45Zm0,0" transform="translate(-88.432 -284.915)" fill="#0a3856"/>
      <path id="Trazado_598939" data-name="Trazado 598939" d="M176.062,365.41H157.225a.725.725,0,1,1,0-1.449h18.838a.725.725,0,1,1,0,1.449Zm0,0" transform="translate(-127.735 -298.016)" fill="#0a3856"/>
      <path id="Trazado_598940" data-name="Trazado 598940" d="M369.918,448.686a.725.725,0,1,1-.725-.725A.725.725,0,0,1,369.918,448.686Zm0,0" transform="translate(-301.298 -366.797)" fill="#e6e9ed"/>
      <path id="Trazado_598941" data-name="Trazado 598941" d="M49.2,436.7v11.6l-4.348-1.45L40.5,448.3V435.969h8.7Zm0,0" transform="translate(-32.753 -356.977)" fill="#ed5565"/>
      <path id="Trazado_598942" data-name="Trazado 598942" d="M60.5,435.969V442.5a.725.725,0,1,0,1.449,0v-6.527Zm0,0" transform="translate(-49.129 -356.978)" fill="#da4453"/>
      <g id="Grupo_158484" data-name="Grupo 158484" transform="translate(20.787 25.364)">
        <path id="Trazado_598943" data-name="Trazado 598943" d="M113.2,155.936a.738.738,0,0,1-.193-.026.726.726,0,0,1-.507-.891l3.986-14.5a.725.725,0,0,1,1.4.384l-3.986,14.5A.725.725,0,0,1,113.2,155.936Zm0,0" transform="translate(-112.47 -139.99)" fill="#edab37"/>
        <path id="Trazado_598944" data-name="Trazado 598944" d="M143.188,155.945a.725.725,0,0,1-.7-.532l-3.986-14.5a.725.725,0,1,1,1.4-.384l3.986,14.5a.725.725,0,0,1-.507.891A.789.789,0,0,1,143.188,155.945Zm0,0" transform="translate(-133.765 -139.999)" fill="#edab37"/>
        <path id="Trazado_598945" data-name="Trazado 598945" d="M179.55,145.8a5.078,5.078,0,0,1-5.073-5.073.725.725,0,1,1,1.449,0,3.627,3.627,0,0,0,3.624,3.624.725.725,0,0,1,0,1.449Zm0,0" transform="translate(-163.242 -139.998)" fill="#edab37"/>
        <path id="Trazado_598946" data-name="Trazado 598946" d="M215.2,145.8a.725.725,0,0,1,0-1.449,3.627,3.627,0,0,0,3.624-3.624.725.725,0,1,1,1.449,0A5.079,5.079,0,0,1,215.2,145.8Zm0,0" transform="translate(-195.995 -139.998)" fill="#edab37"/>
      </g>
      <path id="Trazado_598947" data-name="Trazado 598947" d="M121.9,219.992h-8.7a.725.725,0,0,0-.725.725,5.073,5.073,0,0,0,10.146,0A.725.725,0,0,0,121.9,219.992Zm0,0" transform="translate(-91.688 -180.133)" fill="#f6bb42"/>
      <path id="Trazado_598948" data-name="Trazado 598948" d="M161.293,141.449H135.2a.725.725,0,0,1,0-1.449h26.091a.725.725,0,1,1,0,1.449Zm0,0" transform="translate(-109.702 -114.634)" fill="#f6bb42"/>
      <path id="Trazado_598949" data-name="Trazado 598949" d="M283.188,155.936a.726.726,0,0,0,.7-.917l-3.986-14.5a.725.725,0,0,0-1.4.384l3.986,14.5A.725.725,0,0,0,283.188,155.936Zm0,0" transform="translate(-227.612 -114.626)" fill="#edab37"/>
      <path id="Trazado_598950" data-name="Trazado 598950" d="M253.2,155.945a.726.726,0,0,0,.7-.532l3.986-14.5a.725.725,0,0,0-1.4-.384l-3.986,14.5a.725.725,0,0,0,.507.891A.8.8,0,0,0,253.2,155.945Zm0,0" transform="translate(-206.316 -114.635)" fill="#edab37"/>
      <path id="Trazado_598951" data-name="Trazado 598951" d="M253.2,219.992h8.7a.725.725,0,0,1,.725.725,5.073,5.073,0,1,1-10.146,0A.725.725,0,0,1,253.2,219.992Zm0,0" transform="translate(-206.322 -180.133)" fill="#f6bb42"/>
      <path id="Trazado_598952" data-name="Trazado 598952" d="M207.2,214.837a.725.725,0,0,1-.725-.725v-17.4a.725.725,0,1,1,1.449,0v17.4A.725.725,0,0,1,207.2,214.837Zm0,0" transform="translate(-168.657 -160.481)" fill="#f6bb42"/>
      <path id="Trazado_598953" data-name="Trazado 598953" d="M200.651,116a2.177,2.177,0,0,0-2.174,2.174V131.22a.725.725,0,0,0,.725.725h2.9a.725.725,0,0,0,.725-.725V118.174A2.177,2.177,0,0,0,200.651,116Zm0,0" transform="translate(-162.106 -94.982)" fill="#ffce54"/>
      <path id="Trazado_598954" data-name="Trazado 598954" d="M165.383,296h11.593a2.889,2.889,0,0,1,2.9,2.9H162.484A2.9,2.9,0,0,1,165.383,296Zm0,0" transform="translate(-132.635 -242.369)" fill="#ffce54"/>
    </g>
  </g>
</svg>
