<svg xmlns="http://www.w3.org/2000/svg" width="105" height="105" viewBox="0 0 105 105">
  <g id="Grupo_877667" data-name="Grupo 877667" transform="translate(-1010 -2750)">
    <g id="Elipse_4771" data-name="Elipse 4771" transform="translate(1010 2750)" fill="#fff" stroke="#e5f1f8" stroke-width="6">
      <circle cx="52.5" cy="52.5" r="52.5" stroke="none"/>
      <circle cx="52.5" cy="52.5" r="49.5" fill="none"/>
    </g>
    <g id="tecnologia_3_" data-name="tecnologia(3)" transform="translate(1032 2771)">
      <g id="Grupo_876259" data-name="Grupo 876259" transform="translate(0.988 0.988)">
        <g id="Grupo_876248" data-name="Grupo 876248" transform="translate(40.518)">
          <path id="Trazado_599944" data-name="Trazado 599944" d="M51.882,1V8.906H42V1Z" transform="translate(-42 -1)" fill="#f0d0b4"/>
        </g>
        <g id="Grupo_876249" data-name="Grupo 876249" transform="translate(8.894)">
          <path id="Trazado_599945" data-name="Trazado 599945" d="M19.882,1V8.906H10V1Z" transform="translate(-10 -1)" fill="#f0d0b4"/>
        </g>
        <g id="Grupo_876250" data-name="Grupo 876250" transform="translate(24.706)">
          <path id="Trazado_599946" data-name="Trazado 599946" d="M35.882,1V8.906H26V1Z" transform="translate(-26 -1)" fill="#f0d0b4"/>
        </g>
        <g id="Grupo_876251" data-name="Grupo 876251" transform="translate(3.953 13.835)">
          <path id="Trazado_599947" data-name="Trazado 599947" d="M56.389,52.553H5v-33.6A3.953,3.953,0,0,1,8.953,15H52.436a3.953,3.953,0,0,1,3.953,3.953Z" transform="translate(-5 -15)" fill="#ccd1d9"/>
        </g>
        <g id="Grupo_876252" data-name="Grupo 876252" transform="translate(7.906 17.788)">
          <path id="Trazado_599948" data-name="Trazado 599948" d="M51.494,48.647H9.988A.989.989,0,0,1,9,47.659V19.988A.989.989,0,0,1,9.988,19H51.494a.989.989,0,0,1,.988.988V47.659A.989.989,0,0,1,51.494,48.647Z" transform="translate(-9 -19)" fill="#69d6f4"/>
        </g>
        <g id="Grupo_876253" data-name="Grupo 876253" transform="translate(0 51.389)">
          <path id="Trazado_599949" data-name="Trazado 599949" d="M58.318,53H2.976a1.932,1.932,0,0,0-1.393.583A1.932,1.932,0,0,0,1,54.976a5.934,5.934,0,0,0,5.929,5.929H54.365a5.938,5.938,0,0,0,5.929-5.929A1.982,1.982,0,0,0,58.318,53Z" transform="translate(-1 -53)" fill="#969faa"/>
        </g>
        <g id="Grupo_876254" data-name="Grupo 876254" transform="translate(49.412 55.342)">
          <path id="Trazado_599950" data-name="Trazado 599950" d="M51,57h3.953v3.953H51Z" transform="translate(-51 -57)" fill="#ff826e"/>
        </g>
        <g id="Grupo_876255" data-name="Grupo 876255" transform="translate(41.506 55.342)">
          <path id="Trazado_599951" data-name="Trazado 599951" d="M43,57h3.953v3.953H43Z" transform="translate(-43 -57)" fill="#ff826e"/>
        </g>
        <g id="Grupo_876256" data-name="Grupo 876256" transform="translate(22.73 51.389)">
          <path id="Trazado_599952" data-name="Trazado 599952" d="M37.835,53v1.976a1.982,1.982,0,0,1-1.976,1.976H25.976A1.982,1.982,0,0,1,24,54.976V53Z" transform="translate(-24 -53)" fill="#ff826e"/>
        </g>
        <g id="Grupo_876257" data-name="Grupo 876257" transform="translate(13.835 28.659)">
          <path id="Trazado_599953" data-name="Trazado 599953" d="M46.624,42.847v5.929H40.25v-.03a9.883,9.883,0,1,0-19.32-2.935,9.792,9.792,0,0,0,.455,2.965H15V42.847l2.51-.8a14.358,14.358,0,0,1,1.225-2.984L17.53,36.73l4.2-4.2,2.332,1.206a14.358,14.358,0,0,1,2.984-1.225l.8-2.51h5.929l.8,2.51a14.358,14.358,0,0,1,2.984,1.225l2.332-1.206,4.2,4.2-1.206,2.332a14.359,14.359,0,0,1,1.225,2.984Z" transform="translate(-15 -30)" fill="#ffc729"/>
        </g>
        <g id="Grupo_876258" data-name="Grupo 876258" transform="translate(19.765 34.588)">
          <path id="Trazado_599954" data-name="Trazado 599954" d="M40.765,45.882a9.906,9.906,0,0,1-.445,2.935v.03H33.491a3.9,3.9,0,0,0,1.344-2.965,3.953,3.953,0,1,0-7.906,0,3.9,3.9,0,0,0,1.344,2.965H21.455a9.883,9.883,0,1,1,19.31-2.965Z" transform="translate(-21 -36)" fill="#fcd770"/>
        </g>
      </g>
      <g id="Grupo_876260" data-name="Grupo 876260">
        <path id="Trazado_599955" data-name="Trazado 599955" d="M58.306,51.553h-.988V18.941A4.947,4.947,0,0,0,52.377,14H49.412v1.976h2.965a2.968,2.968,0,0,1,2.965,2.965V51.553H5.929V18.941a2.968,2.968,0,0,1,2.965-2.965h2.965V14H8.894a4.947,4.947,0,0,0-4.941,4.941V51.553H2.965A2.968,2.968,0,0,0,0,54.518a6.927,6.927,0,0,0,6.918,6.918H54.353a6.927,6.927,0,0,0,6.918-6.918A2.968,2.968,0,0,0,58.306,51.553Zm-33.6,1.976H36.565v.988a.989.989,0,0,1-.988.988H25.694a.989.989,0,0,1-.988-.988Zm20.753,5.929H43.483V57.483h1.976Zm7.906,0H51.389V57.483h1.976Zm1.976-.1V55.506H49.412v3.953H47.436V55.506H41.506v3.953H6.918a4.947,4.947,0,0,1-4.941-4.941.989.989,0,0,1,.988-.988H22.73v.988a2.968,2.968,0,0,0,2.965,2.965h9.882a2.968,2.968,0,0,0,2.965-2.965V53.53H58.306a.989.989,0,0,1,.988.988,4.95,4.95,0,0,1-3.953,4.841Z" transform="translate(0 -0.165)"/>
        <path id="Trazado_599956" data-name="Trazado 599956" d="M21.835,19.976V18H9.976A1.978,1.978,0,0,0,8,19.976V47.647a1.978,1.978,0,0,0,1.976,1.976H51.483a1.978,1.978,0,0,0,1.976-1.976V19.976A1.978,1.978,0,0,0,51.483,18H39.624v1.976H51.483V47.647H47.53V41.986l-2.7-.866a14.883,14.883,0,0,0-.908-2.2l1.3-2.519L40,31.186l-2.519,1.3a14.927,14.927,0,0,0-2.2-.908l-.868-2.7H27.043l-.866,2.7a14.883,14.883,0,0,0-2.2.908l-2.519-1.3L16.244,36.4l1.3,2.519a14.927,14.927,0,0,0-.908,2.2l-2.7.868v5.662H9.976V19.976Zm0,25.694a8.895,8.895,0,1,1,17.542,1.976H35.255a4.941,4.941,0,1,0-9.05,0H22.082A8.9,8.9,0,0,1,21.835,45.671Zm5.929,0a2.965,2.965,0,1,1,5.151,1.976H28.543a2.955,2.955,0,0,1-.778-1.976ZM15.906,43.426l2.328-.745.144-.511a12.738,12.738,0,0,1,1.139-2.764l.259-.463L18.66,36.775,21.834,33.6,24,34.717l.463-.259a12.738,12.738,0,0,1,2.764-1.139l.511-.144.744-2.327h4.488l.745,2.328.511.144a12.739,12.739,0,0,1,2.764,1.139l.463.259L39.625,33.6,42.8,36.776l-1.117,2.168.259.463a12.739,12.739,0,0,1,1.139,2.764l.144.511,2.328.744v4.221h-4.14a10.871,10.871,0,1,0-21.368,0h-4.14Z" transform="translate(-0.094 -0.212)"/>
        <path id="Trazado_599957" data-name="Trazado 599957" d="M13,4h3.953V5.976H13Z" transform="translate(-0.153 -0.047)"/>
        <path id="Trazado_599958" data-name="Trazado 599958" d="M29,4h3.953V5.976H29Z" transform="translate(-0.341 -0.047)"/>
        <path id="Trazado_599959" data-name="Trazado 599959" d="M45,4h3.953V5.976H45Z" transform="translate(-0.529 -0.047)"/>
        <path id="Trazado_599960" data-name="Trazado 599960" d="M29.941,26.683h1.976V9.882h4.941V0H25V9.882h4.941ZM26.976,1.976h7.906V7.906H26.976Z" transform="translate(-0.294)"/>
        <path id="Trazado_599961" data-name="Trazado 599961" d="M45.882,13.835H36V26.683h1.976V15.812h9.882V9.882H52.8V0H40.941V9.882h4.941ZM42.918,1.976h7.906V7.906H42.918Z" transform="translate(-0.423)"/>
        <path id="Trazado_599962" data-name="Trazado 599962" d="M13.941,15.812h9.882V26.683H25.8V13.835H15.918V9.882h4.941V0H9V9.882h4.941ZM10.976,1.976h7.906V7.906H10.976Z" transform="translate(-0.106)"/>
      </g>
    </g>
  </g>
</svg>
