<svg xmlns="http://www.w3.org/2000/svg" xmlns:xlink="http://www.w3.org/1999/xlink" width="85" height="78" viewBox="0 0 85 78">
  <defs>
    <clipPath id="clip-path">
      <rect id="Rect치ngulo_47607" data-name="Rect치ngulo 47607" width="62" height="62" transform="translate(1030 4084)" fill="#f6f6f6"/>
    </clipPath>
  </defs>
  <g id="Grupo_876721" data-name="Grupo 876721" transform="translate(-1020 -4076)">
    <path id="Rect치ngulo_47602" data-name="Rect치ngulo 47602" d="M0,0H67A18,18,0,0,1,85,18V60A18,18,0,0,1,67,78H0a0,0,0,0,1,0,0V0A0,0,0,0,1,0,0Z" transform="translate(1020 4076)" fill="#0273bc"/>
    <g id="Enmascarar_grupo_76" data-name="Enmascarar grupo 76" clip-path="url(#clip-path)">
      <g id="manzana" transform="translate(1030 4084)">
        <path id="Trazado_601999" data-name="Trazado 601999" d="M56.852,30.485a3.026,3.026,0,0,1-2.817-3,1.816,1.816,0,0,0-1.816-1.816,3.031,3.031,0,0,1-3.027-3.027,2.974,2.974,0,0,1,.427-1.513,1.816,1.816,0,0,0-1.6-2.732c-.045,0-.087,0-.125.006a2.987,2.987,0,0,1-2.856-3.716,1.816,1.816,0,0,0-1.583-2.221,15.853,15.853,0,0,0-9.958,2.17A15.366,15.366,0,0,1,47.908,3.633a1.816,1.816,0,0,0,0-3.633A18.353,18.353,0,0,0,34.665,5.672q-.154.159-.3.32A9.757,9.757,0,0,0,25.476.242H20.19a1.816,1.816,0,0,0-1.816,1.816A9.757,9.757,0,0,0,28.119,11.8h2.518a19.008,19.008,0,0,0-1.056,3.5,15.592,15.592,0,0,0-4.137-2.132,16.316,16.316,0,0,0-8.14-.554A15.988,15.988,0,0,0,6.143,20.159c-2.55,4.261-3.3,9.888-2.177,16.273A41.507,41.507,0,0,0,11.972,54.5c3.882,4.889,8.2,7.5,12.334,7.5a9.661,9.661,0,0,0,1.679-.146,10.005,10.005,0,0,0,3.889-1.607,2.044,2.044,0,0,1,2.305,0,10.005,10.005,0,0,0,3.889,1.607c4.624.815,9.6-1.795,14.013-7.35a41.505,41.505,0,0,0,8.005-18.072,33.068,33.068,0,0,0,.453-4.039,1.816,1.816,0,0,0-1.687-1.907ZM28.119,8.171a6.124,6.124,0,0,1-5.837-4.3h3.194a6.124,6.124,0,0,1,5.838,4.3ZM54.509,35.8a38.3,38.3,0,0,1-7.273,16.443c-3.493,4.4-7.334,6.6-10.538,6.031a6.4,6.4,0,0,1-2.481-1.036,5.659,5.659,0,0,0-6.382,0,6.4,6.4,0,0,1-2.481,1.036c-3.2.566-7.045-1.633-10.538-6.031A38.305,38.305,0,0,1,7.544,35.8C5.67,25.171,9.651,17.66,17.935,16.2a12.328,12.328,0,0,1,11.734,4.065,1.816,1.816,0,0,0,2.716,0,12.1,12.1,0,0,1,8.965-4.253,6.677,6.677,0,0,0,4.293,5.6,6.38,6.38,0,0,0-.084,1.029A6.672,6.672,0,0,0,50.6,29.106a6.7,6.7,0,0,0,4.191,4.621C54.723,34.434,54.629,35.121,54.509,35.8Z" fill="#f6f6f6"/>
      </g>
    </g>
  </g>
</svg>
