<svg xmlns="http://www.w3.org/2000/svg" width="85" height="78" viewBox="0 0 85 78">
  <g id="Grupo_876719" data-name="Grupo 876719" transform="translate(-600 -4346)">
    <path id="Rectángulo_47604" data-name="Rectángulo 47604" d="M0,0H67A18,18,0,0,1,85,18V60A18,18,0,0,1,67,78H0a0,0,0,0,1,0,0V0A0,0,0,0,1,0,0Z" transform="translate(600 4346)" fill="#0273bc"/>
    <g id="Grupo_876710" data-name="Grupo 876710" transform="translate(420.913)">
      <g id="diente" transform="translate(263.765 4399.837) rotate(180)">
        <g id="Grupo_876708" data-name="Grupo 876708" transform="translate(22.02 0)">
          <path id="Trazado_602000" data-name="Trazado 602000" d="M62.775,8.3A11.256,11.256,0,0,0,55.7.716,15.548,15.548,0,0,0,42.765,2.466,15.548,15.548,0,0,0,29.827.716,11.257,11.257,0,0,0,22.754,8.3,16.734,16.734,0,0,0,25.5,23.319a16.159,16.159,0,0,1,2.891,6.336c.213,1.009.4,2.119.55,3.3a33.573,33.573,0,0,0,2,8.455c1.042,2.475,2.387,3.812,4,3.973.092.009.182.014.272.014,1.585,0,2.909-1.422,3.939-4.233a34.906,34.906,0,0,0,1.691-7.841,8.468,8.468,0,0,1,1.243-3.9.837.837,0,0,1,1.363,0,8.467,8.467,0,0,1,1.243,3.9,34.907,34.907,0,0,0,1.691,7.841c1.03,2.811,2.354,4.233,3.939,4.233q.135,0,.272-.014c1.61-.161,2.955-1.5,4-3.973a33.577,33.577,0,0,0,2-8.455c.152-1.18.337-2.29.55-3.3a16.191,16.191,0,0,1,2.9-6.342A16.734,16.734,0,0,0,62.775,8.3Zm-4.87,13.43a18.826,18.826,0,0,0-3.362,7.377c-.228,1.077-.425,2.257-.586,3.508-.93,7.215-2.663,10-3.613,10.125-.2-.071-.882-.727-1.616-2.9a33.729,33.729,0,0,1-1.4-6.811,10.891,10.891,0,0,0-1.717-5.145,3.49,3.49,0,0,0-5.69,0A10.893,10.893,0,0,0,38.2,33.031a33.735,33.735,0,0,1-1.4,6.811c-.734,2.171-1.417,2.828-1.616,2.9-.95-.125-2.683-2.91-3.613-10.125-.161-1.25-.358-2.43-.586-3.508a18.793,18.793,0,0,0-3.358-7.371A14.079,14.079,0,0,1,25.28,9.114a8.648,8.648,0,0,1,5.356-5.871A12.275,12.275,0,0,1,38.6,3.4a12.945,12.945,0,0,1,3.347,1.715l.819.641.82-.638A12.939,12.939,0,0,1,46.933,3.4a12.275,12.275,0,0,1,7.96-.158h0a8.648,8.648,0,0,1,5.356,5.869A14.079,14.079,0,0,1,57.905,21.73Z" transform="translate(-22.02 0)" fill="#fff"/>
        </g>
      </g>
      <g id="Grupo_876709" data-name="Grupo 876709" transform="translate(108.763 4240.667)">
        <path id="Trazado_602005" data-name="Trazado 602005" d="M106.043,175.332H90.357l-.3-.308a6.715,6.715,0,0,1-1.4-2.173l-.042-.13a1.743,1.743,0,0,1,.326-1.7c.616-.617,1.6-.529,2.88-.206a2.964,2.964,0,0,0,.516.081,3.089,3.089,0,0,1-1.748-2.656,2.861,2.861,0,0,1,1.674-2.985c2-1.1,5.458-1.127,6.737-.042a1.871,1.871,0,0,1,.7,1.437c.3-.088.7-.214,1.224-.394a3.328,3.328,0,0,1,3.3.4c2.366,1.865,1.953,7.168,1.9,7.767Zm-14.81-2h12.949c.033-1.738-.2-4.322-1.192-5.1-.215-.171-.594-.364-1.422-.084-2.12.721-3.044.954-3.672.358a1.4,1.4,0,0,1-.259-1.494,1.563,1.563,0,0,0,.068-.316,6.113,6.113,0,0,0-4.472.308c-.739.409-.685.79-.662.952.164,1.146.548,1.183,1.313,1.256a1.864,1.864,0,0,1,1.519.689,1.521,1.521,0,0,1-.088,1.749,3.739,3.739,0,0,1-3.976,1.1c-.235-.059-.425-.1-.581-.128A4.838,4.838,0,0,0,91.233,173.332Z" fill="#fff"/>
        <path id="Trazado_602006" data-name="Trazado 602006" d="M127.818,175.333H113.79v-2h3.855a3.642,3.642,0,0,1-1.323-.876,3.151,3.151,0,0,0-1.711-.953.829.829,0,0,0-.71.152,3.348,3.348,0,0,0-.9,1.676h.786v2h-2.709l-.227-.684a6.507,6.507,0,0,1,1.339-4.111,2.89,2.89,0,0,1,2.779-1,5.068,5.068,0,0,1,2.7,1.445c.607.557.656.6,1.388.237a3.958,3.958,0,0,1,2.413-.654c.047.013.177-.02.6-.263a10.574,10.574,0,0,0,.918-.6,2.188,2.188,0,0,1,3.114.01c1.664,1.207,1.712,4.275,1.712,4.621Zm-8.7-2h6.619a3.351,3.351,0,0,0-.805-2,2.581,2.581,0,0,0-.4-.254c-.093.054-.251.165-.383.259-.278.2-.621.437-1.082.7a2.677,2.677,0,0,1-1.834.514c-.1-.011-.3-.035-1.279.456A4.588,4.588,0,0,1,119.117,173.333Z" fill="#fff"/>
        <path id="Trazado_602007" data-name="Trazado 602007" d="M109.369,170.353a2.77,2.77,0,0,1-2.016-.966c-1.045-1.093-2.024-3.82-1.117-5.442a2.42,2.42,0,0,1,2.875-1.061h0c.318.068.631.132.936.194,2.088.425,3.737.761,4.168,2.059a2.725,2.725,0,0,1-.856,2.516c-1.476,1.651-2.652,2.678-3.949,2.7Zm-1.056-5.562c-.171,0-.283.044-.332.131-.337.6.127,2.362.817,3.082.335.35.5.349.579.349.684-.011,2.045-1.534,2.492-2.034a2.487,2.487,0,0,0,.4-.555,11.005,11.005,0,0,0-2.623-.726c-.312-.063-.633-.129-.959-.2h0A1.811,1.811,0,0,0,108.313,164.791Z" fill="#fff"/>
        <path id="Trazado_602008" data-name="Trazado 602008" d="M131.622,175.253a2.847,2.847,0,0,1-2.045-.61,1.882,1.882,0,0,1-.545-1.453,3.242,3.242,0,0,1,1.917-2.828,1.731,1.731,0,0,1,1.964.86l.264.4c.634.957,1.232,1.86.792,2.737a1.766,1.766,0,0,1-1.627.869C132.1,175.242,131.86,175.253,131.622,175.253Zm-.589-2.045a3.775,3.775,0,0,0,.815.04c-.112-.178-.237-.367-.338-.52l-.169-.257A1.77,1.77,0,0,0,131.033,173.208Z" fill="#fff"/>
      </g>
    </g>
  </g>
</svg>
