<svg xmlns="http://www.w3.org/2000/svg" width="85" height="78" viewBox="0 0 85 78">
  <g id="Grupo_876718" data-name="Grupo 876718" transform="translate(-1020 -4346)">
    <path id="Rectángulo_47603" data-name="Rectángulo 47603" d="M0,0H67A18,18,0,0,1,85,18V60A18,18,0,0,1,67,78H0a0,0,0,0,1,0,0V0A0,0,0,0,1,0,0Z" transform="translate(1020 4346)" fill="#0273bc"/>
    <g id="Grupo_876717" data-name="Grupo 876717" transform="translate(855.73 4192.445)">
      <path id="Trazado_602016" data-name="Trazado 602016" d="M195.833,209.03l-4.947.01a4.484,4.484,0,0,1-4.478-4.483l.013-10a1.4,1.4,0,0,0-.751-1.247l-2.388-1.259,3.234-5.638a3.371,3.371,0,0,0,.446-1.673V177.92a5.806,5.806,0,0,1,1.756-4.135l.539-.521h3.319a7.614,7.614,0,0,1,7.591,7.592,1.409,1.409,0,0,0,2.817.1v-.1a10.436,10.436,0,0,0-10.409-10.415h-3.724a2.822,2.822,0,0,1-2.815-2.814l-.068-4.266h20.069a23.577,23.577,0,0,1,15.112,5.5,1.429,1.429,0,0,0,1.033.317,1.4,1.4,0,0,0,.953-.507,1.419,1.419,0,0,0-.176-1.972,26.4,26.4,0,0,0-16.922-6.157H185.969a2.757,2.757,0,0,0-2.752,2.752v4.333a5.629,5.629,0,0,0,2.842,4.894,8.564,8.564,0,0,0-1.917,5.4v6.819a.549.549,0,0,1-.073.272l-3.49,6.085a2.3,2.3,0,0,0-.228,1.757,2.347,2.347,0,0,0,1.153,1.441l2.1,1.111-.012,9.149a7.309,7.309,0,0,0,7.3,7.306h3.534v10.258a1.411,1.411,0,0,0,1.362,1.456h.047a1.429,1.429,0,0,0,1.41-1.44V210.439A1.411,1.411,0,0,0,195.833,209.03Z" fill="#fff"/>
      <path id="Trazado_602017" data-name="Trazado 602017" d="M225.884,169.563h0a1.411,1.411,0,0,0-2.124,1.859,23.621,23.621,0,0,1,5.365,19.952L225.649,191a1.41,1.41,0,1,0-.31,2.8l3.067.335a23.464,23.464,0,0,1-6.889,10.45l-4.487,3.923a.808.808,0,0,1-1.14-.078l-5.622-6.456a.816.816,0,0,1,.073-1.136l3.315-2.946a5.284,5.284,0,0,0,1.767-3.94v-1.227l5.951.645a1.41,1.41,0,1,0,.309-2.8l-6.642-.719a5.269,5.269,0,0,0-10.155,1.978v1.488l-1.9,1.356v-9.9a1.411,1.411,0,0,0-1.362-1.456,1.475,1.475,0,0,0-1.01.379,1.442,1.442,0,0,0-.447,1.06v10.7a2.419,2.419,0,0,0,3.826,1.969l3.12-2.229a1.417,1.417,0,0,0,.59-1.147v-2.2a2.43,2.43,0,0,1,.763-1.714,2.319,2.319,0,0,1,1.751-.673,2.446,2.446,0,0,1,2.385,2.374v2.128a2.453,2.453,0,0,1-.823,1.833l-3.314,2.943a3.653,3.653,0,0,0-.326,5.093l5.622,6.457a3.6,3.6,0,0,0,.763.664v11.17a1.412,1.412,0,0,0,1.364,1.456h.046a1.43,1.43,0,0,0,1.41-1.44V211.423a3.573,3.573,0,0,0,1.539-.8l4.486-3.922A26.373,26.373,0,0,0,225.884,169.563Z" fill="#fff"/>
      <path id="Trazado_602018" data-name="Trazado 602018" d="M192.969,202.074H189.14a1.41,1.41,0,0,0-1.077,2.372,1.441,1.441,0,0,0,1.06.447h3.849a5.491,5.491,0,0,1,5.475,5.474v9.289a1.413,1.413,0,0,0,1.409,1.364h.048a1.42,1.42,0,0,0,1.362-1.38v-9.272A8.31,8.31,0,0,0,192.969,202.074Z" fill="#fff"/>
      <path id="Trazado_602019" data-name="Trazado 602019" d="M194.16,197.994h-5.145a1.41,1.41,0,1,0-.017,2.819h5.16a12.482,12.482,0,0,1,12.448,12.449v6.394a1.411,1.411,0,0,0,1.411,1.364h.047a1.42,1.42,0,0,0,1.362-1.38v-6.379A15.31,15.31,0,0,0,194.16,197.994Z" fill="#fff"/>
    </g>
  </g>
</svg>
