<svg xmlns="http://www.w3.org/2000/svg" width="295" height="155.412" viewBox="0 0 295 155.412">
  <g id="Grupo_877314" data-name="Grupo 877314" transform="translate(-285 -9539.722)">
    <path id="conjunto-herramientas-metalicas-equipos-medicos-cuidado-dental_273609-13098" d="M202.755,44.355c-9.088,5.514-36.369,5.813-50.628-14.589-22.99-33.854-125.51-37.006-105.381,0,7.7,14.154-8.43,24.358-23.623,32.636C-27.6,90.036,11.7,143.85,77.468,141.262c24.02-.946,25.572-26.8,40.033-39.115C154.38,70.712,197.807,115,218.972,114.169c21.014-.827,31.217-33.331,31.74-47.609.521-14.245-6.177-36.864-31.74-29.335" transform="translate(580 9698.313) rotate(180)" fill="#13c6cc"/>
    <path id="Trazado_602947" data-name="Trazado 602947" d="M3.586,77.627l11.9,11.9A18.321,18.321,0,0,1,11.609,87.5L6.161,82.047a28.906,28.906,0,0,1-2.575-4.421M1.574,72.24l18.35,18.35q.961.107,1.966.121L.954,69.774q.272,1.249.62,2.466M.285,65.73,25.068,90.513q.779-.1,1.581-.265L.1,63.7q.07,1.021.189,2.034M0,60.225,29.344,89.569c.482-.142.962-.276,1.441-.4L.058,58.437Q.01,59.329,0,60.225m.34-4.881L33.5,88.508c.512-.111,1.024-.219,1.533-.313L.581,53.739q-.136.8-.241,1.605m.824-4.4,36.8,36.8q.835-.1,1.667-.179L1.557,49.5q-.211.719-.393,1.452M2.408,46.97,42.825,87.388q.925-.019,1.845,0L2.941,45.658q-.281.647-.534,1.312m1.634-3.586L48.26,87.6c.706.071,1.411.164,2.115.269L4.714,42.211q-.349.576-.672,1.173m2.029-3.191L54.59,88.712c.848.21,1.7.439,2.545.7L6.884,39.16q-.42.5-.813,1.033M8.51,37.411,62.481,91.383q1.737.746,3.48,1.634L9.477,36.533q-.5.423-.967.878M11.4,35.078,74.374,98.055q3.848,2.645,7.8,5.951L12.538,34.373q-.584.334-1.14.705M14.8,33.265l84.663,84.663q1.925,1.11,3.927,2.081L16.151,32.765q-.688.228-1.346.5m4.028-1.193,90.442,90.442q1.408.522,2.819.973L20.436,31.83q-.818.094-1.6.243m4.826-.395L116.778,124.8q1.188.284,2.362.517L25.608,31.781q-.995-.087-1.949-.1m5.824.6,93.673,93.673q1.04.126,2.054.208L31.678,32.631c-.721-.12-1.45-.237-2.194-.349m6.309,1.088L128.724,126.3q.916,0,1.795-.05L38.092,33.824q-1.131-.228-2.3-.454m6.558,1.337,91.229,91.229c.532-.084,1.049-.182,1.55-.3L44.683,35.195q-1.149-.238-2.333-.487m6.536,1.316,88.839,88.839c.447-.172.872-.363,1.278-.567L51.114,36.405q-1.1-.176-2.228-.382M57,37.066q-.995-.055-2-.153l86.065,86.065q.524-.408,1.022-.824Zm87.8,82.577L62.154,37q-.87.075-1.74.105l83.453,83.453q.477-.455.927-.919M66.654,36.283q-.764.182-1.524.322L146.4,117.871c.284-.338.56-.678.825-1.02Zm3.983-1.238c-.454.175-.907.339-1.356.49l79.348,79.348c.247-.376.483-.754.711-1.134Zm3.6-1.625q-.621.322-1.235.611l77.541,77.541q.312-.622.6-1.25Zm3.308-1.913q-.575.367-1.141.7l75.713,75.713q.25-.684.473-1.373Zm3.085-2.135q-.538.4-1.069.776l73.783,73.783c.126-.5.241-1,.349-1.5Zm2.917-2.3c-.341.285-.679.56-1.014.831l71.7,71.7q.13-.8.238-1.607Zm2.781-2.44c-.325.3-.648.591-.969.876l69.451,69.451q.079-.852.144-1.7ZM89,22.081c-.312.308-.624.617-.932.914L155.15,90.081q.046-.883.086-1.76Zm2.583-2.637c-.3.318-.6.636-.9.943l64.7,64.7q.039-.889.082-1.764Zm2.509-2.712c-.294.325-.588.652-.878.968l62.441,62.441q.064-.86.144-1.7Zm2.447-2.774c-.288.333-.574.663-.858.987l60.487,60.487q.123-.8.274-1.571Zm2.4-2.824c-.022.026-.045.051-.067.078-.261.314-.518.616-.777.923L157.1,71.15q.211-.707.46-1.386Zm60.3,55.079L101.474,8.457q-.476.444-.935.91L158.6,67.426c.019-.036.037-.074.056-.11.2-.369.387-.735.577-1.1M104.333,6.1c-.354.257-.7.525-1.047.8l57.066,57.066q.3-.634.582-1.264Zm3.2-2.024q-.591.326-1.169.677l55.577,55.577c.178-.444.351-.888.517-1.329ZM111.077,2.4c-.436.174-.87.355-1.3.548l53.547,53.547q.228-.709.433-1.413Zm3.935-1.285q-.725.188-1.439.407l50.889,50.89q.179-.761.331-1.515ZM119.4.28c-.539.067-1.076.145-1.609.236L165.285,48.01q.114-.829.2-1.649Zm46.3,41.076L124.343,0c-.609-.007-1.215,0-1.82.026l43.162,43.161c.016-.615.023-1.227.012-1.834M130.065.5Q129,.33,127.933.218l37.534,37.534q-.116-1.075-.286-2.132Zm7.029,1.809q-1.343-.477-2.7-.857l29.823,29.823q-.388-1.377-.874-2.719Zm19.834,14.614-8.464-8.465a42.8,42.8,0,0,0-5.247-3.4l17.255,17.255c-.06-.106-.116-.214-.177-.32a46.7,46.7,0,0,0-3.366-5.069" transform="translate(555.702 9695.134) rotate(180)" fill="#0273bc"/>
    <g id="Grupo_877307" data-name="Grupo 877307" transform="translate(28 7.972)">
      <g id="Grupo_877303" data-name="Grupo 877303" transform="translate(257 9563.625)">
        <rect id="Rectángulo_47753" data-name="Rectángulo 47753" width="10.914" height="54.979" transform="translate(49.131 63.084)" fill="#a4bac7"/>
        <rect id="Rectángulo_47754" data-name="Rectángulo 47754" width="10.914" height="54.979" transform="translate(23.703 63.084)" fill="#7b9bae"/>
        <g id="Grupo_877300" data-name="Grupo 877300" transform="translate(15.594 50.071)">
          <g id="Grupo_877299" data-name="Grupo 877299">
            <g id="Grupo_877298" data-name="Grupo 877298">
              <rect id="Rectángulo_47755" data-name="Rectángulo 47755" width="50.811" height="16.724" fill="#c4dae7"/>
            </g>
          </g>
        </g>
        <g id="Grupo_877301" data-name="Grupo 877301" transform="translate(15.594 50.071)">
          <rect id="Rectángulo_47756" data-name="Rectángulo 47756" width="18.86" height="16.724" fill="#92b1c3"/>
        </g>
        <rect id="Rectángulo_47757" data-name="Rectángulo 47757" width="50.811" height="16.724" transform="translate(15.594 50.071)" fill="none"/>
        <path id="Trazado_602934" data-name="Trazado 602934" d="M-70.883,240.224C-82.444,223.266-75.506,204-75.506,204c3.1-8.056,9.105-14.032,17.936-14.753,7.579-.619,13.815,5.443,21,5.846,7.183-.4,13.419-6.465,21-5.846,8.829.721,14.836,6.7,17.935,14.753,0,0,6.937,19.27-4.623,36.228C-2.258,240.224-32.421,253.729-70.883,240.224Z" transform="translate(77.571 -189.199)" fill="#f3eadd"/>
        <path id="Trazado_602935" data-name="Trazado 602935" d="M-70.431,240.631a54.157,54.157,0,0,0,7.272,2.352s15.462,3.219,16.753,1.1-12.161-9.056-11.588-9.575c-1.414-.967-3.046-1.6-4.377-2.683a11.047,11.047,0,0,1-3.227-4.6,32.5,32.5,0,0,1-2.644-13.211c.254-6.655,2.436-13.915,9.462-16.114,6.85-2.145,13.217.579,19.65,2.732,4.154,1.388,8.774,2.623,13.18,1.856,3.074-.534,6.415-1.934,6.7-5.3-2.912,1.52-6.773,1.338-9.881.789a16.77,16.77,0,0,1-7.485-2.888c-7.165-.43-13.39-6.461-20.953-5.843-8.831.721-14.837,6.7-17.936,14.753,0,0-6.938,19.27,4.623,36.228C-70.883,240.224-70.367,239.788-70.431,240.631Z" transform="translate(77.571 -189.199)" fill="#e4d8c6"/>
        <path id="Trazado_602936" data-name="Trazado 602936" d="M-43.155,232.379c.314.687,8.943-1.529,8.943-1.529s5.5-1.553,7.886-2.474c-.068-.856.947-.387.947-.387a38.272,38.272,0,0,0,6.225-16.136,13.725,13.725,0,0,1-.616,1.312,21.127,21.127,0,0,1-7.494,7.751c-2.184,1.378-6.139,3.709-8.013,5.457S-43.682,231.233-43.155,232.379Z" transform="translate(100.691 -176.964)" fill="#e4d8c6"/>
        <g id="Grupo_877302" data-name="Grupo 877302" transform="translate(0 0)">
          <path id="Trazado_602937" data-name="Trazado 602937" d="M-70.883,240.224C-82.444,223.266-75.506,204-75.506,204c3.1-8.056,9.105-14.032,17.936-14.753,7.579-.619,13.815,5.443,21,5.846,7.183-.4,13.419-6.465,21-5.846,8.829.721,14.836,6.7,17.935,14.753,0,0,6.937,19.27-4.623,36.228C-2.258,240.224-35.573,254.824-70.883,240.224Z" transform="translate(77.571 -189.199)" fill="none"/>
          <path id="Trazado_602938" data-name="Trazado 602938" d="M-53.805,192.451s18.414,6.541,21.648,2.045" transform="translate(90.406 -187.443)" fill="none"/>
        </g>
      </g>
      <g id="Grupo_877305" data-name="Grupo 877305" transform="translate(354.801 9564.182)">
        <path id="Trazado_602939" data-name="Trazado 602939" d="M511.734,115.612c.247,0,.492.006.735,0,.448,0,.9,0,1.341.029,16.615,1.1,14.468,33.39,14.468,33.39.74,8.1,7.668,4.969,7.668,4.969,16.622-11.9,12.409-52.117,12.409-52.117,12.409-18.2,4.963-38.878,4.963-38.88-3.324-8.648-9.772-15.061-19.247-15.834-8.138-.663-14.831,5.842-22.541,6.275-7.71-.434-14.4-6.938-22.536-6.275-9.478.773-15.924,7.186-19.25,15.834,0,0-7.446,20.68,4.963,38.88,0,0-4.212,40.221,12.407,52.117,0,0,6.928,3.134,7.669-4.969,0,0-2.146-32.288,14.467-33.39C510.079,115.589,510.908,115.605,511.734,115.612Z" transform="translate(-467.529 -47.126)" fill="#f3eadd"/>
        <path id="Trazado_602940" data-name="Trazado 602940" d="M501.678,119.212c-.306.145-.6.3-.9.471-4.754,2.806-5.4,7.74-6.625,12.67-.692,2.782-3.076,12.713-7.685,8.2-2.692-2.637-3.4-6.959-3.935-10.522a109.273,109.273,0,0,1-1.239-11.784c-.332-8.164.919-16.766,7.243-22.49-1.517-1.041-3.268-1.72-4.7-2.88a11.881,11.881,0,0,1-3.463-4.938,34.866,34.866,0,0,1-2.838-14.178c.271-7.143,2.615-14.932,10.155-17.293,7.353-2.3,14.188.624,21.089,2.933,4.46,1.489,9.42,2.815,14.148,1.991,3.3-.574,6.882-2.075,7.186-5.692-3.127,1.634-7.268,1.436-10.6.847-2.716-.479-5.8-1.31-8.033-3.1-7.691-.46-14.371-6.932-22.488-6.271-9.478.773-15.924,7.186-19.25,15.834,0,0-7.446,20.68,4.963,38.88,0,0-4.212,40.221,12.407,52.117,0,0,6.928,3.134,7.669-4.969C494.784,149.036,493.376,127.844,501.678,119.212Z" transform="translate(-467.529 -47.126)" fill="#e4d8c6"/>
        <path id="Trazado_602941" data-name="Trazado 602941" d="M538.31,72.945a14.957,14.957,0,0,1-.66,1.41,22.654,22.654,0,0,1-8.042,8.316,78.38,78.38,0,0,1-7.3,3.956c-.57.283-1.141.56-1.711.844-.554.276.014.466.409,1.056a25.935,25.935,0,0,1,2.016,3.513,40.1,40.1,0,0,1,3.2,14.877c.268,5.472.741,11.263-.364,16.667a28.661,28.661,0,0,1-2.508,7.341,9.344,9.344,0,0,1-2.946,3.893c-1.154.711-2.93,1.214-4.1.2-1.208-1.059-1.307-2.648-1.5-4.155-.457-3.52-1.126-7.108-1.928-10.567-.8-3.433-1.832-7.2-4.2-9.919a9.657,9.657,0,0,0-4-2.774c8.286,8.641,6.88,29.811,6.88,29.811.74,8.1,7.668,4.969,7.668,4.969,16.622-11.9,12.409-52.117,12.409-52.117A41.01,41.01,0,0,0,538.31,72.945Z" transform="translate(-450.803 -35.5)" fill="#e4d8c6"/>
        <g id="Grupo_877304" data-name="Grupo 877304" transform="translate(0 0)">
          <path id="Trazado_602942" data-name="Trazado 602942" d="M511.734,115.612c.247,0,.492.006.735,0,.448,0,.9,0,1.341.029,16.615,1.1,14.468,33.39,14.468,33.39.74,8.1,7.668,4.969,7.668,4.969,16.622-11.9,12.409-52.117,12.409-52.117,12.409-18.2,4.963-38.878,4.963-38.88-3.324-8.648-9.772-15.061-19.247-15.834-8.138-.663-14.831,5.842-22.541,6.275-7.71-.434-14.4-6.938-22.536-6.275-9.478.773-15.924,7.186-19.25,15.834,0,0-7.446,20.68,4.963,38.88,0,0-4.212,40.221,12.407,52.117,0,0,6.928,3.134,7.669-4.969,0,0-2.146-32.288,14.467-33.39C510.079,115.589,510.908,115.605,511.734,115.612Z" transform="translate(-467.529 -47.126)" fill="none"/>
          <path id="Trazado_602943" data-name="Trazado 602943" d="M494.614,50.832s19.762,7.021,23.234,2.194" transform="translate(-455.333 -45.458)" fill="none"/>
        </g>
      </g>
      <g id="Grupo_877306" data-name="Grupo 877306" transform="translate(463.995 9564.182)">
        <path id="Trazado_602939-2" data-name="Trazado 602939" d="M511.734,115.612c.247,0,.492.006.735,0,.448,0,.9,0,1.341.029,16.615,1.1,14.468,33.39,14.468,33.39.74,8.1,7.668,4.969,7.668,4.969,16.622-11.9,12.409-52.117,12.409-52.117,12.409-18.2,4.963-38.878,4.963-38.88-3.324-8.648-9.772-15.061-19.247-15.834-8.138-.663-14.831,5.842-22.541,6.275-7.71-.434-14.4-6.938-22.536-6.275-9.478.773-15.924,7.186-19.25,15.834,0,0-7.446,20.68,4.963,38.88,0,0-4.212,40.221,12.407,52.117,0,0,6.928,3.134,7.669-4.969,0,0-2.146-32.288,14.467-33.39C510.079,115.589,510.908,115.605,511.734,115.612Z" transform="translate(-467.529 -47.126)" fill="#f3eadd"/>
        <path id="Trazado_602940-2" data-name="Trazado 602940" d="M501.678,119.212c-.306.145-.6.3-.9.471-4.754,2.806-5.4,7.74-6.625,12.67-.692,2.782-3.076,12.713-7.685,8.2-2.692-2.637-3.4-6.959-3.935-10.522a109.273,109.273,0,0,1-1.239-11.784c-.332-8.164.919-16.766,7.243-22.49-1.517-1.041-3.268-1.72-4.7-2.88a11.881,11.881,0,0,1-3.463-4.938,34.866,34.866,0,0,1-2.838-14.178c.271-7.143,2.615-14.932,10.155-17.293,7.353-2.3,14.188.624,21.089,2.933,4.46,1.489,9.42,2.815,14.148,1.991,3.3-.574,6.882-2.075,7.186-5.692-3.127,1.634-7.268,1.436-10.6.847-2.716-.479-5.8-1.31-8.033-3.1-7.691-.46-14.371-6.932-22.488-6.271-9.478.773-15.924,7.186-19.25,15.834,0,0-7.446,20.68,4.963,38.88,0,0-4.212,40.221,12.407,52.117,0,0,6.928,3.134,7.669-4.969C494.784,149.036,493.376,127.844,501.678,119.212Z" transform="translate(-467.529 -47.126)" fill="#e4d8c6"/>
        <path id="Trazado_602941-2" data-name="Trazado 602941" d="M538.31,72.945a14.957,14.957,0,0,1-.66,1.41,22.654,22.654,0,0,1-8.042,8.316,78.38,78.38,0,0,1-7.3,3.956c-.57.283-1.141.56-1.711.844-.554.276.014.466.409,1.056a25.935,25.935,0,0,1,2.016,3.513,40.1,40.1,0,0,1,3.2,14.877c.268,5.472.741,11.263-.364,16.667a28.661,28.661,0,0,1-2.508,7.341,9.344,9.344,0,0,1-2.946,3.893c-1.154.711-2.93,1.214-4.1.2-1.208-1.059-1.307-2.648-1.5-4.155-.457-3.52-1.126-7.108-1.928-10.567-.8-3.433-1.832-7.2-4.2-9.919a9.657,9.657,0,0,0-4-2.774c8.286,8.641,6.88,29.811,6.88,29.811.74,8.1,7.668,4.969,7.668,4.969,16.622-11.9,12.409-52.117,12.409-52.117A41.01,41.01,0,0,0,538.31,72.945Z" transform="translate(-450.803 -35.5)" fill="#e4d8c6"/>
        <g id="Grupo_877304-2" data-name="Grupo 877304" transform="translate(0 0)">
          <path id="Trazado_602942-2" data-name="Trazado 602942" d="M511.734,115.612c.247,0,.492.006.735,0,.448,0,.9,0,1.341.029,16.615,1.1,14.468,33.39,14.468,33.39.74,8.1,7.668,4.969,7.668,4.969,16.622-11.9,12.409-52.117,12.409-52.117,12.409-18.2,4.963-38.878,4.963-38.88-3.324-8.648-9.772-15.061-19.247-15.834-8.138-.663-14.831,5.842-22.541,6.275-7.71-.434-14.4-6.938-22.536-6.275-9.478.773-15.924,7.186-19.25,15.834,0,0-7.446,20.68,4.963,38.88,0,0-4.212,40.221,12.407,52.117,0,0,6.928,3.134,7.669-4.969,0,0-2.146-32.288,14.467-33.39C510.079,115.589,510.908,115.605,511.734,115.612Z" transform="translate(-467.529 -47.126)" fill="none"/>
          <path id="Trazado_602943-2" data-name="Trazado 602943" d="M494.614,50.832s19.762,7.021,23.234,2.194" transform="translate(-455.333 -45.458)" fill="none"/>
        </g>
      </g>
      <g id="Grupo_877289" data-name="Grupo 877289" transform="translate(319.142 9562.771) rotate(-8)">
        <path id="Trazado_602924" data-name="Trazado 602924" d="M28.785,24.024c1.827-1.057,3.363-2.554,5.085-3.763,2.09-1.465,4.528-1.764,6.949-2.2a6.493,6.493,0,0,0,1.04-.039c1.317-.183,1.278-1.753,1.183-2.741a5.528,5.528,0,0,0-1.281-3.121,2.273,2.273,0,0,0-2.167-.545c-2.613-.092-4.124-2.21-5.683-4.117a38.419,38.419,0,0,0-3.849-4.057A14.741,14.741,0,0,0,20.526,0C16.824-.05,13.7,3.256,11.56,5.915c-1.312,1.627-2.4,3.643-4.289,4.674A5.518,5.518,0,0,1,.426,9.143C.348,9.031-.016,8.856,0,9.115.814,21,12.492,27.184,17.678,27.145A22.658,22.658,0,0,0,28.785,24.024Z" transform="translate(0 0.738)" fill="#96683e"/>
        <path id="Trazado_602925" data-name="Trazado 602925" d="M28.394,22.674c1.827-1.057,3.363-2.554,5.085-3.763,2.09-1.465,4.528-1.764,6.949-2.2a6.491,6.491,0,0,0,1.04-.039c1.317-.183,1.278-1.753,1.183-2.741a5.528,5.528,0,0,0-1.281-3.121,2.273,2.273,0,0,0-2.167-.545c-2.613-.092-4.124-2.21-5.683-4.117a38.414,38.414,0,0,0-3.849-4.057A12.093,12.093,0,0,0,26.421,0,10.039,10.039,0,0,1,31.5,5.251a.506.506,0,0,1-.7.614C27.482,4.635,23.986,2.435,20.3,3.048A11.124,11.124,0,0,0,14.509,6.02c5.817-2.779,12.718-1.5,17.749,3.106.292.267.167.9-.294.876a25.228,25.228,0,0,0-7.787.82,13.481,13.481,0,0,1,7.326.869.507.507,0,0,1,.06.863c-5.212,4.607-13.7,8.109-20.719,6.328-4-1.014-6.892-3.783-9.586-6.781A12.037,12.037,0,0,1,0,10.449C2.22,20.573,12.508,25.831,17.288,25.8A22.658,22.658,0,0,0,28.394,22.674Z" transform="translate(0.39 2.087)" fill="#96683e" style="mix-blend-mode: multiply;isolation: isolate"/>
        <path id="Trazado_602926" data-name="Trazado 602926" d="M1.056,19.176c46.5,4.874,168.731-3.06,179.466-7.894,10.861-4.892-1.1-7.942-1.1-7.942C122.391-7.024,15.337,9.842.638,12-.481,14.122.008,16.788,1.056,19.176Z" transform="translate(37.822 0)" fill="#dc985b"/>
        <path id="Trazado_602927" data-name="Trazado 602927" d="M31.375,0C16.011,1.979,4.735,3.723.638,4.324-.481,6.446.008,9.112,1.056,11.5c7.922.829,18.041,1.289,29.435,1.453A29.084,29.084,0,0,1,31.375,0Z" transform="translate(37.822 7.676)" fill="#a6a6a6"/>
        <path id="Trazado_602928" data-name="Trazado 602928" d="M179.472,3.844C182.7,2.388,183.9,1.1,184.012,0a75,75,0,0,1-14.1,2.7c-7.113.737-14.263.949-21.385,1.556-8.074.689-16.139,1.44-24.216,2.066C107.962,7.585,91.663,7.746,75.271,7.845,58.8,7.941-.683,10.168.006,11.738,46.511,16.612,168.737,8.677,179.472,3.844Z" transform="translate(38.872 7.439)" fill="#bfbfbf" style="mix-blend-mode: multiply;isolation: isolate"/>
      </g>
    </g>
  </g>
</svg>
