<svg xmlns="http://www.w3.org/2000/svg" width="85" height="85" viewBox="0 0 85 85">
  <g id="Grupo_877277" data-name="Grupo 877277" transform="translate(-1194 -1622)">
    <circle id="Elipse_5142" data-name="Elipse 5142" cx="42.5" cy="42.5" r="42.5" transform="translate(1194 1622)" fill="#0273bc"/>
    <g id="Grupo_877276" data-name="Grupo 877276" transform="translate(856.185)">
      <g id="Layer_2_00000034784958308029718300000006118701938750291337_" transform="translate(353.755 1614.896)">
        <g id="Layer_1-2" transform="translate(0.06 22.436)">
          <g id="healthy_tooth" transform="translate(0 0)">
            <path id="Trazado_602792" data-name="Trazado 602792" d="M107.843,39.692c-1.535.268-2.943.919-2.943,2.373,0,1.954,1.954,3.35,5.92,3.35a21.585,21.585,0,0,0,8.933-2.489C116.38,41.623,111.588,38.8,107.843,39.692Z" transform="translate(-92.706 -37.533)" fill="#c6c6c6"/>
            <path id="Trazado_602793" data-name="Trazado 602793" d="M49.183,28.724c-7.444-9.468-14.562-4.42-22.076-.907C10.067,36.192,7.09,20.7,21.222,25.351l5.9,2.466c-6.839-6.793-17.679-7.863-24.228.919-7,8.909.93,21.4,3.024,24.379A3.449,3.449,0,0,1,6.5,54.627c.512,4.176,2.989,22.146,7.56,22.146,2.664,0,8.142-4.024,8.479-16-.023-2.64,2.582-4.885,4.443-3.966a4.357,4.357,0,0,1,2.559,3.966c.337,11.98,5.8,16,8.479,16,4.571,0,7.048-17.97,7.56-22.134a3.344,3.344,0,0,1,.582-1.512c2.094-3,10.026-15.493,3.024-24.4Z" transform="translate(-0.06 -22.436)" fill="#e2e2e2"/>
            <path id="Trazado_602794" data-name="Trazado 602794" d="M296.641,96.55A13.546,13.546,0,0,0,283.1,83c-17.97.709-17.97,26.379,0,27.1A13.554,13.554,0,0,0,296.641,96.55Z" transform="translate(-238.272 -75.956)" fill="#fff"/>
          </g>
        </g>
      </g>
      <path id="Trazado_602801" data-name="Trazado 602801" d="M394.95,1654.574l-1.617-.539s-.729.317-1.174,0a7.1,7.1,0,0,1-.793-.666l-2.474-.667s-1.522.255-1.586,1.65a4.079,4.079,0,0,0,.317,2.062l2.474.951s1.173-.444,1.522,0a2.233,2.233,0,0,0,1.079.888c.349.063,1.237.254,1.237.254Z" fill="#636363"/>
      <path id="Trazado_602802" data-name="Trazado 602802" d="M397.8,1653.084l-1.427-.6s-2.505.888-2.569,4.789.349,3.807.349,3.807l1.776.476Z" fill="#afafaf"/>
      <path id="Trazado_602804" data-name="Trazado 602804" d="M399.676,1650.927l-4.092,3.869,8.119,4.187,1.808,7.9,4.409-4.091s.825-8.374.159-8.786S399.676,1650.927,399.676,1650.927Z" fill="#ddccac"/>
      <path id="Trazado_602803" data-name="Trazado 602803" d="M395.565,1654.744l10.486,2.843-.539,9.356-10.53-3.457Z" fill="#b4a37f"/>
      <path id="Trazado_602805" data-name="Trazado 602805" d="M406.558,1656.817l2.476-1.927-.138,4.013Z" transform="translate(0.949)" fill="#e8ddc7"/>
    </g>
  </g>
</svg>
