<svg xmlns="http://www.w3.org/2000/svg" xmlns:xlink="http://www.w3.org/1999/xlink" width="190" height="190" viewBox="0 0 190 190">
  <defs>
    <clipPath id="clip-path">
      <circle id="Elipse_5139" data-name="Elipse 5139" cx="95" cy="95" r="95" transform="translate(395 3918)" fill="#fff" stroke="#e5f1f8" stroke-width="6"/>
    </clipPath>
  </defs>
  <g id="Grupo_877261" data-name="Grupo 877261" transform="translate(-395 -3918)">
    <g id="Elipse_5138" data-name="Elipse 5138" transform="translate(395 3918)" fill="#fff" stroke="#e5f1f8" stroke-width="6">
      <circle cx="95" cy="95" r="95" stroke="none"/>
      <circle cx="95" cy="95" r="92" fill="none"/>
    </g>
    <g id="Enmascarar_grupo_79" data-name="Enmascarar grupo 79" clip-path="url(#clip-path)">
      <g id="molar" transform="translate(405.173 3973.331)">
        <path id="Trazado_602720" data-name="Trazado 602720" d="M168.654,32.585V123.7H1V32.585c30.323-12.137,39.727-18.843,53.321-11.59,65.822,0,60.756,0,61.558-.292a25.512,25.512,0,0,1,20.884-.875Z" transform="translate(0 44.968)" fill="#db5669"/>
        <path id="Trazado_602721" data-name="Trazado 602721" d="M163.364,32.579v83.827H13.934A10.934,10.934,0,0,1,3,105.471V29.663C28,19.677,30.517,18,37.077,18a25.257,25.257,0,0,1,11.954,2.989c65.822,0,60.756,0,61.558-.292a25.512,25.512,0,0,1,20.884-.875Z" transform="translate(5.289 44.974)" fill="#f26674"/>
        <path id="Trazado_602722" data-name="Trazado 602722" d="M53.091,81.2c-14.579,10.934-18.223,69.248-18.223,69.248a86.961,86.961,0,0,1-10.934-40.091c0-15.526,2.442-25.913-1.421-44.756C17.264,39.794,13,38.519,13,23.794c0-5.066,0-22.779,18.7-22.779A40.091,40.091,0,0,1,45.8,3.093a21.321,21.321,0,0,0,14.579,0,40.091,40.091,0,0,1,14.1-2.077c18.7,0,18.7,17.713,18.7,22.779,0,14.579-4.3,16.255-9.513,41.8-3.863,18.879-1.421,29.7-1.421,44.756a86.961,86.961,0,0,1-10.934,40.091S67.67,92.131,53.091,81.2Z" transform="translate(31.736 0)" fill="#dad7e5"/>
        <path id="Trazado_602723" data-name="Trazado 602723" d="M87.893,23.78c0,14.287-4.41,17.13-9.513,41.8-3.9,19.244-1.421,28.938-1.421,44.756a86.633,86.633,0,0,1-10.934,40.091c-.948-15.162-5.831-60.1-18.223-69.248-9.622,7.289-14.579,34.989-16.656,53.066-10.934-29.412-.364-41.512-6.633-72.31C19.264,36.5,15,34.678,15,20.135c0-3.645,0-13.011,6.123-18.588A23.326,23.326,0,0,1,26.408,1C39.638,1,40.294,4.354,47.8,4.354S87.893-10.88,87.893,23.78Z" transform="translate(37.025 0.014)" fill="#edebf2"/>
      </g>
    </g>
    <g id="estructura-molecular" transform="translate(401.172 3924.65)">
      <path id="Trazado_602724" data-name="Trazado 602724" d="M111.336,36.7a2.427,2.427,0,0,0-3.327.512L97.259,51.8H78.065L66.548,31.833l9.47-19.451a2.289,2.289,0,1,0-4.095-2.047L62.2,29.786H39.675L28.925,8.544A2.311,2.311,0,0,0,25.6,7.52c-1.28.512-1.536,2.047-1.024,3.327l10.749,21.5L23.295,53.332a1.919,1.919,0,0,0,0,2.3L35.324,76.622,25.342,95.049H6.4a2.3,2.3,0,0,0,0,4.607H26.878a2.28,2.28,0,0,0,2.047-1.28L39.419,78.669H62.2l8.19,14.588a2.61,2.61,0,0,0,2.047,1.28,2.307,2.307,0,0,0,1.28-.256,2.8,2.8,0,0,0,1.024-3.327L66.292,76.11,77.809,56.4H98.283a2.328,2.328,0,0,0,2.047-1.024l11.517-15.612a2.154,2.154,0,0,0-.512-3.071ZM62.2,74.062H39.419L27.9,54.355,39.419,34.649H62.2L73.714,54.355Z" transform="translate(4.834 4.052)" fill="#666"/>
      <path id="Trazado_602725" data-name="Trazado 602725" d="M29.756,21.878a7.541,7.541,0,0,1-7.678,7.678,7.2,7.2,0,0,1-6.142-3.327A6.95,6.95,0,0,1,14.4,21.878,7.541,7.541,0,0,1,22.078,14.2a6.95,6.95,0,0,1,4.351,1.536A7.2,7.2,0,0,1,29.756,21.878Z" transform="translate(20.895 15.031)" fill="#ccc"/>
      <path id="Trazado_602726" data-name="Trazado 602726" d="M44.712,30.278a7.541,7.541,0,0,1-7.678,7.678,8,8,0,0,1-6.4-3.327A8.921,8.921,0,0,1,29.1,30.278,7.541,7.541,0,0,1,36.778,22.6a6.458,6.458,0,0,1,4.351,1.536A6.362,6.362,0,0,1,44.712,30.278Z" transform="translate(43.817 28.129)" fill="#638b3f"/>
      <path id="Trazado_602727" data-name="Trazado 602727" d="M39.912,21.578a7.541,7.541,0,0,1-7.678,7.678,8,8,0,0,1-6.4-3.327A8.921,8.921,0,0,1,24.3,21.578,7.541,7.541,0,0,1,31.978,13.9a6.458,6.458,0,0,1,4.351,1.536A6.892,6.892,0,0,1,39.912,21.578Z" transform="translate(36.332 14.563)" fill="#0273bc"/>
      <path id="Trazado_602728" data-name="Trazado 602728" d="M29.756,39.034a7.541,7.541,0,0,1-7.678,7.678,7.2,7.2,0,0,1-6.142-3.327A7.145,7.145,0,0,1,14.4,38.778,7.541,7.541,0,0,1,22.078,31.1a6.95,6.95,0,0,1,4.351,1.536,8,8,0,0,1,3.327,6.4Z" transform="translate(20.895 41.383)" fill="#0273bc"/>
      <path id="Trazado_602729" data-name="Trazado 602729" d="M39.956,38.678a7.541,7.541,0,0,1-7.678,7.678,7.2,7.2,0,0,1-6.142-3.327A6.95,6.95,0,0,1,24.6,38.678,7.7,7.7,0,0,1,32.278,31a7.145,7.145,0,0,1,4.607,1.536A7.627,7.627,0,0,1,39.956,38.678Z" transform="translate(36.8 41.227)" fill="#13c6cc"/>
      <path id="Trazado_602730" data-name="Trazado 602730" d="M25.156,30.278a7.541,7.541,0,0,1-7.678,7.678,7.2,7.2,0,0,1-6.142-3.327A6.95,6.95,0,0,1,9.8,30.278,7.541,7.541,0,0,1,17.478,22.6a6.458,6.458,0,0,1,4.351,1.536,7.2,7.2,0,0,1,3.327,6.142Z" transform="translate(13.722 28.129)" fill="#48a0dc"/>
      <path id="Trazado_602731" data-name="Trazado 602731" d="M25.212,12.278a7.541,7.541,0,0,1-7.678,7.678,8,8,0,0,1-6.4-3.327A7.388,7.388,0,0,1,9.6,12.278,7.541,7.541,0,0,1,17.278,4.6a6.95,6.95,0,0,1,4.351,1.536,6.892,6.892,0,0,1,3.583,6.142Z" transform="translate(13.41 0.061)" fill="#0273bc"/>
      <path id="Trazado_602732" data-name="Trazado 602732" d="M43.956,12.778a7.541,7.541,0,0,1-7.678,7.678A7.7,7.7,0,0,1,28.6,12.778,7.541,7.541,0,0,1,36.278,5.1,7.7,7.7,0,0,1,43.956,12.778Z" transform="translate(43.037 0.841)" fill="#e7b95d"/>
      <path id="Trazado_602733" data-name="Trazado 602733" d="M58.356,22.978a7.541,7.541,0,0,1-7.678,7.678,8,8,0,0,1-6.4-3.327A7.32,7.32,0,0,1,43,22.978,7.541,7.541,0,0,1,50.678,15.3a6.95,6.95,0,0,1,4.351,1.536A7.2,7.2,0,0,1,58.356,22.978Z" transform="translate(65.492 16.746)" fill="#1fadfc"/>
      <path id="Trazado_602734" data-name="Trazado 602734" d="M53.156,29.878a7.541,7.541,0,0,1-7.678,7.678,7.2,7.2,0,0,1-6.142-3.327A6.95,6.95,0,0,1,37.8,29.878,7.541,7.541,0,0,1,45.478,22.2a6.02,6.02,0,0,1,4.351,1.536A7.2,7.2,0,0,1,53.156,29.878Z" transform="translate(57.383 27.505)" fill="#ccc"/>
      <path id="Trazado_602735" data-name="Trazado 602735" d="M25.256,46.578a7.541,7.541,0,0,1-7.678,7.678,7.2,7.2,0,0,1-6.142-3.327A6.95,6.95,0,0,1,9.9,46.578,7.541,7.541,0,0,1,17.578,38.9a6.458,6.458,0,0,1,4.351,1.536A7.2,7.2,0,0,1,25.256,46.578Z" transform="translate(13.878 53.546)" fill="#ccc"/>
      <path id="Trazado_602736" data-name="Trazado 602736" d="M16.356,47.078a7.541,7.541,0,0,1-7.678,7.678,8,8,0,0,1-6.4-3.327A8.628,8.628,0,0,1,1,47.078,7.541,7.541,0,0,1,8.678,39.4a6.95,6.95,0,0,1,4.351,1.536A7.2,7.2,0,0,1,16.356,47.078Z" transform="translate(0 54.326)" fill="#0273bc"/>
      <path id="Trazado_602737" data-name="Trazado 602737" d="M44.256,46.834a7.541,7.541,0,0,1-7.678,7.678,7.2,7.2,0,0,1-6.142-3.327A7.146,7.146,0,0,1,28.9,46.578,7.541,7.541,0,0,1,36.578,38.9a7.146,7.146,0,0,1,4.607,1.536A8.542,8.542,0,0,1,44.256,46.834Z" transform="translate(43.505 53.546)" fill="#e7b95d"/>
      <path id="Trazado_602738" data-name="Trazado 602738" d="M27.964,20.086a7.541,7.541,0,0,1-7.678,7.678,6.95,6.95,0,0,1-4.351-1.536A6.95,6.95,0,0,1,14.4,21.878,7.541,7.541,0,0,1,22.078,14.2a6.95,6.95,0,0,1,4.351,1.536,6.02,6.02,0,0,1,1.536,4.351Z" transform="translate(20.895 15.031)" fill="#e6e6e6"/>
      <path id="Trazado_602739" data-name="Trazado 602739" d="M42.664,28.486a7.541,7.541,0,0,1-7.678,7.678,6.458,6.458,0,0,1-4.351-1.536A8.921,8.921,0,0,1,29.1,30.278,7.541,7.541,0,0,1,36.778,22.6a6.458,6.458,0,0,1,4.351,1.536,6.02,6.02,0,0,1,1.536,4.351Z" transform="translate(43.817 28.129)" fill="#88c057"/>
      <path id="Trazado_602740" data-name="Trazado 602740" d="M38.12,19.786a7.541,7.541,0,0,1-7.678,7.678,7.145,7.145,0,0,1-4.607-1.536A8.921,8.921,0,0,1,24.3,21.578,7.541,7.541,0,0,1,31.978,13.9a6.458,6.458,0,0,1,4.351,1.536,5.272,5.272,0,0,1,1.792,4.351Z" transform="translate(36.332 14.563)" fill="#0273bc"/>
      <path id="Trazado_602741" data-name="Trazado 602741" d="M27.964,37.242a7.541,7.541,0,0,1-7.678,7.678,6.95,6.95,0,0,1-4.351-1.536A7.146,7.146,0,0,1,14.4,38.778,7.541,7.541,0,0,1,22.078,31.1a6.95,6.95,0,0,1,4.351,1.536,8.256,8.256,0,0,1,1.536,4.607Z" transform="translate(20.895 41.383)" fill="#0273bc"/>
      <path id="Trazado_602742" data-name="Trazado 602742" d="M38.164,36.886a7.7,7.7,0,0,1-7.678,7.678,6.95,6.95,0,0,1-4.351-1.536A6.95,6.95,0,0,1,24.6,38.678,7.7,7.7,0,0,1,32.278,31a7.145,7.145,0,0,1,4.607,1.536,8.628,8.628,0,0,1,1.28,4.351Z" transform="translate(36.8 41.227)" fill="#13c6cc"/>
      <path id="Trazado_602743" data-name="Trazado 602743" d="M23.364,28.486a7.541,7.541,0,0,1-7.678,7.678,6.458,6.458,0,0,1-4.351-1.536A6.95,6.95,0,0,1,9.8,30.278,7.541,7.541,0,0,1,17.478,22.6a6.458,6.458,0,0,1,4.351,1.536A6.02,6.02,0,0,1,23.364,28.486Z" transform="translate(13.722 28.129)" fill="#3ab7fc"/>
      <path id="Trazado_602744" data-name="Trazado 602744" d="M23.42,10.548a7.541,7.541,0,0,1-7.678,7.678,7.145,7.145,0,0,1-4.607-1.536A7.388,7.388,0,0,1,9.6,12.339a7.691,7.691,0,0,1,12.029-6.4,7.02,7.02,0,0,1,1.792,4.607Z" transform="translate(13.41 0)" fill="#0273bc"/>
      <path id="Trazado_602745" data-name="Trazado 602745" d="M40.744,6.636A7.145,7.145,0,0,0,36.137,5.1a7.709,7.709,0,0,0-6.142,12.285,8.921,8.921,0,0,0,4.351,1.536,7.541,7.541,0,0,0,7.678-7.678,5.293,5.293,0,0,0-1.28-4.607Z" transform="translate(42.922 0.841)" fill="#fc6"/>
      <path id="Trazado_602746" data-name="Trazado 602746" d="M56.564,21.186a7.541,7.541,0,0,1-7.678,7.678,7.145,7.145,0,0,1-4.607-1.536A7.32,7.32,0,0,1,43,22.978,7.541,7.541,0,0,1,50.678,15.3a6.95,6.95,0,0,1,4.351,1.536A6.95,6.95,0,0,1,56.564,21.186Z" transform="translate(65.492 16.746)" fill="#3ab7fc"/>
      <path id="Trazado_602747" data-name="Trazado 602747" d="M51.364,28.086a7.541,7.541,0,0,1-7.678,7.678,6.95,6.95,0,0,1-4.351-1.536A6.95,6.95,0,0,1,37.8,29.878,7.541,7.541,0,0,1,45.478,22.2a6.02,6.02,0,0,1,4.351,1.536A6.02,6.02,0,0,1,51.364,28.086Z" transform="translate(57.383 27.505)" fill="#e6e6e6"/>
      <path id="Trazado_602748" data-name="Trazado 602748" d="M23.464,44.786a7.541,7.541,0,0,1-7.678,7.678,6.95,6.95,0,0,1-4.351-1.536A6.95,6.95,0,0,1,9.9,46.578,7.541,7.541,0,0,1,17.578,38.9a6.458,6.458,0,0,1,4.351,1.536A6.95,6.95,0,0,1,23.464,44.786Z" transform="translate(13.878 53.546)" fill="#e6e6e6"/>
      <path id="Trazado_602749" data-name="Trazado 602749" d="M14.564,45.286a7.541,7.541,0,0,1-7.678,7.678,6.458,6.458,0,0,1-4.351-1.536A6.95,6.95,0,0,1,1,47.078,7.541,7.541,0,0,1,8.678,39.4a6.95,6.95,0,0,1,4.351,1.536,6.02,6.02,0,0,1,1.536,4.351Z" transform="translate(0 54.326)" fill="#0273bc"/>
      <path id="Trazado_602750" data-name="Trazado 602750" d="M42.464,45.042a7.541,7.541,0,0,1-7.678,7.678,6.95,6.95,0,0,1-4.351-1.536A7.146,7.146,0,0,1,28.9,46.578,7.541,7.541,0,0,1,36.578,38.9a7.146,7.146,0,0,1,4.607,1.536A10.429,10.429,0,0,1,42.464,45.042Z" transform="translate(43.505 53.546)" fill="#fc6"/>
    </g>
  </g>
</svg>
