<svg xmlns="http://www.w3.org/2000/svg" xmlns:xlink="http://www.w3.org/1999/xlink" width="190" height="190" viewBox="0 0 190 190">
  <defs>
    <clipPath id="clip-path">
      <circle id="Elipse_5140" data-name="Elipse 5140" cx="95" cy="95" r="95" transform="translate(395 3918)" fill="#fff" stroke="#e5f1f8" stroke-width="6"/>
    </clipPath>
  </defs>
  <g id="Grupo_877697" data-name="Grupo 877697" transform="translate(-1020 -4084)">
    <g id="Trazado_602755" data-name="Trazado 602755" transform="translate(1020 4084)" fill="#fff">
      <path d="M 95 187 C 88.75595092773438 187 82.51670837402344 186.3711242675781 76.45560455322266 185.1308441162109 C 70.55007934570312 183.9223937988281 64.7412109375 182.1192169189453 59.19036865234375 179.7714233398438 C 53.73963165283203 177.4659423828125 48.48218536376953 174.6122589111328 43.56402587890625 171.2896270751953 C 38.69181442260742 167.9980316162109 34.11010360717773 164.2177581787109 29.9461841583252 160.0538177490234 C 25.78223609924316 155.889892578125 22.00197410583496 151.3081817626953 18.71036911010742 146.4359741210938 C 15.38773727416992 141.517822265625 12.53405284881592 136.2603759765625 10.22857856750488 130.8096313476562 C 7.880789279937744 125.2587890625 6.077605247497559 119.4499206542969 4.869157791137695 113.5443954467773 C 3.628868341445923 107.4832916259766 3 101.2440490722656 3 95 C 3 88.75595092773438 3.628868341445923 82.51670837402344 4.869157791137695 76.45560455322266 C 6.077605247497559 70.55007934570312 7.880789279937744 64.7412109375 10.22857856750488 59.19036865234375 C 12.53405284881592 53.73963165283203 15.38773727416992 48.48218536376953 18.71036911010742 43.56402587890625 C 22.00197410583496 38.69181442260742 25.78223609924316 34.11010360717773 29.9461841583252 29.9461841583252 C 34.11010360717773 25.78223609924316 38.69181442260742 22.00197410583496 43.56402587890625 18.71036911010742 C 48.48218536376953 15.38773727416992 53.73963165283203 12.53405284881592 59.19036865234375 10.22857856750488 C 64.7412109375 7.880789279937744 70.55007934570312 6.077605247497559 76.45560455322266 4.869157791137695 C 82.51670837402344 3.628868341445923 88.75595092773438 3 95 3 C 101.2440490722656 3 107.4832916259766 3.628868341445923 113.5443954467773 4.869157791137695 C 119.4499206542969 6.077605247497559 125.2587890625 7.880789279937744 130.8096313476562 10.22857856750488 C 136.2603759765625 12.53405284881592 141.517822265625 15.38773727416992 146.4359741210938 18.71036911010742 C 151.3081817626953 22.00197410583496 155.889892578125 25.78223609924316 160.0538177490234 29.9461841583252 C 164.2177581787109 34.11010360717773 167.9980316162109 38.69181442260742 171.2896270751953 43.56402587890625 C 174.6122589111328 48.48218536376953 177.4659423828125 53.73963165283203 179.7714233398438 59.19036865234375 C 182.1192169189453 64.7412109375 183.9223937988281 70.55007934570312 185.1308441162109 76.45560455322266 C 186.3711242675781 82.51670837402344 187 88.75595092773438 187 95 C 187 101.2440490722656 186.3711242675781 107.4832916259766 185.1308441162109 113.5443954467773 C 183.9223937988281 119.4499206542969 182.1192169189453 125.2587890625 179.7714233398438 130.8096313476562 C 177.4659423828125 136.2603759765625 174.6122589111328 141.517822265625 171.2896270751953 146.4359741210938 C 167.9980316162109 151.3081817626953 164.2177581787109 155.889892578125 160.0538177490234 160.0538177490234 C 155.889892578125 164.2177581787109 151.3081817626953 167.9980316162109 146.4359741210938 171.2896270751953 C 141.517822265625 174.6122589111328 136.2603759765625 177.4659423828125 130.8096313476562 179.7714233398438 C 125.2587890625 182.1192169189453 119.4499206542969 183.9223937988281 113.5443954467773 185.1308441162109 C 107.4832916259766 186.3711242675781 101.2440490722656 187 95 187 Z" stroke="none"/>
      <path d="M 95 6 C 45.92523193359375 6 6 45.92523193359375 6 95 C 6 144.0747680664062 45.92523193359375 184 95 184 C 144.0747680664062 184 184 144.0747680664062 184 95 C 184 45.92523193359375 144.0747680664062 6 95 6 M 95 0 C 147.4670257568359 0 190 42.53297424316406 190 95 C 190 147.4670257568359 147.4670257568359 190 95 190 C 42.53297424316406 190 0 147.4670257568359 0 95 C 0 42.53297424316406 42.53297424316406 0 95 0 Z" stroke="none" fill="#e7f9fa"/>
    </g>
    <g id="Grupo_877263" data-name="Grupo 877263" transform="translate(0 166)">
      <g id="Enmascarar_grupo_80" data-name="Enmascarar grupo 80" transform="translate(625)" clip-path="url(#clip-path)">
        <g id="molar" transform="translate(405.173 3973.331)">
          <path id="Trazado_602751" data-name="Trazado 602751" d="M168.654,32.585V123.7H1V32.585c30.323-12.137,39.727-18.843,53.321-11.59,65.822,0,60.756,0,61.558-.292a25.512,25.512,0,0,1,20.884-.875Z" transform="translate(0 44.968)" fill="#db5669"/>
          <path id="Trazado_602752" data-name="Trazado 602752" d="M163.364,32.579v83.827H13.934A10.934,10.934,0,0,1,3,105.471V29.663C28,19.677,30.517,18,37.077,18a25.257,25.257,0,0,1,11.954,2.989c65.822,0,60.756,0,61.558-.292a25.512,25.512,0,0,1,20.884-.875Z" transform="translate(5.289 44.974)" fill="#f26674"/>
          <path id="Trazado_602753" data-name="Trazado 602753" d="M53.091,81.2c-14.579,10.934-18.223,69.248-18.223,69.248a86.961,86.961,0,0,1-10.934-40.091c0-15.526,2.442-25.913-1.421-44.756C17.264,39.794,13,38.519,13,23.794c0-5.066,0-22.779,18.7-22.779A40.091,40.091,0,0,1,45.8,3.093a21.321,21.321,0,0,0,14.579,0,40.091,40.091,0,0,1,14.1-2.077c18.7,0,18.7,17.713,18.7,22.779,0,14.579-4.3,16.255-9.513,41.8-3.863,18.879-1.421,29.7-1.421,44.756a86.961,86.961,0,0,1-10.934,40.091S67.67,92.131,53.091,81.2Z" transform="translate(31.736 0)" fill="#dad7e5"/>
          <path id="Trazado_602754" data-name="Trazado 602754" d="M87.893,23.78c0,14.287-4.41,17.13-9.513,41.8-3.9,19.244-1.421,28.938-1.421,44.756a86.633,86.633,0,0,1-10.934,40.091c-.948-15.162-5.831-60.1-18.223-69.248-9.622,7.289-14.579,34.989-16.656,53.066-10.934-29.412-.364-41.512-6.633-72.31C19.264,36.5,15,34.678,15,20.135c0-3.645,0-13.011,6.123-18.588A23.326,23.326,0,0,1,26.408,1C39.638,1,40.294,4.354,47.8,4.354S87.893-10.88,87.893,23.78Z" transform="translate(37.025 0.014)" fill="#edebf2"/>
        </g>
      </g>
      <g id="Temperature_Scale" data-name="Temperature Scale" transform="translate(1025.002 3928)">
        <path id="Trazado_602756" data-name="Trazado 602756" d="M58.895,85.415A23.446,23.446,0,1,1,21.377,66.656V15.069a14.069,14.069,0,0,1,28.138,0V66.656A23.449,23.449,0,0,1,58.895,85.415Z" transform="translate(0 0)" fill="#b2e5fb"/>
        <path id="Trazado_602757" data-name="Trazado 602757" d="M29.584,107.374a23.449,23.449,0,0,1-8.207-41.457V14.33A14.069,14.069,0,0,1,29.584,1.55a14.069,14.069,0,0,1,8.207,12.78V65.917a23.449,23.449,0,0,1-8.207,41.457Z" transform="translate(0 0.74)" fill="#9fdbf3"/>
        <g id="Grupo_877262" data-name="Grupo 877262" transform="translate(61.239 10.379)">
          <path id="Trazado_602758" data-name="Trazado 602758" d="M44.724,9.69H35.345a2.345,2.345,0,0,1,0-4.69h9.379a2.345,2.345,0,0,1,0,4.69Z" transform="translate(-33 -5)" fill="#425b72"/>
          <path id="Trazado_602759" data-name="Trazado 602759" d="M49.414,14.69H35.345a2.345,2.345,0,0,1,0-4.69H49.414a2.345,2.345,0,0,1,0,4.69Z" transform="translate(-33 1.724)" fill="#425b72"/>
          <path id="Trazado_602760" data-name="Trazado 602760" d="M44.724,19.69H35.345a2.345,2.345,0,0,1,0-4.69h9.379a2.345,2.345,0,0,1,0,4.69Z" transform="translate(-33 8.449)" fill="#425b72"/>
          <path id="Trazado_602761" data-name="Trazado 602761" d="M49.414,24.69H35.345a2.345,2.345,0,0,1,0-4.69H49.414a2.345,2.345,0,0,1,0,4.69Z" transform="translate(-33 15.173)" fill="#425b72"/>
          <path id="Trazado_602762" data-name="Trazado 602762" d="M44.724,29.69H35.345a2.345,2.345,0,0,1,0-4.69h9.379a2.345,2.345,0,0,1,0,4.69Z" transform="translate(-33 21.897)" fill="#425b72"/>
        </g>
        <path id="Trazado_602763" data-name="Trazado 602763" d="M44.14,63.9A14.069,14.069,0,1,1,25.381,50.649V17H34.76V50.649A14.069,14.069,0,0,1,44.14,63.9Z" transform="translate(5.375 21.518)" fill="#f26674"/>
        <path id="Trazado_602764" data-name="Trazado 602764" d="M27.692,77.756a14.069,14.069,0,0,1-2.345-27.107V17h4.69V50.649a14.069,14.069,0,0,1-2.345,27.107Z" transform="translate(5.409 21.518)" fill="#db5669"/>
        <path id="Trazado_602765" data-name="Trazado 602765" d="M29.379,9.69V33.138H20V9.69a4.69,4.69,0,1,1,9.379,0Z" transform="translate(10.756 5.379)" fill="#edebf2"/>
      </g>
    </g>
  </g>
</svg>
