<svg xmlns="http://www.w3.org/2000/svg" width="105" height="105" viewBox="0 0 105 105">
  <g id="Grupo_877666" data-name="Grupo 877666" transform="translate(-485 -2749)">
    <g id="Elipse_4770" data-name="Elipse 4770" transform="translate(485 2749)" fill="#fff" stroke="#e7f9fa" stroke-width="6">
      <circle cx="52.5" cy="52.5" r="52.5" stroke="none"/>
      <circle cx="52.5" cy="52.5" r="49.5" fill="none"/>
    </g>
    <g id="Page-1" transform="translate(506.016 2770)">
      <g id="_084---Technology-Repair-Person" data-name="084---Technology-Repair-Person" transform="translate(-0.015 0)">
        <path id="Path" d="M19.033,8.194v5.323H17.968a3.13,3.13,0,0,0-2.374,1.065H14.3a2.968,2.968,0,0,0-2.214,1.065,6.375,6.375,0,0,1-9.89-.468,1.065,1.065,0,0,1,.894-1.661H5.47a1.079,1.079,0,0,0,.852-.426l.8-1.065a1.087,1.087,0,0,0,0-1.277l-.8-1.065a1.079,1.079,0,0,0-.852-.426H3.085A1.065,1.065,0,0,1,2.191,7.6a6.375,6.375,0,0,1,9.89-.468A2.968,2.968,0,0,0,14.3,8.194Z" transform="translate(-0.919 0.323)" fill="#9e9e9e" fill-rule="evenodd"/>
        <path id="Path-2" data-name="Path" d="M46,14.581h2.6a3,3,0,0,1,2.221,1.065,6.375,6.375,0,0,0,9.891-.466,1.065,1.065,0,0,0-.886-1.663H57.434a1.065,1.065,0,0,1-.852-.426l-.8-1.065a1.065,1.065,0,0,1,0-1.277l.8-1.065a1.065,1.065,0,0,1,.852-.426h2.389A1.065,1.065,0,0,0,60.708,7.6a6.375,6.375,0,0,0-9.891-.467A3,3,0,0,1,48.6,8.194H46" transform="translate(1.922 0.323)" fill="#9e9e9e" fill-rule="evenodd"/>
        <path id="Path-3" data-name="Path" d="M56.144,13.516a1.065,1.065,0,0,1,.886,1.662,6.374,6.374,0,0,1-3.53,2.389,6.339,6.339,0,0,0,6.725-2.389,1.065,1.065,0,0,0-.887-1.662H56.949a1.065,1.065,0,0,1-.852-.426V9.684a1.065,1.065,0,0,1,.852-.426h2.389A1.065,1.065,0,0,0,60.224,7.6,6.339,6.339,0,0,0,53.5,5.213,6.374,6.374,0,0,1,57.031,7.6a1.065,1.065,0,0,1-.887,1.656Z" transform="translate(2.406 0.323)" fill="#707070" fill-rule="evenodd"/>
        <path id="Path-4" data-name="Path" d="M47.808,7.92v7.452a3.726,3.726,0,1,1-7.452,0,3.726,3.726,0,1,1-7.452,0A3.726,3.726,0,0,1,29.178,19.1a3.22,3.22,0,0,1-.852-.106,3.5,3.5,0,0,0,.319-1.49,3.74,3.74,0,0,0-3.194-3.683,2.914,2.914,0,0,0-.532-.043H18V6.855a3.726,3.726,0,1,1,7.452,0V4.726a3.726,3.726,0,1,1,7.452,0V6.855a3.726,3.726,0,0,1,7.452,0V7.92a3.726,3.726,0,1,1,7.452,0Z" transform="translate(0.114 0.065)" fill="#ffe0b2" fill-rule="evenodd"/>
        <path id="Path-5" data-name="Path" d="M45.226,5.1A3.663,3.663,0,0,0,41,4.375a3.7,3.7,0,0,1,2.129,3.351v7.452A3.726,3.726,0,0,1,41,18.53a3.688,3.688,0,0,0,1.6.374,3.726,3.726,0,0,0,3.726-3.726V7.726a3.683,3.683,0,0,0-1.1-2.63Z" transform="translate(1.599 0.258)" fill="#dfc49c" fill-rule="evenodd"/>
        <path id="Path-6" data-name="Path" d="M48.067,14.6v8.889a4.219,4.219,0,0,1-.649,2.257l-4.024,6.451a4.219,4.219,0,0,0-.649,2.257v25.39a2.136,2.136,0,0,1-2.129,2.129H24.646a2.136,2.136,0,0,1-2.129-2.129V34.994a4.258,4.258,0,0,0-1.246-3.013l-6.026-6.026A4.258,4.258,0,0,1,14,22.943V16.194A3.205,3.205,0,0,1,17.194,13h7.984a2.914,2.914,0,0,1,.532.043A3.74,3.74,0,0,1,28.9,16.726a3.5,3.5,0,0,1-.319,1.49,3.22,3.22,0,0,0,.852.106A3.726,3.726,0,0,0,33.162,14.6a3.726,3.726,0,0,0,7.452,0,3.726,3.726,0,1,0,7.452,0Z" transform="translate(-0.144 0.84)" fill="#ffe0b2" fill-rule="evenodd"/>
        <path id="Path-7" data-name="Path" d="M43.452,18.172v5.216a4.219,4.219,0,0,1-.649,2.257L38.779,32.1a4.219,4.219,0,0,0-.649,2.258v25.39A2.136,2.136,0,0,1,36,61.874h3.194a2.136,2.136,0,0,0,2.129-2.129V34.354a4.219,4.219,0,0,1,.649-2.257L46,25.646a4.219,4.219,0,0,0,.649-2.257V14.5a3.72,3.72,0,0,1-3.194,3.672Z" transform="translate(1.276 0.936)" fill="#dfc49c" fill-rule="evenodd"/>
        <path id="Path-8" data-name="Path" d="M18,20.136h6.92A3.713,3.713,0,0,0,28.326,17.9" transform="translate(0.114 1.156)" fill="#ffe0b2" fill-rule="evenodd"/>
        <g id="Grupo_876247" data-name="Grupo 876247" transform="translate(1.081 22.356)">
          <circle id="Oval" cx="3.194" cy="3.194" r="3.194" transform="translate(0 18.098)" fill="#ffdc00"/>
          <circle id="Oval-2" data-name="Oval" cx="2.129" cy="2.129" r="2.129" transform="translate(7.452 12.775)" fill="#ffdc00"/>
          <circle id="Oval-3" data-name="Oval" cx="2.129" cy="2.129" r="2.129" transform="translate(3.194)" fill="#ffdc00"/>
          <circle id="Oval-4" data-name="Oval" cx="2.129" cy="2.129" r="2.129" transform="translate(7.452 25.55)" fill="#ffdc00"/>
          <circle id="Oval-5" data-name="Oval" cx="2.129" cy="2.129" r="2.129" transform="translate(11.71 36.196)" fill="#ffdc00"/>
          <circle id="Oval-6" data-name="Oval" cx="3.194" cy="3.194" r="3.194" transform="translate(55.358 18.098)" fill="#ffdc00"/>
          <circle id="Oval-7" data-name="Oval" cx="2.129" cy="2.129" r="2.129" transform="translate(50.035 12.775)" fill="#ffdc00"/>
          <circle id="Oval-8" data-name="Oval" cx="2.129" cy="2.129" r="2.129" transform="translate(54.294)" fill="#ffdc00"/>
          <circle id="Oval-9" data-name="Oval" cx="2.129" cy="2.129" r="2.129" transform="translate(50.035 25.55)" fill="#ffdc00"/>
          <circle id="Oval-10" data-name="Oval" cx="2.129" cy="2.129" r="2.129" transform="translate(45.777 36.196)" fill="#ffdc00"/>
        </g>
        <path id="Shape" d="M60.618,39.39a4.258,4.258,0,0,0-4.107,3.194H44.649V38.325h6.583a3.194,3.194,0,1,0,0-2.129H44.649v-.908a3.186,3.186,0,0,1,.485-1.692l1.037-1.659H56.359a3.194,3.194,0,0,0,3.194-3.194v-1.26a3.194,3.194,0,1,0-2.129,0v1.26a1.065,1.065,0,0,1-1.065,1.065H47.5l1.661-2.661a5.323,5.323,0,0,0,.809-2.821V15.969H51.5a1.936,1.936,0,0,1,1.427.708,7.439,7.439,0,0,0,11.542-.544,2.068,2.068,0,0,0,.174-2.174,2.139,2.139,0,0,0-1.916-1.184H60.342l-.8-1.065.8-1.065H62.73a2.14,2.14,0,0,0,1.916-1.183,2.073,2.073,0,0,0-.172-2.175A7.44,7.44,0,0,0,52.93,6.744a1.936,1.936,0,0,1-1.427.708H49.917a4.761,4.761,0,0,0-8.055-2.91,4.725,4.725,0,0,0-7.09-1.364,4.651,4.651,0,0,0-1.107-1.764A4.717,4.717,0,0,0,30.277,0a4.782,4.782,0,0,0-4.494,3.185,4.7,4.7,0,0,0-2.958-1.056A4.8,4.8,0,0,0,18.034,6.92v.532H14.363a1.916,1.916,0,0,1-1.42-.709A7.438,7.438,0,0,0,1.4,7.29a2.07,2.07,0,0,0-.17,2.171,2.145,2.145,0,0,0,1.922,1.185H5.538l.8,1.065-.8,1.065H3.152A2.145,2.145,0,0,0,1.236,13.96a2.07,2.07,0,0,0,.17,2.171,7.438,7.438,0,0,0,11.544.544,2.067,2.067,0,0,1,.958-.63,4.209,4.209,0,0,0-.133.989v6.753a5.289,5.289,0,0,0,1.559,3.764l2.259,2.258H9.518a1.065,1.065,0,0,1-1.065-1.065v-1.26a3.194,3.194,0,1,0-2.129,0v1.26a3.194,3.194,0,0,0,3.194,3.194H19.723l1.635,1.634a3.176,3.176,0,0,1,.935,2.259V36.2H14.645a3.194,3.194,0,1,0,0,2.129h7.648v4.258H9.366a4.258,4.258,0,1,0,0,2.129H22.293v4.258H14.645a3.194,3.194,0,1,0,0,2.129h7.648v2.129H18.034a3.194,3.194,0,0,0-3.194,3.194v1.26a3.194,3.194,0,1,0,2.129,0v-1.26a1.065,1.065,0,0,1,1.065-1.065h4.258v5.323a3.194,3.194,0,0,0,3.194,3.194H41.455a3.194,3.194,0,0,0,3.194-3.194V55.358h3.194a1.065,1.065,0,0,1,1.065,1.065v1.26a3.194,3.194,0,1,0,2.129,0v-1.26a3.194,3.194,0,0,0-3.194-3.194H44.649V51.1h6.583a3.194,3.194,0,1,0,0-2.129H44.649V44.712H56.51a4.251,4.251,0,1,0,4.107-5.323ZM54.23,36.2a1.065,1.065,0,1,1-1.065,1.065A1.065,1.065,0,0,1,54.23,36.2Zm4.258-12.775a1.065,1.065,0,1,1-1.065,1.065A1.065,1.065,0,0,1,58.488,23.421Zm-51.1,0a1.065,1.065,0,1,1-1.065,1.065A1.065,1.065,0,0,1,7.388,23.421Zm4.258,14.9a1.065,1.065,0,1,1,1.065-1.065A1.065,1.065,0,0,1,11.647,38.325ZM5.259,45.777a2.129,2.129,0,1,1,2.129-2.129A2.129,2.129,0,0,1,5.259,45.777ZM11.647,51.1a1.065,1.065,0,1,1,1.065-1.065A1.065,1.065,0,0,1,11.647,51.1Zm4.258,10.646a1.065,1.065,0,1,1,1.065-1.065A1.065,1.065,0,0,1,15.905,61.746Zm34.067,0a1.065,1.065,0,1,1,1.065-1.065A1.065,1.065,0,0,1,49.972,61.746ZM54.23,48.971a1.065,1.065,0,1,1-1.065,1.065A1.065,1.065,0,0,1,54.23,48.971Zm.289-40.809a5.307,5.307,0,0,1,8.211.355H60.341a2.138,2.138,0,0,0-1.7.852l-.8,1.065a2.137,2.137,0,0,0,0,2.555l.8,1.065a2.129,2.129,0,0,0,1.7.852l2.417-.033a5.31,5.31,0,0,1-8.239.388A4.038,4.038,0,0,0,51.5,13.84H49.972V9.581H51.5a4.038,4.038,0,0,0,3.015-1.419ZM45.181,5.323a2.661,2.661,0,0,1,2.661,2.661v7.452a2.661,2.661,0,0,1-5.323,0V7.984a2.661,2.661,0,0,1,2.661-2.661ZM37.729,4.258A2.661,2.661,0,0,1,40.39,6.92v8.517a2.661,2.661,0,0,1-5.323,0V6.92a2.661,2.661,0,0,1,2.661-2.661Zm-10.114.532a2.661,2.661,0,1,1,5.323,0V15.436a2.661,2.661,0,0,1-2.178,2.612,4.5,4.5,0,0,0,.049-.483,4.784,4.784,0,0,0-3.194-4.5Zm-4.791-.532A2.678,2.678,0,0,1,25.486,6.92v5.855H20.163V6.92A2.661,2.661,0,0,1,22.825,4.258Zm-11.47,11a5.3,5.3,0,0,1-8.2-.356H5.538a2.146,2.146,0,0,0,1.7-.852l.81-1.078a2.157,2.157,0,0,0-.013-2.541l-.8-1.065a2.146,2.146,0,0,0-1.7-.852l-2.422.035a5.308,5.308,0,0,1,8.235-.394,4.011,4.011,0,0,0,3.016,1.423h3.672v3.194a4.222,4.222,0,0,0-2.787,1.065h-.885A4,4,0,0,0,11.355,15.26ZM42.52,35.288V60.681a1.065,1.065,0,0,1-1.065,1.065H25.486a1.065,1.065,0,0,1-1.065-1.065V35.831a5.289,5.289,0,0,0-1.559-3.764L16.84,26.045a3.176,3.176,0,0,1-.935-2.259V17.033A2.129,2.129,0,0,1,18.034,14.9h7.984a2.661,2.661,0,1,1,0,5.323H19.1a1.065,1.065,0,1,0,0,2.129h6.92a4.791,4.791,0,0,0,3.989-2.146c.089,0,.176.017.269.017A4.763,4.763,0,0,0,34,18.41a4.729,4.729,0,0,0,7.452,0,4.745,4.745,0,0,0,6.387,1.006v4.913a3.186,3.186,0,0,1-.485,1.692L43.329,32.47a5.323,5.323,0,0,0-.809,2.818Zm18.1,10.489a2.129,2.129,0,1,1,2.129-2.129A2.129,2.129,0,0,1,60.618,45.777Z" transform="translate(-0.985 0)"/>
      </g>
    </g>
  </g>
</svg>
