<svg xmlns="http://www.w3.org/2000/svg" width="286.189" height="317" viewBox="0 0 286.189 317">
  <g id="Grupo_876394" data-name="Grupo 876394" transform="translate(154.537 -44.262)">
    <g id="Grupo_876323" data-name="Grupo 876323" transform="translate(-3.502 70.951)">
      <g id="Grupo_876317" data-name="Grupo 876317" transform="translate(20.386 111.078)">
        <g id="Grupo_876264" data-name="Grupo 876264" transform="translate(5.262 20.865)">
          <path id="Trazado_599964" data-name="Trazado 599964" d="M-38.013,109.481H-81.922S-75.447,170.74-60.4,245.35c0,0,3.356,5.86,16.547,5.555.652.015,1.274.01,1.879,0,.605.015,1.225.02,1.879,0,13.192.305,16.547-5.555,16.547-5.555C-8.491,170.74-2.016,109.481-2.016,109.481Z" transform="translate(82.464 -108.939)" fill="#c9cacc"/>
          <path id="Trazado_599965" data-name="Trazado 599965" d="M-44.546,251.776c-12.508,0-15.862-5.591-16-5.836a.576.576,0,0,1-.061-.163C-75.491,172-82.076,110.47-82.141,109.857A.541.541,0,0,1-82,109.44a.54.54,0,0,1,.4-.181H-1.7a.54.54,0,0,1,.4.181.53.53,0,0,1,.134.417c-.063.613-6.648,62.138-21.534,135.92a.511.511,0,0,1-.061.163c-.144.249-3.658,6.092-17.028,5.823-.639.015-1.267.01-1.882,0-.586.015-1.218.017-1.877,0C-43.882,251.772-44.217,251.776-44.546,251.776Zm4.764-1.093c11.954.268,15.627-4.6,16.05-5.218C-9.658,175.663-3.017,116.871-2.3,110.34H-81c.715,6.531,7.356,65.323,21.431,135.125.417.615,4.11,5.479,16.028,5.218.669.015,1.281.01,1.877,0C-41.039,250.693-40.426,250.7-39.782,250.683Z" transform="translate(82.144 -109.259)" fill="#95999f"/>
        </g>
        <g id="Grupo_876265" data-name="Grupo 876265" transform="translate(5.804 21.407)" opacity="0.52" style="mix-blend-mode: multiply;isolation: isolate">
          <path id="Trazado_599966" data-name="Trazado 599966" d="M-17.163,109.481c-2.914,45.022-11,106.269-12.952,121.74-2.223,17.612-7.956,16.728-15.276,15.454A11.2,11.2,0,0,1-54.3,238.7c-9.636-47.17-17.226-108.512-19.664-129.223h-7.959S-75.447,170.74-60.4,245.35c0,0,3.356,5.86,16.547,5.555.652.015,1.274.01,1.879,0,.605.015,1.225.02,1.879,0,13.192.305,16.547-5.555,16.547-5.555C-8.491,170.74-2.016,109.481-2.016,109.481Z" transform="translate(81.922 -109.481)" fill="#8b8d8f" style="mix-blend-mode: multiply;isolation: isolate"/>
        </g>
        <g id="Grupo_876266" data-name="Grupo 876266" transform="translate(5.804 21.407)">
          <path id="Trazado_599967" data-name="Trazado 599967" d="M-59.9,230.755c-2.121-11.115-4.23-22.229-6.214-33.366-2-11.224-3.9-22.476-5.535-33.759-1.621-11.156-2.685-22.385-3.634-33.617-.578-6.844-1.123-13.692-1.718-20.533h-4.92S-75.447,170.74-60.4,245.35a9.663,9.663,0,0,0,3.883,3.195Q-58.2,239.649-59.9,230.755Z" transform="translate(81.922 -109.481)" fill="#c9cacc" style="mix-blend-mode: multiply;isolation: isolate"/>
          <path id="Trazado_599968" data-name="Trazado 599968" d="M-41.3,109.481c-1.945,9.843-2.555,19.889-3.441,29.866q-1.369,15.471-3.51,30.864c-1.457,10.59-2.939,21.172-4.315,31.772-1.352,10.409-2.753,20.811-4.349,31.186q-1.164,7.574-2.489,15.12a9.259,9.259,0,0,0,3.414-2.939C-40.935,170.74-34.46,109.481-34.46,109.481Z" transform="translate(114.366 -109.481)" fill="#8b8d8f" opacity="0.38" style="mix-blend-mode: multiply;isolation: isolate"/>
        </g>
        <path id="Trazado_599969" data-name="Trazado 599969" d="M-75.451,112.131s8.1,74.322,16.806,124.169l3.295,1.845L-61.7,112.358Z" transform="translate(97.048 -84.257)" fill="#c9cacc" style="mix-blend-mode: screen;isolation: isolate"/>
        <g id="Grupo_876271" data-name="Grupo 876271" transform="translate(2.276 28.321)">
          <g id="Grupo_876268" data-name="Grupo 876268" transform="translate(0 2.376)">
            <g id="Grupo_876267" data-name="Grupo 876267">
              <path id="Trazado_599970" data-name="Trazado 599970" d="M-3.271,130.609c-49.654-.705-76.665-16.843-76.665-16.843s-2.341-.571-3.126-.015c-.188.132,0,1.3,0,1.438,0,.72,10.792,10.792,48.925,15.83,29.695,3.922,35.391,2.607,35.779,1.154a8.931,8.931,0,0,0,.015-1.694c-.1-.244-1.069-.708-1.262-.9a5.614,5.614,0,0,0-3.6-1.44Z" transform="translate(83.688 -112.969)" fill="#9c9da0"/>
              <path id="Trazado_599971" data-name="Trazado 599971" d="M-5.154,134.466c-5.169,0-13.9-.635-28.733-2.594-36.526-4.825-49.4-14.627-49.4-16.364l-.017-.154c-.1-.9-.134-1.457.246-1.728.942-.659,3.139-.171,3.566-.066a.547.547,0,0,1,.151.061c.266.161,27.281,15.954,75.862,16.755l.054-1.933a.538.538,0,0,1,.539-.525,6.132,6.132,0,0,1,3.981,1.6,3.784,3.784,0,0,0,.378.239c.542.325.881.542,1,.844a7.56,7.56,0,0,1,.007,2.033C2.319,133.251,1.992,134.466-5.154,134.466Zm-77.055-19.078c1,1.635,13.433,10.785,48.463,15.413,32.736,4.322,35.052,2.05,35.186,1.55.022-.149.041-1,.024-1.32-.129-.1-.39-.256-.544-.349a3.232,3.232,0,0,1-.586-.4,4.781,4.781,0,0,0-2.69-1.237l-.054,1.9a.54.54,0,0,1-.542.525h-.007c-25.717-.364-45.251-4.937-57.11-8.711-12.157-3.866-18.973-7.715-19.749-8.161a6.042,6.042,0,0,0-2.467-.151,7.207,7.207,0,0,0,.061.788C-82.219,115.293-82.212,115.344-82.209,115.388Z" transform="translate(83.368 -113.287)" fill="#75797e"/>
            </g>
          </g>
          <g id="Grupo_876270" data-name="Grupo 876270" transform="translate(0.085)">
            <g id="Grupo_876269" data-name="Grupo 876269">
              <path id="Trazado_599972" data-name="Trazado 599972" d="M-3.32,130.57c-44.634-.632-70.968-13.736-75.84-16.379l-.2-1.655s-3.754,1.9-3.754,2.616,10.792,10.79,48.925,15.827,36.692,1.44,35.252,0A20.606,20.606,0,0,0-3.252,128.1Z" transform="translate(83.653 -111.994)" fill="#c9cacc"/>
              <path id="Trazado_599973" data-name="Trazado 599973" d="M-5.119,134.446c-5.113,0-13.833-.63-28.819-2.609-36.526-4.825-49.4-14.629-49.4-16.367,0-.259,0-1.052,4.051-3.1a.534.534,0,0,1,.5.007.545.545,0,0,1,.281.41l.164,1.379c5.389,2.88,31.345,15.456,74.812,16.172l.054-1.933a.54.54,0,0,1,.264-.449.533.533,0,0,1,.52-.022,21.089,21.089,0,0,1,4.457,2.98c.84.842.781,1.5.583,1.9C2.076,133.374,1.547,134.446-5.119,134.446Zm-77.067-18.988c1.423,1.889,14.048,10.77,48.39,15.305,31.325,4.137,34.842,2.255,35.177,1.579.059-.117-.088-.371-.376-.659a17.1,17.1,0,0,0-3.419-2.372l-.044,1.594a.542.542,0,0,1-.542.527h-.007c-44.746-.635-71.237-13.809-76.091-16.445a.536.536,0,0,1-.278-.41l-.1-.879A13.918,13.918,0,0,0-82.186,115.458Z" transform="translate(83.333 -112.314)" fill="#75797e"/>
            </g>
          </g>
        </g>
        <g id="Grupo_876276" data-name="Grupo 876276" transform="translate(3.421 42.649)">
          <g id="Grupo_876273" data-name="Grupo 876273" transform="translate(0 2.314)">
            <g id="Grupo_876272" data-name="Grupo 876272">
              <path id="Trazado_599974" data-name="Trazado 599974" d="M-5.449,135.956C-53.466,135.3-79.573,119.6-79.573,119.6s-2.26-.554-3.021-.012c-.183.129,0,1.264,0,1.4,0,.7,10.429,10.5,47.3,15.383,28.714,3.8,34.222,2.516,34.6,1.1a8.873,8.873,0,0,0,.015-1.65c-.1-.237-1.032-.688-1.218-.876a5.414,5.414,0,0,0-3.478-1.4Z" transform="translate(83.218 -118.814)" fill="#9c9da0"/>
              <path id="Trazado_599975" data-name="Trazado 599975" d="M-7.316,139.735c-5.011,0-13.453-.615-27.733-2.5-35.335-4.679-47.77-14.226-47.768-15.92l-.017-.151c-.1-.874-.129-1.423.242-1.689.92-.654,3.053-.176,3.468-.073a.531.531,0,0,1,.149.061c.259.156,26.364,15.515,73.319,16.267l.054-1.87a.541.541,0,0,1,.539-.525h0A5.907,5.907,0,0,1-1.2,134.888a3.113,3.113,0,0,0,.369.232c.522.317.849.527.969.825a7.733,7.733,0,0,1,.007,1.987C-.019,138.542-.336,139.735-7.316,139.735Zm-74.427-18.544c.976,1.594,13.026,10.492,46.835,14.966,31.63,4.188,33.876,1.982,34.005,1.5.02-.142.039-.959.022-1.279-.122-.1-.369-.244-.513-.329a3.142,3.142,0,0,1-.576-.4,4.585,4.585,0,0,0-2.568-1.189l-.051,1.828a.542.542,0,0,1-.542.525h-.007c-24.87-.337-43.76-4.779-55.224-8.445-11.742-3.754-18.334-7.5-19.1-7.939a5.853,5.853,0,0,0-2.36-.146,7.027,7.027,0,0,0,.059.757C-81.753,121.1-81.748,121.15-81.743,121.191Z" transform="translate(82.898 -119.133)" fill="#75797e"/>
            </g>
          </g>
          <g id="Grupo_876275" data-name="Grupo 876275" transform="translate(0.081)">
            <g id="Grupo_876274" data-name="Grupo 876274">
              <path id="Trazado_599976" data-name="Trazado 599976" d="M-5.5,135.92c-43.157-.588-68.618-13.331-73.326-15.9l-.19-1.613s-3.629,1.85-3.629,2.55,10.426,10.5,47.3,15.383,35.482,1.377,34.091-.024a19.946,19.946,0,0,0-4.173-2.8Z" transform="translate(83.185 -117.865)" fill="#c9cacc"/>
              <path id="Trazado_599977" data-name="Trazado 599977" d="M-7.277,139.714c-4.952,0-13.379-.608-27.821-2.519-35.326-4.676-47.768-14.226-47.768-15.92,0-.256,0-1.032,3.927-3.031a.534.534,0,0,1,.5,0,.533.533,0,0,1,.281.412l.159,1.333c5.22,2.812,30.288,15.024,72.3,15.7l.051-1.87a.539.539,0,0,1,.266-.449.533.533,0,0,1,.52-.02,20.248,20.248,0,0,1,4.313,2.9c.822.827.759,1.474.561,1.872C-.26,138.667-.782,139.714-7.277,139.714Zm-74.441-18.451c1.408,1.85,13.653,10.475,46.762,14.858,30.261,4.005,33.671,2.177,34,1.523.054-.107-.088-.354-.359-.627a16.483,16.483,0,0,0-3.275-2.292l-.041,1.528a.542.542,0,0,1-.542.527h-.007c-43.289-.591-68.884-13.406-73.577-15.969a.534.534,0,0,1-.276-.412l-.1-.827A13.425,13.425,0,0,0-81.718,121.263Z" transform="translate(82.865 -118.185)" fill="#75797e"/>
            </g>
          </g>
        </g>
        <g id="Grupo_876281" data-name="Grupo 876281" transform="translate(6.663 60.363)">
          <g id="Grupo_876278" data-name="Grupo 876278" transform="translate(0 2.185)">
            <g id="Grupo_876277" data-name="Grupo 876277">
              <path id="Trazado_599978" data-name="Trazado 599978" d="M-10.17,142.076c-44.273-.515-68.315-15.283-68.315-15.283s-2.084-.517-2.787,0c-.168.122,0,1.193,0,1.323,0,.661,9.6,9.894,43.582,14.424,26.471,3.527,31.552,2.3,31.9.966a8.514,8.514,0,0,0,.017-1.557c-.085-.225-.949-.647-1.12-.825a4.9,4.9,0,0,0-3.2-1.313Z" transform="translate(81.89 -126.016)" fill="#9c9da0"/>
              <path id="Trazado_599979" data-name="Trazado 599979" d="M-12.015,145.7c-4.647,0-12.411-.569-25.431-2.3C-71.922,138.8-81.5,129.357-81.5,128.432l-.017-.146c-.088-.832-.115-1.355.244-1.616.84-.613,2.69-.217,3.236-.081a.492.492,0,0,1,.151.066c.061.034,6.119,3.715,17.485,7.407,10.407,3.383,27.508,7.463,50.023,7.788l.054-1.74a.541.541,0,0,1,.539-.525h0a5.416,5.416,0,0,1,3.59,1.479,3.569,3.569,0,0,0,.327.212c.493.3.8.5.91.793a7.192,7.192,0,0,1,0,1.892C-5.1,144.545-5.4,145.695-12.015,145.7Zm-68.408-17.4c.5.578,9.133,9.492,43.121,14.021C-8.178,146.2-6.116,144.138-6,143.686a11.668,11.668,0,0,0,.024-1.191c-.115-.085-.329-.22-.459-.3a2.829,2.829,0,0,1-.534-.376,4.1,4.1,0,0,0-2.292-1.1l-.051,1.694a.542.542,0,0,1-.547.525c-22.939-.268-40.353-4.422-50.924-7.861a93.047,93.047,0,0,1-17.594-7.456,5.342,5.342,0,0,0-2.116-.142c0,.144.017.376.051.691Z" transform="translate(81.57 -126.338)" fill="#75797e"/>
            </g>
          </g>
          <g id="Grupo_876280" data-name="Grupo 876280" transform="translate(0.076)">
            <g id="Grupo_876279" data-name="Grupo 876279">
              <path id="Trazado_599980" data-name="Trazado 599980" d="M-10.21,142.045c-39.8-.464-63.246-12.442-67.581-14.859l-.173-1.523s-3.351,1.755-3.353,2.416,9.594,9.894,43.582,14.424,32.714,1.225,31.435-.1a18.28,18.28,0,0,0-3.842-2.633Z" transform="translate(81.859 -125.124)" fill="#c9cacc"/>
              <path id="Trazado_599981" data-name="Trazado 599981" d="M-11.967,145.679c-4.593,0-12.345-.564-25.519-2.319-34.488-4.6-44.056-14.038-44.053-14.963,0-.244,0-.988,3.644-2.892a.537.537,0,0,1,.505,0,.54.54,0,0,1,.283.415l.142,1.245c4.84,2.655,27.891,14.1,66.551,14.651l.051-1.738a.553.553,0,0,1,.266-.452.551.551,0,0,1,.522-.015,18.651,18.651,0,0,1,3.983,2.738c.774.8.705,1.423.513,1.809C-5.338,144.676-5.843,145.679-11.967,145.679Zm-68.4-17.309c1.108,1.154,10.351,9.562,43.026,13.916,27.821,3.707,30.991,2,31.3,1.389.037-.071-.027-.264-.322-.569A14.724,14.724,0,0,0-9.309,141l-.041,1.384a.538.538,0,0,1-.547.525c-39.933-.464-63.517-12.515-67.839-14.927a.541.541,0,0,1-.273-.41l-.081-.725A12.874,12.874,0,0,0-80.37,128.37Z" transform="translate(81.539 -125.443)" fill="#75797e"/>
            </g>
          </g>
        </g>
        <g id="Grupo_876286" data-name="Grupo 876286" transform="translate(9.186 77.041)">
          <g id="Grupo_876283" data-name="Grupo 876283" transform="translate(0 2.018)">
            <g id="Grupo_876282" data-name="Grupo 876282">
              <path id="Trazado_599982" data-name="Trazado 599982" d="M-13.792,147.729c-41.368-.52-63.847-14.187-63.847-14.187s-1.948-.481-2.6-.007c-.159.112,0,1.1,0,1.22,0,.613,8.974,9.152,40.736,13.37,24.733,3.287,29.483,2.16,29.807.927a7.677,7.677,0,0,0,.015-1.44c-.081-.207-.888-.6-1.049-.761a4.612,4.612,0,0,0-2.995-1.218Z" transform="translate(80.856 -132.783)" fill="#9c9da0"/>
              <path id="Trazado_599983" data-name="Trazado 599983" d="M-15.347,151.156c-4.33,0-11.61-.539-23.913-2.175-30.483-4.049-41.207-12.418-41.207-13.907l-.012-.122c-.088-.788-.115-1.284.242-1.538.8-.574,2.536-.205,3.048-.078a.486.486,0,0,1,.151.063c.225.137,22.654,13.48,63.041,14.1l.046-1.562a.538.538,0,0,1,.539-.525h0a5.128,5.128,0,0,1,3.383,1.376,2.851,2.851,0,0,0,.3.19c.464.286.757.473.864.757a6.416,6.416,0,0,1,.007,1.769C-9.014,150.1-9.294,151.156-15.347,151.156ZM-79.4,134.933c.508.566,8.725,8.784,40.275,12.974,27.767,3.69,29.148,1.577,29.217,1.325.017-.117.032-.776.02-1.067-.107-.078-.3-.193-.408-.264a2.69,2.69,0,0,1-.513-.356,3.78,3.78,0,0,0-2.082-1l-.044,1.516a.527.527,0,0,1-.547.527,162.682,162.682,0,0,1-47.6-7.317,87.74,87.74,0,0,1-16.45-6.9,5.3,5.3,0,0,0-1.931-.142c0,.134.02.337.049.608Z" transform="translate(80.536 -133.103)" fill="#75797e"/>
            </g>
          </g>
          <g id="Grupo_876285" data-name="Grupo 876285" transform="translate(0.071)">
            <g id="Grupo_876284" data-name="Grupo 876284">
              <path id="Trazado_599984" data-name="Trazado 599984" d="M-13.832,147.7c-37.185-.469-59.107-11.556-63.161-13.794l-.161-1.406s-3.131,1.616-3.131,2.228,8.974,9.15,40.734,13.367,30.569,1.167,29.373-.054a17.1,17.1,0,0,0-3.593-2.438Z" transform="translate(80.827 -131.957)" fill="#c9cacc"/>
              <path id="Trazado_599985" data-name="Trazado 599985" d="M-15.425,151.112c-4.3,0-11.549-.525-23.877-2.162-30.481-4.049-41.207-12.418-41.2-13.907,0-.256,0-.94,3.424-2.707a.546.546,0,0,1,.5,0,.546.546,0,0,1,.283.417l.129,1.128c4.561,2.475,26.093,13.03,62.131,13.585l.046-1.564a.544.544,0,0,1,.264-.449.537.537,0,0,1,.522-.015,17.4,17.4,0,0,1,3.732,2.538c.74.754.676,1.35.491,1.716C-9.221,150.175-9.692,151.112-15.425,151.112Zm-63.9-16.1c1.147,1.152,9.97,8.85,40.165,12.862,26.671,3.541,29.012,1.73,29.212,1.333.015-.029-.01-.178-.3-.473a13.608,13.608,0,0,0-2.69-1.918l-.034,1.215a.5.5,0,0,1-.549.525c-37.312-.471-59.373-11.63-63.415-13.863a.538.538,0,0,1-.276-.412l-.071-.613A12.441,12.441,0,0,0-79.326,135.016Z" transform="translate(80.507 -132.276)" fill="#75797e"/>
            </g>
          </g>
        </g>
        <g id="Grupo_876291" data-name="Grupo 876291" transform="translate(12.331 93.436)">
          <g id="Grupo_876288" data-name="Grupo 876288" transform="translate(0 1.749)">
            <g id="Grupo_876287" data-name="Grupo 876287">
              <path id="Trazado_599986" data-name="Trazado 599986" d="M-18.264,153c-37.725-.754-58.326-12.271-58.326-12.271s-1.779-1.106-2.375-.718a6.747,6.747,0,0,0,.01,1.7c0,.508,8.252,7.666,37.244,11.415,22.578,2.919,26.9,2.021,27.186,1a13.262,13.262,0,0,0,0-1.789c-.076-.171-.815.09-.962-.046a4.535,4.535,0,0,0-2.741-1.035Z" transform="translate(79.567 -139.395)" fill="#9c9da0"/>
              <path id="Trazado_599987" data-name="Trazado 599987" d="M-19.321,155.957c-3.917,0-10.619-.486-22.139-1.974-29.717-3.844-37.712-11.107-37.717-11.949l-.01-.124c-.117-1.5-.078-1.823.246-2.035.8-.515,2.333.325,2.956.713.183.1,20.721,11.337,57.513,12.179l.027-1.2a.541.541,0,0,1,.539-.53h0a5.137,5.137,0,0,1,2.985,1.074c.051,0,.11-.015.166-.02.312-.039.84-.11,1.042.354a9.218,9.218,0,0,1,.024,2.145C-13.823,155.083-14.067,155.957-19.321,155.957Zm-58.785-14.078c1,1.284,10.48,7.627,36.785,11.029,24.111,3.119,26.393,1.689,26.6,1.372,0-.085.01-.683,0-1.108a.965.965,0,0,1-.822-.168,3.591,3.591,0,0,0-1.843-.83l-.024,1.154a.531.531,0,0,1-.552.527,162.943,162.943,0,0,1-43.455-6.441,83.866,83.866,0,0,1-15.125-5.9,5.766,5.766,0,0,0-1.63-.72c0,.193.015.51.056,1.03Zm63.3,10.331,0,0Z" transform="translate(79.248 -139.71)" fill="#75797e"/>
            </g>
          </g>
          <g id="Grupo_876290" data-name="Grupo 876290" transform="translate(0.063)">
            <g id="Grupo_876289" data-name="Grupo 876289">
              <path id="Trazado_599988" data-name="Trazado 599988" d="M-18.308,152.325c-33.91-.678-53.984-10.053-57.7-11.942l-.159-1.167S-79,140.532-79,141.039s8.254,7.666,37.246,11.415,27.882,1.2,26.781.183a14.427,14.427,0,0,0-3.058-1.935Z" transform="translate(79.541 -138.674)" fill="#c9cacc"/>
              <path id="Trazado_599989" data-name="Trazado 599989" d="M-19.29,155.3c-3.873,0-10.565-.481-22.217-1.989-29.717-3.842-37.71-11.1-37.715-11.947,0-.276-.007-.854,3.151-2.319a.54.54,0,0,1,.486.017.537.537,0,0,1,.276.4l.122.886c4.242,2.116,23.95,11.01,56.742,11.747l.2-1.167a.546.546,0,0,1,.283-.388.546.546,0,0,1,.481-.01,14.813,14.813,0,0,1,3.195,2.031c.7.644.659,1.176.5,1.511C-13.994,154.519-14.363,155.3-19.29,155.3Zm-58.724-13.936c1.545,1.569,11.266,7.593,36.646,10.875,23.737,3.07,26.317,1.73,26.593,1.386-.02-.007-.073-.1-.249-.271a11.67,11.67,0,0,0-2.28-1.518l-.154.9a.542.542,0,0,1-.532.452H-18c-34.015-.681-54.223-10.116-57.928-12a.545.545,0,0,1-.293-.41l-.056-.43A12.74,12.74,0,0,0-78.014,141.362Z" transform="translate(79.222 -138.994)" fill="#75797e"/>
            </g>
          </g>
        </g>
        <g id="Grupo_876296" data-name="Grupo 876296" transform="translate(14.498 108.571)">
          <g id="Grupo_876293" data-name="Grupo 876293" transform="translate(0 1.848)">
            <g id="Grupo_876292" data-name="Grupo 876292">
              <path id="Trazado_599990" data-name="Trazado 599990" d="M-22.155,159.114c-34.835-.359-53.735-12.132-53.735-12.132s-1.63-1.13-2.184-.72a7.842,7.842,0,0,0-.012,1.774c0,.53,7.537,7.9,34.274,11.478,20.823,2.787,24.824,1.8,25.1.735a15.3,15.3,0,0,0,.022-1.862c-.068-.178-.752.1-.886-.039A3.8,3.8,0,0,0-22.1,157.3Z" transform="translate(78.68 -145.635)" fill="#9c9da0"/>
              <path id="Trazado_599991" data-name="Trazado 599991" d="M-23.585,162.187c-3.685,0-9.8-.456-19.979-1.818-25.714-3.446-34.75-10.717-34.745-12.015l-.007-.137c-.09-1.545-.054-1.855.237-2.072.786-.581,2.233.3,2.819.71.166.1,18.978,11.561,52.9,12.03l.042-1.284a.537.537,0,0,1,.537-.522h0A4.382,4.382,0,0,1-19,158.155l.107-.015c.276-.046.842-.129,1.032.373a11.029,11.029,0,0,1,0,2.187C-18.006,161.232-18.255,162.184-23.585,162.187Zm-53.647-13.958c.866,1.306,9.5,7.81,33.812,11.068,22.437,3,24.35,1.469,24.5,1.13.01-.1.027-.744.027-1.2a.853.853,0,0,1-.759-.193,3.022,3.022,0,0,0-1.608-.818l-.037,1.228a.542.542,0,0,1-.542.525h0c-34.588-.359-53.825-12.1-54.016-12.215a5.113,5.113,0,0,0-1.42-.71c0,.2.007.542.039,1.106Z" transform="translate(78.36 -145.952)" fill="#75797e"/>
            </g>
          </g>
          <g id="Grupo_876295" data-name="Grupo 876295" transform="translate(0.063)">
            <g id="Grupo_876294" data-name="Grupo 876294">
              <path id="Trazado_599992" data-name="Trazado 599992" d="M-22.18,158.429c-31.313-.325-49.747-9.87-53.157-11.8l-.134-1.218s-2.638,1.406-2.641,1.935,7.537,7.9,34.274,11.476,25.739.942,24.733-.11a12.7,12.7,0,0,0-2.8-1.984Z" transform="translate(78.654 -144.877)" fill="#c9cacc"/>
              <path id="Trazado_599993" data-name="Trazado 599993" d="M-23.628,161.5a163.4,163.4,0,0,1-19.962-1.813c-25.714-3.444-34.75-10.717-34.745-12.015,0-.256,0-.852,2.929-2.409a.544.544,0,0,1,.505,0,.545.545,0,0,1,.286.42l.1.94C-70.6,148.78-52.534,157.8-22.319,158.2l.2-1.237a.534.534,0,0,1,.29-.4.528.528,0,0,1,.491,0,13.076,13.076,0,0,1,2.943,2.092c.657.686.591,1.233.417,1.572C-18.195,160.661-18.619,161.5-23.628,161.5ZM-77.163,147.67c1.284,1.552,10.107,7.778,33.715,10.941,22.429,3,24.35,1.472,24.506,1.132h0a.86.86,0,0,0-.234-.334,10.1,10.1,0,0,0-2-1.5l-.149.927a.538.538,0,0,1-.534.454h0c-31.44-.322-50.016-9.941-53.42-11.864a.553.553,0,0,1-.271-.412l-.044-.405A10.213,10.213,0,0,0-77.163,147.67Z" transform="translate(78.334 -145.195)" fill="#75797e"/>
            </g>
          </g>
        </g>
        <g id="Grupo_876301" data-name="Grupo 876301" transform="translate(17.559 124.472)">
          <g id="Grupo_876298" data-name="Grupo 876298" transform="translate(0 1.612)">
            <g id="Grupo_876297" data-name="Grupo 876297">
              <path id="Trazado_599994" data-name="Trazado 599994" d="M-26.662,164.032C-57.9,163.644-74.869,153.3-74.869,153.3s-1.464-.991-1.96-.635a6.757,6.757,0,0,0-.007,1.555c0,.461,6.775,6.924,30.754,10.114,18.678,2.482,22.263,1.628,22.507.693a12.945,12.945,0,0,0,.017-1.628c-.061-.159-.676.085-.8-.037a3.478,3.478,0,0,0-2.262-.923Z" transform="translate(77.425 -152.053)" fill="#9c9da0"/>
              <path id="Trazado_599995" data-name="Trazado 599995" d="M-27.774,166.832a150.225,150.225,0,0,1-18.056-1.64c-24.645-3.278-31.23-9.882-31.228-10.653l-.007-.115c-.085-1.386-.049-1.669.242-1.877.693-.5,1.916.178,2.58.627.144.088,17.006,10.136,47.377,10.626l.029-1.054a.543.543,0,0,1,.539-.525h0a4.064,4.064,0,0,1,2.507.947l.076-.012c.254-.037.793-.117.979.369a9.242,9.242,0,0,1,0,1.962C-22.864,166-23.086,166.832-27.774,166.832ZM-75.982,154.4c.844,1.167,8.708,6.846,30.293,9.716,19.774,2.629,21.731,1.355,21.922,1.071,0-.071.01-.556.01-.937a.761.761,0,0,1-.664-.193,2.678,2.678,0,0,0-1.352-.691l-.027,1a.541.541,0,0,1-.549.525c-31.025-.383-48.31-10.7-48.48-10.807a4.941,4.941,0,0,0-1.193-.6c0,.181.012.454.037.874Zm52.332,8.9h0Z" transform="translate(77.106 -152.371)" fill="#75797e"/>
            </g>
          </g>
          <g id="Grupo_876300" data-name="Grupo 876300" transform="translate(0.055)">
            <g id="Grupo_876299" data-name="Grupo 876299">
              <path id="Trazado_599996" data-name="Trazado 599996" d="M-26.687,163.427c-28.077-.347-44.627-8.737-47.687-10.431l-.122-1.064s-2.365,1.225-2.365,1.686,6.773,6.926,30.754,10.114,23.081.876,22.178-.046a11.509,11.509,0,0,0-2.516-1.743Z" transform="translate(77.403 -151.391)" fill="#c9cacc"/>
              <path id="Trazado_599997" data-name="Trazado 599997" d="M-27.817,166.226a149.988,149.988,0,0,1-18.041-1.638c-24.643-3.278-31.228-9.88-31.225-10.651,0-.256,0-.791,2.655-2.167a.551.551,0,0,1,.505,0,.55.55,0,0,1,.283.415l.09.788c3.558,1.926,19.728,9.8,46.723,10.224l.166-1.023a.541.541,0,0,1,.29-.4.538.538,0,0,1,.488,0,12.009,12.009,0,0,1,2.658,1.848c.613.625.554,1.132.4,1.45C-23.036,165.489-23.4,166.226-27.817,166.226Zm-48.07-12.284c1.316,1.43,9.372,6.809,30.171,9.572,19.408,2.582,21.653,1.4,21.912,1.089-.02-.007-.063-.088-.19-.22a8.952,8.952,0,0,0-1.721-1.272l-.117.722a.562.562,0,0,1-.542.454c-28.214-.349-44.888-8.808-47.943-10.5a.554.554,0,0,1-.276-.412l-.029-.266A10.087,10.087,0,0,0-75.887,153.943Zm-.149.154Z" transform="translate(77.083 -151.71)" fill="#75797e"/>
            </g>
          </g>
        </g>
        <g id="Grupo_876306" data-name="Grupo 876306" transform="translate(21.854 141.074)">
          <g id="Grupo_876303" data-name="Grupo 876303" transform="translate(0 1.535)">
            <g id="Grupo_876302" data-name="Grupo 876302">
              <path id="Trazado_599998" data-name="Trazado 599998" d="M-32.213,169.732c-26.742-.11-41.185-9.714-41.185-9.714s-1.247-.923-1.674-.581a6.99,6.99,0,0,0-.02,1.464c0,.434,5.743,6.468,26.249,9.277,15.971,2.184,19.047,1.352,19.264.469a12.891,12.891,0,0,0,.027-1.535c-.049-.146-.578.088-.681-.027a2.758,2.758,0,0,0-1.928-.849Z" transform="translate(75.666 -158.823)" fill="#9c9da0"/>
              <path id="Trazado_599999" data-name="Trazado 599999" d="M-33.446,172.43a121.087,121.087,0,0,1-15.149-1.4c-21.124-2.892-26.727-9.086-26.717-9.819l-.007-.117c-.061-1.308-.029-1.557.227-1.762.654-.52,1.743.132,2.333.569.122.078,14.426,9.377,40.343,9.6l.034-.971a.54.54,0,0,1,.535-.52,3.323,3.323,0,0,1,2.177.862h.007c.19-.037.766-.132.942.378a9.37,9.37,0,0,1-.012,1.843C-28.857,171.6-29.065,172.43-33.446,172.43Zm-40.79-11.349c.449.53,5.767,6.138,25.785,8.879,16.806,2.3,18.5,1.118,18.676.857,0-.061.012-.491.015-.842a.641.641,0,0,1-.559-.215,2,2,0,0,0-1-.586l-.032.9a.543.543,0,0,1-.542.522h0c-26.593-.11-41.334-9.709-41.481-9.8a4.433,4.433,0,0,0-.883-.508c0,.171.007.415.024.766Zm44.724,7.959,0,0Z" transform="translate(75.346 -159.141)" fill="#75797e"/>
            </g>
          </g>
          <g id="Grupo_876305" data-name="Grupo 876305" transform="translate(0.051)">
            <g id="Grupo_876304" data-name="Grupo 876304">
              <path id="Trazado_600000" data-name="Trazado 600000" d="M-32.226,169.173c-24.035-.1-38.137-7.866-40.744-9.438l-.1-1s-2.033,1.172-2.038,1.608,5.743,6.47,26.249,9.277,19.754.637,18.988-.227a9.647,9.647,0,0,0-2.14-1.618Z" transform="translate(75.645 -158.193)" fill="#c9cacc"/>
              <path id="Trazado_600001" data-name="Trazado 600001" d="M-33.461,171.871a120.913,120.913,0,0,1-15.146-1.4c-21.124-2.89-26.725-9.086-26.717-9.816,0-.225.007-.744,2.309-2.072a.545.545,0,0,1,.52-.012.545.545,0,0,1,.288.43l.071.727c3.075,1.809,16.8,9.03,39.77,9.218l.146-.94a.541.541,0,0,1,.3-.4.529.529,0,0,1,.5.012,10.131,10.131,0,0,1,2.284,1.733,1.186,1.186,0,0,1,.308,1.418C-29.044,171.166-29.422,171.871-33.461,171.871Zm-40.67-11.219c.952,1,6.736,6.158,25.67,8.75,16.545,2.265,18.449,1.154,18.666.871-.015-.007-.046-.078-.156-.2a7.026,7.026,0,0,0-1.328-1.093l-.093.6a.543.543,0,0,1-.534.459h0c-24.174-.1-38.41-7.944-41.019-9.516a.545.545,0,0,1-.261-.41l-.012-.139A8.6,8.6,0,0,0-74.132,160.652Z" transform="translate(75.325 -158.512)" fill="#75797e"/>
            </g>
          </g>
        </g>
        <path id="Trazado_600002" data-name="Trazado 600002" d="M-68.687,124.23a121.02,121.02,0,0,0,19.271,2.8,162.906,162.906,0,0,0,18.493.376,111.469,111.469,0,0,0,20.247-2.5,69.4,69.4,0,0,0,7.083-2.009c1.067-8.589,1.577-13.414,1.577-13.414H-81.922s.408,3.861,1.257,10.824A69.457,69.457,0,0,0-68.687,124.23Z" transform="translate(87.726 -88.074)" fill="#8b8d8f" style="mix-blend-mode: multiply;isolation: isolate"/>
        <g id="Grupo_876311" data-name="Grupo 876311" transform="translate(5.028 14.805)">
          <g id="Grupo_876308" data-name="Grupo 876308" transform="translate(0 2.352)">
            <g id="Grupo_876307" data-name="Grupo 876307">
              <path id="Trazado_600003" data-name="Trazado 600003" d="M-2.9,124.9c-49.183-.7-75.935-16.682-75.935-16.682s-2.319-.566-3.1-.017c-.185.132,0,1.289,0,1.425,0,.713,10.69,10.69,48.458,15.679,29.414,3.885,35.055,2.582,35.438,1.145a8.774,8.774,0,0,0,.015-1.679c-.1-.242-1.057-.7-1.247-.891a5.565,5.565,0,0,0-3.563-1.425Z" transform="translate(82.559 -107.421)" fill="#9c9da0"/>
              <path id="Trazado_600004" data-name="Trazado 600004" d="M-4.768,128.727c-5.123,0-13.777-.63-28.46-2.568-36.182-4.779-48.93-14.492-48.93-16.215l-.015-.154c-.1-.886-.134-1.445.244-1.713.935-.657,3.112-.171,3.536-.066a.482.482,0,0,1,.151.061c.266.159,27.015,15.8,75.13,16.6l.054-1.911a.542.542,0,0,1,.542-.525,6.078,6.078,0,0,1,3.944,1.582,4.1,4.1,0,0,0,.378.239c.535.322.871.534.991.835a7.654,7.654,0,0,1,.007,2.018C2.639,127.521,2.317,128.727-4.768,128.727Zm-76.316-18.9c.993,1.618,13.321,10.68,48,15.259,32.414,4.283,34.713,2.035,34.845,1.54a12.545,12.545,0,0,0,.024-1.306c-.127-.1-.383-.251-.532-.339a3.365,3.365,0,0,1-.586-.4,4.742,4.742,0,0,0-2.655-1.223l-.054,1.874a.553.553,0,0,1-.547.525c-25.473-.361-44.822-4.891-56.569-8.628-12.037-3.827-18.79-7.639-19.562-8.086a5.977,5.977,0,0,0-2.438-.149,7.621,7.621,0,0,0,.061.776C-81.093,109.729-81.086,109.783-81.084,109.827Z" transform="translate(82.24 -107.74)" fill="#75797e"/>
            </g>
          </g>
          <g id="Grupo_876310" data-name="Grupo 876310" transform="translate(0.082)">
            <g id="Grupo_876309" data-name="Grupo 876309">
              <path id="Trazado_600005" data-name="Trazado 600005" d="M-2.952,124.861c-44.209-.627-70.295-13.6-75.117-16.223l-.2-1.64s-3.717,1.879-3.717,2.589,10.69,10.69,48.458,15.679,36.343,1.425,34.918,0a20.5,20.5,0,0,0-4.276-2.851Z" transform="translate(82.526 -106.456)" fill="#c9cacc"/>
              <path id="Trazado_600006" data-name="Trazado 600006" d="M-4.736,128.707c-5.064,0-13.7-.625-28.541-2.585-36.182-4.779-48.93-14.492-48.93-16.213,0-.259,0-1.047,4.015-3.075a.534.534,0,0,1,.5.007.533.533,0,0,1,.281.412l.163,1.359c5.34,2.858,31.035,15.308,74.087,16.018l.054-1.911a.549.549,0,0,1,.264-.449.539.539,0,0,1,.52-.02A20.867,20.867,0,0,1,2.1,125.2c.835.837.774,1.491.576,1.891C2.4,127.643,1.873,128.707-4.736,128.707ZM-81.056,109.9c1.425,1.877,13.948,10.668,47.922,15.154,31.018,4.1,34.505,2.233,34.837,1.567.056-.115-.088-.364-.373-.647a16.978,16.978,0,0,0-3.375-2.345l-.046,1.572a.538.538,0,0,1-.539.525h-.007c-44.334-.627-70.561-13.677-75.369-16.286a.536.536,0,0,1-.278-.412l-.1-.862A13.816,13.816,0,0,0-81.056,109.9Z" transform="translate(82.206 -106.776)" fill="#75797e"/>
            </g>
          </g>
        </g>
        <g id="Grupo_876316" data-name="Grupo 876316">
          <g id="Grupo_876312" data-name="Grupo 876312" transform="translate(0.069 6.836)">
            <path id="Trazado_600007" data-name="Trazado 600007" d="M-34.93,103.732H-84.05l2.128,17.414a1.043,1.043,0,0,0-.051.31c0,3.522,19.254,6.38,43.006,6.38s43.009-2.858,43.009-6.38h.034l2.167-17.724Z" transform="translate(84.591 -103.193)" fill="#c9cacc"/>
            <path id="Trazado_600008" data-name="Trazado 600008" d="M-38.647,128.693c-21.111,0-43.548-2.426-43.548-6.919a1.474,1.474,0,0,1,.044-.351l-2.116-17.306a.533.533,0,0,1,.132-.422.535.535,0,0,1,.405-.183H6.563a.545.545,0,0,1,.537.605L4.932,121.838a.527.527,0,0,1-.054.176C4.093,126.355-17.914,128.693-38.647,128.693Zm-44.473-24.1,2.055,16.806a.573.573,0,0,1-.02.232.456.456,0,0,0-.029.144c0,2.384,15.122,5.838,42.467,5.838s42.467-3.453,42.467-5.838a.539.539,0,0,1,.061-.251l2.072-16.931Z" transform="translate(84.272 -103.511)" fill="#95999f"/>
          </g>
          <path id="Trazado_600009" data-name="Trazado 600009" d="M-73.995,103.732H-84.05l2.128,17.414a1.043,1.043,0,0,0-.051.31c0,1.491,3.471,2.865,9.267,3.951C-73.189,118.188-73.494,110.951-73.995,103.732Z" transform="translate(84.66 -96.356)" fill="#c9cacc" style="mix-blend-mode: multiply;isolation: isolate"/>
          <path id="Trazado_600010" data-name="Trazado 600010" d="M-65.852,103.732h-8.132c.517,7.827,1.171,15.644,1.779,23.464,2.075.149,4.242.276,6.487.373C-66.125,119.633-66.086,111.679-65.852,103.732Z" transform="translate(99.161 -96.356)" fill="#c9cacc" style="mix-blend-mode: screen;isolation: isolate"/>
          <path id="Trazado_600011" data-name="Trazado 600011" d="M-53.065,103.732c-.01.124-.015.251-.024.376-.532,7.466-1.223,14.924-1.716,22.393,10.165-1.167,16.716-2.992,16.716-5.045h.034l2.167-17.724Z" transform="translate(126.791 -96.356)" fill="#c9cacc" style="mix-blend-mode: multiply;isolation: isolate"/>
          <g id="Grupo_876313" data-name="Grupo 876313">
            <ellipse id="Elipse_5067" data-name="Elipse 5067" cx="45.215" cy="6.835" rx="45.215" ry="6.835" transform="translate(0.541 0.541)" fill="#989a9c"/>
            <path id="Trazado_600012" data-name="Trazado 600012" d="M-38.543,115.461A225.806,225.806,0,0,1-70.6,113.452c-9.094-1.374-13.7-3.18-13.7-5.367s4.61-3.993,13.7-5.367a225.782,225.782,0,0,1,32.053-2.009,225.807,225.807,0,0,1,32.053,2.009c9.094,1.374,13.7,3.18,13.7,5.367s-4.61,3.993-13.7,5.367A225.807,225.807,0,0,1-38.543,115.461Zm0-13.67c-26.327,0-44.676,3.317-44.676,6.294s18.349,6.294,44.676,6.294,44.676-3.317,44.676-6.294S-12.216,101.791-38.543,101.791Z" transform="translate(84.3 -100.71)" fill="#7a7e83"/>
          </g>
          <g id="Grupo_876314" data-name="Grupo 876314" transform="translate(7.083 2.16)">
            <ellipse id="Elipse_5068" data-name="Elipse 5068" cx="38.132" cy="4.317" rx="38.132" ry="4.317" transform="translate(0.542 0.539)" fill="#7a7c7f"/>
            <path id="Trazado_600013" data-name="Trazado 600013" d="M-42.724,111.309c-13.377,0-38.674-1.015-38.674-4.857s25.3-4.857,38.674-4.857,38.672,1.015,38.672,4.857S-29.349,111.309-42.724,111.309Zm0-8.632c-22.72,0-37.207,2.2-37.593,3.781.386,1.567,14.873,3.771,37.593,3.771,22.686,0,37.163-2.2,37.588-3.776C-5.561,104.873-20.038,102.676-42.724,102.676Zm37.59,3.781h0Z" transform="translate(81.398 -101.595)" fill="#575b5f"/>
          </g>
          <g id="Grupo_876315" data-name="Grupo 876315" transform="translate(12.739 7.016)" style="mix-blend-mode: multiply;isolation: isolate">
            <ellipse id="Elipse_5069" data-name="Elipse 5069" cx="33.017" cy="2.158" rx="33.017" ry="2.158" fill="#7a7c7f"/>
          </g>
        </g>
      </g>
      <g id="Grupo_876322" data-name="Grupo 876322">
        <g id="Grupo_876319" data-name="Grupo 876319">
          <g id="Grupo_876318" data-name="Grupo 876318">
            <path id="Trazado_600014" data-name="Trazado 600014" d="M33.606,67.242c-5.8-7.69-14.954-11.176-24.3-11.7-15.718-.879-30.9,3.275-46.77,1.711-7.512-.74-15.083-2.133-22.654-1.711-9.35.525-18.5,4.01-24.3,11.7-14.134,18.739-5.962,45.742-2.353,66.436,2.111,12.093,4.327,24.147,6.375,36.221,15.286,5.089,57.806,15.793,110.038-.293,2.031-11.976,4.23-23.933,6.321-35.928C39.568,112.984,47.739,85.981,33.606,67.242Z" transform="translate(92.987 -54.88)" fill="#fff"/>
            <path id="Trazado_600015" data-name="Trazado 600015" d="M-26.227,179a174.018,174.018,0,0,1-54.016-8.266l-.308-.1-.054-.32c-1.24-7.319-2.565-14.756-3.846-21.948q-1.27-7.128-2.526-14.273c-.5-2.858-1.076-5.792-1.686-8.9-3.837-19.505-8.183-41.615,4.139-57.952,5.347-7.09,14.121-11.322,24.7-11.915a95.68,95.68,0,0,1,16.828,1.042c1.974.237,3.944.476,5.911.671,8.391.83,16.745.029,24.826-.742,7.141-.681,14.519-1.384,21.922-.971,10.583.593,19.354,4.825,24.7,11.915h0c12.325,16.337,7.978,38.447,4.142,57.952-.613,3.109-1.189,6.043-1.689,8.9q-1.252,7.19-2.538,14.361c-1.259,7.068-2.563,14.378-3.783,21.568l-.056.327-.317.1A191.1,191.1,0,0,1-26.227,179Zm-53.364-9.191c15.918,5.25,57.716,15.422,109.081-.3,1.206-7.09,2.487-14.285,3.727-21.248q1.278-7.172,2.541-14.356c.5-2.868,1.079-5.809,1.691-8.923,3.793-19.286,8.091-41.142-3.944-57.1C28.353,61.056,19.864,56.978,9.606,56.4c-7.315-.41-14.658.29-21.758.969-8.132.774-16.545,1.577-25.036.74-1.974-.2-3.951-.434-5.933-.676A95.472,95.472,0,0,0-59.758,56.4c-10.258.574-18.746,4.654-23.9,11.483-12.032,15.954-7.734,37.81-3.942,57.1.613,3.114,1.191,6.055,1.689,8.923q1.248,7.142,2.526,14.27C-82.122,155.261-80.816,162.588-79.591,169.807Z" transform="translate(92.653 -55.198)" fill="#cbcfd5"/>
          </g>
        </g>
        <g id="Grupo_876320" data-name="Grupo 876320" transform="translate(0.565 0.539)" opacity="0.58" style="mix-blend-mode: multiply;isolation: isolate">
          <path id="Trazado_600016" data-name="Trazado 600016" d="M33.606,67.242c-5.8-7.69-14.954-11.176-24.3-11.7-15.718-.879-30.9,3.275-46.77,1.711-7.512-.74-15.083-2.133-22.654-1.711-9.35.525-18.5,4.01-24.3,11.7-14.134,18.739-5.962,45.742-2.353,66.436,2.111,12.093,4.327,24.147,6.375,36.221,15.286,5.089,57.806,15.793,110.038-.293,2.031-11.976,4.23-23.933,6.321-35.928C39.568,112.984,47.739,85.981,33.606,67.242ZM8.2,124.443A78.874,78.874,0,0,1,3.5,145.9c-2.511,6.385-6.307,12.345-11.839,16.513a30.232,30.232,0,0,1-9.431,4.749,58.323,58.323,0,0,1-11.5,1.931c-8.052.761-16.352.669-24.228-1.335-7.524-1.913-14.544-5.806-19.169-12.171a56.7,56.7,0,0,1-6.887-13.943,127.208,127.208,0,0,1-4.4-14.912c-.278-.886-.547-1.777-.8-2.672a86.7,86.7,0,0,1-2.677-14.139,103.3,103.3,0,0,1-.417-13.768,82.53,82.53,0,0,1,1.389-13.685,35.4,35.4,0,0,1,4.74-12.562,21.286,21.286,0,0,1,10.124-8.415A26.852,26.852,0,0,1-59.5,60.369c4.308.425,8.545,1.35,12.823,2a48.776,48.776,0,0,0,6.792.659,45.058,45.058,0,0,0,7.312-.625c4.969-.759,9.914-1.928,14.961-2.009a22.108,22.108,0,0,1,12.8,3.495C1.126,67.862,4.165,74.857,5.9,81.539a102.533,102.533,0,0,1,2.731,22.07A158.27,158.27,0,0,1,8.2,124.443Z" transform="translate(92.421 -55.418)" fill="#e6e7e8"/>
        </g>
        <g id="Grupo_876321" data-name="Grupo 876321" transform="translate(87.489 0.539)" opacity="0.58" style="mix-blend-mode: multiply;isolation: isolate">
          <path id="Trazado_600017" data-name="Trazado 600017" d="M-17.7,67.242c-5.8-7.69-14.954-11.176-24.3-11.7a109.537,109.537,0,0,0-14.8.337,51.006,51.006,0,0,1,10.941,1.962A33.232,33.232,0,0,1-33.027,65.2a32.705,32.705,0,0,1,7.493,10.849,48,48,0,0,1,3.473,13.336,120.77,120.77,0,0,1,.593,17.753A242.28,242.28,0,0,1-26,145.749c-1.142,6.06-2.675,12.015-4.1,18.009-.686,2.875-1.33,5.775-1.821,8.7q5.052-1.259,10.243-2.851c2.031-11.976,4.23-23.933,6.321-35.928C-11.74,112.984-3.569,85.981-17.7,67.242Z" transform="translate(56.806 -55.418)" fill="#e6e7e8"/>
        </g>
      </g>
    </g>
    <g id="Grupo_876329" data-name="Grupo 876329" transform="translate(-147.628 44.262)">
      <path id="Trazado_600098" data-name="Trazado 600098" d="M46.455,0A46.455,46.455,0,1,1,0,46.455,46.455,46.455,0,0,1,46.455,0Z" transform="translate(0 88.883) rotate(-73.07)" fill="#2993c8"/>
      <g id="Grupo_876328" data-name="Grupo 876328" transform="translate(27.337 29.915)">
        <g id="Grupo_876325" data-name="Grupo 876325">
          <g id="Grupo_876324" data-name="Grupo 876324">
            <path id="Trazado_600018" data-name="Trazado 600018" d="M-83.19,61.967c-2.633-3.493-6.79-5.076-11.036-5.313-7.139-.4-14.034,1.486-21.241.776-3.412-.337-6.848-.969-10.287-.776-4.247.237-8.4,1.821-11.036,5.313-6.421,8.508-2.709,20.772-1.069,30.171.957,5.491,1.965,10.966,2.895,16.45a83.451,83.451,0,0,0,49.972-.134c.923-5.438,1.921-10.868,2.873-16.316C-80.481,82.739-76.771,70.475-83.19,61.967Z" transform="translate(140.622 -56.408)" fill="#fff"/>
            <path id="Trazado_600019" data-name="Trazado 600019" d="M-110.4,112.628a78.964,78.964,0,0,1-24.514-3.751l-.107-.037-.017-.11c-.561-3.314-1.162-6.68-1.743-9.936q-.578-3.255-1.152-6.514c-.227-1.3-.488-2.631-.766-4.044-1.74-8.845-3.712-18.873,1.87-26.273,2.419-3.207,6.387-5.12,11.176-5.386a43.481,43.481,0,0,1,7.634.471c.881.107,1.791.217,2.685.305a58.239,58.239,0,0,0,11.285-.337,65.853,65.853,0,0,1,9.946-.439c4.791.266,8.759,2.179,11.178,5.386,5.582,7.4,3.61,17.428,1.87,26.273-.278,1.413-.539,2.746-.766,4.044q-.571,3.262-1.152,6.514c-.574,3.212-1.167,6.534-1.721,9.8l-.02.115-.11.034A86.746,86.746,0,0,1-110.4,112.628Zm-24.287-4.073a83.186,83.186,0,0,0,49.64-.134c.549-3.234,1.135-6.516,1.7-9.692q.578-3.255,1.152-6.512c.227-1.3.491-2.638.769-4.051,1.723-8.769,3.678-18.71-1.8-25.976h0c-2.348-3.117-6.219-4.976-10.895-5.24a65.832,65.832,0,0,0-9.889.442,58.567,58.567,0,0,1-11.359.334c-.9-.088-1.811-.2-2.694-.305a43.53,43.53,0,0,0-7.566-.471c-4.676.264-8.547,2.123-10.9,5.24-5.479,7.266-3.524,17.206-1.8,25.976.278,1.413.542,2.748.769,4.051q.567,3.258,1.152,6.512C-135.831,101.948-135.238,105.277-134.682,108.554Z" transform="translate(140.505 -56.52)" fill="#cbcfd5"/>
          </g>
        </g>
        <g id="Grupo_876326" data-name="Grupo 876326" transform="translate(0.199 0.189)" opacity="0.58" style="mix-blend-mode: multiply;isolation: isolate">
          <path id="Trazado_600020" data-name="Trazado 600020" d="M-83.19,61.967c-2.633-3.493-6.79-5.076-11.036-5.313-7.139-.4-14.034,1.486-21.241.776-3.412-.337-6.848-.969-10.287-.776-4.247.237-8.4,1.821-11.036,5.313-6.421,8.508-2.709,20.772-1.069,30.171.957,5.491,1.965,10.966,2.895,16.45a83.451,83.451,0,0,0,49.972-.134c.923-5.438,1.921-10.868,2.873-16.316C-80.481,82.739-76.771,70.475-83.19,61.967ZM-94.729,87.942a35.749,35.749,0,0,1-2.136,9.748,16.971,16.971,0,0,1-5.377,7.5,13.707,13.707,0,0,1-4.281,2.158,26.634,26.634,0,0,1-5.223.876,32.371,32.371,0,0,1-11-.605,15.142,15.142,0,0,1-8.706-5.528,25.736,25.736,0,0,1-3.129-6.333,58.2,58.2,0,0,1-2-6.77c-.127-.4-.249-.808-.361-1.213a39.382,39.382,0,0,1-1.215-6.424,46.878,46.878,0,0,1-.19-6.25,37.416,37.416,0,0,1,.632-6.216,16.02,16.02,0,0,1,2.153-5.7,9.656,9.656,0,0,1,4.6-3.822,12.177,12.177,0,0,1,5.494-.51c1.955.193,3.881.613,5.823.905a22.534,22.534,0,0,0,3.083.3,20.757,20.757,0,0,0,3.322-.283,49.928,49.928,0,0,1,6.795-.913,10.035,10.035,0,0,1,5.814,1.586c2.7,1.806,4.076,4.981,4.867,8.017a46.629,46.629,0,0,1,1.24,10.024A72,72,0,0,1-94.729,87.942Z" transform="translate(140.424 -56.597)" fill="#e6e7e8"/>
        </g>
        <g id="Grupo_876327" data-name="Grupo 876327" transform="translate(39.675 0.188)" opacity="0.58" style="mix-blend-mode: multiply;isolation: isolate">
          <path id="Trazado_600021" data-name="Trazado 600021" d="M-106.491,61.967c-2.633-3.493-6.79-5.076-11.036-5.313a49.739,49.739,0,0,0-6.721.151,23.163,23.163,0,0,1,4.969.891,15.122,15.122,0,0,1,5.831,3.341,14.876,14.876,0,0,1,3.4,4.928,21.832,21.832,0,0,1,1.577,6.055,54.907,54.907,0,0,1,.271,8.064,110.084,110.084,0,0,1-2.057,17.536c-.517,2.753-1.213,5.455-1.862,8.178-.31,1.306-.6,2.624-.825,3.951,1.528-.383,3.08-.81,4.649-1.3.923-5.438,1.921-10.868,2.873-16.316C-103.782,82.739-100.072,70.475-106.491,61.967Z" transform="translate(124.249 -56.597)" fill="#e6e7e8"/>
        </g>
      </g>
    </g>
    <g id="Grupo_876334" data-name="Grupo 876334" transform="translate(-154.537 138.959)">
      <path id="Trazado_601989" data-name="Trazado 601989" d="M46.454,0A46.454,46.454,0,1,1,0,46.454,46.454,46.454,0,0,1,46.454,0Z" transform="translate(0 75.212) rotate(-54.05)" fill="#2993c8"/>
      <g id="Grupo_876333" data-name="Grupo 876333" transform="translate(43.007 37.762)">
        <g id="Grupo_876330" data-name="Grupo 876330" transform="translate(5.568 18.307)">
          <path id="Trazado_600022" data-name="Trazado 600022" d="M-102.316,106.12h-32.233l4.088,29.588h.1a.307.307,0,0,0-.029.12c0,1,5.345,1.806,11.935,1.806s11.937-.808,11.937-1.806a.307.307,0,0,0-.029-.12h.139Z" transform="translate(134.757 -105.915)" fill="#c9cacc"/>
          <path id="Trazado_600023" data-name="Trazado 600023" d="M-118.331,137.959c-4.835,0-12.008-.525-12.14-1.97a.2.2,0,0,1-.073-.132l-4.088-29.588a.2.2,0,0,1,.049-.164.2.2,0,0,1,.156-.071h32.233a.2.2,0,0,1,.154.071.2.2,0,0,1,.049.164l-4.088,29.588a.206.206,0,0,1-.115.156C-106.4,137.439-113.523,137.959-118.331,137.959Zm-11.825-2.321a.192.192,0,0,1,.093.078.206.206,0,0,1,.017.2c-.012.234.681.713,3.307,1.108a59.288,59.288,0,0,0,8.408.527,59.3,59.3,0,0,0,8.41-.527c2.626-.4,3.319-.874,3.319-1.071a.246.246,0,0,1,.01-.215.265.265,0,0,1,.127-.1l4.032-29.18H-134.19Z" transform="translate(134.634 -106.036)" fill="#95999f"/>
        </g>
        <path id="Trazado_600024" data-name="Trazado 600024" d="M-122.1,135.227c-.1-2.975-.176-5.955-.339-8.928-.166-3.021-.369-6.041-.571-9.062-.249-3.7-.483-7.407-.559-11.117h-9.164q.3,2.292.591,4.581c.691,5.384,1.359,10.77,2.038,16.154q.652,5.177,1.323,10.351a60.757,60.757,0,0,0,6.773.42Q-122.057,136.429-122.1,135.227Z" transform="translate(142.945 -87.608)" fill="#c9cacc" style="mix-blend-mode: screen;isolation: isolate"/>
        <path id="Trazado_600025" data-name="Trazado 600025" d="M-102.316,106.12h-9.064c-.024.466-.049.93-.071,1.4-.151,3.222-.242,6.446-.408,9.667-.164,3.19-.4,6.375-.84,9.54q-.168,1.2-.373,2.4c-.127.72-.246,1.45-.425,2.162a7.46,7.46,0,0,1-1.289,2.765,6.324,6.324,0,0,1-4.813,2.306,11.935,11.935,0,0,1-3.195-.32,8.179,8.179,0,0,1-3.053-1.281,8.673,8.673,0,0,1-2.975-4.915c-.32-1.157-.542-2.341-.766-3.519q-.465-2.427-.918-4.852c-.61-3.241-1.213-6.485-1.833-9.723q-.538-2.812-1.1-5.623h-1.11l4.088,29.588h.1a.307.307,0,0,0-.029.12c0,1,5.345,1.806,11.935,1.806s11.937-.808,11.937-1.806a.307.307,0,0,0-.029-.12h.139Z" transform="translate(140.325 -87.608)" fill="#c9cacc" style="mix-blend-mode: multiply;isolation: isolate"/>
        <path id="Trazado_600026" data-name="Trazado 600026" d="M-129.109,134c-.386-2.633-.725-5.274-1.081-7.91-.344-2.533-.82-5.045-1.315-7.554-.5-2.533-1.015-5.067-1.408-7.62-.246-1.591-.444-3.192-.556-4.8h-1.079l4.088,29.588h.1a.307.307,0,0,0-.029.12c0,.342.622.659,1.7.93Q-128.908,135.381-129.109,134Z" transform="translate(140.325 -87.608)" fill="#c9cacc" style="mix-blend-mode: multiply;isolation: isolate"/>
        <path id="Trazado_600027" data-name="Trazado 600027" d="M-117.29,106.12h-3.126q-.425,2.083-.761,4.183c-.408,2.546-.725,5.1-1,7.666s-.51,5.113-.749,7.673-.478,5.106-.769,7.651q-.209,1.838-.459,3.671c1.664-.31,2.665-.705,2.665-1.137a.307.307,0,0,0-.029-.12h.139Z" transform="translate(155.299 -87.608)" fill="#c9cacc" style="mix-blend-mode: multiply;isolation: isolate"/>
        <path id="Trazado_600028" data-name="Trazado 600028" d="M-129.026,119.29a37.034,37.034,0,0,0,7.4,1.184,48.82,48.82,0,0,0,7.766-.144,48.955,48.955,0,0,0,7.4-1.276c.825-.21,1.645-.442,2.458-.7l1.691-12.23h-32.233l1.628,11.778A25.87,25.87,0,0,0-129.026,119.29Z" transform="translate(140.325 -87.608)" fill="#c9cacc" style="mix-blend-mode: multiply;isolation: isolate"/>
        <path id="Trazado_600029" data-name="Trazado 600029" d="M-133.026,115.975c1.113.183,2.238.259,3.361.364,1.33.124,2.653.322,3.988.42,1.516.11,3.036.161,4.554.205,1.455.039,2.907.083,4.364.068,1.381-.012,2.763-.042,4.144-.1a65.386,65.386,0,0,0,8.305-.83c.21-.034.42-.076.63-.115l1.364-9.867h-32.233l1.357,9.828Z" transform="translate(140.325 -87.608)" fill="#c9cacc" style="mix-blend-mode: multiply;isolation: isolate"/>
        <g id="Grupo_876331" data-name="Grupo 876331" transform="translate(0 2.616)">
          <path id="Trazado_600030" data-name="Trazado 600030" d="M-93.842,120.952a29.778,29.778,0,0,1-3.61-7.925c-1.04-4.183-1.3-13.336-1.3-13.336h-32.882s-.259,9.152-1.3,13.336a30.586,30.586,0,0,1-3.9,8.369h.1a.479.479,0,0,0-.022.129c0,1.806,9.682,3.27,21.624,3.27s21.626-1.464,21.626-3.27A.794.794,0,0,0-93.842,120.952Z" transform="translate(137.037 -99.485)" fill="#c9cacc"/>
          <path id="Trazado_600031" data-name="Trazado 600031" d="M-115,125.124c-10.529,0-21.717-1.206-21.829-3.441a.2.2,0,0,1-.059-.068.208.208,0,0,1,.012-.212,30.542,30.542,0,0,0,3.868-8.3c1.023-4.115,1.291-13.2,1.3-13.294a.2.2,0,0,1,.205-.2h32.882a.207.207,0,0,1,.207.2c0,.093.271,9.179,1.294,13.292a29.253,29.253,0,0,0,3.566,7.839.964.964,0,0,1,.388.71C-93.173,123.906-104.42,125.124-115,125.124Zm-21.409-3.678a.216.216,0,0,1,.007.124.384.384,0,0,0-.015.078c0,1.45,8.8,3.063,21.416,3.063s21.419-1.613,21.419-3.063a.614.614,0,0,0-.268-.417.18.18,0,0,1-.039-.046A29.7,29.7,0,0,1-97.53,113.2c-.947-3.812-1.252-11.81-1.3-13.179H-131.31c-.046,1.369-.351,9.367-1.3,13.179A30.564,30.564,0,0,1-136.414,121.446Z" transform="translate(136.916 -99.607)" fill="#95999f"/>
        </g>
        <path id="Trazado_600032" data-name="Trazado 600032" d="M-123.241,124.281a53.394,53.394,0,0,1-.608-7.356c-.049-2.5.039-5.008.185-7.507s.356-4.972.561-7.454c.061-.759.124-1.516.183-2.272h-4.559c.1,1.428.124,2.86.078,4.293a40.1,40.1,0,0,1-.659,6.058,34.62,34.62,0,0,1-1.613,5.818,29.48,29.48,0,0,1-2.653,5.364,26.063,26.063,0,0,1-1.892,2.607,95.764,95.764,0,0,0,11.051.9C-123.189,124.581-123.216,124.433-123.241,124.281Z" transform="translate(140.805 -96.868)" fill="#c9cacc" style="mix-blend-mode: screen;isolation: isolate"/>
        <path id="Trazado_600033" data-name="Trazado 600033" d="M-93.842,120.952a29.778,29.778,0,0,1-3.61-7.925c-1.04-4.183-1.3-13.336-1.3-13.336H-111.5q.011,1.926.054,3.849c.034,1.65.059,3.3.115,4.952.051,1.5.059,3.009.237,4.505a11.98,11.98,0,0,0,1.25,4.252,13.478,13.478,0,0,1,1.108,2.4,1.991,1.991,0,0,1-.117,1.726,3.221,3.221,0,0,1-1.97,1.052,18.8,18.8,0,0,1-1.952.315c-.827.107-1.657.185-2.487.242-1.684.11-3.37.124-5.055.09-1.235-.024-2.47-.071-3.7-.1a19.844,19.844,0,0,1-3.524-.347,4.863,4.863,0,0,1-2.834-1.423,2.879,2.879,0,0,1-.115-3.058c.476-1.1,1.162-2.1,1.645-3.195q.809-1.838,1.433-3.746a37.737,37.737,0,0,0,1.782-8.271,26.6,26.6,0,0,0,.115-3.241h-6.116s-.259,9.152-1.3,13.336a30.586,30.586,0,0,1-3.9,8.369h.1a.479.479,0,0,0-.022.129c0,1.806,9.682,3.27,21.624,3.27s21.626-1.464,21.626-3.27A.794.794,0,0,0-93.842,120.952Z" transform="translate(137.037 -96.868)" fill="#c9cacc" style="mix-blend-mode: multiply;isolation: isolate"/>
        <path id="Trazado_600034" data-name="Trazado 600034" d="M-93.842,120.952a29.778,29.778,0,0,1-3.61-7.925c-1.04-4.183-1.3-13.336-1.3-13.336H-111.5q.011,1.926.054,3.849c.034,1.65.059,3.3.115,4.952.051,1.5.059,3.009.237,4.505a11.98,11.98,0,0,0,1.25,4.252,13.478,13.478,0,0,1,1.108,2.4,1.991,1.991,0,0,1-.117,1.726,3.221,3.221,0,0,1-1.97,1.052,18.8,18.8,0,0,1-1.952.315c-.827.107-1.657.185-2.487.242-1.684.11-3.37.124-5.055.09-1.235-.024-2.47-.071-3.7-.1a19.844,19.844,0,0,1-3.524-.347,4.863,4.863,0,0,1-2.834-1.423,2.879,2.879,0,0,1-.115-3.058c.476-1.1,1.162-2.1,1.645-3.195q.809-1.838,1.433-3.746a37.737,37.737,0,0,0,1.782-8.271,26.6,26.6,0,0,0,.115-3.241h-6.116s-.259,9.152-1.3,13.336a30.586,30.586,0,0,1-3.9,8.369h.1a.479.479,0,0,0-.022.129c0,1.806,9.682,3.27,21.624,3.27s21.626-1.464,21.626-3.27A.794.794,0,0,0-93.842,120.952Z" transform="translate(137.037 -96.868)" fill="#c9cacc" style="mix-blend-mode: multiply;isolation: isolate"/>
        <path id="Trazado_600035" data-name="Trazado 600035" d="M-136.75,121.526c0,.31.29.608.82.893.122-.161.242-.32.359-.483.515-.715.993-1.457,1.455-2.211a25.4,25.4,0,0,0,1.345-2.384,19.64,19.64,0,0,0,1.137-3.122c.325-1.162.647-2.326.92-3.5a61.033,61.033,0,0,0,1.5-11.024h-2.421s-.259,9.152-1.3,13.336a30.586,30.586,0,0,1-3.9,8.369h.1A.479.479,0,0,0-136.75,121.526Z" transform="translate(137.037 -96.868)" fill="#c9cacc" style="mix-blend-mode: multiply;isolation: isolate"/>
        <path id="Trazado_600036" data-name="Trazado 600036" d="M-113.028,120.952a29.778,29.778,0,0,1-3.61-7.925c-1.04-4.183-1.3-13.336-1.3-13.336h-5.577c.044.864.1,1.726.178,2.589a54.2,54.2,0,0,0,.986,6.475,32.069,32.069,0,0,0,1.838,6,73.767,73.767,0,0,0,4.723,8.462c1.967-.493,3.1-1.071,3.1-1.689A.794.794,0,0,0-113.028,120.952Z" transform="translate(156.224 -96.868)" fill="#c9cacc" style="mix-blend-mode: multiply;isolation: isolate"/>
        <g id="Grupo_876332" data-name="Grupo 876332" transform="translate(5.229)">
          <ellipse id="Elipse_5072" data-name="Elipse 5072" cx="16.435" cy="2.484" rx="16.435" ry="2.484" transform="translate(0.207 0.208)" fill="#8d8e91"/>
          <path id="Trazado_600037" data-name="Trazado 600037" d="M-118.13,103.919a82.055,82.055,0,0,1-11.652-.732c-3.312-.5-4.991-1.159-4.991-1.96s1.679-1.459,4.991-1.96a82.055,82.055,0,0,1,11.652-.732,82.055,82.055,0,0,1,11.651.732c3.31.5,4.989,1.159,4.989,1.96s-1.679,1.459-4.989,1.96A82.055,82.055,0,0,1-118.13,103.919Zm0-4.969c-10.451,0-16.228,1.347-16.228,2.277s5.777,2.277,16.228,2.277,16.228-1.347,16.228-2.277S-107.682,98.95-118.13,98.95Z" transform="translate(134.773 -98.535)" fill="#95999f"/>
        </g>
      </g>
    </g>
    <g id="Grupo_876389" data-name="Grupo 876389" transform="translate(-145.477 249.626)">
      <path id="Trazado_601990" data-name="Trazado 601990" d="M46.454,0A46.454,46.454,0,1,1,0,46.454,46.454,46.454,0,0,1,46.454,0Z" transform="translate(0 90.464) rotate(-76.827)" fill="#2993c8"/>
      <g id="Grupo_876388" data-name="Grupo 876388" transform="translate(36.572 21.457)">
        <g id="Grupo_876335" data-name="Grupo 876335" transform="translate(2.279 9.038)">
          <path id="Trazado_600038" data-name="Trazado 600038" d="M-115.788,141H-134.81s2.8,26.539,9.326,58.86c0,0,1.455,2.538,7.168,2.406.283.007.552,0,.813,0s.532.01.815,0c5.716.132,7.168-2.406,7.168-2.406C-103,167.536-100.195,141-100.195,141Z" transform="translate(135.045 -140.763)" fill="#c9cacc"/>
          <path id="Trazado_600039" data-name="Trazado 600039" d="M-118.619,202.641c-5.418,0-6.87-2.421-6.931-2.528a.35.35,0,0,1-.027-.071c-6.446-31.962-9.3-58.616-9.328-58.882a.242.242,0,0,1,.059-.181.24.24,0,0,1,.176-.078h34.615a.244.244,0,0,1,.176.078.242.242,0,0,1,.059.181c-.029.266-2.882,26.92-9.328,58.882a.352.352,0,0,1-.027.071c-.063.11-1.6,2.646-7.378,2.524-.276.007-.549,0-.815,0s-.527.01-.813,0C-118.331,202.639-118.478,202.641-118.619,202.641Zm2.065-.473c5.162.117,6.77-1.989,6.953-2.26,6.1-30.239,8.974-55.71,9.284-58.538H-134.41c.31,2.829,3.187,28.3,9.284,58.538.181.266,1.789,2.367,6.944,2.26.288.007.554,0,.813,0S-116.835,202.175-116.555,202.168Z" transform="translate(134.906 -140.901)" fill="#95999f"/>
        </g>
        <g id="Grupo_876336" data-name="Grupo 876336" transform="translate(2.514 9.272)" opacity="0.52" style="mix-blend-mode: multiply;isolation: isolate">
          <path id="Trazado_600040" data-name="Trazado 600040" d="M-106.755,141c-1.262,19.505-4.764,46.037-5.611,52.739-.964,7.629-3.446,7.246-6.619,6.695a4.856,4.856,0,0,1-3.859-3.453c-4.173-20.433-7.463-47.009-8.518-55.98h-3.449s2.8,26.539,9.326,58.86c0,0,1.455,2.538,7.168,2.406.283.007.552,0,.813,0s.532.01.815,0c5.716.132,7.168-2.406,7.168-2.406C-103,167.536-100.195,141-100.195,141Z" transform="translate(134.81 -140.997)" fill="#8b8d8f" style="mix-blend-mode: multiply;isolation: isolate"/>
        </g>
        <g id="Grupo_876337" data-name="Grupo 876337" transform="translate(2.514 9.272)">
          <path id="Trazado_600041" data-name="Trazado 600041" d="M-125.27,193.534c-.92-4.813-1.833-9.628-2.692-14.453-.866-4.862-1.689-9.736-2.4-14.624-.7-4.832-1.162-9.7-1.574-14.563-.249-2.965-.486-5.931-.744-8.9h-2.131s2.8,26.539,9.326,58.86a4.194,4.194,0,0,0,1.682,1.384Q-124.531,197.386-125.27,193.534Z" transform="translate(134.81 -140.997)" fill="#c9cacc" style="mix-blend-mode: multiply;isolation: isolate"/>
          <path id="Trazado_600042" data-name="Trazado 600042" d="M-117.21,141a121.757,121.757,0,0,0-1.491,12.938q-.593,6.7-1.521,13.372c-.632,4.588-1.274,9.172-1.87,13.765-.586,4.508-1.193,9.013-1.884,13.509q-.505,3.28-1.079,6.551a3.992,3.992,0,0,0,1.479-1.274c6.521-32.321,9.326-58.86,9.326-58.86Z" transform="translate(148.865 -140.997)" fill="#8b8d8f" opacity="0.38" style="mix-blend-mode: multiply;isolation: isolate"/>
        </g>
        <path id="Trazado_600043" data-name="Trazado 600043" d="M-132.007,142.145s3.51,32.2,7.28,53.791l1.428.8-2.753-54.492Z" transform="translate(141.362 -130.071)" fill="#c9cacc" style="mix-blend-mode: screen;isolation: isolate"/>
        <g id="Grupo_876342" data-name="Grupo 876342" transform="translate(0.986 12.268)">
          <g id="Grupo_876339" data-name="Grupo 876339" transform="translate(0 1.029)">
            <g id="Grupo_876338" data-name="Grupo 876338">
              <path id="Trazado_600044" data-name="Trazado 600044" d="M-100.737,150.149c-21.512-.305-33.212-7.3-33.212-7.3s-1.013-.246-1.355-.007c-.083.059,0,.564,0,.625,0,.31,4.676,4.674,21.194,6.856,12.864,1.7,15.332,1.13,15.5.5a3.89,3.89,0,0,0,0-.735c-.042-.1-.461-.305-.544-.388a2.435,2.435,0,0,0-1.56-.625Z" transform="translate(135.574 -142.508)" fill="#9c9da0"/>
              <path id="Trazado_600045" data-name="Trazado 600045" d="M-101.553,151.822A103.887,103.887,0,0,1-114,150.7c-15.823-2.089-21.4-6.336-21.4-7.088l-.007-.068c-.044-.388-.059-.632.1-.747.41-.288,1.359-.076,1.547-.029a.208.208,0,0,1,.063.027c.117.068,11.82,6.909,32.865,7.258l.022-.837a.237.237,0,0,1,.234-.229,2.658,2.658,0,0,1,1.726.693,1.356,1.356,0,0,0,.164.1c.234.142.381.234.432.366a3.335,3.335,0,0,1,0,.881C-98.317,151.3-98.458,151.822-101.553,151.822Zm-33.383-8.266c.432.708,5.821,4.674,20.994,6.678,14.182,1.872,15.186.888,15.244.671.01-.063.017-.43.01-.571a2.419,2.419,0,0,0-.234-.151,1.426,1.426,0,0,1-.254-.173,2.067,2.067,0,0,0-1.167-.534l-.022.82a.234.234,0,0,1-.234.227h0a86.078,86.078,0,0,1-24.741-3.773,45.881,45.881,0,0,1-8.557-3.536,2.573,2.573,0,0,0-1.069-.063,3,3,0,0,0,.027.339Z" transform="translate(135.436 -142.646)" fill="#75797e"/>
            </g>
          </g>
          <g id="Grupo_876341" data-name="Grupo 876341" transform="translate(0.037)">
            <g id="Grupo_876340" data-name="Grupo 876340">
              <path id="Trazado_600046" data-name="Trazado 600046" d="M-100.759,150.133c-19.337-.273-30.744-5.95-32.856-7.095l-.085-.718s-1.625.82-1.625,1.132,4.676,4.676,21.194,6.858,15.9.622,15.271,0a8.888,8.888,0,0,0-1.87-1.247Z" transform="translate(135.559 -142.086)" fill="#c9cacc"/>
              <path id="Trazado_600047" data-name="Trazado 600047" d="M-101.538,151.812a104.573,104.573,0,0,1-12.486-1.13c-15.823-2.092-21.4-6.336-21.4-7.09,0-.112,0-.456,1.755-1.342a.23.23,0,0,1,.215,0,.228.228,0,0,1,.122.178l.073.6c2.333,1.247,13.577,6.695,32.409,7l.022-.837a.238.238,0,0,1,.115-.2.23.23,0,0,1,.225-.007,9.057,9.057,0,0,1,1.931,1.291c.364.364.339.649.254.825C-98.421,151.349-98.651,151.812-101.538,151.812Zm-33.388-8.225c.617.818,6.089,4.664,20.962,6.629,13.572,1.794,15.1.979,15.239.686.027-.051-.037-.161-.161-.286a7.464,7.464,0,0,0-1.481-1.03l-.02.691a.237.237,0,0,1-.234.229h0c-19.388-.276-30.862-5.982-32.965-7.124a.231.231,0,0,1-.12-.178l-.046-.378A5.957,5.957,0,0,0-134.926,143.587Z" transform="translate(135.421 -142.225)" fill="#75797e"/>
            </g>
          </g>
        </g>
        <g id="Grupo_876347" data-name="Grupo 876347" transform="translate(1.481 18.475)">
          <g id="Grupo_876344" data-name="Grupo 876344" transform="translate(0 1.002)">
            <g id="Grupo_876343" data-name="Grupo 876343">
              <path id="Trazado_600048" data-name="Trazado 600048" d="M-101.681,152.466c-20.8-.283-32.111-7.083-32.111-7.083s-.979-.242-1.308-.007c-.081.056,0,.549,0,.608,0,.305,4.518,4.549,20.491,6.665,12.437,1.645,14.824,1.089,14.988.476a3.89,3.89,0,0,0,0-.715c-.039-.1-.447-.3-.527-.378a2.326,2.326,0,0,0-1.506-.605Z" transform="translate(135.372 -145.04)" fill="#9c9da0"/>
              <path id="Trazado_600049" data-name="Trazado 600049" d="M-102.487,154.106A100.436,100.436,0,0,1-114.5,153.02c-15.308-2.026-20.694-6.163-20.694-6.9l-.007-.063c-.042-.381-.056-.62.107-.735.4-.283,1.32-.076,1.5-.029a.22.22,0,0,1,.066.027c.112.066,11.42,6.719,31.762,7.046l.022-.81a.233.233,0,0,1,.234-.227h0a2.557,2.557,0,0,1,1.672.674,1.433,1.433,0,0,0,.161.1c.225.139.369.229.42.359a3.282,3.282,0,0,1,0,.862C-99.329,153.588-99.468,154.106-102.487,154.106Zm-32.245-8.035c.422.691,5.643,4.544,20.289,6.482,13.7,1.813,14.675.859,14.732.652a5.552,5.552,0,0,0,.01-.556c-.054-.039-.159-.1-.222-.142a1.205,1.205,0,0,1-.249-.173,2,2,0,0,0-1.113-.515l-.022.793a.235.235,0,0,1-.237.227,82.746,82.746,0,0,1-23.925-3.659,44.267,44.267,0,0,1-8.271-3.439,2.52,2.52,0,0,0-1.023-.063,3.233,3.233,0,0,0,.024.327Zm-.1-.364Z" transform="translate(135.233 -145.178)" fill="#75797e"/>
            </g>
          </g>
          <g id="Grupo_876346" data-name="Grupo 876346" transform="translate(0.037)">
            <g id="Grupo_876345" data-name="Grupo 876345">
              <path id="Trazado_600050" data-name="Trazado 600050" d="M-101.7,152.449c-18.7-.254-29.727-5.775-31.765-6.887l-.083-.7s-1.572.8-1.572,1.1,4.518,4.552,20.489,6.665,15.371.6,14.768-.01a8.615,8.615,0,0,0-1.809-1.213Z" transform="translate(135.356 -144.629)" fill="#c9cacc"/>
              <path id="Trazado_600051" data-name="Trazado 600051" d="M-102.472,154.1A100.767,100.767,0,0,1-114.526,153c-15.308-2.026-20.694-6.163-20.692-6.9,0-.11,0-.447,1.7-1.313a.23.23,0,0,1,.215,0,.228.228,0,0,1,.122.181l.068.576c2.262,1.218,13.121,6.509,31.32,6.8l.022-.81a.238.238,0,0,1,.115-.2.236.236,0,0,1,.225-.007,8.772,8.772,0,0,1,1.87,1.257c.356.359.329.639.244.813C-99.434,153.64-99.661,154.1-102.472,154.1Zm-32.25-8c.61.8,5.911,4.54,20.257,6.438,13.109,1.733,14.588.942,14.729.659.022-.046-.039-.154-.156-.271a7.178,7.178,0,0,0-1.418-.993l-.02.661a.233.233,0,0,1-.234.227h0c-18.754-.254-29.841-5.806-31.874-6.917a.225.225,0,0,1-.12-.178l-.044-.359A5.941,5.941,0,0,0-134.723,146.1Z" transform="translate(135.218 -144.768)" fill="#75797e"/>
            </g>
          </g>
        </g>
        <g id="Grupo_876352" data-name="Grupo 876352" transform="translate(2.886 26.149)">
          <g id="Grupo_876349" data-name="Grupo 876349" transform="translate(0 0.947)">
            <g id="Grupo_876348" data-name="Grupo 876348">
              <path id="Trazado_600052" data-name="Trazado 600052" d="M-103.725,155.119c-19.181-.225-29.595-6.621-29.595-6.621s-.9-.225-1.208,0c-.073.051,0,.517,0,.574,0,.286,4.156,4.286,18.881,6.248,11.466,1.528,13.67,1,13.821.42a3.682,3.682,0,0,0,.007-.676c-.039-.1-.412-.281-.486-.356a2.121,2.121,0,0,0-1.389-.569Z" transform="translate(134.795 -148.161)" fill="#9c9da0"/>
              <path id="Trazado_600053" data-name="Trazado 600053" d="M-104.527,156.686a90.865,90.865,0,0,1-11.017-1c-14.939-1.992-19.083-6.08-19.083-6.482l0-.059c-.039-.361-.051-.588.1-.7.366-.264,1.167-.1,1.4-.034a.22.22,0,0,1,.066.027,38.94,38.94,0,0,0,7.573,3.209,74.008,74.008,0,0,0,21.673,3.373l.022-.752a.233.233,0,0,1,.234-.227h0a2.339,2.339,0,0,1,1.557.639,1.293,1.293,0,0,0,.142.093c.212.129.344.217.393.344a3.16,3.16,0,0,1,0,.818C-101.532,156.185-101.662,156.686-104.527,156.686Zm-29.634-7.537c.215.249,3.951,4.11,18.68,6.075,12.616,1.682,13.511.788,13.563.591.007-.059.017-.381.01-.515-.049-.039-.144-.1-.2-.129a1.247,1.247,0,0,1-.232-.164,1.771,1.771,0,0,0-.993-.476l-.022.732a.23.23,0,0,1-.237.227,74.466,74.466,0,0,1-22.061-3.4,40.232,40.232,0,0,1-7.622-3.229,2.3,2.3,0,0,0-.915-.061c0,.063.007.164.022.3Z" transform="translate(134.657 -148.3)" fill="#75797e"/>
            </g>
          </g>
          <g id="Grupo_876351" data-name="Grupo 876351" transform="translate(0.033)">
            <g id="Grupo_876350" data-name="Grupo 876350">
              <path id="Trazado_600054" data-name="Trazado 600054" d="M-103.743,155.105c-17.241-.2-27.4-5.391-29.278-6.438l-.076-.659s-1.452.759-1.452,1.047,4.156,4.286,18.881,6.248,14.173.532,13.616-.039a7.847,7.847,0,0,0-1.662-1.142Z" transform="translate(134.782 -147.774)" fill="#c9cacc"/>
              <path id="Trazado_600055" data-name="Trazado 600055" d="M-104.5,156.679a91.229,91.229,0,0,1-11.056-1.006c-14.939-1.992-19.086-6.08-19.083-6.482,0-.1,0-.427,1.579-1.252a.235.235,0,0,1,.217,0,.241.241,0,0,1,.125.181l.061.539c2.1,1.152,12.088,6.109,28.829,6.348l.024-.754a.232.232,0,0,1,.115-.2.243.243,0,0,1,.225-.007,8.041,8.041,0,0,1,1.728,1.189c.334.347.305.615.222.783C-101.635,156.244-101.852,156.679-104.5,156.679Zm-29.634-7.5c.481.5,4.486,4.142,18.641,6.028,12.049,1.606,13.423.866,13.558.6.015-.029-.012-.112-.139-.247a6.423,6.423,0,0,0-1.274-.913l-.017.6a.237.237,0,0,1-.237.229c-17.3-.2-27.516-5.423-29.39-6.468a.237.237,0,0,1-.12-.178l-.034-.312A5.643,5.643,0,0,0-134.139,149.181Z" transform="translate(134.644 -147.912)" fill="#75797e"/>
            </g>
          </g>
        </g>
        <g id="Grupo_876357" data-name="Grupo 876357" transform="translate(3.979 33.375)">
          <g id="Grupo_876354" data-name="Grupo 876354" transform="translate(0 0.874)">
            <g id="Grupo_876353" data-name="Grupo 876353">
              <path id="Trazado_600056" data-name="Trazado 600056" d="M-105.3,157.567c-17.921-.227-27.66-6.145-27.66-6.145s-.842-.21-1.128,0c-.068.049,0,.478,0,.53,0,.264,3.888,3.964,17.646,5.792,10.717,1.423,12.772.935,12.913.4a3.313,3.313,0,0,0,.007-.622c-.037-.09-.386-.261-.454-.332a2.01,2.01,0,0,0-1.3-.527Z" transform="translate(134.348 -151.092)" fill="#9c9da0"/>
              <path id="Trazado_600057" data-name="Trazado 600057" d="M-105.97,159.051a86.183,86.183,0,0,1-10.358-.942c-13.206-1.755-17.853-5.379-17.851-6.023l-.007-.054c-.037-.342-.049-.556.1-.666.347-.249,1.1-.088,1.32-.034a.264.264,0,0,1,.066.027c.1.061,9.814,5.84,27.311,6.109l.02-.676a.237.237,0,0,1,.234-.229h0a2.234,2.234,0,0,1,1.464.6c.022.02.076.049.129.083.2.122.329.205.376.327a2.779,2.779,0,0,1,0,.766C-103.227,158.595-103.347,159.051-105.97,159.051Zm-27.745-7.027c.22.244,3.778,3.8,17.448,5.621,12.027,1.6,12.625.681,12.655.574.007-.051.015-.337.01-.461-.046-.034-.129-.085-.178-.115a1.261,1.261,0,0,1-.22-.154,1.65,1.65,0,0,0-.9-.434l-.02.656a.235.235,0,0,1-.234.229h0a70.43,70.43,0,0,1-20.618-3.17,37.654,37.654,0,0,1-7.127-2.992,2.263,2.263,0,0,0-.837-.059c0,.056.01.144.022.261Z" transform="translate(134.21 -151.231)" fill="#75797e"/>
            </g>
          </g>
          <g id="Grupo_876356" data-name="Grupo 876356" transform="translate(0.031)">
            <g id="Grupo_876355" data-name="Grupo 876355">
              <path id="Trazado_600058" data-name="Trazado 600058" d="M-105.314,157.554c-16.108-.2-25.6-5.008-27.359-5.977l-.071-.608s-1.357.7-1.357.964,3.888,3.964,17.648,5.792,13.24.505,12.723-.024a7.412,7.412,0,0,0-1.557-1.054Z" transform="translate(134.335 -150.734)" fill="#c9cacc"/>
              <path id="Trazado_600059" data-name="Trazado 600059" d="M-106,159.033a85.532,85.532,0,0,1-10.343-.937c-13.206-1.755-17.851-5.379-17.851-6.023,0-.112,0-.408,1.484-1.174a.236.236,0,0,1,.217,0,.228.228,0,0,1,.122.181l.056.488c1.977,1.071,11.3,5.645,26.915,5.884l.02-.676a.237.237,0,0,1,.115-.2.235.235,0,0,1,.227-.007,7.506,7.506,0,0,1,1.616,1.1c.322.327.293.583.215.742C-103.316,158.627-103.518,159.033-106,159.033Zm-27.681-6.973c.5.5,4.317,3.834,17.4,5.572,11.554,1.533,12.569.749,12.655.578.007-.015,0-.078-.129-.205a5.791,5.791,0,0,0-1.164-.832l-.017.527a.234.234,0,0,1-.234.227h0c-16.167-.2-25.719-5.037-27.472-6.006a.237.237,0,0,1-.12-.178l-.029-.266A5.236,5.236,0,0,0-133.684,152.06Z" transform="translate(134.197 -150.873)" fill="#75797e"/>
            </g>
          </g>
        </g>
        <g id="Grupo_876362" data-name="Grupo 876362" transform="translate(5.34 40.478)">
          <g id="Grupo_876359" data-name="Grupo 876359" transform="translate(0 0.756)">
            <g id="Grupo_876358" data-name="Grupo 876358">
              <path id="Trazado_600060" data-name="Trazado 600060" d="M-107.232,159.851c-16.342-.327-25.268-5.316-25.268-5.316s-.771-.478-1.03-.312a3,3,0,0,0,0,.74c0,.22,3.576,3.319,16.135,4.945,9.782,1.264,11.652.876,11.776.432a5.838,5.838,0,0,0,0-.774c-.034-.073-.354.039-.417-.02a1.956,1.956,0,0,0-1.186-.449Z" transform="translate(133.79 -153.956)" fill="#9c9da0"/>
              <path id="Trazado_600061" data-name="Trazado 600061" d="M-107.691,161.132a82.709,82.709,0,0,1-9.589-.857c-12.869-1.665-16.337-4.81-16.34-5.174l0-.056c-.051-.649-.034-.788.107-.881.347-.225,1.01.139,1.281.308.078.044,8.974,4.913,24.914,5.277l.012-.52a.235.235,0,0,1,.234-.229h0a2.2,2.2,0,0,1,1.294.466l.073-.01c.137-.017.364-.046.452.154a3.98,3.98,0,0,1,.01.93C-105.309,160.754-105.414,161.132-107.691,161.132Zm-25.465-6.1c.432.556,4.542,3.3,15.935,4.779,10.448,1.35,11.434.73,11.527.593,0-.037,0-.3,0-.481a.42.42,0,0,1-.356-.071,1.562,1.562,0,0,0-.8-.361l-.01.5a.235.235,0,0,1-.234.229h0a70.588,70.588,0,0,1-18.824-2.79,36.506,36.506,0,0,1-6.553-2.555,2.372,2.372,0,0,0-.708-.312c0,.083.007.22.027.444Zm27.425,4.476Z" transform="translate(133.652 -154.093)" fill="#75797e"/>
            </g>
          </g>
          <g id="Grupo_876361" data-name="Grupo 876361" transform="translate(0.029)">
            <g id="Grupo_876360" data-name="Grupo 876360">
              <path id="Trazado_600062" data-name="Trazado 600062" d="M-107.252,159.558c-14.688-.3-23.384-4.356-24.994-5.174l-.068-.505s-1.23.569-1.23.788,3.578,3.322,16.137,4.945,12.076.522,11.6.081a6.307,6.307,0,0,0-1.325-.84Z" transform="translate(133.777 -153.645)" fill="#c9cacc"/>
              <path id="Trazado_600063" data-name="Trazado 600063" d="M-107.677,160.846a83.069,83.069,0,0,1-9.626-.862c-12.874-1.665-16.335-4.813-16.337-5.177,0-.12,0-.371,1.364-1a.228.228,0,0,1,.21.007.229.229,0,0,1,.12.173l.054.383c1.838.918,10.375,4.771,24.579,5.089l.088-.505a.234.234,0,0,1,.122-.168.246.246,0,0,1,.207,0,6.409,6.409,0,0,1,1.384.881c.3.278.286.51.217.654C-105.385,160.507-105.543,160.846-107.677,160.846Zm-25.441-6.038c.669.681,4.881,3.29,15.876,4.71,10.282,1.33,11.4.752,11.52.6-.01,0-.032-.044-.107-.117a5.177,5.177,0,0,0-.988-.657l-.066.391a.242.242,0,0,1-.237.2c-14.734-.3-23.491-4.383-25.094-5.2a.24.24,0,0,1-.127-.178l-.024-.186A5.516,5.516,0,0,0-133.118,154.808Zm-.073.071Z" transform="translate(133.64 -153.783)" fill="#75797e"/>
            </g>
          </g>
        </g>
        <g id="Grupo_876367" data-name="Grupo 876367" transform="translate(6.28 47.033)">
          <g id="Grupo_876364" data-name="Grupo 876364" transform="translate(0 0.802)">
            <g id="Grupo_876363" data-name="Grupo 876363">
              <path id="Trazado_600064" data-name="Trazado 600064" d="M-108.919,162.5c-15.09-.156-23.279-5.257-23.279-5.257s-.705-.491-.947-.312a3.521,3.521,0,0,0,0,.769c0,.229,3.266,3.422,14.849,4.974,9.021,1.206,10.753.781,10.873.317a6.34,6.34,0,0,0,.01-.805c-.029-.078-.327.041-.386-.02a1.651,1.651,0,0,0-1.091-.452Z" transform="translate(133.405 -156.661)" fill="#9c9da0"/>
              <path id="Trazado_600065" data-name="Trazado 600065" d="M-109.537,163.83a71.156,71.156,0,0,1-8.657-.788c-11.139-1.494-15.054-4.642-15.051-5.206l0-.066c-.039-.664-.024-.8.1-.891.339-.249.964.132,1.218.308.071.044,8.222,5.011,22.917,5.213l.017-.556a.234.234,0,0,1,.234-.227,1.937,1.937,0,0,1,1.2.466l.046-.007c.12-.017.364-.056.447.163a4.887,4.887,0,0,1,0,.947C-107.121,163.418-107.228,163.83-109.537,163.83Zm-23.242-6.048c.376.566,4.117,3.383,14.649,4.8,9.719,1.3,10.548.637,10.614.488,0-.044.012-.322.012-.517a.367.367,0,0,1-.329-.083,1.3,1.3,0,0,0-.7-.354l-.017.532a.233.233,0,0,1-.234.227h0c-14.983-.156-23.318-5.24-23.4-5.294a2.241,2.241,0,0,0-.617-.308c0,.09,0,.237.017.473Z" transform="translate(133.267 -156.797)" fill="#75797e"/>
            </g>
          </g>
          <g id="Grupo_876366" data-name="Grupo 876366" transform="translate(0.029)">
            <g id="Grupo_876365" data-name="Grupo 876365">
              <path id="Trazado_600066" data-name="Trazado 600066" d="M-108.93,162.2c-13.565-.142-21.551-4.276-23.027-5.111l-.059-.527s-1.142.608-1.145.837,3.266,3.422,14.849,4.972,11.151.408,10.714-.049a5.55,5.55,0,0,0-1.213-.857Z" transform="translate(133.392 -156.33)" fill="#c9cacc"/>
              <path id="Trazado_600067" data-name="Trazado 600067" d="M-109.559,163.53a71.208,71.208,0,0,1-8.647-.783c-11.144-1.494-15.054-4.645-15.049-5.206,0-.11,0-.369,1.267-1.045a.233.233,0,0,1,.22,0,.241.241,0,0,1,.124.183l.044.405c1.691.94,9.518,4.845,22.61,5.02l.085-.537a.234.234,0,0,1,.127-.171.225.225,0,0,1,.212,0,5.684,5.684,0,0,1,1.276.905c.283.3.254.535.181.681C-107.2,163.169-107.387,163.53-109.559,163.53Zm-23.191-5.989c.556.674,4.378,3.37,14.607,4.74,9.716,1.3,10.546.639,10.614.491h0s-.007-.046-.1-.144a4.47,4.47,0,0,0-.866-.652l-.066.4a.238.238,0,0,1-.234.2c-13.621-.142-21.665-4.308-23.14-5.142a.228.228,0,0,1-.117-.178l-.02-.176A4.542,4.542,0,0,0-132.75,157.541Zm-.049.059Z" transform="translate(133.255 -156.469)" fill="#75797e"/>
            </g>
          </g>
        </g>
        <g id="Grupo_876372" data-name="Grupo 876372" transform="translate(7.606 53.922)">
          <g id="Grupo_876369" data-name="Grupo 876369" transform="translate(0 0.698)">
            <g id="Grupo_876368" data-name="Grupo 876368">
              <path id="Trazado_600068" data-name="Trazado 600068" d="M-110.87,164.63c-13.531-.168-20.884-4.647-20.884-4.647s-.635-.432-.849-.276a2.958,2.958,0,0,0,0,.674c0,.2,2.936,3,13.323,4.381,8.091,1.076,9.645.705,9.75.3a5.666,5.666,0,0,0,.007-.705c-.027-.068-.293.037-.344-.017a1.52,1.52,0,0,0-.981-.4Z" transform="translate(132.862 -159.44)" fill="#9c9da0"/>
              <path id="Trazado_600069" data-name="Trazado 600069" d="M-111.354,165.841a64.992,64.992,0,0,1-7.82-.71c-10.678-1.42-13.528-4.281-13.528-4.613l0-.051c-.039-.6-.022-.722.1-.813.3-.217.83.076,1.118.271.063.039,7.368,4.391,20.526,4.6l.012-.456a.236.236,0,0,1,.234-.227h0a1.776,1.776,0,0,1,1.086.41l.034,0c.11-.015.342-.051.422.159a4.116,4.116,0,0,1,0,.849C-109.226,165.48-109.321,165.841-111.354,165.841Zm-20.882-5.384c.366.505,3.773,2.965,13.123,4.21,8.567,1.137,9.413.586,9.5.464,0-.029,0-.242,0-.405a.34.34,0,0,1-.288-.085,1.167,1.167,0,0,0-.586-.3l-.012.432a.236.236,0,0,1-.234.227h0c-13.44-.166-20.928-4.637-21-4.681a2.091,2.091,0,0,0-.517-.261c0,.078,0,.2.015.378Zm22.671,3.856Z" transform="translate(132.724 -159.578)" fill="#75797e"/>
            </g>
          </g>
          <g id="Grupo_876371" data-name="Grupo 876371" transform="translate(0.023)">
            <g id="Grupo_876370" data-name="Grupo 876370">
              <path id="Trazado_600070" data-name="Trazado 600070" d="M-110.882,164.367c-12.162-.151-19.332-3.785-20.657-4.52l-.054-.459s-1.025.53-1.025.73,2.936,3,13.323,4.381,10,.381,9.609-.02a4.967,4.967,0,0,0-1.091-.754Z" transform="translate(132.852 -159.153)" fill="#c9cacc"/>
              <path id="Trazado_600071" data-name="Trazado 600071" d="M-111.371,165.58a64.889,64.889,0,0,1-7.815-.71c-10.675-1.418-13.528-4.278-13.528-4.613,0-.112,0-.344,1.152-.94a.235.235,0,0,1,.217,0,.228.228,0,0,1,.122.178l.039.342c1.542.835,8.547,4.247,20.242,4.43l.073-.444a.231.231,0,0,1,.124-.171.233.233,0,0,1,.212,0,5.164,5.164,0,0,1,1.152.8c.264.271.237.491.168.627C-109.3,165.262-109.46,165.58-111.371,165.58Zm-20.826-5.321c.571.62,4.061,2.948,13.072,4.147,8.408,1.118,9.379.605,9.492.471-.007,0-.027-.039-.083-.1a3.831,3.831,0,0,0-.744-.552l-.051.312a.236.236,0,0,1-.232.2h0c-12.223-.151-19.444-3.815-20.77-4.549a.237.237,0,0,1-.12-.178l-.012-.115A4.442,4.442,0,0,0-132.2,160.259Zm-.063.066Z" transform="translate(132.714 -159.292)" fill="#75797e"/>
            </g>
          </g>
        </g>
        <g id="Grupo_876377" data-name="Grupo 876377" transform="translate(9.467 61.114)">
          <g id="Grupo_876374" data-name="Grupo 876374" transform="translate(0 0.664)">
            <g id="Grupo_876373" data-name="Grupo 876373">
              <path id="Trazado_600072" data-name="Trazado 600072" d="M-113.277,167.1c-11.583-.046-17.841-4.208-17.841-4.208s-.539-.4-.725-.251a3.066,3.066,0,0,0-.007.635c0,.188,2.487,2.8,11.371,4.017,6.919.947,8.252.586,8.344.205a5.527,5.527,0,0,0,.012-.666c-.022-.063-.251.039-.3-.012a1.2,1.2,0,0,0-.835-.369Z" transform="translate(132.099 -162.372)" fill="#9c9da0"/>
              <path id="Trazado_600073" data-name="Trazado 600073" d="M-113.81,168.269a52.543,52.543,0,0,1-6.563-.608c-9.15-1.252-11.578-3.937-11.573-4.252l0-.051c-.027-.569-.015-.676.1-.764.283-.227.754.056,1.01.247.054.034,6.25,4.061,17.477,4.159l.015-.42a.234.234,0,0,1,.232-.225,1.44,1.44,0,0,1,.942.373l0,0c.083-.015.332-.056.408.166a4.087,4.087,0,0,1-.007.8C-111.824,167.908-111.911,168.269-113.81,168.269Zm-17.67-4.918c.2.229,2.5,2.66,11.171,3.846,7.28,1,8.015.483,8.088.371,0-.027.007-.212.007-.364a.283.283,0,0,1-.242-.093.869.869,0,0,0-.434-.256l-.015.388a.216.216,0,0,1-.234.227c-11.522-.046-17.907-4.205-17.97-4.247a1.82,1.82,0,0,0-.383-.22c0,.073,0,.181.01.332Zm19.374,3.449h0Z" transform="translate(131.961 -162.51)" fill="#75797e"/>
            </g>
          </g>
          <g id="Grupo_876376" data-name="Grupo 876376" transform="translate(0.022)">
            <g id="Grupo_876375" data-name="Grupo 876375">
              <path id="Trazado_600074" data-name="Trazado 600074" d="M-113.28,166.856c-10.414-.042-16.523-3.407-17.651-4.088l-.041-.434s-.881.508-.884.7,2.487,2.8,11.371,4.017,8.559.276,8.227-.1a4.161,4.161,0,0,0-.927-.7Z" transform="translate(132.09 -162.101)" fill="#c9cacc"/>
              <path id="Trazado_600075" data-name="Trazado 600075" d="M-113.818,168.024a51.982,51.982,0,0,1-6.56-.605c-9.15-1.252-11.576-3.937-11.573-4.252,0-.1,0-.322,1-.9a.236.236,0,0,1,.225,0,.234.234,0,0,1,.124.185l.032.315c1.333.783,7.278,3.912,17.228,4l.063-.408a.235.235,0,0,1,.129-.176.231.231,0,0,1,.215.007,4.36,4.36,0,0,1,.988.749.512.512,0,0,1,.134.615C-111.9,167.719-112.066,168.024-113.818,168.024Zm-17.616-4.859c.412.434,2.917,2.668,11.119,3.79,7.171.981,7.993.5,8.086.376,0,0-.02-.032-.066-.085a3.142,3.142,0,0,0-.576-.473l-.039.259a.236.236,0,0,1-.232.2h0c-10.473-.041-16.64-3.441-17.77-4.122a.233.233,0,0,1-.112-.178l0-.059A3.424,3.424,0,0,0-131.435,163.165Z" transform="translate(131.952 -162.238)" fill="#75797e"/>
            </g>
          </g>
        </g>
        <path id="Trazado_600076" data-name="Trazado 600076" d="M-129.077,147.387a52.363,52.363,0,0,0,8.349,1.213,70.18,70.18,0,0,0,8.01.161,48.422,48.422,0,0,0,8.772-1.081,29.86,29.86,0,0,0,3.068-.871c.464-3.72.683-5.811.683-5.811H-134.81s.176,1.674.544,4.691A30.144,30.144,0,0,0-129.077,147.387Z" transform="translate(137.324 -131.725)" fill="#8b8d8f" style="mix-blend-mode: multiply;isolation: isolate"/>
        <g id="Grupo_876382" data-name="Grupo 876382" transform="translate(2.177 6.413)">
          <g id="Grupo_876379" data-name="Grupo 876379" transform="translate(0 1.02)">
            <g id="Grupo_876378" data-name="Grupo 876378">
              <path id="Trazado_600077" data-name="Trazado 600077" d="M-100.579,147.675c-21.307-.3-32.895-7.224-32.895-7.224s-1-.247-1.342-.007c-.081.056,0,.556,0,.617,0,.308,4.632,4.63,20.992,6.79,12.742,1.684,15.188,1.12,15.354.5a3.787,3.787,0,0,0,0-.725c-.042-.1-.456-.305-.539-.388a2.413,2.413,0,0,0-1.545-.617Z" transform="translate(135.087 -140.105)" fill="#9c9da0"/>
              <path id="Trazado_600078" data-name="Trazado 600078" d="M-101.387,149.334a102.9,102.9,0,0,1-12.328-1.111c-15.674-2.072-21.2-6.28-21.2-7.024l-.007-.068c-.044-.383-.059-.625.107-.742.405-.283,1.347-.073,1.533-.029a.293.293,0,0,1,.063.027c.115.068,11.7,6.846,32.548,7.19l.022-.827a.237.237,0,0,1,.234-.229,2.651,2.651,0,0,1,1.711.686,1.3,1.3,0,0,0,.164.1c.232.139.376.232.427.361a3.28,3.28,0,0,1,0,.874C-98.178,148.811-98.317,149.334-101.387,149.334Zm-33.058-8.186c.43.7,5.772,4.627,20.792,6.609,14.043,1.855,15.039.881,15.1.669.01-.063.017-.427.01-.566-.054-.041-.166-.11-.229-.149a1.2,1.2,0,0,1-.254-.173,2.054,2.054,0,0,0-1.152-.527l-.022.81a.233.233,0,0,1-.234.227h0a85.374,85.374,0,0,1-24.506-3.737,45.819,45.819,0,0,1-8.474-3.5,2.608,2.608,0,0,0-1.057-.066c0,.068.01.181.027.337Zm-.1-.376Z" transform="translate(134.948 -140.243)" fill="#75797e"/>
            </g>
          </g>
          <g id="Grupo_876381" data-name="Grupo 876381" transform="translate(0.036)">
            <g id="Grupo_876380" data-name="Grupo 876380">
              <path id="Trazado_600079" data-name="Trazado 600079" d="M-100.6,147.659c-19.152-.271-30.452-5.892-32.541-7.027l-.085-.71s-1.611.813-1.611,1.123,4.632,4.63,20.992,6.79,15.744.617,15.127,0a8.881,8.881,0,0,0-1.852-1.235Z" transform="translate(135.071 -139.687)" fill="#c9cacc"/>
              <path id="Trazado_600080" data-name="Trazado 600080" d="M-101.372,149.325a103.778,103.778,0,0,1-12.364-1.118c-15.674-2.072-21.2-6.28-21.2-7.024,0-.112,0-.454,1.74-1.333a.231.231,0,0,1,.215,0,.228.228,0,0,1,.122.178l.071.591c2.314,1.237,13.445,6.631,32.1,6.939l.022-.827a.237.237,0,0,1,.115-.2.23.23,0,0,1,.225-.007,8.9,8.9,0,0,1,1.913,1.276c.361.364.337.647.251.82C-98.28,148.864-98.509,149.325-101.372,149.325Zm-33.063-8.149c.617.813,6.041,4.623,20.76,6.565,13.436,1.774,14.949.966,15.09.678.024-.049-.037-.156-.161-.281a7.358,7.358,0,0,0-1.462-1.015l-.02.681a.218.218,0,0,1-.237.227c-19.205-.271-30.569-5.926-32.651-7.056a.231.231,0,0,1-.12-.178l-.046-.373A6.038,6.038,0,0,0-134.435,141.176Z" transform="translate(134.933 -139.826)" fill="#75797e"/>
            </g>
          </g>
        </g>
        <g id="Grupo_876387" data-name="Grupo 876387">
          <g id="Grupo_876383" data-name="Grupo 876383" transform="translate(0.029 2.96)">
            <path id="Trazado_600081" data-name="Trazado 600081" d="M-114.452,138.507h-21.28l.923,7.544a.418.418,0,0,0-.022.134c0,1.525,8.34,2.763,18.629,2.763s18.632-1.237,18.632-2.763h.015l.94-7.678Z" transform="translate(135.966 -138.273)" fill="#c9cacc"/>
            <path id="Trazado_600082" data-name="Trazado 600082" d="M-116.064,149.321c-9.145,0-18.864-1.049-18.864-3a.639.639,0,0,1,.017-.151l-.915-7.5a.227.227,0,0,1,.056-.183.23.23,0,0,1,.176-.081h39.116a.234.234,0,0,1,.176.081.227.227,0,0,1,.056.183l-.937,7.676a.251.251,0,0,1-.024.076C-97.547,148.308-107.083,149.321-116.064,149.321ZM-135.33,138.88l.891,7.28a.23.23,0,0,1-.007.1.161.161,0,0,0-.012.063c0,1.032,6.551,2.528,18.395,2.528s18.4-1.5,18.4-2.528a.243.243,0,0,1,.027-.11l.9-7.334Z" transform="translate(135.828 -138.411)" fill="#95999f"/>
          </g>
          <path id="Trazado_600083" data-name="Trazado 600083" d="M-131.376,138.507h-4.356l.923,7.544a.418.418,0,0,0-.022.134c0,.647,1.5,1.242,4.012,1.713C-131.027,144.77-131.158,141.633-131.376,138.507Z" transform="translate(135.996 -135.312)" fill="#c9cacc" style="mix-blend-mode: multiply;isolation: isolate"/>
          <path id="Trazado_600084" data-name="Trazado 600084" d="M-127.849,138.507h-3.522c.225,3.39.505,6.778.769,10.165.9.063,1.84.12,2.812.161C-127.966,145.394-127.952,141.948-127.849,138.507Z" transform="translate(142.278 -135.312)" fill="#c9cacc" style="mix-blend-mode: screen;isolation: isolate"/>
          <path id="Trazado_600085" data-name="Trazado 600085" d="M-122.309,138.507l-.01.164c-.232,3.234-.53,6.465-.744,9.7,4.4-.508,7.241-1.3,7.241-2.187h.015l.94-7.678Z" transform="translate(154.247 -135.312)" fill="#c9cacc" style="mix-blend-mode: multiply;isolation: isolate"/>
          <g id="Grupo_876384" data-name="Grupo 876384">
            <path id="Trazado_600086" data-name="Trazado 600086" d="M-96.57,140.254c0,1.635-8.769,2.96-19.588,2.96s-19.586-1.325-19.586-2.96,8.769-2.96,19.586-2.96S-96.57,138.619-96.57,140.254Z" transform="translate(135.978 -137.06)" fill="#989a9c"/>
            <path id="Trazado_600087" data-name="Trazado 600087" d="M-116.02,143.588a97.86,97.86,0,0,1-13.885-.869c-3.939-.6-5.936-1.379-5.936-2.326s2-1.73,5.936-2.326a97.838,97.838,0,0,1,13.885-.869,97.875,97.875,0,0,1,13.887.869c3.939.6,5.936,1.379,5.936,2.326s-2,1.73-5.936,2.326A97.871,97.871,0,0,1-116.02,143.588Zm0-5.921c-11.4,0-19.352,1.438-19.352,2.726s7.947,2.726,19.352,2.726,19.354-1.437,19.354-2.726S-104.612,137.667-116.02,137.667Z" transform="translate(135.84 -137.198)" fill="#7a7e83"/>
          </g>
          <g id="Grupo_876385" data-name="Grupo 876385" transform="translate(3.068 0.935)">
            <path id="Trazado_600088" data-name="Trazado 600088" d="M-101.448,139.547c0,1.032-7.4,1.87-16.521,1.87s-16.518-.837-16.518-1.87,7.4-1.87,16.518-1.87S-101.448,138.514-101.448,139.547Z" transform="translate(134.721 -137.443)" fill="#7a7c7f"/>
            <path id="Trazado_600089" data-name="Trazado 600089" d="M-117.831,141.789c-5.794,0-16.752-.439-16.752-2.1s10.958-2.1,16.752-2.1,16.755.439,16.755,2.1S-112.034,141.789-117.831,141.789Zm0-3.739c-9.841,0-16.118.954-16.284,1.638.166.678,6.443,1.635,16.284,1.635s16.1-.952,16.286-1.638C-101.73,139-108,138.05-117.831,138.05Zm16.286,1.638h0Z" transform="translate(134.583 -137.581)" fill="#575b5f"/>
          </g>
          <g id="Grupo_876386" data-name="Grupo 876386" transform="translate(5.518 3.039)" style="mix-blend-mode: multiply;isolation: isolate">
            <ellipse id="Elipse_5074" data-name="Elipse 5074" cx="14.303" cy="0.935" rx="14.303" ry="0.935" fill="#7a7c7f"/>
          </g>
        </g>
      </g>
    </g>
    <g id="Grupo_876393" data-name="Grupo 876393" transform="translate(-55.99 100.685)">
      <g id="Grupo_876390" data-name="Grupo 876390" transform="translate(2.464)">
        <path id="Trazado_600090" data-name="Trazado 600090" d="M-22.96,128.367a.578.578,0,0,1-.332-.1L-112.1,69.389a.693.693,0,0,1-.2-.92.61.61,0,0,1,.869-.21l88.807,58.875a.69.69,0,0,1,.2.92A.62.62,0,0,1-22.96,128.367Z" transform="translate(114.233 -66.262)"/>
        <ellipse id="Elipse_5075" data-name="Elipse 5075" cx="2.518" cy="2.668" rx="2.518" ry="2.668"/>
        <path id="Trazado_600091" data-name="Trazado 600091" d="M-74.267,96.763A2.6,2.6,0,0,0-71.748,94.1a2.6,2.6,0,0,0-2.519-2.668A2.6,2.6,0,0,0-76.783,94.1,2.594,2.594,0,0,0-74.267,96.763Z" transform="translate(165.54 -32.738)"/>
      </g>
      <g id="Grupo_876391" data-name="Grupo 876391" transform="translate(2.466 99.373)">
        <path id="Trazado_600092" data-name="Trazado 600092" d="M-21.7,110.344h-90.066a.649.649,0,0,1-.63-.666.651.651,0,0,1,.63-.669H-21.7a.651.651,0,0,1,.63.669A.649.649,0,0,1-21.7,110.344Z" transform="translate(114.232 -106.783)"/>
        <path id="Trazado_600093" data-name="Trazado 600093" d="M-74.267,113.706a2.6,2.6,0,0,0,2.519-2.668,2.6,2.6,0,0,0-2.519-2.668,2.594,2.594,0,0,0-2.516,2.668A2.6,2.6,0,0,0-74.267,113.706Z" transform="translate(165.539 -107.702)"/>
        <path id="Trazado_600094" data-name="Trazado 600094" d="M-110.633,113.432a2.6,2.6,0,0,0,2.519-2.668,2.6,2.6,0,0,0-2.519-2.668,2.6,2.6,0,0,0-2.516,2.668A2.6,2.6,0,0,0-110.633,113.432Z" transform="translate(113.149 -108.097)"/>
      </g>
      <g id="Grupo_876392" data-name="Grupo 876392" transform="translate(0 149.867)">
        <path id="Trazado_600095" data-name="Trazado 600095" d="M-112.907,184.137a.617.617,0,0,1-.459-.354.7.7,0,0,1,.288-.9l99.231-53.2a.606.606,0,0,1,.842.288.694.694,0,0,1-.288.9l-99.228,53.2A.6.6,0,0,1-112.907,184.137Z" transform="translate(115.209 -127.601)"/>
        <path id="Trazado_600096" data-name="Trazado 600096" d="M-71.685,134.084a2.6,2.6,0,0,0,2.914-2.228,2.6,2.6,0,0,0-2.055-3.039,2.6,2.6,0,0,0-2.914,2.228A2.6,2.6,0,0,0-71.685,134.084Z" transform="translate(172.334 -128.786)"/>
        <path id="Trazado_600097" data-name="Trazado 600097" d="M-112.067,155.734a2.6,2.6,0,0,0,2.917-2.228,2.6,2.6,0,0,0-2.055-3.039,2.6,2.6,0,0,0-2.917,2.228A2.6,2.6,0,0,0-112.067,155.734Z" transform="translate(114.159 -97.597)"/>
      </g>
    </g>
  </g>
</svg>
