<svg xmlns="http://www.w3.org/2000/svg" xmlns:xlink="http://www.w3.org/1999/xlink" width="85" height="78" viewBox="0 0 85 78">
  <defs>
    <clipPath id="clip-path">
      <rect id="Rect치ngulo_47610" data-name="Rect치ngulo 47610" width="62" height="62" transform="translate(191 4354)" fill="#fff"/>
    </clipPath>
  </defs>
  <g id="Grupo_876720" data-name="Grupo 876720" transform="translate(-180 -4346)">
    <path id="Rect치ngulo_47605" data-name="Rect치ngulo 47605" d="M0,0H67A18,18,0,0,1,85,18V60A18,18,0,0,1,67,78H0a0,0,0,0,1,0,0V0A0,0,0,0,1,0,0Z" transform="translate(180 4346)" fill="#0273bc"/>
    <g id="Enmascarar_grupo_77" data-name="Enmascarar grupo 77" clip-path="url(#clip-path)">
      <g id="estomago" transform="translate(191 4354)">
        <g id="Grupo_876712" data-name="Grupo 876712">
          <g id="Grupo_876711" data-name="Grupo 876711">
            <path id="Trazado_602009" data-name="Trazado 602009" d="M37.228,14.427c-.016-.016-.032-.032-.048-.032C32.54,11.036,31.533,3.212,31.517,3.1a1.281,1.281,0,1,0-2.544.3c.048.352,1.088,8.671,6.351,12.8a13.462,13.462,0,0,1-.992,2.1c-.176.32-.32.576-.416.784a.27.27,0,0,0-.032.08c-.256.72-.5,1.44-.736,2.144a27.485,27.485,0,0,1-3.1,7.055,27.483,27.483,0,0,1-5.855,6.271,23.3,23.3,0,0,1-3.872,2.016,29.92,29.92,0,0,0-3.84,1.952,18.621,18.621,0,0,0-1.92,1.424,7.506,7.506,0,0,1-3.792,2.064c-.24.016-.464.048-.688.064a10.132,10.132,0,0,0-4.592,1.2C-.176,46.7-.048,54.391.016,58.087A1.28,1.28,0,0,0,1.3,59.351h.016a1.294,1.294,0,0,0,1.264-1.3v-.016c-.112-5.167.336-10.239,4.176-12.495a7.775,7.775,0,0,1,3.52-.848c.24-.016.48-.048.72-.064,2.176-.208,3.744-1.488,5.151-2.608a16.32,16.32,0,0,1,1.68-1.248A24.979,24.979,0,0,1,21.342,39a25.66,25.66,0,0,0,4.288-2.256,30.78,30.78,0,0,0,6.5-6.911,30.008,30.008,0,0,0,3.44-7.711c.224-.672.464-1.36.7-2.048.064-.112.176-.336.3-.544C37.484,17.883,38.732,15.627,37.228,14.427Z" fill="#fff"/>
          </g>
        </g>
        <g id="Grupo_876714" data-name="Grupo 876714">
          <g id="Grupo_876713" data-name="Grupo 876713">
            <path id="Trazado_602010" data-name="Trazado 602010" d="M59.05,18.587a15.8,15.8,0,0,0-12.207-8.559h-.064A8.994,8.994,0,0,0,45.867,10a3.378,3.378,0,0,1-1.456-.208c-.016,0-.016-.016-.032-.016-1.024-.576-5.055-5.2-5.279-8.479a1.275,1.275,0,1,0-2.544.176c.272,4.256,4.784,9.519,6.559,10.543a5.279,5.279,0,0,0,2.72.56,5.186,5.186,0,0,1,.72.032,13.075,13.075,0,0,1,10.239,7.247,26.026,26.026,0,0,1,2.64,12.959C58.938,45.032,52.89,53.9,42.4,57.783c-2.976,1.12-13.327,3.376-21.662-.944a.016.016,0,0,1-.016-.016,13.328,13.328,0,0,1-4.48-4.048l-.016-.032c-1.2-1.616-2.832-3.84-6.047-2.576-3.568,1.344-3.568,6.511-3.568,8.7a1.28,1.28,0,1,0,2.56,0c0-1.536,0-5.583,1.92-6.319H11.1c1.264-.5,1.744-.1,3.072,1.7l.032.032.016.016a15.572,15.572,0,0,0,5.359,4.784,27.029,27.029,0,0,0,12.543,2.816c.656,0,1.312-.016,1.984-.048a33.554,33.554,0,0,0,9.183-1.712A27.347,27.347,0,0,0,56.874,49.656a31.985,31.985,0,0,0,5.1-16.8A28.686,28.686,0,0,0,59.05,18.587Z" fill="#fff"/>
          </g>
        </g>
        <g id="Grupo_876716" data-name="Grupo 876716">
          <g id="Grupo_876715" data-name="Grupo 876715">
            <path id="Trazado_602011" data-name="Trazado 602011" d="M55.21,30.794a3.315,3.315,0,0,0-2.32-2.064h-.048c-.688-.064-2.016.112-3.152,2.112a20.167,20.167,0,0,1-9.807,7.487c-4.768,1.856-9.6,2.176-14.719,2.5a13.716,13.716,0,0,0-4.32.832,6.913,6.913,0,0,0-4.464,4.832,6.982,6.982,0,0,0,1.824,6.335,12.449,12.449,0,0,0,4.928,2.992,23.791,23.791,0,0,0,8.255,1.44,26.146,26.146,0,0,0,6.1-.736,27.884,27.884,0,0,0,12.527-6.991A20.6,20.6,0,0,0,55.594,41.1,13.4,13.4,0,0,0,55.21,30.794Zm-2.048,9.455a.056.056,0,0,1-.016.032,18.066,18.066,0,0,1-4.928,7.391A25.292,25.292,0,0,1,36.86,54.039,22.207,22.207,0,0,1,24,53.415a10.194,10.194,0,0,1-3.92-2.336,4.157,4.157,0,0,1,1.68-7.039c.016,0,.016,0,.032-.016a11.276,11.276,0,0,1,3.536-.656c5.071-.32,10.335-.656,15.454-2.656A22.081,22.081,0,0,0,51.834,32.2a.35.35,0,0,0,.048-.08,2.521,2.521,0,0,1,.624-.8,1.847,1.847,0,0,1,.336.528c0,.016.016.032.032.048A10.829,10.829,0,0,1,53.162,40.249Z" fill="#fff"/>
          </g>
        </g>
      </g>
    </g>
  </g>
</svg>
