<svg xmlns="http://www.w3.org/2000/svg" width="85" height="78" viewBox="0 0 85 78">
  <g id="Grupo_876722" data-name="Grupo 876722" transform="translate(-600 -4076)">
    <path id="Rectángulo_47595" data-name="Rectángulo 47595" d="M0,0H67A18,18,0,0,1,85,18V60A18,18,0,0,1,67,78H0a0,0,0,0,1,0,0V0A0,0,0,0,1,0,0Z" transform="translate(600 4076)" fill="#0273bc"/>
    <g id="levantamiento" transform="translate(612 4084)">
      <path id="Trazado_601991" data-name="Trazado 601991" d="M169.64,296.333a1.79,1.79,0,0,0-2.485-.477,2.668,2.668,0,0,1-2.971,0,1.79,1.79,0,0,0-2.008,2.963,6.277,6.277,0,0,0,6.987,0,1.789,1.789,0,0,0,.477-2.485Z" transform="translate(-142.135 -260.285)" fill="#fff"/>
      <path id="Trazado_601992" data-name="Trazado 601992" d="M284.642,295.855a2.668,2.668,0,0,1-2.971,0,1.79,1.79,0,1,0-2.008,2.963,6.277,6.277,0,0,0,6.987,0,1.79,1.79,0,1,0-2.008-2.963Z" transform="translate(-245.606 -260.285)" fill="#fff"/>
      <path id="Trazado_601993" data-name="Trazado 601993" d="M218.046,396.533a3.875,3.875,0,0,1-5.115,0,1.79,1.79,0,1,0-2.282,2.758,7.417,7.417,0,0,0,9.679,0,1.79,1.79,0,1,0-2.282-2.757Z" transform="translate(-184.946 -348.86)" fill="#fff"/>
      <path id="Trazado_601994" data-name="Trazado 601994" d="M87.363,41.145A5.679,5.679,0,0,0,87.708,29.8v-.781a20.049,20.049,0,0,0-5.921-14.279,20.376,20.376,0,0,0-3.355-2.709c.033-.349.051-.7.051-1.053a10.976,10.976,0,1,0-21.953,0c0,.366.019.73.055,1.093a20.407,20.407,0,0,0-9.28,17.124v.6a5.679,5.679,0,0,0,.346,11.347h1.525v1.622a18.154,18.154,0,0,0,3.678,11.009A18.334,18.334,0,0,0,72.842,60.3a18.341,18.341,0,0,0,13-17.53V41.145Zm2.1-5.679a2.1,2.1,0,0,1-2.1,2.1H85.838v-4.2h1.525A2.1,2.1,0,0,1,89.463,35.466ZM67.507,3.579A7.407,7.407,0,0,1,74.864,10.2a20.2,20.2,0,0,0-7.357-1.375H67.5a19.953,19.953,0,0,0-7.349,1.4,7.408,7.408,0,0,1,7.359-6.649ZM50.885,29.193A16.725,16.725,0,0,1,67.5,12.408h.008a16.638,16.638,0,0,1,16.622,17.3,19.513,19.513,0,0,1-6.2-1.59C70.8,24.967,69.3,21.173,69.3,18.546a1.79,1.79,0,0,0-3.579,0h0c0,2.627-1.5,6.42-8.637,9.572a19.51,19.51,0,0,1-6.2,1.59v-.515Zm-3.234,8.373a2.1,2.1,0,1,1,0-4.2h1.525v4.2H47.651Zm34.607,5.2a14.751,14.751,0,0,1-29.5,0V33.085a23.02,23.02,0,0,0,5.771-1.692c4.206-1.857,7.228-4.188,8.981-6.891,1.753,2.7,4.775,5.034,8.98,6.891a23.025,23.025,0,0,0,5.771,1.692v9.682Z" transform="translate(-36.965 0)" fill="#fff"/>
      <path id="Trazado_601997" data-name="Trazado 601997" d="M1.79,6.383H2.8V7.4a1.79,1.79,0,1,0,3.579,0V6.383H7.4A1.79,1.79,0,1,0,7.4,2.8H6.383V1.79a1.79,1.79,0,1,0-3.579,0V2.8H1.79a1.79,1.79,0,1,0,0,3.579Z" transform="translate(0 0)" fill="#fff"/>
      <circle id="Elipse_5121" data-name="Elipse 5121" cx="1.5" cy="1.5" r="1.5" transform="translate(10 10.001)" fill="#fff"/>
      <circle id="Elipse_5122" data-name="Elipse 5122" cx="1.5" cy="1.5" r="1.5" transform="translate(2 18.001)" fill="#fff"/>
      <path id="Trazado_601998" data-name="Trazado 601998" d="M386.79,36.383H387.8V37.4a1.79,1.79,0,1,0,3.579,0V36.383H392.4a1.79,1.79,0,0,0,0-3.579h-1.014V31.79a1.79,1.79,0,1,0-3.579,0V32.8H386.79a1.79,1.79,0,0,0,0,3.579Z" transform="translate(-339.067 -26.421)" fill="#fff"/>
      <circle id="Elipse_5123" data-name="Elipse 5123" cx="2" cy="2" r="2" transform="translate(56 14.001)" fill="#fff"/>
    </g>
  </g>
</svg>
