<svg xmlns="http://www.w3.org/2000/svg" width="85" height="78" viewBox="0 0 85 78">
  <g id="Grupo_877693" data-name="Grupo 877693" transform="translate(-354 5284)">
    <g id="Grupo_877692" data-name="Grupo 877692">
      <g id="Grupo_877691" data-name="Grupo 877691">
        <g id="Grupo_877685" data-name="Grupo 877685">
          <g id="Grupo_877648" data-name="Grupo 877648" transform="translate(1439 -1126) rotate(180)">
            <path id="Rectángulo_47602" data-name="Rectángulo 47602" d="M0,0H67A18,18,0,0,1,85,18V60A18,18,0,0,1,67,78H0a0,0,0,0,1,0,0V0A0,0,0,0,1,0,0Z" transform="translate(1000 4080)" fill="#0273bc"/>
          </g>
        </g>
      </g>
      <g id="sonreir" transform="translate(371 -5271)">
        <path id="Trazado_604572" data-name="Trazado 604572" d="M44.1,7.566A25.832,25.832,0,0,0,7.566,44.1a25.839,25.839,0,0,0,32.3,3.425,2.018,2.018,0,0,0-2.2-3.387,21.787,21.787,0,1,1,6.519-6.547,2.018,2.018,0,1,0,3.4,2.18A25.839,25.839,0,0,0,44.1,7.566Z" transform="translate(0 0)" fill="#fff"/>
        <path id="Trazado_604573" data-name="Trazado 604573" d="M121.8,186.3a1.907,1.907,0,0,1,1.358.562,2.018,2.018,0,1,0,2.854-2.854,5.956,5.956,0,0,0-8.423,0,2.018,2.018,0,1,0,2.854,2.854A1.908,1.908,0,0,1,121.8,186.3Z" transform="translate(-105.196 -163.87)" fill="#fff"/>
        <path id="Trazado_604574" data-name="Trazado 604574" d="M308.819,186.86a2.018,2.018,0,0,0,0-2.854,5.956,5.956,0,0,0-8.423,0,2.018,2.018,0,0,0,2.854,2.854,1.92,1.92,0,0,1,2.715,0,2.018,2.018,0,0,0,2.854,0Z" transform="translate(-269.553 -163.87)" fill="#fff"/>
        <path id="Trazado_604575" data-name="Trazado 604575" d="M144.09,306.9a12.833,12.833,0,0,0,18.52-5.274,2.018,2.018,0,1,0-3.643-1.738,8.8,8.8,0,0,1-15.882,0,2.018,2.018,0,1,0-3.643,1.738A12.853,12.853,0,0,0,144.09,306.9Z" transform="translate(-125.195 -268.598)" fill="#fff"/>
      </g>
    </g>
  </g>
</svg>
