<svg xmlns="http://www.w3.org/2000/svg" width="85" height="78" viewBox="0 0 85 78">
  <g id="Grupo_877690" data-name="Grupo 877690" transform="translate(-354 5478)">
    <g id="Grupo_877684" data-name="Grupo 877684">
      <g id="Grupo_877647" data-name="Grupo 877647" transform="translate(1439 -1320) rotate(180)">
        <path id="Rectángulo_47602" data-name="Rectángulo 47602" d="M0,0H67A18,18,0,0,1,85,18V60A18,18,0,0,1,67,78H0a0,0,0,0,1,0,0V0A0,0,0,0,1,0,0Z" transform="translate(1000 4080)" fill="#0273bc"/>
      </g>
    </g>
    <g id="me-gusta" transform="translate(339 -5469)">
      <g id="Grupo_877653" data-name="Grupo 877653" transform="translate(31 10.56)">
        <g id="Grupo_877652" data-name="Grupo 877652">
          <path id="Trazado_604576" data-name="Trazado 604576" d="M81.886,117.226a5.219,5.219,0,0,0-3.889-8.7H67.863A33.752,33.752,0,0,0,69.295,99.7V97.963A6.971,6.971,0,0,0,62.332,91H60.591A1.74,1.74,0,0,0,58.9,92.318l-.948,3.793c-1.329,5.313-5.547,11.174-9.912,12.239a5.229,5.229,0,0,0-4.858-3.31H32.741A1.741,1.741,0,0,0,31,106.782v31.332a1.741,1.741,0,0,0,1.741,1.741H43.185a5.227,5.227,0,0,0,4.714-2.977l5.981,1.994a19.105,19.105,0,0,0,6.055.983H74.517a5.223,5.223,0,0,0,4.855-7.146,5.219,5.219,0,0,0,2.515-8.52,5.211,5.211,0,0,0,0-6.963ZM44.925,134.633a1.743,1.743,0,0,1-1.741,1.741h-8.7V108.523h8.7a1.743,1.743,0,0,1,1.741,1.741Zm29.591-15.666H78a1.741,1.741,0,0,1,0,3.481H74.517a1.741,1.741,0,1,0,0,3.481H78a1.741,1.741,0,0,1,0,3.481H74.517a1.741,1.741,0,1,0,0,3.481,1.741,1.741,0,0,1,0,3.481H59.934a15.632,15.632,0,0,1-4.955-.8l-6.573-2.191V111.839c2.731-.519,5.4-2.248,7.816-5.078a25.4,25.4,0,0,0,5.109-9.8l.619-2.475h.382a3.486,3.486,0,0,1,3.481,3.481V99.7a27.544,27.544,0,0,1-1.666,8.821H60.591a1.741,1.741,0,1,0,0,3.481H78a1.741,1.741,0,0,1,0,3.481H74.517a1.741,1.741,0,1,0,0,3.481Z" transform="translate(-31 -91)" fill="#fff"/>
        </g>
      </g>
      <g id="Grupo_877655" data-name="Grupo 877655" transform="translate(37.829 49.171)">
        <g id="Grupo_877654" data-name="Grupo 877654" transform="translate(0 0)">
          <circle id="Elipse_5157" data-name="Elipse 5157" cx="1.707" cy="1.707" r="1.707" fill="#fff"/>
        </g>
      </g>
      <g id="Grupo_877657" data-name="Grupo 877657" transform="translate(62.332)">
        <g id="Grupo_877656" data-name="Grupo 877656">
          <path id="Trazado_604577" data-name="Trazado 604577" d="M302.741,0A1.741,1.741,0,0,0,301,1.741v3.6a1.741,1.741,0,0,0,3.481,0v-3.6A1.741,1.741,0,0,0,302.741,0Z" transform="translate(-301)" fill="#fff"/>
        </g>
      </g>
      <g id="Grupo_877659" data-name="Grupo 877659" transform="translate(51.254 4.705)">
        <g id="Grupo_877658" data-name="Grupo 877658">
          <path id="Trazado_604578" data-name="Trazado 604578" d="M210.974,43.513l-2.462-2.462a1.741,1.741,0,1,0-2.462,2.462l2.462,2.462a1.741,1.741,0,1,0,2.462-2.462Z" transform="translate(-205.541 -40.542)" fill="#fff"/>
        </g>
      </g>
      <g id="Grupo_877661" data-name="Grupo 877661" transform="translate(70.948 4.705)">
        <g id="Grupo_877660" data-name="Grupo 877660">
          <path id="Trazado_604579" data-name="Trazado 604579" d="M380.68,41.051a1.741,1.741,0,0,0-2.462,0l-2.462,2.462a1.741,1.741,0,0,0,2.462,2.462l2.462-2.462A1.741,1.741,0,0,0,380.68,41.051Z" transform="translate(-375.246 -40.542)" fill="#fff"/>
        </g>
      </g>
    </g>
  </g>
</svg>
