<svg xmlns="http://www.w3.org/2000/svg" width="85" height="78" viewBox="0 0 85 78">
  <g id="Grupo_877688" data-name="Grupo 877688" transform="translate(-354 5084)">
    <g id="Grupo_877686" data-name="Grupo 877686">
      <g id="Grupo_877649" data-name="Grupo 877649" transform="translate(1439 -926) rotate(180)">
        <path id="Rectángulo_47602" data-name="Rectángulo 47602" d="M0,0H67A18,18,0,0,1,85,18V60A18,18,0,0,1,67,78H0a0,0,0,0,1,0,0V0A0,0,0,0,1,0,0Z" transform="translate(1000 4080)" fill="#0273bc"/>
      </g>
    </g>
    <g id="diente_1_" data-name="diente(1)" transform="translate(367.001 -5129.184)">
      <g id="Grupo_877664" data-name="Grupo 877664" transform="translate(-0.001 61.184)">
        <g id="Grupo_877663" data-name="Grupo 877663" transform="translate(0 0)">
          <g id="Grupo_877662" data-name="Grupo 877662" transform="translate(0)">
            <path id="Trazado_604588" data-name="Trazado 604588" d="M1.192,173.153a1.194,1.194,0,1,0-.6-2.228,1.194,1.194,0,0,0,.6,2.228Z" transform="translate(0.001 -157.679)" fill="#fff" stroke="#fff" stroke-width="0.5"/>
            <path id="Trazado_604589" data-name="Trazado 604589" d="M54.8,76.6a14.636,14.636,0,0,0-.678-5.744,13.853,13.853,0,0,0-8.54-9.092c-5.443-1.786-10.1.908-13.125,3.09a2.752,2.752,0,0,1-3.221,0c-3.028-2.182-7.683-4.875-13.125-3.09A13.47,13.47,0,0,0,8.048,69.61a1.205,1.205,0,0,0,.606,1.571,1.158,1.158,0,0,0,1.536-.62,11.153,11.153,0,0,1,6.638-6.521c4.362-1.431,8.289.789,10.91,2.655A7.381,7.381,0,0,0,31.88,70.2a7.193,7.193,0,0,0,5.642-.426,1.208,1.208,0,0,0,.518-1.6,1.155,1.155,0,0,0-1.567-.53,4.922,4.922,0,0,1-3.86.291,5.069,5.069,0,0,1-.682-.287,5.052,5.052,0,0,0,1.875-.838c2.62-1.888,6.618-4.228,11.068-2.768a11.522,11.522,0,0,1,7.045,7.594,12.152,12.152,0,0,1,.568,4.634q-.459-.029-.924-.029A15.313,15.313,0,0,0,36.5,91.761,15.718,15.718,0,0,0,40.8,102.6q-.332.719-.655,1.424a2.154,2.154,0,0,1-2.26,1.288,2.182,2.182,0,0,1-1.914-1.783L33.219,90.28c0-.021-.009-.042-.015-.062a2.424,2.424,0,0,0-4.709,0c-.005.021-.01.041-.015.062l-2.747,13.253a2.182,2.182,0,0,1-1.914,1.783,2.153,2.153,0,0,1-2.26-1.288c-4.353-9.477-7.1-15.09-8.158-16.684a27.4,27.4,0,0,1-3.363-6.833,1.162,1.162,0,0,0-1.471-.768,1.2,1.2,0,0,0-.75,1.5,29.8,29.8,0,0,0,3.653,7.44c.963,1.448,3.8,7.257,7.975,16.356a4.475,4.475,0,0,0,4.093,2.677,4.664,4.664,0,0,0,.549-.033,4.532,4.532,0,0,0,3.93-3.66l2.739-13.213c.011-.032.028-.056.093-.056s.083.023.093.056l2.739,13.213a4.531,4.531,0,0,0,3.93,3.66,4.472,4.472,0,0,0,4.642-2.645l.368-.8a14.686,14.686,0,0,0,8.94,3.039A15.575,15.575,0,0,0,54.8,76.6Zm-3.242,28.292A13.139,13.139,0,1,1,64.286,91.761,12.948,12.948,0,0,1,51.562,104.894Z" transform="translate(-6.833 -61.184)" fill="#fff" stroke="#fff" stroke-width="0.5"/>
            <path id="Trazado_604590" data-name="Trazado 604590" d="M327.137,251.085H325.5v-1.66a2.651,2.651,0,0,0-2.642-2.654H320a2.651,2.651,0,0,0-2.642,2.654v1.66h-1.635a2.651,2.651,0,0,0-2.642,2.654v2.887a2.651,2.651,0,0,0,2.642,2.654h1.635v1.66A2.651,2.651,0,0,0,320,263.592h2.861a2.651,2.651,0,0,0,2.642-2.654v-1.66h1.635a2.651,2.651,0,0,0,2.642-2.654v-2.887A2.651,2.651,0,0,0,327.137,251.085Zm.253,5.54a.26.26,0,0,1-.253.265h-2.83a1.194,1.194,0,0,0-1.194,1.194v2.854a.26.26,0,0,1-.253.265H320a.26.26,0,0,1-.253-.265v-2.854a1.194,1.194,0,0,0-1.194-1.194h-2.83a.26.26,0,0,1-.253-.265v-2.887a.26.26,0,0,1,.253-.265h2.83a1.194,1.194,0,0,0,1.194-1.194v-2.854a.26.26,0,0,1,.253-.265h2.861a.26.26,0,0,1,.253.265v2.854a1.194,1.194,0,0,0,1.194,1.194h2.83a.26.26,0,0,1,.253.265Z" transform="translate(-277.05 -224.604)" fill="#fff" stroke="#fff" stroke-width="0.5"/>
          </g>
        </g>
      </g>
    </g>
  </g>
</svg>
