<svg xmlns="http://www.w3.org/2000/svg" width="185.842" height="189" viewBox="0 0 185.842 189">
  <g id="Grupo_877267" data-name="Grupo 877267" transform="translate(-285 -6323)">
    <g id="Grupo_877265" data-name="Grupo 877265" transform="translate(-270.932 4993.137)">
      <g id="Grupo_156356" data-name="Grupo 156356" transform="translate(600 1329.863)">
        <g id="Grupo_156332" data-name="Grupo 156332" transform="translate(0 0)">
          <path id="Trazado_99257" data-name="Trazado 99257" d="M421.63,106.323a3.712,3.712,0,1,1-3.71-3.544A3.63,3.63,0,0,1,421.63,106.323Z" transform="translate(-414.214 -102.779)" fill="#13c6cc"/>
          <path id="Trazado_116526" data-name="Trazado 116526" d="M421.63,106.323a3.712,3.712,0,1,1-3.71-3.544A3.63,3.63,0,0,1,421.63,106.323Z" transform="translate(-330.241 -102.779)" fill="#13c6cc"/>
          <path id="Trazado_99258" data-name="Trazado 99258" d="M430.076,106.323a3.712,3.712,0,1,1-3.706-3.544A3.629,3.629,0,0,1,430.076,106.323Z" transform="translate(-405.866 -102.779)" fill="#13c6cc"/>
          <path id="Trazado_116527" data-name="Trazado 116527" d="M430.076,106.323a3.712,3.712,0,1,1-3.706-3.544A3.629,3.629,0,0,1,430.076,106.323Z" transform="translate(-321.892 -102.779)" fill="#13c6cc"/>
          <path id="Trazado_99259" data-name="Trazado 99259" d="M438.522,106.323a3.712,3.712,0,1,1-3.706-3.544A3.629,3.629,0,0,1,438.522,106.323Z" transform="translate(-397.517 -102.779)" fill="#13c6cc"/>
          <path id="Trazado_116531" data-name="Trazado 116531" d="M438.522,106.323a3.712,3.712,0,1,1-3.706-3.544A3.629,3.629,0,0,1,438.522,106.323Z" transform="translate(-313.544 -102.779)" fill="#13c6cc"/>
          <path id="Trazado_99260" data-name="Trazado 99260" d="M446.969,106.323a3.712,3.712,0,1,1-3.71-3.544A3.63,3.63,0,0,1,446.969,106.323Z" transform="translate(-389.17 -102.779)" fill="#13c6cc"/>
          <path id="Trazado_116532" data-name="Trazado 116532" d="M446.969,106.323a3.712,3.712,0,1,1-3.71-3.544A3.63,3.63,0,0,1,446.969,106.323Z" transform="translate(-305.196 -102.779)" fill="#13c6cc"/>
          <path id="Trazado_99261" data-name="Trazado 99261" d="M455.415,106.323a3.712,3.712,0,1,1-3.706-3.544A3.629,3.629,0,0,1,455.415,106.323Z" transform="translate(-380.821 -102.779)" fill="#13c6cc"/>
        </g>
        <g id="Grupo_156331" data-name="Grupo 156331" transform="translate(0 18.422)">
          <ellipse id="Elipse_3975" data-name="Elipse 3975" cx="3.708" cy="3.546" rx="3.708" ry="3.546" transform="translate(0 0.002)" fill="#13c6cc"/>
          <ellipse id="Elipse_4742" data-name="Elipse 4742" cx="3.708" cy="3.546" rx="3.708" ry="3.546" transform="translate(83.973 0.002)" fill="#13c6cc"/>
          <path id="Trazado_99268" data-name="Trazado 99268" d="M430.076,113.831a3.712,3.712,0,1,1-3.706-3.544A3.631,3.631,0,0,1,430.076,113.831Z" transform="translate(-405.866 -110.287)" fill="#13c6cc"/>
          <path id="Trazado_116528" data-name="Trazado 116528" d="M430.076,113.831a3.712,3.712,0,1,1-3.706-3.544A3.631,3.631,0,0,1,430.076,113.831Z" transform="translate(-321.892 -110.287)" fill="#13c6cc"/>
          <ellipse id="Elipse_3976" data-name="Elipse 3976" cx="3.708" cy="3.546" rx="3.708" ry="3.546" transform="translate(33.589 0.002)" fill="#13c6cc"/>
          <ellipse id="Elipse_4743" data-name="Elipse 4743" cx="3.708" cy="3.546" rx="3.708" ry="3.546" transform="translate(117.563 0.002)" fill="#13c6cc"/>
          <path id="Trazado_99269" data-name="Trazado 99269" d="M446.969,113.831a3.712,3.712,0,1,1-3.71-3.544A3.632,3.632,0,0,1,446.969,113.831Z" transform="translate(-389.17 -110.287)" fill="#13c6cc"/>
          <path id="Trazado_116533" data-name="Trazado 116533" d="M446.969,113.831a3.712,3.712,0,1,1-3.71-3.544A3.632,3.632,0,0,1,446.969,113.831Z" transform="translate(-305.196 -110.287)" fill="#13c6cc"/>
          <path id="Trazado_99270" data-name="Trazado 99270" d="M455.415,113.831a3.712,3.712,0,1,1-3.706-3.544A3.631,3.631,0,0,1,455.415,113.831Z" transform="translate(-380.821 -110.287)" fill="#13c6cc"/>
        </g>
        <g id="Grupo_156330" data-name="Grupo 156330" transform="translate(0 36.846)">
          <path id="Trazado_99274" data-name="Trazado 99274" d="M421.63,121.342a3.712,3.712,0,1,1-3.71-3.548A3.632,3.632,0,0,1,421.63,121.342Z" transform="translate(-414.214 -117.794)" fill="#13c6cc"/>
          <path id="Trazado_116529" data-name="Trazado 116529" d="M421.63,121.342a3.712,3.712,0,1,1-3.71-3.548A3.632,3.632,0,0,1,421.63,121.342Z" transform="translate(-330.241 -117.794)" fill="#13c6cc"/>
          <path id="Trazado_99275" data-name="Trazado 99275" d="M430.076,121.342a3.712,3.712,0,1,1-3.706-3.548A3.631,3.631,0,0,1,430.076,121.342Z" transform="translate(-405.866 -117.794)" fill="#13c6cc"/>
          <path id="Trazado_116530" data-name="Trazado 116530" d="M430.076,121.342a3.712,3.712,0,1,1-3.706-3.548A3.631,3.631,0,0,1,430.076,121.342Z" transform="translate(-321.892 -117.794)" fill="#13c6cc"/>
          <path id="Trazado_99276" data-name="Trazado 99276" d="M438.522,121.342a3.712,3.712,0,1,1-3.706-3.548A3.631,3.631,0,0,1,438.522,121.342Z" transform="translate(-397.517 -117.794)" fill="#13c6cc"/>
          <path id="Trazado_116534" data-name="Trazado 116534" d="M438.522,121.342a3.712,3.712,0,1,1-3.706-3.548A3.631,3.631,0,0,1,438.522,121.342Z" transform="translate(-313.544 -117.794)" fill="#13c6cc"/>
          <path id="Trazado_99277" data-name="Trazado 99277" d="M446.969,121.342a3.712,3.712,0,1,1-3.71-3.548A3.632,3.632,0,0,1,446.969,121.342Z" transform="translate(-389.17 -117.794)" fill="#13c6cc"/>
          <path id="Trazado_116535" data-name="Trazado 116535" d="M446.969,121.342a3.712,3.712,0,1,1-3.71-3.548A3.632,3.632,0,0,1,446.969,121.342Z" transform="translate(-305.196 -117.794)" fill="#13c6cc"/>
          <path id="Trazado_99278" data-name="Trazado 99278" d="M455.415,121.342a3.712,3.712,0,1,1-3.706-3.548A3.631,3.631,0,0,1,455.415,121.342Z" transform="translate(-380.821 -117.794)" fill="#13c6cc"/>
        </g>
        <g id="Grupo_156327" data-name="Grupo 156327" transform="translate(0 92.118)">
          <path id="Trazado_116550" data-name="Trazado 116550" d="M421.63,121.342a3.712,3.712,0,1,1-3.71-3.548A3.632,3.632,0,0,1,421.63,121.342Z" transform="translate(-414.214 -117.794)" fill="#13c6cc"/>
          <path id="Trazado_116551" data-name="Trazado 116551" d="M421.63,121.342a3.712,3.712,0,1,1-3.71-3.548A3.632,3.632,0,0,1,421.63,121.342Z" transform="translate(-330.241 -117.794)" fill="#13c6cc"/>
          <path id="Trazado_116552" data-name="Trazado 116552" d="M430.076,121.342a3.712,3.712,0,1,1-3.706-3.548A3.631,3.631,0,0,1,430.076,121.342Z" transform="translate(-405.866 -117.794)" fill="#13c6cc"/>
          <path id="Trazado_116553" data-name="Trazado 116553" d="M430.076,121.342a3.712,3.712,0,1,1-3.706-3.548A3.631,3.631,0,0,1,430.076,121.342Z" transform="translate(-321.892 -117.794)" fill="#13c6cc"/>
          <path id="Trazado_116554" data-name="Trazado 116554" d="M438.522,121.342a3.712,3.712,0,1,1-3.706-3.548A3.631,3.631,0,0,1,438.522,121.342Z" transform="translate(-397.517 -117.794)" fill="#13c6cc"/>
          <path id="Trazado_116555" data-name="Trazado 116555" d="M438.522,121.342a3.712,3.712,0,1,1-3.706-3.548A3.631,3.631,0,0,1,438.522,121.342Z" transform="translate(-313.544 -117.794)" fill="#13c6cc"/>
          <path id="Trazado_116556" data-name="Trazado 116556" d="M446.969,121.342a3.712,3.712,0,1,1-3.71-3.548A3.632,3.632,0,0,1,446.969,121.342Z" transform="translate(-389.17 -117.794)" fill="#13c6cc"/>
          <path id="Trazado_116557" data-name="Trazado 116557" d="M446.969,121.342a3.712,3.712,0,1,1-3.71-3.548A3.632,3.632,0,0,1,446.969,121.342Z" transform="translate(-305.196 -117.794)" fill="#13c6cc"/>
          <path id="Trazado_116558" data-name="Trazado 116558" d="M455.415,121.342a3.712,3.712,0,1,1-3.706-3.548A3.631,3.631,0,0,1,455.415,121.342Z" transform="translate(-380.821 -117.794)" fill="#13c6cc"/>
        </g>
        <g id="Grupo_156329" data-name="Grupo 156329" transform="translate(0 55.271)">
          <ellipse id="Elipse_3980" data-name="Elipse 3980" cx="3.708" cy="3.546" rx="3.708" ry="3.546" transform="translate(0 0.003)" fill="#13c6cc"/>
          <ellipse id="Elipse_4744" data-name="Elipse 4744" cx="3.708" cy="3.546" rx="3.708" ry="3.546" transform="translate(83.973 0.003)" fill="#13c6cc"/>
          <path id="Trazado_99285" data-name="Trazado 99285" d="M430.076,128.85a3.712,3.712,0,1,1-3.706-3.548A3.628,3.628,0,0,1,430.076,128.85Z" transform="translate(-405.866 -125.302)" fill="#13c6cc"/>
          <path id="Trazado_116536" data-name="Trazado 116536" d="M430.076,128.85a3.712,3.712,0,1,1-3.706-3.548A3.628,3.628,0,0,1,430.076,128.85Z" transform="translate(-321.892 -125.302)" fill="#13c6cc"/>
          <ellipse id="Elipse_3981" data-name="Elipse 3981" cx="3.708" cy="3.546" rx="3.708" ry="3.546" transform="translate(33.589 0.003)" fill="#13c6cc"/>
          <ellipse id="Elipse_4745" data-name="Elipse 4745" cx="3.708" cy="3.546" rx="3.708" ry="3.546" transform="translate(117.563 0.003)" fill="#13c6cc"/>
          <path id="Trazado_99286" data-name="Trazado 99286" d="M446.969,128.85a3.712,3.712,0,1,1-3.71-3.548A3.629,3.629,0,0,1,446.969,128.85Z" transform="translate(-389.17 -125.302)" fill="#13c6cc"/>
          <path id="Trazado_116537" data-name="Trazado 116537" d="M446.969,128.85a3.712,3.712,0,1,1-3.71-3.548A3.629,3.629,0,0,1,446.969,128.85Z" transform="translate(-305.196 -125.302)" fill="#13c6cc"/>
          <path id="Trazado_99287" data-name="Trazado 99287" d="M455.415,128.85a3.712,3.712,0,1,1-3.706-3.548A3.628,3.628,0,0,1,455.415,128.85Z" transform="translate(-380.821 -125.302)" fill="#13c6cc"/>
        </g>
        <g id="Grupo_156326" data-name="Grupo 156326" transform="translate(0 110.544)">
          <ellipse id="Elipse_4754" data-name="Elipse 4754" cx="3.708" cy="3.546" rx="3.708" ry="3.546" transform="translate(0 0.001)" fill="#13c6cc"/>
          <ellipse id="Elipse_4750" data-name="Elipse 4750" cx="3.708" cy="3.546" rx="3.708" ry="3.546" transform="translate(83.973 0.001)" fill="#13c6cc"/>
          <path id="Trazado_116548" data-name="Trazado 116548" d="M430.076,128.85a3.712,3.712,0,1,1-3.706-3.548A3.628,3.628,0,0,1,430.076,128.85Z" transform="translate(-405.866 -125.302)" fill="#13c6cc"/>
          <path id="Trazado_116542" data-name="Trazado 116542" d="M430.076,128.85a3.712,3.712,0,1,1-3.706-3.548A3.628,3.628,0,0,1,430.076,128.85Z" transform="translate(-321.892 -125.302)" fill="#13c6cc"/>
          <ellipse id="Elipse_4751" data-name="Elipse 4751" cx="3.708" cy="3.546" rx="3.708" ry="3.546" transform="translate(33.589 0.001)" fill="#13c6cc"/>
          <ellipse id="Elipse_4752" data-name="Elipse 4752" cx="3.708" cy="3.546" rx="3.708" ry="3.546" transform="translate(117.563 0.001)" fill="#13c6cc"/>
          <path id="Trazado_116543" data-name="Trazado 116543" d="M446.969,128.85a3.712,3.712,0,1,1-3.71-3.548A3.629,3.629,0,0,1,446.969,128.85Z" transform="translate(-389.17 -125.302)" fill="#13c6cc"/>
          <path id="Trazado_116544" data-name="Trazado 116544" d="M446.969,128.85a3.712,3.712,0,1,1-3.71-3.548A3.629,3.629,0,0,1,446.969,128.85Z" transform="translate(-305.196 -125.302)" fill="#13c6cc"/>
          <path id="Trazado_116545" data-name="Trazado 116545" d="M455.415,128.85a3.712,3.712,0,1,1-3.706-3.548A3.628,3.628,0,0,1,455.415,128.85Z" transform="translate(-380.821 -125.302)" fill="#13c6cc"/>
        </g>
        <g id="Grupo_156328" data-name="Grupo 156328" transform="translate(0 73.696)">
          <ellipse id="Elipse_3985" data-name="Elipse 3985" cx="3.708" cy="3.546" rx="3.708" ry="3.546" transform="translate(0 0.001)" fill="#13c6cc"/>
          <ellipse id="Elipse_4746" data-name="Elipse 4746" cx="3.708" cy="3.546" rx="3.708" ry="3.546" transform="translate(83.973 0.001)" fill="#13c6cc"/>
          <path id="Trazado_99291" data-name="Trazado 99291" d="M430.076,136.358a3.712,3.712,0,1,1-3.706-3.548A3.628,3.628,0,0,1,430.076,136.358Z" transform="translate(-405.866 -132.81)" fill="#13c6cc"/>
          <path id="Trazado_116538" data-name="Trazado 116538" d="M430.076,136.358a3.712,3.712,0,1,1-3.706-3.548A3.628,3.628,0,0,1,430.076,136.358Z" transform="translate(-321.892 -132.81)" fill="#13c6cc"/>
          <ellipse id="Elipse_3986" data-name="Elipse 3986" cx="3.708" cy="3.546" rx="3.708" ry="3.546" transform="translate(33.589 0.001)" fill="#13c6cc"/>
          <ellipse id="Elipse_4747" data-name="Elipse 4747" cx="3.708" cy="3.546" rx="3.708" ry="3.546" transform="translate(117.563 0.001)" fill="#13c6cc"/>
          <path id="Trazado_99292" data-name="Trazado 99292" d="M446.969,136.358a3.712,3.712,0,1,1-3.71-3.548A3.629,3.629,0,0,1,446.969,136.358Z" transform="translate(-389.17 -132.81)" fill="#13c6cc"/>
          <path id="Trazado_116539" data-name="Trazado 116539" d="M446.969,136.358a3.712,3.712,0,1,1-3.71-3.548A3.629,3.629,0,0,1,446.969,136.358Z" transform="translate(-305.196 -132.81)" fill="#13c6cc"/>
          <path id="Trazado_99293" data-name="Trazado 99293" d="M455.415,136.358a3.712,3.712,0,1,1-3.706-3.548A3.628,3.628,0,0,1,455.415,136.358Z" transform="translate(-380.821 -132.81)" fill="#13c6cc"/>
        </g>
      </g>
      <g id="Grupo_156332-2" data-name="Grupo 156332" transform="translate(600 1457.508)">
        <path id="Trazado_99257-2" data-name="Trazado 99257" d="M421.63,106.323a3.712,3.712,0,1,1-3.71-3.544A3.63,3.63,0,0,1,421.63,106.323Z" transform="translate(-414.214 -102.779)" fill="#13c6cc"/>
        <path id="Trazado_116526-2" data-name="Trazado 116526" d="M421.63,106.323a3.712,3.712,0,1,1-3.71-3.544A3.63,3.63,0,0,1,421.63,106.323Z" transform="translate(-330.241 -102.779)" fill="#13c6cc"/>
        <path id="Trazado_99258-2" data-name="Trazado 99258" d="M430.076,106.323a3.712,3.712,0,1,1-3.706-3.544A3.629,3.629,0,0,1,430.076,106.323Z" transform="translate(-405.866 -102.779)" fill="#13c6cc"/>
        <path id="Trazado_116527-2" data-name="Trazado 116527" d="M430.076,106.323a3.712,3.712,0,1,1-3.706-3.544A3.629,3.629,0,0,1,430.076,106.323Z" transform="translate(-321.892 -102.779)" fill="#13c6cc"/>
        <path id="Trazado_99259-2" data-name="Trazado 99259" d="M438.522,106.323a3.712,3.712,0,1,1-3.706-3.544A3.629,3.629,0,0,1,438.522,106.323Z" transform="translate(-397.517 -102.779)" fill="#13c6cc"/>
        <path id="Trazado_116531-2" data-name="Trazado 116531" d="M438.522,106.323a3.712,3.712,0,1,1-3.706-3.544A3.629,3.629,0,0,1,438.522,106.323Z" transform="translate(-313.544 -102.779)" fill="#13c6cc"/>
        <path id="Trazado_99260-2" data-name="Trazado 99260" d="M446.969,106.323a3.712,3.712,0,1,1-3.71-3.544A3.63,3.63,0,0,1,446.969,106.323Z" transform="translate(-389.17 -102.779)" fill="#13c6cc"/>
        <path id="Trazado_116532-2" data-name="Trazado 116532" d="M446.969,106.323a3.712,3.712,0,1,1-3.71-3.544A3.63,3.63,0,0,1,446.969,106.323Z" transform="translate(-305.196 -102.779)" fill="#13c6cc"/>
        <path id="Trazado_99261-2" data-name="Trazado 99261" d="M455.415,106.323a3.712,3.712,0,1,1-3.706-3.544A3.629,3.629,0,0,1,455.415,106.323Z" transform="translate(-380.821 -102.779)" fill="#13c6cc"/>
      </g>
    </g>
    <g id="haz_1_" data-name="haz(1)" transform="translate(283 6362.265)">
      <path id="Trazado_602766" data-name="Trazado 602766" d="M14.311,36H2v64.018H61.094V87.707H14.311Z" transform="translate(0 49.716)" fill="#c8c9cd"/>
      <path id="Trazado_602767" data-name="Trazado 602767" d="M2,85.716,85.716,2H98.028L14.311,85.716Z" fill="#66676c"/>
      <path id="Trazado_602768" data-name="Trazado 602768" d="M11.387,36H4V95.094H58.169V87.707H11.387Z" transform="translate(2.924 49.716)" fill="#d9dadd"/>
      <path id="Trazado_602769" data-name="Trazado 602769" d="M90.716,29.085V2L7,85.716v51.707l29.547-29.547Z" transform="translate(7.311)" fill="#aeaeaf"/>
      <path id="Trazado_602770" data-name="Trazado 602770" d="M53.783,77.471H7L41.471,43,68.556,62.7Z" transform="translate(7.311 59.952)" fill="#86878c"/>
      <path id="Trazado_602771" data-name="Trazado 602771" d="M53.085,53.924,45.7,49,26,68.7V81.009Z" transform="translate(35.094 68.726)" fill="#66676c"/>
      <path id="Trazado_602772" data-name="Trazado 602772" d="M19,33V77.32H63.32V62.547H33.773V33Z" transform="translate(24.858 45.33)" fill="#c8c9cd"/>
      <path id="Trazado_602773" data-name="Trazado 602773" d="M33.773,69.556,95.33,8H80.556L19,69.556Z" transform="translate(24.858 8.773)" fill="#66676c"/>
      <path id="Trazado_602774" data-name="Trazado 602774" d="M86.554,37.545,25,99.1V69.556L86.556,8Z" transform="translate(33.632 8.773)" fill="#aeaeaf"/>
      <path id="Trazado_602775" data-name="Trazado 602775" d="M30.849,33H21V72.4H60.4V62.547H30.849Z" transform="translate(27.783 45.33)" fill="#d9dadd"/>
      <path id="Trazado_602776" data-name="Trazado 602776" d="M116.1,20,86.554,20,25,81.558H54.547Z" transform="translate(33.632 26.319)" fill="#86878c"/>
      <path id="Trazado_602777" data-name="Trazado 602777" d="M98.556,20,37,81.556V96.33L98.556,34.773Z" transform="translate(51.179 26.32)" fill="#66676c"/>
    </g>
  </g>
</svg>
