<svg xmlns="http://www.w3.org/2000/svg" xmlns:xlink="http://www.w3.org/1999/xlink" width="340.052" height="248.775" viewBox="0 0 340.052 248.775">
  <defs>
    <clipPath id="clip-path">
      <rect id="Rectángulo_46798" data-name="Rectángulo 46798" width="227.489" height="168.295" transform="translate(0 0)" fill="#fff" stroke="#707070" stroke-width="1"/>
    </clipPath>
    <linearGradient id="linear-gradient" x1="0.5" y1="0.889" x2="0.5" y2="0.33" gradientUnits="objectBoundingBox">
      <stop offset="0.004"/>
      <stop offset="1" stop-opacity="0"/>
    </linearGradient>
    <linearGradient id="linear-gradient-2" x1="0.5" y1="0.551" x2="0.5" y2="0.788" xlink:href="#linear-gradient"/>
  </defs>
  <g id="Grupo_877288" data-name="Grupo 877288" transform="translate(-1022.55 -7938.822)">
    <g id="Grupo_877278" data-name="Grupo 877278" transform="translate(1022.55 7938.822)">
      <path id="Trazado_127365" data-name="Trazado 127365" d="M6.134,132.781l20.347,20.347a31.339,31.339,0,0,1-6.624-3.467l-9.319-9.319a49.443,49.443,0,0,1-4.4-7.561m-3.442-9.215L34.08,154.954q1.644.184,3.364.206L1.631,119.349q.465,2.137,1.061,4.217m-2.2-11.135,42.391,42.392q1.333-.179,2.7-.453L.165,108.952q.12,1.747.323,3.479M0,103.015l50.193,50.193c.824-.244,1.645-.472,2.465-.692L.1,99.957q-.082,1.526-.1,3.058m.582-8.348,56.727,56.727c.876-.189,1.751-.374,2.622-.535L.993,91.921Q.76,93.285.582,94.666m1.409-7.52,62.949,62.949q1.429-.178,2.851-.306L2.664,84.662q-.36,1.23-.673,2.484m2.127-6.8,69.134,69.134q1.582-.033,3.155,0L5.031,78.1q-.48,1.107-.913,2.244m2.8-6.134,75.635,75.635c1.208.122,2.414.281,3.618.461L8.063,72.2q-.6.986-1.15,2.007m3.471-5.459,82.993,82.992c1.451.359,2.9.751,4.352,1.2L11.775,66.984q-.718.861-1.391,1.766m4.172-4.758,92.319,92.319q2.97,1.276,5.952,2.795L16.21,62.49q-.85.724-1.654,1.5M19.5,60,127.218,167.724q6.581,4.523,13.335,10.179L21.446,58.8q-1,.572-1.951,1.206m5.829-3.1L170.14,201.717q3.293,1.9,6.716,3.559L27.626,56.045q-1.177.39-2.3.855m6.89-2.04,154.7,154.7q2.408.892,4.821,1.665L34.956,54.445q-1.4.161-2.742.415m8.255-.675L199.75,213.466q2.033.486,4.041.884L43.8,54.362q-1.7-.149-3.333-.177m9.963,1.034L210.66,215.447q1.779.216,3.513.356L54.186,55.816c-1.233-.205-2.481-.406-3.754-.6M61.223,57.08l158.96,158.96q1.567,0,3.07-.086l-158.1-158.1q-1.935-.391-3.933-.776M72.44,59.367,228.488,215.415c.909-.144,1.795-.312,2.651-.505L76.431,60.2q-1.966-.407-3.99-.834m11.179,2.25L235.58,213.576c.764-.295,1.491-.62,2.187-.97L87.431,62.271q-1.885-.3-3.811-.654M97.491,63.4q-1.7-.094-3.419-.262L241.286,210.353q.9-.7,1.748-1.409ZM247.67,204.651,106.315,63.3q-1.489.128-2.977.18L246.085,206.223q.816-.779,1.585-1.572M114.012,62.063q-1.308.311-2.608.55L250.412,201.62c.485-.578.957-1.159,1.411-1.745Zm6.812-2.118c-.777.3-1.551.58-2.32.837L254.231,196.508c.423-.642.825-1.29,1.216-1.94Zm6.15-2.779q-1.062.551-2.112,1.045L257.5,190.845q.533-1.063,1.018-2.139Zm5.658-3.273q-.983.627-1.952,1.2L260.188,184.606q.428-1.169.809-2.348Zm5.277-3.652q-.921.684-1.829,1.327L262.287,177.776c.215-.85.411-1.7.6-2.559ZM142.9,46.3c-.583.487-1.161.959-1.735,1.421L263.8,170.36q.222-1.374.407-2.749Zm4.756-4.173c-.556.51-1.109,1.012-1.657,1.5l118.8,118.8q.136-1.457.246-2.91Zm4.573-4.358c-.534.527-1.067,1.055-1.594,1.563L265.385,154.084q.079-1.511.147-3.01Zm4.418-4.511c-.516.544-1.033,1.088-1.543,1.613L265.774,145.543q.067-1.52.14-3.017Zm4.292-4.639c-.5.557-1.006,1.116-1.5,1.656L266.243,137.083q.11-1.471.247-2.91Zm4.185-4.744c-.492.57-.982,1.135-1.468,1.689L267.119,129.028q.21-1.365.469-2.688Zm4.1-4.831c-.038.045-.078.088-.115.134-.447.538-.886,1.054-1.329,1.579L268.722,121.7q.36-1.21.787-2.37Zm103.143,94.213L173.572,14.465q-.813.759-1.6,1.557l99.309,99.31c.033-.062.063-.127.1-.189.34-.63.662-1.257.988-1.885m-93.9-102.832c-.606.439-1.2.9-1.791,1.366L274.284,109.4q.514-1.085.995-2.162Zm5.469-3.462q-1.011.557-2,1.158L277,103.188c.3-.76.6-1.518.884-2.273ZM190,4.1c-.746.3-1.488.607-2.22.937l91.593,91.593q.391-1.213.74-2.417Zm6.731-2.2q-1.24.321-2.461.7l87.046,87.047q.306-1.3.566-2.591ZM204.234.479c-.922.115-1.84.247-2.753.4l81.239,81.239q.2-1.418.336-2.821Zm79.191,70.261L212.689,0c-1.041-.012-2.078.005-3.113.044L283.4,73.876c.027-1.051.039-2.1.02-3.136M222.477.862q-1.822-.3-3.646-.49l64.2,64.2q-.2-1.838-.49-3.647ZM234.5,3.956q-2.3-.815-4.622-1.465L280.892,53.5q-.664-2.356-1.5-4.652Zm33.927,25L253.949,14.474a73.212,73.212,0,0,0-8.976-5.818l29.515,29.515c-.1-.182-.2-.366-.3-.547a79.873,79.873,0,0,0-5.758-8.671" transform="translate(328.277 248.38) rotate(180)" fill="#13c6cc"/>
      <path id="Trazado_127366" data-name="Trazado 127366" d="M258.034,3.8c-27.046,1.1-40.3,26.494-104.32,19.891C116.683,18.925,79.338,3.52,58.488.284c-38.611-5.992-79.725,84.694-46,94.092,37.169,10.357,48.332.184,66.686,72.952,6.641,26.319,33.664,46.278,62.282,46.3,24.473.021,44.442-14.335,49.96-35.255,18.048-62.521,31.786-66.653,78.815-87.291,48.04-21.093,38.7-89.415-12.194-87.283" transform="translate(0 22.36)" fill="#0273bc"/>
      <path id="Trazado_127367" data-name="Trazado 127367" d="M62.36,200.854c-66.793-7.412-87.141-92.719-25.188-117.339,48.7-19.354-8.289-55.764,19.1-74.627,30.023-20.682,132.37-4.8,126.451,42.771C179.565,77,199.265,78.765,224.21,79.1c10.667.144,29.6-.329,40.885,15.244,19.327,26.673-12.85,64.98-51.835,61.621-24.573-2.114-43.006-34.091-94.3,5.316-6.328,4.856-11.807,10.956-17.106,16.855C90.274,191.03,79.61,202.765,62.36,200.854m-13-174.922C53,45.787,74.329,69.883,37.561,84.5-23.464,108.747-2.9,192.552,62.476,199.806c24.81,2.749,35.991-24.123,55.84-39.357,51.855-39.836,70.807-7.616,95.035-5.53,38.526,3.307,69.406-34.4,50.89-59.952C257.96,86.3,246.966,80.989,234.079,80.4c-23.431-1.083-56.432,3.463-52.408-28.867C188.611-4.233,41.8-15.318,49.364,25.932" transform="matrix(-0.993, 0.122, -0.122, -0.993, 340.052, 200.091)" fill="#13c6cc"/>
      <path id="conjunto-herramientas-metalicas-equipos-medicos-cuidado-dental_273609-13098" d="M256.5,63.366c-25.845,1.353-36.372-.5-54.41-29.646C173-14.646,33.671-10.345,59.135,42.523c9.74,20.221-10.665,34.8-29.884,46.624C-34.917,128.627,14.806,205.507,98,201.808c30.387-1.351,35.147-29.109,53.441-46.7C198.1,110.2,227.85,138.388,254.624,137.2c26.584-1.181,48.671-18.675,49.332-39.073.659-20.351-20.387-36.182-47.459-34.76" transform="translate(328.277 233.101) rotate(180)" fill="#13c6cc"/>
      <path id="Trazado_127369" data-name="Trazado 127369" d="M5.873,1.757A40.7,40.7,0,0,0,.085,13.073a1.652,1.652,0,0,0,2.8,1.6,34.985,34.985,0,0,1,8.663-6.818,4.287,4.287,0,0,0,1.011-6.53c-2.524-2.591-5.806-.785-6.688.434" transform="translate(70.505 207.147) rotate(180)" fill="#13c6cc"/>
      <path id="Trazado_127374" data-name="Trazado 127374" d="M0,2.776A2.776,2.776,0,1,0,2.776,0,2.776,2.776,0,0,0,0,2.776" transform="translate(318.446 42.115) rotate(180)" fill="#13c6cc"/>
      <path id="Trazado_127375" data-name="Trazado 127375" d="M2.06,0a2.061,2.061,0,1,0,2.06,2.061A2.061,2.061,0,0,0,2.06,0" transform="translate(155.08 232.622) rotate(180)" fill="#0273bc"/>
      <path id="Trazado_127378" data-name="Trazado 127378" d="M2.491,0A2.491,2.491,0,1,0,4.981,2.491,2.491,2.491,0,0,0,2.491,0" transform="translate(24.306 125.687) rotate(180)" fill="#13c6cc"/>
      <path id="Trazado_127379" data-name="Trazado 127379" d="M1.546,0A1.546,1.546,0,1,0,3.092,1.545,1.546,1.546,0,0,0,1.546,0" transform="translate(273.918 16.818) rotate(180)" fill="#0273bc"/>
      <path id="Trazado_127380" data-name="Trazado 127380" d="M2.883,0A2.883,2.883,0,1,0,5.766,2.882,2.883,2.883,0,0,0,2.883,0" transform="translate(274.451 169.66) rotate(180)" fill="#34ccfd"/>
      <path id="Trazado_127381" data-name="Trazado 127381" d="M1.761,0A1.761,1.761,0,1,0,3.522,1.761,1.761,1.761,0,0,0,1.761,0" transform="translate(105.099 7.825) rotate(180)" fill="#13c6cc"/>
      <path id="Trazado_127383" data-name="Trazado 127383" d="M5.3,0a5.3,5.3,0,1,0,5.3,5.3A5.31,5.31,0,0,0,5.3,0m0,9.554A4.25,4.25,0,1,1,9.554,5.3,4.255,4.255,0,0,1,5.3,9.554" transform="translate(167.879 210.927) rotate(180)" fill="#13c6cc"/>
      <path id="Trazado_127384" data-name="Trazado 127384" d="M15.491,0A15.492,15.492,0,1,0,30.982,15.492,15.509,15.509,0,0,0,15.491,0m0,27.9A12.412,12.412,0,1,1,27.9,15.492,12.426,12.426,0,0,1,15.491,27.9" transform="translate(85.996 42.116) rotate(180)" fill="#13c6cc"/>
      <path id="Trazado_127385" data-name="Trazado 127385" d="M8.121,0a8.12,8.12,0,1,0,8.12,8.12A8.13,8.13,0,0,0,8.121,0m0,15.186A7.066,7.066,0,1,1,15.186,8.12a7.073,7.073,0,0,1-7.066,7.066" transform="translate(84.719 142.517) rotate(180)" fill="#fff"/>
      <path id="Trazado_127386" data-name="Trazado 127386" d="M15.713,7.593H8.647V.527a.527.527,0,0,0-1.055,0V7.593H.528a.527.527,0,1,0,0,1.055H7.593v7.066a.527.527,0,0,0,1.055,0V8.648h7.066a.527.527,0,0,0,0-1.055" transform="translate(329.134 23.138) rotate(180)" fill="#13c6cc"/>
      <path id="Trazado_127387" data-name="Trazado 127387" d="M7.843,3.658H4.713V.528a.527.527,0,1,0-1.055,0V3.658H.527a.527.527,0,0,0,0,1.055H3.658V7.844a.527.527,0,1,0,1.055,0V4.713H7.843a.527.527,0,1,0,0-1.055" transform="translate(226.833 248.775) rotate(180)" fill="#0273bc"/>
      <path id="Trazado_127388" data-name="Trazado 127388" d="M11.166,5.319H6.374V.527a.527.527,0,0,0-1.055,0V5.319H.528a.527.527,0,1,0,0,1.055H5.32v4.791a.527.527,0,1,0,1.055,0V6.374h4.791a.527.527,0,1,0,0-1.055" transform="translate(35.999 228.281) rotate(180)" fill="#13c6cc"/>
      <path id="Trazado_127389" data-name="Trazado 127389" d="M16.279,1.006V9.068a1.007,1.007,0,0,1-2.014,0V1.006a1.007,1.007,0,0,1,2.014,0M5.9,4.472A1.007,1.007,0,0,0,4.472,5.9l5.7,5.7A1.007,1.007,0,0,0,11.6,10.173Zm4.178,10.8a1.008,1.008,0,0,0-1.007-1.008H1.007a1.007,1.007,0,0,0,0,2.014H9.068a1.007,1.007,0,0,0,1.007-1.006m.1,3.675-5.7,5.7A1.007,1.007,0,1,0,5.9,26.071l5.7-5.7a1.007,1.007,0,0,0-1.424-1.424m5.1,1.522a1.007,1.007,0,0,0-1.008,1.007v8.062a1.007,1.007,0,1,0,2.014,0V21.476a1.007,1.007,0,0,0-1.007-1.007m5.1-1.522a1.007,1.007,0,0,0-1.425,1.424l5.7,5.7a1.007,1.007,0,1,0,1.425-1.424Zm9.166-4.683H21.476a1.007,1.007,0,0,0,0,2.014h8.061a1.007,1.007,0,0,0,0-2.014m-9.878-2.373a1.008,1.008,0,0,0,.713-.3l5.7-5.7a1.008,1.008,0,0,0-1.425-1.425l-5.7,5.7a1.007,1.007,0,0,0,.712,1.719" transform="translate(180.355 30.545) rotate(180)" fill="#0273bc"/>
      <path id="Trazado_127390" data-name="Trazado 127390" d="M14.952.528V8.381a.527.527,0,1,1-1.055,0V.528a.527.527,0,1,1,1.055,0m-9.981,3.7a.527.527,0,0,0-.746.746l5.553,5.553a.527.527,0,1,0,.746-.746Zm3.937,10.2a.528.528,0,0,0-.527-.528H.528a.527.527,0,1,0,0,1.055H8.381a.527.527,0,0,0,.527-.527m.87,3.9L4.225,23.878a.527.527,0,1,0,.746.746l5.553-5.553a.527.527,0,0,0-.746-.746m4.646,1.616a.527.527,0,0,0-.527.528v7.853a.527.527,0,1,0,1.055,0V20.468a.527.527,0,0,0-.528-.528m9.827,4.838a.527.527,0,0,0,.373-.9l-5.553-5.553a.527.527,0,0,0-.746.746l5.553,5.553a.525.525,0,0,0,.373.155m-4.31-10.354a.527.527,0,0,0,.528.527h7.853a.527.527,0,1,0,0-1.055H20.468a.528.528,0,0,0-.528.528M18.7,10.678a.525.525,0,0,0,.373-.155L24.624,4.97a.527.527,0,0,0-.746-.746L18.325,9.778a.527.527,0,0,0,.373.9" transform="translate(301.667 232.622) rotate(180)" fill="#13c6cc"/>
      <path id="Trazado_127382" data-name="Trazado 127382" d="M3.671,0A3.671,3.671,0,1,0,7.343,3.671,3.675,3.675,0,0,0,3.671,0m0,6.288A2.617,2.617,0,1,1,6.288,3.671,2.62,2.62,0,0,1,3.671,6.288" transform="translate(178.737 22.36) rotate(180)" fill="#fff"/>
    </g>
    <g id="Grupo_877287" data-name="Grupo 877287" transform="translate(1077.247 7946.549)">
      <g id="Grupo_877283" data-name="Grupo 877283" transform="translate(0 0)">
        <g id="Grupo_877281" data-name="Grupo 877281">
          <rect id="Rectángulo_47741" data-name="Rectángulo 47741" width="181.2" height="40.394" transform="translate(18.296 86.21)" fill="#f73e23"/>
          <g id="Grupo_877279" data-name="Grupo 877279" transform="translate(2.925)">
            <path id="Trazado_602812" data-name="Trazado 602812" d="M760.161,292.889c-3.941-2.78-3.534,17.376-104.868,16.217-101.334,1.159-100.926-19-104.867-16.217s1.393,31.741.234,39.618,2.352,12.767,2.352,12.767c16.948,25.741,102.281,30.095,102.281,30.095s85.333-4.353,102.282-30.095c0,0,3.51-4.89,2.352-12.767S764.1,295.669,760.161,292.889Z" transform="translate(-548.951 -275.064)" fill="#fd735c"/>
            <path id="Trazado_602813" data-name="Trazado 602813" d="M731.38,274.509c-22.468,6.024-66.333,9.886-75.962,9.886s-53.5-3.861-75.963-9.886-28.9,16.813-28.9,16.813c6.531,31.584,97.378,35.622,104.63,35.9v.016l.23-.007.23.007v-.016c7.252-.273,98.1-4.311,104.629-35.9C760.278,291.322,753.848,268.485,731.38,274.509Z" transform="translate(-549.083 -273.497)" fill="#fc4728"/>
            <path id="Trazado_602814" data-name="Trazado 602814" d="M760.161,292.889c-3.941-2.78-3.534,17.376-104.868,16.217-101.334,1.159-100.926-19-104.867-16.217s1.393,31.741.234,39.618,2.352,12.767,2.352,12.767c16.948,25.741,102.281,30.095,102.281,30.095s85.333-4.353,102.282-30.095c0,0,3.51-4.89,2.352-12.767S764.1,295.669,760.161,292.889Z" transform="translate(-548.951 -275.064)" fill="url(#linear-gradient)" style="mix-blend-mode: soft-light;isolation: isolate"/>
            <path id="Trazado_602815" data-name="Trazado 602815" d="M661.044,364.407s-6.024-21.779-18.767-21.779-15.755,21.779-15.755,21.779l4.284,20.7a9.621,9.621,0,0,0,7.9,7.544,56.325,56.325,0,0,0,15.661.564,8.342,8.342,0,0,0,7.2-8.089A172.157,172.157,0,0,0,661.044,364.407Z" transform="translate(-555.307 -279.162)" fill="#fff"/>
            <path id="Trazado_602816" data-name="Trazado 602816" d="M555.782,349.769s-1.441-7.414-2.6-7.646,1.029,15.754,2.6,18.65a3.553,3.553,0,0,0,4.235,1.978Z" transform="translate(-549.271 -279.12)" fill="#f5f1f0"/>
            <path id="Trazado_602817" data-name="Trazado 602817" d="M562.671,353.074s-2.316-12.275-5.1-12.084-.926,12.084-.926,12.084,1.544,17.917,12.2,18.689Z" transform="translate(-549.532 -279.027)" fill="#fff"/>
            <path id="Trazado_602818" data-name="Trazado 602818" d="M567.214,366.276l-4.362-13.192s-2.044-10.833-4.6-11.985a3.813,3.813,0,0,1,.387.891c1.042,4.015,1.537,8.151,2.469,12.193s2.352,8.072,4.979,11.281A2.051,2.051,0,0,0,567.214,366.276Z" transform="translate(-549.713 -279.036)" fill="#f5f1f0"/>
            <path id="Trazado_602819" data-name="Trazado 602819" d="M569.4,354.31s-2.008-7.1-2.78-9.5-1.081-4.439-2.163-3.648-2.316,7.433-1.236,11.912,1.854,24.4,12.82,23.941Z" transform="translate(-550.087 -279.027)" fill="#fff"/>
            <path id="Trazado_602820" data-name="Trazado 602820" d="M569.567,354.31s-2.008-7.1-2.78-9.5c-.732-2.267-1.048-4.217-2-3.746,1.055,2.024,1.3,4.468,1.608,6.774A70.419,70.419,0,0,0,572.744,369a7.9,7.9,0,0,0,1.932,2.776Z" transform="translate(-550.249 -279.028)" fill="#f5f1f0"/>
            <path id="Trazado_602821" data-name="Trazado 602821" d="M581.113,357.8s-4.324-.618-4.942-4.325-2.471-9.113-4.325-9.422-1.854,10.5-1.854,10.5,3.288,25.177,9.058,26.721,7.624-1.081,7.624-1.081Z" transform="translate(-550.675 -279.278)" fill="#fff"/>
            <path id="Trazado_602822" data-name="Trazado 602822" d="M581.263,357.8s-4.324-.618-4.942-4.325-2.471-9.113-4.325-9.422a.477.477,0,0,0-.174.005,41.109,41.109,0,0,1,2.525,9.689,7.168,7.168,0,0,0,.857,3.1c1.018,1.534,2.485,1.926,3.065,3.831l4.046,13.292a6.221,6.221,0,0,0,.824,1.907,2.045,2.045,0,0,0,2.772.643Z" transform="translate(-550.825 -279.278)" fill="#f5f1f0"/>
            <path id="Trazado_602823" data-name="Trazado 602823" d="M601.074,360.813s-5.1-1.236-7.723-8.186-3.4-12.51-8.185-11.275-6.024,9.885-4.943,16.063,6.023,23.168,6.023,23.168,2.935,5.895,8.186,5.8,11.584-7.967,11.584-7.967Z" transform="translate(-551.484 -279.043)" fill="#fff"/>
            <path id="Trazado_602824" data-name="Trazado 602824" d="M606.551,378.421l-4.943-17.608s-5.1-1.236-7.723-8.186c-2.5-6.608-3.32-11.956-7.511-11.4a16.522,16.522,0,0,1,1.182,1.8,15.212,15.212,0,0,1,1.3,3.8c.6,2.873.585,5.835.957,8.745a7.751,7.751,0,0,0,4.913,6.965,7.72,7.72,0,0,1,2.008,1.353,5.96,5.96,0,0,1,1.16,2.132c1.986,5.569,1.709,11.846,3.645,17.351A35.754,35.754,0,0,0,606.551,378.421Z" transform="translate(-552.018 -279.043)" fill="#f5f1f0"/>
            <path id="Trazado_602825" data-name="Trazado 602825" d="M624.43,364.614a117.127,117.127,0,0,1-7.413-12.743,11.541,11.541,0,0,0-8.8-6.719s-7.877,1.159-7.182,16.45,6.718,25.112,6.718,25.112a20.736,20.736,0,0,0,10.685,3.766,10.641,10.641,0,0,0,6.913-1.735,9.408,9.408,0,0,0,3.367-3.426Z" transform="translate(-553.215 -279.368)" fill="#fff"/>
            <path id="Trazado_602826" data-name="Trazado 602826" d="M628.873,382.2l-3.63-17.543a117.137,117.137,0,0,1-7.413-12.743,11.83,11.83,0,0,0-6.912-6.276,17.968,17.968,0,0,1,3.5,5.54c.992,2.831,1.155,5.991,2.747,8.533a29.913,29.913,0,0,0,2.964,3.522C624.713,368.528,626.227,375.671,628.873,382.2Z" transform="translate(-554.029 -279.408)" fill="#f5f1f0"/>
            <path id="Trazado_602827" data-name="Trazado 602827" d="M665.392,364.407s6.024-21.779,18.767-21.779,15.754,21.779,15.754,21.779l-4.283,20.7a9.623,9.623,0,0,1-7.9,7.544,56.326,56.326,0,0,1-15.661.564,8.343,8.343,0,0,1-7.2-8.089A172.17,172.17,0,0,1,665.392,364.407Z" transform="translate(-558.443 -279.162)" fill="#fff"/>
            <path id="Trazado_602828" data-name="Trazado 602828" d="M773.15,349.769s1.441-7.414,2.6-7.646-1.029,15.754-2.6,18.65a3.553,3.553,0,0,1-4.235,1.978Z" transform="translate(-566.975 -279.12)" fill="#f5f1f0"/>
            <path id="Trazado_602829" data-name="Trazado 602829" d="M765.756,353.074s2.316-12.275,5.1-12.084.926,12.084.926,12.084-1.544,17.917-12.2,18.689Z" transform="translate(-566.21 -279.027)" fill="#fff"/>
            <path id="Trazado_602830" data-name="Trazado 602830" d="M761.557,366.276l4.362-13.192s2.045-10.833,4.6-11.985a3.818,3.818,0,0,0-.387.891c-1.043,4.015-1.537,8.151-2.469,12.193s-2.352,8.072-4.98,11.281A2.05,2.05,0,0,1,761.557,366.276Z" transform="translate(-566.372 -279.036)" fill="#f5f1f0"/>
            <path id="Trazado_602831" data-name="Trazado 602831" d="M758.985,354.31s2.008-7.1,2.78-9.5,1.081-4.439,2.163-3.648,2.316,7.433,1.236,11.912-1.854,24.4-12.821,23.941Z" transform="translate(-565.617 -279.027)" fill="#fff"/>
            <path id="Trazado_602832" data-name="Trazado 602832" d="M759.122,354.31s2.008-7.1,2.78-9.5c.732-2.267,1.048-4.217,2-3.746-1.055,2.024-1.3,4.468-1.608,6.774A70.448,70.448,0,0,1,755.944,369a7.9,7.9,0,0,1-1.932,2.776Z" transform="translate(-565.754 -279.028)" fill="#f5f1f0"/>
            <path id="Trazado_602833" data-name="Trazado 602833" d="M746.968,357.8s4.325-.618,4.943-4.325,2.471-9.113,4.325-9.422,1.854,10.5,1.854,10.5-3.288,25.177-9.058,26.721-7.623-1.081-7.623-1.081Z" transform="translate(-564.721 -279.278)" fill="#fff"/>
            <path id="Trazado_602834" data-name="Trazado 602834" d="M747.049,357.8s4.325-.618,4.943-4.325,2.471-9.113,4.325-9.422a.477.477,0,0,1,.174.005,41.106,41.106,0,0,0-2.525,9.689,7.168,7.168,0,0,1-.857,3.1c-1.018,1.534-2.485,1.926-3.065,3.831L746,373.979a6.221,6.221,0,0,1-.824,1.907,2.045,2.045,0,0,1-2.773.643Z" transform="translate(-564.803 -279.278)" fill="#f5f1f0"/>
            <path id="Trazado_602835" data-name="Trazado 602835" d="M726.161,360.813s5.1-1.236,7.724-8.186,3.4-12.51,8.185-11.275,6.024,9.885,4.943,16.063-6.023,23.168-6.023,23.168-2.935,5.895-8.186,5.8-11.584-7.967-11.584-7.967Z" transform="translate(-563.067 -279.043)" fill="#fff"/>
            <path id="Trazado_602836" data-name="Trazado 602836" d="M721.219,378.421l4.942-17.608s5.1-1.236,7.724-8.186c2.5-6.608,3.32-11.956,7.511-11.4a16.512,16.512,0,0,0-1.181,1.8,15.21,15.21,0,0,0-1.3,3.8c-.6,2.873-.585,5.835-.957,8.745a7.756,7.756,0,0,1-4.913,6.965,7.7,7.7,0,0,0-2.008,1.353,5.947,5.947,0,0,0-1.161,2.132c-1.987,5.569-1.708,11.846-3.645,17.351A35.752,35.752,0,0,1,721.219,378.421Z" transform="translate(-563.067 -279.043)" fill="#f5f1f0"/>
            <path id="Trazado_602837" data-name="Trazado 602837" d="M702.666,364.614a117.226,117.226,0,0,0,7.414-12.743,11.541,11.541,0,0,1,8.8-6.719s7.877,1.159,7.182,16.45-6.718,25.112-6.718,25.112a20.736,20.736,0,0,1-10.685,3.766,10.641,10.641,0,0,1-6.913-1.735,9.409,9.409,0,0,1-3.367-3.426Z" transform="translate(-561.196 -279.368)" fill="#fff"/>
            <path id="Trazado_602838" data-name="Trazado 602838" d="M699.095,382.2l3.629-17.543a117.229,117.229,0,0,0,7.414-12.743,11.83,11.83,0,0,1,6.912-6.276,17.95,17.95,0,0,0-3.5,5.54c-.992,2.831-1.155,5.991-2.747,8.533a29.919,29.919,0,0,1-2.964,3.522C703.256,368.528,701.741,375.671,699.095,382.2Z" transform="translate(-561.254 -279.408)" fill="#f5f1f0"/>
          </g>
          <g id="Grupo_877280" data-name="Grupo 877280" transform="translate(0 89.354)">
            <path id="Trazado_602839" data-name="Trazado 602839" d="M762.59,389.991c0-4.08-1.876-4.856-1.876-4.856l-105.682,28.4-105.681-28.4s-1.876.776-1.876,4.856-.176,20.284-1.71,29.017c0,0,.937,50.591,109.267,49.356C763.363,469.6,764.3,419.008,764.3,419.008,762.766,410.274,762.59,394.07,762.59,389.991Z" transform="translate(-545.765 -371.999)" fill="#fd735c"/>
            <path id="Trazado_602840" data-name="Trazado 602840" d="M762.59,389.991c0-4.08-1.876-4.856-1.876-4.856l-105.682,28.4-105.681-28.4s-1.876.776-1.876,4.856-.176,20.284-1.71,29.017c0,0,.937,50.591,109.267,49.356C763.363,469.6,764.3,419.008,764.3,419.008,762.766,410.274,762.59,394.07,762.59,389.991Z" transform="translate(-545.765 -371.999)" fill="url(#linear-gradient-2)" style="mix-blend-mode: soft-light;isolation: isolate"/>
            <path id="Trazado_602841" data-name="Trazado 602841" d="M556.8,391.16s-1.39.387-3.012,3.611-5.864-3.525-4.148-10.808S552.451,369.611,561.2,371s4.17,9.731,4.17,9.731Z" transform="translate(-546.049 -370.826)" fill="#fff"/>
            <path id="Trazado_602842" data-name="Trazado 602842" d="M556.824,388.654a4.679,4.679,0,0,0,.474,2.331l8.428-10.25s4.576-8.338-4.17-9.731c-3.411-.544-5.656.2-7.232,1.747.358-.037.736-.134.922-.14a5.226,5.226,0,0,1,3.48.936,11.529,11.529,0,0,0-5.118,5.03,7.031,7.031,0,0,1,6.219-2.438c.475.063,1.024.247,1.155.708.123.429-.185.848-.459,1.2A17.5,17.5,0,0,0,556.824,388.654Z" transform="translate(-546.408 -370.826)" fill="#f5f1f0"/>
            <path id="Trazado_602843" data-name="Trazado 602843" d="M564.9,404.087a2.864,2.864,0,0,0-3.127,2.317c-.7,2.664-1.738,4.414-3.707,2.324s-5.445-31.284,10.078-31.4c0,0,7.066-.361,7.646,7.466Z" transform="translate(-546.628 -371.359)" fill="#fff"/>
            <path id="Trazado_602844" data-name="Trazado 602844" d="M576.426,384.793c-.579-7.826-7.646-7.466-7.646-7.466a9.836,9.836,0,0,0-4.758,1.182c.035.3.276.541.807.68,1.453.38,2.408-.017,3.656,1.081.822.723,1.535,1.965,2.795,1.856a21.844,21.844,0,0,0-4.3,6.112,20.017,20.017,0,0,0-1.049,4.251,39.306,39.306,0,0,0-.648,9.532,2.868,2.868,0,0,0,.539,1.562Z" transform="translate(-547.261 -371.359)" fill="#f5f1f0"/>
            <path id="Trazado_602845" data-name="Trazado 602845" d="M586.218,389.867s-2.085-7.273-8.688-6.114-11.048,11.236-12.706,20.62c0,0-.616,13.617,2.628,15.149s2.433-6.693,9.615-6.693Z" transform="translate(-547.323 -371.875)" fill="#fff"/>
            <path id="Trazado_602846" data-name="Trazado 602846" d="M578.388,383.753a8.253,8.253,0,0,0-3.133,1.294,1.557,1.557,0,0,0,.583.5,2.843,2.843,0,0,0,1.023.227,3.186,3.186,0,0,1,2.157,1.107,1.84,1.84,0,0,1,.006,2.291l2.481-.4c-3.74,5.017-4.8,11.543-4.908,17.8-.011.655.132,1.5.774,1.624.51.1.942-.353,1.276-.75a30.334,30.334,0,0,1,2.435-2.542l5.995-15.042S584.992,382.594,578.388,383.753Z" transform="translate(-548.182 -371.875)" fill="#f5f1f0"/>
            <path id="Trazado_602847" data-name="Trazado 602847" d="M597.143,396.347s-2.565-5.755-8.233-6.246-7.869,3.328-7.869,3.328a63.272,63.272,0,0,0-7.028,21.166s-1.892,10.462,3.552,14.169,5-8.109,11.943-6.951Z" transform="translate(-548.054 -372.402)" fill="#fff"/>
            <path id="Trazado_602848" data-name="Trazado 602848" d="M598.016,396.347s-2.565-5.755-8.233-6.246a9.068,9.068,0,0,0-5.382,1.055c-.017.074-.039.146-.053.223a37.955,37.955,0,0,0,4.388.084,2.087,2.087,0,0,1,.98.171,2.518,2.518,0,0,1,.734.776,6.1,6.1,0,0,0,2.767,2.049c-1.768,6.611-3.55,13.347-3.261,20.183a10.2,10.2,0,0,0,1.145,4.767Z" transform="translate(-548.927 -372.402)" fill="#f5f1f0"/>
            <path id="Trazado_602849" data-name="Trazado 602849" d="M607.686,393.732a22.192,22.192,0,0,0-6.039.767,10.89,10.89,0,0,0-7.412,6.735,80.627,80.627,0,0,0-4.968,22.037s.348,9.152,6.488,12.28,11.357-9.194,15.235-8.362l5.616-27.55S614.057,393.847,607.686,393.732Z" transform="translate(-549.33 -372.703)" fill="#fff"/>
            <path id="Trazado_602850" data-name="Trazado 602850" d="M611.891,426l5.373-26.36s-2.549-5.792-8.92-5.908a22.191,22.191,0,0,0-6.039.767,10.832,10.832,0,0,0-5.006,2.93c1.563.185,3.2-.5,4.784-.854,3.238-.715,6.6.018,9.836.75l-1.143,27.5c-.026.605.211,1.456.806,1.343A.628.628,0,0,0,611.891,426Z" transform="translate(-549.988 -372.703)" fill="#f5f1f0"/>
            <path id="Trazado_602851" data-name="Trazado 602851" d="M637.566,399.252c-2.246-1.674-6.8-3.716-15.172-2.818a7.156,7.156,0,0,0-6.237,5.829,202.031,202.031,0,0,0-3.256,24.978s.429,11.468,9.581,12.048,13.278-7.878,13.278-7.878l3.45-28.312A4.164,4.164,0,0,0,637.566,399.252Z" transform="translate(-551.266 -372.907)" fill="#fff"/>
            <path id="Trazado_602852" data-name="Trazado 602852" d="M638.5,399.252c-2.091-1.558-6.184-3.433-13.491-2.96a38.189,38.189,0,0,0,4.25.779,18.29,18.29,0,0,1,4.268,1.3,6.159,6.159,0,0,1,3.09,3.095,9.212,9.212,0,0,1,.2,4.472q-1.026,8.578-2.053,17.154c-.352,2.938-.741,5.984-2.315,8.49a18.848,18.848,0,0,1-3.409,3.767,51.235,51.235,0,0,1-4.794,3.963c8.567.035,12.442-7.905,12.442-7.905l3.45-28.312A4.164,4.164,0,0,0,638.5,399.252Z" transform="translate(-552.196 -372.907)" fill="#f5f1f0"/>
            <path id="Trazado_602853" data-name="Trazado 602853" d="M658.4,398.938a34.277,34.277,0,0,0-12.222-.54,7.2,7.2,0,0,0-5.963,6.064c-.943,6.445-2.515,18.687-2.406,28.027,0,0,1.545,9.885,11.739,9.576s13.03-9.576,13.03-9.576v-28.4A5.265,5.265,0,0,0,658.4,398.938Z" transform="translate(-553.307 -373.058)" fill="#fff"/>
            <path id="Trazado_602854" data-name="Trazado 602854" d="M649.982,443.7c10.194-.309,13.03-9.576,13.03-9.576V417.964q-.68,3.846-1.484,7.669c-.757,3.582-1.656,7.27-3.893,10.168a12.953,12.953,0,0,1-4.031,3.441c-3.176,1.734-6.858,2.042-10.454,2.655A11.28,11.28,0,0,0,649.982,443.7Z" transform="translate(-553.745 -374.689)" fill="#f5f1f0"/>
            <path id="Trazado_602855" data-name="Trazado 602855" d="M771.229,391.16s1.39.387,3.012,3.611,5.864-3.525,4.148-10.808S775.573,369.611,766.827,371s-4.17,9.731-4.17,9.731Z" transform="translate(-563.44 -370.826)" fill="#fff"/>
            <path id="Trazado_602856" data-name="Trazado 602856" d="M771.559,388.654a4.678,4.678,0,0,1-.474,2.331l-8.428-10.25s-4.576-8.338,4.17-9.731c3.411-.544,5.656.2,7.232,1.747-.358-.037-.736-.134-.922-.14a5.226,5.226,0,0,0-3.48.936,11.529,11.529,0,0,1,5.118,5.03,7.032,7.032,0,0,0-6.219-2.438c-.475.063-1.024.247-1.155.708-.123.429.185.848.459,1.2A17.5,17.5,0,0,1,771.559,388.654Z" transform="translate(-563.44 -370.826)" fill="#f5f1f0"/>
            <path id="Trazado_602857" data-name="Trazado 602857" d="M762.927,404.087a2.864,2.864,0,0,1,3.128,2.317c.695,2.664,1.738,4.414,3.707,2.324s5.445-31.284-10.078-31.4c0,0-7.066-.361-7.646,7.466Z" transform="translate(-562.667 -371.359)" fill="#fff"/>
            <path id="Trazado_602858" data-name="Trazado 602858" d="M752.038,384.793c.579-7.826,7.646-7.466,7.646-7.466a9.839,9.839,0,0,1,4.758,1.182c-.035.3-.276.541-.807.68-1.453.38-2.408-.017-3.657,1.081-.821.723-1.534,1.965-2.794,1.856a21.844,21.844,0,0,1,4.3,6.112,20.017,20.017,0,0,1,1.049,4.251,39.3,39.3,0,0,1,.648,9.532,2.867,2.867,0,0,1-.539,1.562Z" transform="translate(-562.667 -371.359)" fill="#f5f1f0"/>
            <path id="Trazado_602859" data-name="Trazado 602859" d="M741.439,389.867s2.085-7.273,8.689-6.114,11.048,11.236,12.706,20.62c0,0,.616,13.617-2.628,15.149s-2.433-6.693-9.616-6.693Z" transform="translate(-561.799 -371.875)" fill="#fff"/>
            <path id="Trazado_602860" data-name="Trazado 602860" d="M750.128,383.753a8.253,8.253,0,0,1,3.133,1.294,1.558,1.558,0,0,1-.583.5,2.847,2.847,0,0,1-1.023.227,3.186,3.186,0,0,0-2.157,1.107,1.839,1.839,0,0,0-.006,2.291l-2.481-.4c3.74,5.017,4.8,11.543,4.908,17.8.011.655-.132,1.5-.774,1.624-.51.1-.942-.353-1.276-.75a30.314,30.314,0,0,0-2.435-2.542l-5.995-15.042S743.524,382.594,750.128,383.753Z" transform="translate(-561.799 -371.875)" fill="#f5f1f0"/>
            <path id="Trazado_602861" data-name="Trazado 602861" d="M730.335,396.347s2.565-5.755,8.233-6.246,7.869,3.328,7.869,3.328a63.274,63.274,0,0,1,7.028,21.166s1.892,10.462-3.552,14.169-5-8.109-11.943-6.951Z" transform="translate(-560.889 -372.402)" fill="#fff"/>
            <path id="Trazado_602862" data-name="Trazado 602862" d="M730.335,396.347s2.565-5.755,8.233-6.246a9.069,9.069,0,0,1,5.382,1.055c.017.074.039.146.053.223a37.956,37.956,0,0,1-4.388.084,2.088,2.088,0,0,0-.98.171,2.517,2.517,0,0,0-.734.776,6.1,6.1,0,0,1-2.767,2.049c1.767,6.611,3.55,13.347,3.261,20.183a10.2,10.2,0,0,1-1.145,4.767Z" transform="translate(-560.889 -372.402)" fill="#f5f1f0"/>
            <path id="Trazado_602863" data-name="Trazado 602863" d="M719.445,393.732a22.191,22.191,0,0,1,6.039.767,10.892,10.892,0,0,1,7.412,6.735,80.6,80.6,0,0,1,4.967,22.037s-.347,9.152-6.487,12.28-11.357-9.194-15.235-8.362l-5.616-27.55S713.074,393.847,719.445,393.732Z" transform="translate(-559.266 -372.703)" fill="#fff"/>
            <path id="Trazado_602864" data-name="Trazado 602864" d="M715.9,426l-5.373-26.36s2.549-5.792,8.92-5.908a22.191,22.191,0,0,1,6.039.767,10.832,10.832,0,0,1,5.006,2.93c-1.563.185-3.2-.5-4.784-.854-3.239-.715-6.6.018-9.836.75q.572,13.749,1.143,27.5c.026.605-.212,1.456-.806,1.343A.628.628,0,0,1,715.9,426Z" transform="translate(-559.266 -372.703)" fill="#f5f1f0"/>
            <path id="Trazado_602865" data-name="Trazado 602865" d="M689.654,399.252c2.247-1.674,6.8-3.716,15.172-2.818a7.156,7.156,0,0,1,6.237,5.829,202.068,202.068,0,0,1,3.255,24.978s-.428,11.468-9.58,12.048-13.278-7.878-13.278-7.878L688.01,403.1A4.164,4.164,0,0,1,689.654,399.252Z" transform="translate(-557.418 -372.907)" fill="#fff"/>
            <path id="Trazado_602866" data-name="Trazado 602866" d="M689.654,399.252c2.09-1.558,6.184-3.433,13.491-2.96a38.188,38.188,0,0,1-4.25.779,18.289,18.289,0,0,0-4.268,1.3,6.16,6.16,0,0,0-3.09,3.095,9.188,9.188,0,0,0-.2,4.472q1.026,8.578,2.053,17.154c.352,2.938.741,5.984,2.314,8.49a18.848,18.848,0,0,0,3.409,3.767,51.235,51.235,0,0,0,4.794,3.963c-8.567.035-12.442-7.905-12.442-7.905L688.01,403.1A4.164,4.164,0,0,1,689.654,399.252Z" transform="translate(-557.418 -372.907)" fill="#f5f1f0"/>
            <path id="Trazado_602867" data-name="Trazado 602867" d="M668.964,398.938a34.277,34.277,0,0,1,12.222-.54,7.2,7.2,0,0,1,5.963,6.064c.943,6.445,2.514,18.687,2.406,28.027,0,0-1.545,9.885-11.739,9.576s-13.031-9.576-13.031-9.576v-28.4A5.265,5.265,0,0,1,668.964,398.938Z" transform="translate(-555.518 -373.058)" fill="#fff"/>
            <path id="Trazado_602868" data-name="Trazado 602868" d="M677.816,443.7c-10.194-.309-13.031-9.576-13.031-9.576V417.964q.68,3.846,1.485,7.669c.757,3.582,1.655,7.27,3.893,10.168a12.954,12.954,0,0,0,4.031,3.441c3.177,1.734,6.858,2.042,10.454,2.655A11.28,11.28,0,0,1,677.816,443.7Z" transform="translate(-555.518 -374.689)" fill="#f5f1f0"/>
          </g>
        </g>
        <g id="Grupo_877282" data-name="Grupo 877282" transform="translate(19.065 54.278)">
          <path id="Trazado_602869" data-name="Trazado 602869" d="M691.707,439.831c0,5-.665,5.664-5.664,5.664,5,0,5.664.664,5.664,5.664,0-5,.665-5.664,5.664-5.664C692.372,445.5,691.707,444.831,691.707,439.831Z" transform="translate(-576.325 -341.404)" fill="#fff"/>
          <path id="Trazado_602870" data-name="Trazado 602870" d="M659.631,390.849c0,5-.665,5.664-5.664,5.664,5,0,5.664.665,5.664,5.664,0-5,.665-5.664,5.664-5.664C660.3,396.513,659.631,395.849,659.631,390.849Z" transform="translate(-573.697 -337.391)" fill="#fff"/>
          <circle id="Elipse_5144" data-name="Elipse 5144" cx="9.57" cy="9.57" r="9.57" transform="translate(143.125)" fill="#fff"/>
          <path id="Trazado_602871" data-name="Trazado 602871" d="M588.762,426.835c0,5-.664,5.664-5.664,5.664,5,0,5.664.665,5.664,5.664,0-5,.665-5.664,5.664-5.664C589.426,432.5,588.762,431.835,588.762,426.835Z" transform="translate(-567.889 -340.34)" fill="#fff"/>
          <path id="Trazado_602872" data-name="Trazado 602872" d="M569.709,373.865c0,2.8-.373,3.177-3.177,3.177,2.8,0,3.177.373,3.177,3.176,0-2.8.373-3.176,3.177-3.176C570.082,377.042,569.709,376.67,569.709,373.865Z" transform="translate(-566.532 -335.999)" fill="#fff"/>
          <path id="Trazado_602873" data-name="Trazado 602873" d="M579.058,340.578c0,1.486-.2,1.684-1.685,1.684,1.486,0,1.685.2,1.685,1.685,0-1.487.2-1.685,1.684-1.685C579.255,342.262,579.058,342.064,579.058,340.578Z" transform="translate(-567.42 -333.271)" fill="#fff"/>
          <path id="Trazado_602874" data-name="Trazado 602874" d="M626.016,335.951c0,5-.664,5.664-5.663,5.664,5,0,5.663.665,5.663,5.664,0-5,.665-5.664,5.664-5.664C626.681,341.615,626.016,340.951,626.016,335.951Z" transform="translate(-570.942 -332.892)" fill="#fff"/>
        </g>
      </g>
      <g id="Grupo_877286" data-name="Grupo 877286" transform="translate(127.346 29.681)">
        <path id="Trazado_602875" data-name="Trazado 602875" d="M694.395,341.862s-.071-5.816-1.194-6.448-1.336,3.224-1.336,3.224-5.619-4.559-6.953-4.067.843,2.037.772,2.67-.913,2.459.281,3.723,3.724,5.62,7.165,5.269S694.395,341.862,694.395,341.862Z" transform="translate(-684.477 -308.179)" fill="#fbc99f"/>
        <path id="Trazado_602876" data-name="Trazado 602876" d="M739.581,344.448a15.581,15.581,0,0,1-4.59,5.94,41.673,41.673,0,0,1-7.445,4.719c-.367.193-.734.386-1.1.57-1.377.689-2.754,1.358-4.049,2.166-2.038,1.277-5.1.055-7.216-.441a54.9,54.9,0,0,1-6.9-2.1,64.475,64.475,0,0,1-10.769-5.242c-.294-.184-4.131-2.35-4.039-2.708,1.294-4.664,1.717-5.756,1.717-5.756,9.695,4.444,24.347,8.272,24.347,8.272a51.24,51.24,0,0,1,11.044-6.858c1.836-.871,3.709-1.662,5.591-2.4a6.116,6.116,0,0,1,.909-.276,3.207,3.207,0,0,1,1.561-.009C740.572,340.84,740.178,343.034,739.581,344.448Z" transform="translate(-685.214 -308.646)" fill="#0273bc"/>
        <path id="Trazado_602877" data-name="Trazado 602877" d="M740.294,342.145a16.925,16.925,0,0,1-.8,3.295c-.523,1.653-1.037,3.305-1.561,4.958a41.673,41.673,0,0,1-7.445,4.719c-.367.193-.734.386-1.1.57a43.075,43.075,0,0,1,2.038-7.8,42.444,42.444,0,0,1,1.772-4.15c.1-.211.211-.459.321-.725,1.836-.871,3.709-1.662,5.591-2.4a6.115,6.115,0,0,1,.909-.276A2.965,2.965,0,0,1,740.294,342.145Z" transform="translate(-688.157 -308.655)" fill="#075485"/>
        <path id="Trazado_602878" data-name="Trazado 602878" d="M736.478,322.272c0,.1,0,.2,0,.3a13.97,13.97,0,0,1-.486,4.5,8.58,8.58,0,0,1-3.133,4.318,10.41,10.41,0,0,0,5.672,1.941,10.2,10.2,0,0,0,3.79-1.058,5.8,5.8,0,0,0,2.045-1.341c1.823-2.082.12-4.706-1.748-5.986a15.3,15.3,0,0,1-2.27-1.615,11.471,11.471,0,0,1-1.669-2.264q-1.018-1.691-1.9-3.456Q736.51,319.932,736.478,322.272Z" transform="translate(-688.442 -306.792)" fill="#87503a"/>
        <path id="Trazado_602879" data-name="Trazado 602879" d="M735.23,426.012s-.91,25.975,2.979,47.619c0,0,3.9,1.643,6.265-.1a85.554,85.554,0,0,1-.252-13.562c.531-7.561,1.452-15.006.864-22.633-.253-3.287-.215-6.539-2.52-9.082A7.76,7.76,0,0,0,735.23,426.012Z" transform="translate(-688.629 -315.663)" fill="#fbc99f"/>
        <path id="Trazado_602880" data-name="Trazado 602880" d="M735.894,413.479s-1.713,20.295.016,24.013,9.041-3.725,8.976-4.03,3.614-13.049,0-19.982S735.894,413.479,735.894,413.479Z" transform="translate(-688.629 -314.396)" fill="#fbc99f"/>
        <path id="Trazado_602881" data-name="Trazado 602881" d="M737.93,477.315a8.979,8.979,0,0,1-.471,2.941,16.984,16.984,0,0,1-1.1,2.081,7.411,7.411,0,0,1-1.607,2.116,11.893,11.893,0,0,0-1.41,1.114,14.52,14.52,0,0,0-1.569,2,.727.727,0,0,0-.129.442c.036.279.337.434.6.519,2.574.818,5-.743,7.179-1.939,1.676-.92,4.234-2.247,4.872-4.219a10.515,10.515,0,0,0,.5-2.322,3.313,3.313,0,0,0-.349-1.966,5.506,5.506,0,0,1-.469-2.676,5.2,5.2,0,0,1-3.24.642,3.052,3.052,0,0,1-1.436-.572c-.251-.144-1.547-.677-1.609-.926A17.163,17.163,0,0,1,737.93,477.315Z" transform="translate(-688.342 -319.652)" fill="#fbc99f"/>
        <path id="Trazado_602882" data-name="Trazado 602882" d="M741.448,486.7l.3-.338c-.161.181.142,1.556.164,1.835a15.894,15.894,0,0,1,.262,2.632c.412.068,2.157.52,2.408.038a.339.339,0,0,0,.029-.145c.117-2.224.169-4.5.169-6.736a22.235,22.235,0,0,0-.652-5.689c-.117-.321-1.4.893-1.52,1a5.993,5.993,0,0,0-1.246,1.945,9.131,9.131,0,0,1-3.566,4,5.8,5.8,0,0,1-4.378.386.959.959,0,0,0-.45-.072.883.883,0,0,0-.368.2c-.946.742-1.866,1.55-2.848,2.243-1.011.714-2.15,1.292-3.214,1.925a.94.94,0,0,0-.356.3.65.65,0,0,0,.3.829,1.876,1.876,0,0,0,.953.17c1.315,0,2.629-.066,3.942-.071a25.2,25.2,0,0,0,4-.09,6.484,6.484,0,0,0,3.611-1.7C739.838,488.5,740.646,487.6,741.448,486.7Z" transform="translate(-687.89 -319.955)" fill="#ea4e4f"/>
        <path id="Trazado_602883" data-name="Trazado 602883" d="M761.6,457.919c-1.047-7.507-1.688-14.981-3.845-22.321-.026-.086-.05-.173-.074-.26A63.884,63.884,0,0,1,748,437.407c2.105,9.327,5.668,23.13,10.55,35.126,0,0,4.153.8,6.107-1.4A85.562,85.562,0,0,1,761.6,457.919Z" transform="translate(-689.683 -316.439)" fill="#fbc99f"/>
        <path id="Trazado_602884" data-name="Trazado 602884" d="M747.018,413.012s-.64,20.357,1.283,23.979c.824,1.577,2.677.833,3.844.123.695-.422,1.265-1.124,1.95-1.508a7.628,7.628,0,0,1,3.237-.475c.218-.014.485-.063.549-.273a.558.558,0,0,0-.028-.309,13.746,13.746,0,0,1-.249-5.707c.687-5.21,1.176-11.591-1.607-16.306C752.023,405.805,747.018,413.012,747.018,413.012Z" transform="translate(-689.594 -314.336)" fill="#fbc99f"/>
        <path id="Trazado_602885" data-name="Trazado 602885" d="M759.08,475.246a9,9,0,0,1,.148,2.974,17.016,17.016,0,0,1-.644,2.264,7.413,7.413,0,0,1-1.134,2.4,11.935,11.935,0,0,0-1.148,1.383,14.556,14.556,0,0,0-1.122,2.277.731.731,0,0,0-.035.46c.093.265.42.354.7.382,2.688.266,4.735-1.762,6.622-3.385,1.45-1.247,3.677-3.075,3.893-5.137a10.582,10.582,0,0,0,.006-2.374,3.315,3.315,0,0,0-.748-1.851,5.5,5.5,0,0,1-1.014-2.52,5.19,5.19,0,0,1-3.036,1.3,3.045,3.045,0,0,1-1.523-.263c-.275-.089-1.654-.341-1.767-.572A17.136,17.136,0,0,1,759.08,475.246Z" transform="translate(-690.266 -319.454)" fill="#fbc99f"/>
        <path id="Trazado_602886" data-name="Trazado 602886" d="M764.443,483.516l.223-.392c-.12.21.462,1.494.542,1.762a15.883,15.883,0,0,1,.8,2.52c.417-.018,2.218.062,2.364-.462a.351.351,0,0,0,0-.148c-.346-2.2-.767-4.436-1.23-6.625a22.2,22.2,0,0,0-1.816-5.43c-.181-.291-1.181,1.162-1.281,1.294a6.012,6.012,0,0,0-.815,2.161,9.128,9.128,0,0,1-2.66,4.651,5.8,5.8,0,0,1-4.2,1.285.951.951,0,0,0-.455.024.875.875,0,0,0-.318.275c-.772.922-1.506,1.9-2.322,2.784-.841.908-1.835,1.708-2.745,2.549a.938.938,0,0,0-.286.371.649.649,0,0,0,.466.748,1.865,1.865,0,0,0,.968-.031c1.285-.273,2.559-.61,3.841-.886a25.169,25.169,0,0,0,3.9-.917,6.484,6.484,0,0,0,3.179-2.415C763.242,485.618,763.846,484.565,764.443,483.516Z" transform="translate(-689.864 -319.665)" fill="#ea4e4f"/>
        <path id="Trazado_602887" data-name="Trazado 602887" d="M737.7,374.437a1.2,1.2,0,0,1,.213-.094c.841-.277,2.472.159,3.351.2a85.539,85.539,0,0,0,11.178.062,19.944,19.944,0,0,0,2.3-.287s8.5,6.283,5.966,24.358a89.668,89.668,0,0,0-.934,18.33c-8.086,2-17.529,2.694-25.5.061q.2-18.418,2.168-36.761C736.607,378.743,736.312,375.223,737.7,374.437Z" transform="translate(-688.558 -311.434)" fill="#0273bc"/>
        <path id="Trazado_602888" data-name="Trazado 602888" d="M756.38,340.66a37.049,37.049,0,0,0-15.43-.51,2.9,2.9,0,0,0-2.479,1.538,31.7,31.7,0,0,0-4.931,10.443,12.25,12.25,0,0,0-.365,1.835,11.933,11.933,0,0,0,.731,4.924c.365,1.113,1.2,2.1,1.445,3.245s.51,2.223.82,3.359a32.162,32.162,0,0,1,1.133,8.133,1.332,1.332,0,0,0,.162.77,1.3,1.3,0,0,0,.562.382c1.453.648,3.082,1.81,4.686,1.84,1.511.028,3.027,0,4.539,0a39.913,39.913,0,0,0,8.388-1.18,8.064,8.064,0,0,1-1.062-4.3c-.021-6.908,1.813-13.516,3.8-20.08C759.456,347.507,761.317,341.955,756.38,340.66Z" transform="translate(-688.464 -308.593)" fill="#0273bc"/>
        <path id="Trazado_602889" data-name="Trazado 602889" d="M742.657,340.43a.8.8,0,0,0-.016.087,16.3,16.3,0,0,0-.09,2.4,10.285,10.285,0,0,0,.927,4.578c.269.533.709,1.092,1.305,1.084a1.737,1.737,0,0,0,.739-.234c3.524-1.768,7.117-4.684,8.754-8.292a41.535,41.535,0,0,0-10.177-.222C743.434,339.9,742.8,339.766,742.657,340.43Z" transform="translate(-689.236 -308.596)" fill="#fbc99f"/>
        <path id="Trazado_602890" data-name="Trazado 602890" d="M759.965,341.534s10.3,7.064,15.544,17.886c0,0,5.919-1.465,11.668-2.987,0,0,2.987.113,2.311,5.693,0,0-11.949,7.44-16.909,4.171-8.019-5.285-13.9-15.351-13.9-15.351S754.4,344.56,759.965,341.534Z" transform="translate(-690.429 -308.753)" fill="#0273bc"/>
        <g id="Grupo_877285" data-name="Grupo 877285" transform="translate(79.734 38.774)">
          <path id="Trazado_602906" data-name="Trazado 602906" d="M788.43,353.994h6.96a2.966,2.966,0,1,0,0-5.932h-6.96a2.966,2.966,0,1,0,0,5.932Z" transform="translate(-772.486 -348.062)" fill="#fff"/>
          <path id="Trazado_602907" data-name="Trazado 602907" d="M788.43,353.994h6.96a2.966,2.966,0,1,0,0-5.932h-6.96a2.966,2.966,0,1,0,0,5.932Z" transform="translate(-772.486 -348.062)" opacity="0.21"/>
          <path id="Trazado_602908" data-name="Trazado 602908" d="M788.435,354.309h6.96a2.965,2.965,0,0,0,2.911-2.4,50.31,50.31,0,0,1-12.782,0A2.965,2.965,0,0,0,788.435,354.309Z" transform="translate(-772.491 -348.377)" opacity="0.21"/>
          <rect id="Rectángulo_47742" data-name="Rectángulo 47742" width="1.027" height="11.659" transform="translate(27.382 27.204) rotate(180)"/>
          <path id="Trazado_602909" data-name="Trazado 602909" d="M810.372,376.3a2.488,2.488,0,0,0,2.247-2.476v-5.13a2.487,2.487,0,0,0-2.049-2.448l-9.417-1.687V377.2Z" transform="translate(-773.772 -349.414)" fill="#fff"/>
          <path id="Trazado_602910" data-name="Trazado 602910" d="M810.372,376.3a2.488,2.488,0,0,0,2.247-2.476v-5.13a2.487,2.487,0,0,0-2.049-2.448l-9.417-1.687V377.2Z" transform="translate(-773.772 -349.414)" opacity="0.21"/>
          <rect id="Rectángulo_47743" data-name="Rectángulo 47743" width="11.466" height="1.226" transform="translate(38.848 24.273) rotate(180)" opacity="0.21"/>
          <rect id="Rectángulo_47744" data-name="Rectángulo 47744" width="11.466" height="1.227" transform="translate(38.848 20.622) rotate(180)" opacity="0.21"/>
          <path id="Trazado_602911" data-name="Trazado 602911" d="M785.375,377.209H798.36a.439.439,0,0,0,.438-.439V364.828a.1.1,0,0,0-.142-.095,14.974,14.974,0,0,1-6.4,1.193l-.39-.013-.39.013a14.976,14.976,0,0,1-6.4-1.193.1.1,0,0,0-.142.095V376.77A.439.439,0,0,0,785.375,377.209Z" transform="translate(-772.443 -349.427)" fill="#fff"/>
          <path id="Trazado_602912" data-name="Trazado 602912" d="M798.655,364.733a14.974,14.974,0,0,1-6.4,1.193l-.39-.013-.39.013a14.976,14.976,0,0,1-6.4-1.193.1.1,0,0,0-.142.095v6.108a8.62,8.62,0,0,0,2.368.454c3.381.221,6.715-.718,10.061-1.25.477-.076.955-.144,1.433-.213v-5.1A.1.1,0,0,0,798.655,364.733Z" transform="translate(-772.443 -349.427)" opacity="0.21"/>
          <rect id="Rectángulo_47745" data-name="Rectángulo 47745" width="1.027" height="11.659" transform="translate(11.466 15.545)"/>
          <path id="Trazado_602913" data-name="Trazado 602913" d="M773.575,376.3a2.488,2.488,0,0,1-2.247-2.476v-5.13a2.487,2.487,0,0,1,2.049-2.448l9.417-1.687V377.2Z" transform="translate(-771.328 -349.414)" fill="#fff"/>
          <path id="Trazado_602914" data-name="Trazado 602914" d="M773.575,376.3a2.488,2.488,0,0,1-2.247-2.476v-5.13a2.487,2.487,0,0,1,2.049-2.448l9.417-1.687V377.2Z" transform="translate(-771.328 -349.414)" opacity="0.21"/>
          <rect id="Rectángulo_47746" data-name="Rectángulo 47746" width="11.466" height="1.226" transform="translate(0 23.047)" opacity="0.21"/>
          <rect id="Rectángulo_47747" data-name="Rectángulo 47747" width="11.466" height="1.227" transform="translate(0 19.396)" opacity="0.21"/>
          <path id="Trazado_602915" data-name="Trazado 602915" d="M792.231,367.688a2.852,2.852,0,0,0,2.852-2.852V354.524h-5.7v10.312A2.852,2.852,0,0,0,792.231,367.688Z" transform="translate(-772.807 -348.592)" fill="#fff"/>
        </g>
        <path id="Trazado_602916" data-name="Trazado 602916" d="M792.58,358.732c-.108.133-.208.336-.089.458a.335.335,0,0,0,.2.077,1.5,1.5,0,0,0,.67-.074.27.27,0,0,1,.152-.025c.082.022.117.118.125.2a2.4,2.4,0,0,0,.08.888c.115.267.379.317.373.688a1.5,1.5,0,0,0,.051.733.629.629,0,0,0,.63.29,1.127,1.127,0,0,0,.635-.347,3.654,3.654,0,0,0,.767-2.652c0-.664-.076-1.82-.846-2.048C794.438,356.66,793.066,358.133,792.58,358.732Z" transform="translate(-693.324 -310.011)" fill="#fbc99f"/>
        <path id="Trazado_602917" data-name="Trazado 602917" d="M790.8,358.247a.527.527,0,0,1-.01-.289.352.352,0,0,1,.14-.161c.182-.128.41-.173.594-.3s.312-.392.174-.566a.5.5,0,0,0-.181-.127c-.56-.275-1.8-.779-2.325-.219a1.217,1.217,0,0,0-.25.808,5.437,5.437,0,0,0,.05.947,1.424,1.424,0,0,0,.166.545c.256.42.715.992,1.167.69A1.682,1.682,0,0,0,790.8,358.247Z" transform="translate(-693.037 -309.966)" fill="#fbc99f"/>
        <path id="Trazado_602918" data-name="Trazado 602918" d="M749.189,342.763a6.1,6.1,0,0,0,1.819-2.423c.187-.524.572-.588,1.06-.736.744-.226,1.534-.344,2.3-.5a6.439,6.439,0,0,1-1.967-1.826c-1.18-1.762-.543-3.9-.442-5.872q.1-1.975.211-3.949L744,329.831c-.28.252-.616,6.855-.621,6.932a4.841,4.841,0,0,1-.777,2.706c.119-.169.362.543.376.593.1.334.184.673.3,1a4.694,4.694,0,0,0,1.108,1.864,3.461,3.461,0,0,0,2.092.912A3.8,3.8,0,0,0,749.189,342.763Z" transform="translate(-689.24 -307.6)" fill="#fbc99f"/>
        <path id="Trazado_602919" data-name="Trazado 602919" d="M743.447,336.733l.285-.112a45.726,45.726,0,0,0,7.733-3.669c.171-.109.337-.224.5-.341.14-2.808.272-5.149.272-5.149l-8.173,2.369C743.79,330.078,743.464,336.416,743.447,336.733Z" transform="translate(-689.309 -307.6)" style="mix-blend-mode: soft-light;isolation: isolate"/>
        <path id="Trazado_602920" data-name="Trazado 602920" d="M740.006,329.9c.062.084.126.166.19.247a4.284,4.284,0,0,0,1.785,1.541c1.236.418,2.633-.145,3.763-.617a14.723,14.723,0,0,0,3.584-2.09,10.145,10.145,0,0,0,3.491-5.107,13.22,13.22,0,0,0,.375-2.275,16.55,16.55,0,0,0-.52-6.564,6.7,6.7,0,0,0-3.858-4.164c-1.99-.886-4.8-.412-6.8.261a4.632,4.632,0,0,0-1.078.488,4.716,4.716,0,0,0-1.072,1.09,12.956,12.956,0,0,0-2.605,8.737A16.241,16.241,0,0,0,740.006,329.9Z" transform="translate(-688.801 -306.201)" fill="#fbc99f"/>
        <path id="Trazado_602921" data-name="Trazado 602921" d="M739.674,327.8a6.776,6.776,0,0,0,4.756,0s-.178,2.912-2.379,2.956S739.674,327.8,739.674,327.8Z" transform="translate(-689 -307.627)" fill="#fff"/>
        <path id="Trazado_602922" data-name="Trazado 602922" d="M736.747,310.3a8.839,8.839,0,0,0-.9,4.037,5.5,5.5,0,0,0,.744,2.833c1.052,1.667,3.269,2.6,5.137,2.963a14.257,14.257,0,0,0,3.016.258c.369-.007,3.834-.533,3.824-.562.835,2.346,1.383,4.539.752,7.03a9.727,9.727,0,0,1-1.144,2.841,5.153,5.153,0,0,1-2.26,2.016,4.084,4.084,0,0,1,.745.271,5.306,5.306,0,0,0,1,.161c.607.042,1.171.1,1.78.168a7.467,7.467,0,0,0,3.824-.6,9.473,9.473,0,0,0,4.042-3.3c1.612-2.412,1.852-5.787,1.886-8.574a21.479,21.479,0,0,0-.954-6.89c-1.372-4.22-4.6-7.216-9.2-7.128a24.523,24.523,0,0,0-8.908,1.662,5.474,5.474,0,0,0-2.853,1.889A8.85,8.85,0,0,0,736.747,310.3Z" transform="translate(-688.686 -305.827)" fill="#87503a"/>
        <path id="Trazado_602923" data-name="Trazado 602923" d="M744.254,318.276A3.113,3.113,0,0,0,741.175,321a.977.977,0,0,0-.377-.142,1.508,1.508,0,0,0-.946.241,2.842,2.842,0,0,0-2.592-2.824,3.168,3.168,0,0,0,0,6.24,2.838,2.838,0,0,0,2.59-2.8,1.328,1.328,0,0,1,.878-.357.622.622,0,0,1,.438.344,3.112,3.112,0,1,0,3.088-3.428Zm-6.994,5.735a2.675,2.675,0,1,1,2.112-2.615A2.407,2.407,0,0,1,737.26,324.011Zm6.994,0a2.615,2.615,0,1,1,2.615-2.615A2.618,2.618,0,0,1,744.254,324.011Z" transform="translate(-688.588 -306.847)" fill="#fff"/>
      </g>
    </g>
  </g>
</svg>
