<svg xmlns="http://www.w3.org/2000/svg" width="185.842" height="165" viewBox="0 0 185.842 165">
  <g id="Grupo_877272" data-name="Grupo 877272" transform="translate(-285 -5392)">
    <g id="Grupo_877264" data-name="Grupo 877264" transform="translate(-254.677 4062.137)">
      <g id="Grupo_156356" data-name="Grupo 156356" transform="translate(600 1329.863)">
        <g id="Grupo_156332" data-name="Grupo 156332" transform="translate(0 0)">
          <path id="Trazado_99257" data-name="Trazado 99257" d="M420.78,105.917a3.286,3.286,0,1,1-3.285-3.138A3.214,3.214,0,0,1,420.78,105.917Z" transform="translate(-414.214 -102.779)" fill="#13c6cc"/>
          <path id="Trazado_116526" data-name="Trazado 116526" d="M420.78,105.917a3.286,3.286,0,1,1-3.285-3.138A3.214,3.214,0,0,1,420.78,105.917Z" transform="translate(-339.869 -102.779)" fill="#13c6cc"/>
          <path id="Trazado_99258" data-name="Trazado 99258" d="M429.226,105.917a3.286,3.286,0,1,1-3.281-3.138A3.213,3.213,0,0,1,429.226,105.917Z" transform="translate(-407.792 -102.779)" fill="#13c6cc"/>
          <path id="Trazado_116527" data-name="Trazado 116527" d="M429.226,105.917a3.286,3.286,0,1,1-3.281-3.138A3.213,3.213,0,0,1,429.226,105.917Z" transform="translate(-333.445 -102.779)" fill="#13c6cc"/>
          <path id="Trazado_99259" data-name="Trazado 99259" d="M437.672,105.917a3.286,3.286,0,1,1-3.281-3.138A3.213,3.213,0,0,1,437.672,105.917Z" transform="translate(-401.368 -102.779)" fill="#13c6cc"/>
          <path id="Trazado_116531" data-name="Trazado 116531" d="M437.672,105.917a3.286,3.286,0,1,1-3.281-3.138A3.213,3.213,0,0,1,437.672,105.917Z" transform="translate(-327.023 -102.779)" fill="#13c6cc"/>
          <path id="Trazado_99260" data-name="Trazado 99260" d="M446.119,105.917a3.286,3.286,0,1,1-3.285-3.138A3.214,3.214,0,0,1,446.119,105.917Z" transform="translate(-394.946 -102.779)" fill="#13c6cc"/>
          <path id="Trazado_116532" data-name="Trazado 116532" d="M446.119,105.917a3.286,3.286,0,1,1-3.285-3.138A3.214,3.214,0,0,1,446.119,105.917Z" transform="translate(-320.6 -102.779)" fill="#13c6cc"/>
          <path id="Trazado_99261" data-name="Trazado 99261" d="M454.565,105.917a3.286,3.286,0,1,1-3.281-3.138A3.213,3.213,0,0,1,454.565,105.917Z" transform="translate(-388.523 -102.779)" fill="#13c6cc"/>
        </g>
        <g id="Grupo_156331" data-name="Grupo 156331" transform="translate(0 16.31)">
          <ellipse id="Elipse_3975" data-name="Elipse 3975" cx="3.283" cy="3.14" rx="3.283" ry="3.14" transform="translate(0 0.002)" fill="#13c6cc"/>
          <ellipse id="Elipse_4742" data-name="Elipse 4742" cx="3.283" cy="3.14" rx="3.283" ry="3.14" transform="translate(74.346 0.002)" fill="#13c6cc"/>
          <path id="Trazado_99268" data-name="Trazado 99268" d="M429.226,113.425a3.286,3.286,0,1,1-3.281-3.138A3.215,3.215,0,0,1,429.226,113.425Z" transform="translate(-407.791 -110.287)" fill="#13c6cc"/>
          <path id="Trazado_116528" data-name="Trazado 116528" d="M429.226,113.425a3.286,3.286,0,1,1-3.281-3.138A3.215,3.215,0,0,1,429.226,113.425Z" transform="translate(-333.445 -110.287)" fill="#13c6cc"/>
          <ellipse id="Elipse_3976" data-name="Elipse 3976" cx="3.283" cy="3.14" rx="3.283" ry="3.14" transform="translate(29.738 0.002)" fill="#13c6cc"/>
          <ellipse id="Elipse_4743" data-name="Elipse 4743" cx="3.283" cy="3.14" rx="3.283" ry="3.14" transform="translate(104.084 0.002)" fill="#13c6cc"/>
          <path id="Trazado_99269" data-name="Trazado 99269" d="M446.119,113.425a3.286,3.286,0,1,1-3.285-3.138A3.216,3.216,0,0,1,446.119,113.425Z" transform="translate(-394.946 -110.287)" fill="#13c6cc"/>
          <path id="Trazado_116533" data-name="Trazado 116533" d="M446.119,113.425a3.286,3.286,0,1,1-3.285-3.138A3.216,3.216,0,0,1,446.119,113.425Z" transform="translate(-320.6 -110.287)" fill="#13c6cc"/>
          <path id="Trazado_99270" data-name="Trazado 99270" d="M454.565,113.425a3.286,3.286,0,1,1-3.281-3.138A3.215,3.215,0,0,1,454.565,113.425Z" transform="translate(-388.522 -110.287)" fill="#13c6cc"/>
        </g>
        <g id="Grupo_156330" data-name="Grupo 156330" transform="translate(0 32.622)">
          <path id="Trazado_99274" data-name="Trazado 99274" d="M420.78,120.935a3.286,3.286,0,1,1-3.285-3.141A3.216,3.216,0,0,1,420.78,120.935Z" transform="translate(-414.214 -117.794)" fill="#13c6cc"/>
          <path id="Trazado_116529" data-name="Trazado 116529" d="M420.78,120.935a3.286,3.286,0,1,1-3.285-3.141A3.216,3.216,0,0,1,420.78,120.935Z" transform="translate(-339.869 -117.794)" fill="#13c6cc"/>
          <path id="Trazado_99275" data-name="Trazado 99275" d="M429.226,120.935a3.286,3.286,0,1,1-3.281-3.141A3.215,3.215,0,0,1,429.226,120.935Z" transform="translate(-407.792 -117.794)" fill="#13c6cc"/>
          <path id="Trazado_116530" data-name="Trazado 116530" d="M429.226,120.935a3.286,3.286,0,1,1-3.281-3.141A3.215,3.215,0,0,1,429.226,120.935Z" transform="translate(-333.445 -117.794)" fill="#13c6cc"/>
          <path id="Trazado_99276" data-name="Trazado 99276" d="M437.672,120.935a3.286,3.286,0,1,1-3.281-3.141A3.215,3.215,0,0,1,437.672,120.935Z" transform="translate(-401.368 -117.794)" fill="#13c6cc"/>
          <path id="Trazado_116534" data-name="Trazado 116534" d="M437.672,120.935a3.286,3.286,0,1,1-3.281-3.141A3.215,3.215,0,0,1,437.672,120.935Z" transform="translate(-327.023 -117.794)" fill="#13c6cc"/>
          <path id="Trazado_99277" data-name="Trazado 99277" d="M446.119,120.935a3.286,3.286,0,1,1-3.285-3.141A3.216,3.216,0,0,1,446.119,120.935Z" transform="translate(-394.946 -117.794)" fill="#13c6cc"/>
          <path id="Trazado_116535" data-name="Trazado 116535" d="M446.119,120.935a3.286,3.286,0,1,1-3.285-3.141A3.216,3.216,0,0,1,446.119,120.935Z" transform="translate(-320.6 -117.794)" fill="#13c6cc"/>
          <path id="Trazado_99278" data-name="Trazado 99278" d="M454.565,120.935a3.286,3.286,0,1,1-3.281-3.141A3.215,3.215,0,0,1,454.565,120.935Z" transform="translate(-388.523 -117.794)" fill="#13c6cc"/>
        </g>
        <g id="Grupo_156327" data-name="Grupo 156327" transform="translate(0 81.557)">
          <path id="Trazado_116550" data-name="Trazado 116550" d="M420.78,120.935a3.286,3.286,0,1,1-3.285-3.141A3.216,3.216,0,0,1,420.78,120.935Z" transform="translate(-414.214 -117.794)" fill="#13c6cc"/>
          <path id="Trazado_116551" data-name="Trazado 116551" d="M420.78,120.935a3.286,3.286,0,1,1-3.285-3.141A3.216,3.216,0,0,1,420.78,120.935Z" transform="translate(-339.869 -117.794)" fill="#13c6cc"/>
          <path id="Trazado_116552" data-name="Trazado 116552" d="M429.226,120.935a3.286,3.286,0,1,1-3.281-3.141A3.215,3.215,0,0,1,429.226,120.935Z" transform="translate(-407.792 -117.794)" fill="#13c6cc"/>
          <path id="Trazado_116553" data-name="Trazado 116553" d="M429.226,120.935a3.286,3.286,0,1,1-3.281-3.141A3.215,3.215,0,0,1,429.226,120.935Z" transform="translate(-333.445 -117.794)" fill="#13c6cc"/>
          <path id="Trazado_116554" data-name="Trazado 116554" d="M437.672,120.935a3.286,3.286,0,1,1-3.281-3.141A3.215,3.215,0,0,1,437.672,120.935Z" transform="translate(-401.368 -117.794)" fill="#13c6cc"/>
          <path id="Trazado_116555" data-name="Trazado 116555" d="M437.672,120.935a3.286,3.286,0,1,1-3.281-3.141A3.215,3.215,0,0,1,437.672,120.935Z" transform="translate(-327.023 -117.794)" fill="#13c6cc"/>
          <path id="Trazado_116556" data-name="Trazado 116556" d="M446.119,120.935a3.286,3.286,0,1,1-3.285-3.141A3.216,3.216,0,0,1,446.119,120.935Z" transform="translate(-394.946 -117.794)" fill="#13c6cc"/>
          <path id="Trazado_116557" data-name="Trazado 116557" d="M446.119,120.935a3.286,3.286,0,1,1-3.285-3.141A3.216,3.216,0,0,1,446.119,120.935Z" transform="translate(-320.6 -117.794)" fill="#13c6cc"/>
          <path id="Trazado_116558" data-name="Trazado 116558" d="M454.565,120.935a3.286,3.286,0,1,1-3.281-3.141A3.215,3.215,0,0,1,454.565,120.935Z" transform="translate(-388.523 -117.794)" fill="#13c6cc"/>
        </g>
        <g id="Grupo_156329" data-name="Grupo 156329" transform="translate(0 48.934)">
          <ellipse id="Elipse_3980" data-name="Elipse 3980" cx="3.283" cy="3.14" rx="3.283" ry="3.14" transform="translate(0 0.003)" fill="#13c6cc"/>
          <ellipse id="Elipse_4744" data-name="Elipse 4744" cx="3.283" cy="3.14" rx="3.283" ry="3.14" transform="translate(74.346 0.003)" fill="#13c6cc"/>
          <path id="Trazado_99285" data-name="Trazado 99285" d="M429.226,128.443a3.286,3.286,0,1,1-3.281-3.141A3.212,3.212,0,0,1,429.226,128.443Z" transform="translate(-407.791 -125.302)" fill="#13c6cc"/>
          <path id="Trazado_116536" data-name="Trazado 116536" d="M429.226,128.443a3.286,3.286,0,1,1-3.281-3.141A3.212,3.212,0,0,1,429.226,128.443Z" transform="translate(-333.445 -125.302)" fill="#13c6cc"/>
          <ellipse id="Elipse_3981" data-name="Elipse 3981" cx="3.283" cy="3.14" rx="3.283" ry="3.14" transform="translate(29.738 0.003)" fill="#13c6cc"/>
          <ellipse id="Elipse_4745" data-name="Elipse 4745" cx="3.283" cy="3.14" rx="3.283" ry="3.14" transform="translate(104.084 0.003)" fill="#13c6cc"/>
          <path id="Trazado_99286" data-name="Trazado 99286" d="M446.119,128.443a3.286,3.286,0,1,1-3.285-3.141A3.213,3.213,0,0,1,446.119,128.443Z" transform="translate(-394.946 -125.302)" fill="#13c6cc"/>
          <path id="Trazado_116537" data-name="Trazado 116537" d="M446.119,128.443a3.286,3.286,0,1,1-3.285-3.141A3.213,3.213,0,0,1,446.119,128.443Z" transform="translate(-320.6 -125.302)" fill="#13c6cc"/>
          <path id="Trazado_99287" data-name="Trazado 99287" d="M454.565,128.443a3.286,3.286,0,1,1-3.281-3.141A3.212,3.212,0,0,1,454.565,128.443Z" transform="translate(-388.522 -125.302)" fill="#13c6cc"/>
        </g>
        <g id="Grupo_156326" data-name="Grupo 156326" transform="translate(0 97.87)">
          <ellipse id="Elipse_4754" data-name="Elipse 4754" cx="3.283" cy="3.14" rx="3.283" ry="3.14" transform="translate(0 0.001)" fill="#13c6cc"/>
          <ellipse id="Elipse_4750" data-name="Elipse 4750" cx="3.283" cy="3.14" rx="3.283" ry="3.14" transform="translate(74.346 0.001)" fill="#13c6cc"/>
          <path id="Trazado_116548" data-name="Trazado 116548" d="M429.226,128.443a3.286,3.286,0,1,1-3.281-3.141A3.212,3.212,0,0,1,429.226,128.443Z" transform="translate(-407.791 -125.302)" fill="#13c6cc"/>
          <path id="Trazado_116542" data-name="Trazado 116542" d="M429.226,128.443a3.286,3.286,0,1,1-3.281-3.141A3.212,3.212,0,0,1,429.226,128.443Z" transform="translate(-333.445 -125.302)" fill="#13c6cc"/>
          <ellipse id="Elipse_4751" data-name="Elipse 4751" cx="3.283" cy="3.14" rx="3.283" ry="3.14" transform="translate(29.738 0.001)" fill="#13c6cc"/>
          <ellipse id="Elipse_4752" data-name="Elipse 4752" cx="3.283" cy="3.14" rx="3.283" ry="3.14" transform="translate(104.084 0.001)" fill="#13c6cc"/>
          <path id="Trazado_116543" data-name="Trazado 116543" d="M446.119,128.443a3.286,3.286,0,1,1-3.285-3.141A3.213,3.213,0,0,1,446.119,128.443Z" transform="translate(-394.946 -125.302)" fill="#13c6cc"/>
          <path id="Trazado_116544" data-name="Trazado 116544" d="M446.119,128.443a3.286,3.286,0,1,1-3.285-3.141A3.213,3.213,0,0,1,446.119,128.443Z" transform="translate(-320.6 -125.302)" fill="#13c6cc"/>
          <path id="Trazado_116545" data-name="Trazado 116545" d="M454.565,128.443a3.286,3.286,0,1,1-3.281-3.141A3.212,3.212,0,0,1,454.565,128.443Z" transform="translate(-388.522 -125.302)" fill="#13c6cc"/>
        </g>
        <g id="Grupo_156328" data-name="Grupo 156328" transform="translate(0 65.246)">
          <ellipse id="Elipse_3985" data-name="Elipse 3985" cx="3.283" cy="3.14" rx="3.283" ry="3.14" transform="translate(0 0.001)" fill="#13c6cc"/>
          <ellipse id="Elipse_4746" data-name="Elipse 4746" cx="3.283" cy="3.14" rx="3.283" ry="3.14" transform="translate(74.346 0.001)" fill="#13c6cc"/>
          <path id="Trazado_99291" data-name="Trazado 99291" d="M429.226,135.951a3.286,3.286,0,1,1-3.281-3.141A3.212,3.212,0,0,1,429.226,135.951Z" transform="translate(-407.791 -132.81)" fill="#13c6cc"/>
          <path id="Trazado_116538" data-name="Trazado 116538" d="M429.226,135.951a3.286,3.286,0,1,1-3.281-3.141A3.212,3.212,0,0,1,429.226,135.951Z" transform="translate(-333.445 -132.81)" fill="#13c6cc"/>
          <ellipse id="Elipse_3986" data-name="Elipse 3986" cx="3.283" cy="3.14" rx="3.283" ry="3.14" transform="translate(29.738 0.001)" fill="#13c6cc"/>
          <ellipse id="Elipse_4747" data-name="Elipse 4747" cx="3.283" cy="3.14" rx="3.283" ry="3.14" transform="translate(104.084 0.001)" fill="#13c6cc"/>
          <path id="Trazado_99292" data-name="Trazado 99292" d="M446.119,135.951a3.286,3.286,0,1,1-3.285-3.141A3.213,3.213,0,0,1,446.119,135.951Z" transform="translate(-394.946 -132.81)" fill="#13c6cc"/>
          <path id="Trazado_116539" data-name="Trazado 116539" d="M446.119,135.951a3.286,3.286,0,1,1-3.285-3.141A3.213,3.213,0,0,1,446.119,135.951Z" transform="translate(-320.6 -132.81)" fill="#13c6cc"/>
          <path id="Trazado_99293" data-name="Trazado 99293" d="M454.565,135.951a3.286,3.286,0,1,1-3.281-3.141A3.212,3.212,0,0,1,454.565,135.951Z" transform="translate(-388.522 -132.81)" fill="#13c6cc"/>
        </g>
      </g>
      <g id="Grupo_156332-2" data-name="Grupo 156332" transform="translate(600 1442.874)">
        <path id="Trazado_99257-2" data-name="Trazado 99257" d="M420.78,105.917a3.286,3.286,0,1,1-3.285-3.138A3.214,3.214,0,0,1,420.78,105.917Z" transform="translate(-414.214 -102.779)" fill="#13c6cc"/>
        <path id="Trazado_116526-2" data-name="Trazado 116526" d="M420.78,105.917a3.286,3.286,0,1,1-3.285-3.138A3.214,3.214,0,0,1,420.78,105.917Z" transform="translate(-339.869 -102.779)" fill="#13c6cc"/>
        <path id="Trazado_99258-2" data-name="Trazado 99258" d="M429.226,105.917a3.286,3.286,0,1,1-3.281-3.138A3.213,3.213,0,0,1,429.226,105.917Z" transform="translate(-407.792 -102.779)" fill="#13c6cc"/>
        <path id="Trazado_116527-2" data-name="Trazado 116527" d="M429.226,105.917a3.286,3.286,0,1,1-3.281-3.138A3.213,3.213,0,0,1,429.226,105.917Z" transform="translate(-333.445 -102.779)" fill="#13c6cc"/>
        <path id="Trazado_99259-2" data-name="Trazado 99259" d="M437.672,105.917a3.286,3.286,0,1,1-3.281-3.138A3.213,3.213,0,0,1,437.672,105.917Z" transform="translate(-401.368 -102.779)" fill="#13c6cc"/>
        <path id="Trazado_116531-2" data-name="Trazado 116531" d="M437.672,105.917a3.286,3.286,0,1,1-3.281-3.138A3.213,3.213,0,0,1,437.672,105.917Z" transform="translate(-327.023 -102.779)" fill="#13c6cc"/>
        <path id="Trazado_99260-2" data-name="Trazado 99260" d="M446.119,105.917a3.286,3.286,0,1,1-3.285-3.138A3.214,3.214,0,0,1,446.119,105.917Z" transform="translate(-394.946 -102.779)" fill="#13c6cc"/>
        <path id="Trazado_116532-2" data-name="Trazado 116532" d="M446.119,105.917a3.286,3.286,0,1,1-3.285-3.138A3.214,3.214,0,0,1,446.119,105.917Z" transform="translate(-320.6 -102.779)" fill="#13c6cc"/>
        <path id="Trazado_99261-2" data-name="Trazado 99261" d="M454.565,105.917a3.286,3.286,0,1,1-3.281-3.138A3.213,3.213,0,0,1,454.565,105.917Z" transform="translate(-388.523 -102.779)" fill="#13c6cc"/>
      </g>
    </g>
    <g id="o2" transform="translate(285 5349.709)">
      <path id="Trazado_602784" data-name="Trazado 602784" d="M372.977,137.883a3.253,3.253,0,0,1-3.807-2.876,15.384,15.384,0,0,0-13.754-13.835,2.6,2.6,0,0,1-2.337-2.471,22.191,22.191,0,0,0-35.947-16.434l1.29,5.72,28.512,34.363,12.618,10.27,5.384,5.019h9.6a10.077,10.077,0,0,0,10.088-10.049A9.97,9.97,0,0,0,372.977,137.883Z" transform="translate(-214.288 1.029)" fill="#60b9fe"/>
      <path id="Trazado_602785" data-name="Trazado 602785" d="M331.132,147.419a6.181,6.181,0,0,1-3.935-4.429,47.492,47.492,0,0,0-24.957-31.674,22.287,22.287,0,0,0-6.653,8.713l-1.24,7.206,23.729,34.255,9.991,2.5,11.558,2.7h12.288A36.163,36.163,0,0,0,331.132,147.419Z" transform="translate(-199.393 -8.019)" fill="#1ca8ff"/>
      <path id="Trazado_602786" data-name="Trazado 602786" d="M196.977,198.41a5.369,5.369,0,0,1-6.282-4.746,25.392,25.392,0,0,0-22.7-22.835,4.293,4.293,0,0,1-3.857-4.079,36.652,36.652,0,0,0-24.468-32.979H129.163l-69.7,72.37,1.665,15.819,6.066,5.947,8.744,3.109h123.62a16.633,16.633,0,0,0,16.65-16.586,16.458,16.458,0,0,0-19.231-16.021Z" transform="translate(-38.867 -23.725)" fill="#8bcaff"/>
      <path id="Trazado_602787" data-name="Trazado 602787" d="M24.264,210.577A16.46,16.46,0,0,1,43.5,194.524a5.367,5.367,0,0,0,6.28-4.746,25.392,25.392,0,0,1,22.7-22.832,4.294,4.294,0,0,0,3.857-4.079,36.654,36.654,0,0,1,24.467-32.98,36.657,36.657,0,0,0-48.731,32.98,4.294,4.294,0,0,1-3.857,4.079,25.392,25.392,0,0,0-22.7,22.832,5.367,5.367,0,0,1-6.28,4.746A16.46,16.46,0,0,0,0,210.577a16.637,16.637,0,0,0,16.649,16.556H40.913a16.637,16.637,0,0,1-16.649-16.556Z" transform="translate(0 -19.842)" fill="#60b9fe"/>
      <g id="Grupo_877270" data-name="Grupo 877270" transform="translate(64.988 142.351)">
        <path id="Trazado_602788" data-name="Trazado 602788" d="M205.507,262.8a17.881,17.881,0,1,1,17.881-17.881A17.9,17.9,0,0,1,205.507,262.8Zm0-30.41a12.529,12.529,0,1,0,12.529,12.529A12.543,12.543,0,0,0,205.507,232.391Z" transform="translate(-187.626 -227.039)" fill="#fff"/>
      </g>
      <g id="Grupo_877271" data-name="Grupo 877271" transform="translate(103.495 165.492)">
        <path id="Trazado_602789" data-name="Trazado 602789" d="M311.4,317.427h-8.812a2.677,2.677,0,0,1-2.2-4.2l7.468-10.794a1.966,1.966,0,0,0,.192-2.012,2.056,2.056,0,0,0-1.669-1.21,2.079,2.079,0,0,0-2.265,1.725,2.676,2.676,0,0,1-5.284-.856,7.424,7.424,0,0,1,14.073-1.91,7.32,7.32,0,0,1-.647,7.308l-4.563,6.595H311.4a2.676,2.676,0,0,1,0,5.352Z" transform="translate(-298.8 -293.85)" fill="#fff"/>
      </g>
    </g>
  </g>
</svg>
