<svg xmlns="http://www.w3.org/2000/svg" width="85" height="85" viewBox="0 0 85 85">
  <g id="Grupo_877694" data-name="Grupo 877694" transform="translate(-337 -1622)">
    <circle id="Elipse_5143" data-name="Elipse 5143" cx="42.5" cy="42.5" r="42.5" transform="translate(337 1622)" fill="#0273bc"/>
    <g id="Grupo_877274" data-name="Grupo 877274" transform="translate(-0.815)">
      <g id="Layer_2_00000034784958308029718300000006118701938750291337_" transform="translate(353.755 1614.896)">
        <g id="Layer_1-2" transform="translate(0.06 22.436)">
          <g id="healthy_tooth" transform="translate(0 0)">
            <path id="Trazado_602792" data-name="Trazado 602792" d="M107.843,39.692c-1.535.268-2.943.919-2.943,2.373,0,1.954,1.954,3.35,5.92,3.35a21.585,21.585,0,0,0,8.933-2.489C116.38,41.623,111.588,38.8,107.843,39.692Z" transform="translate(-92.706 -37.533)" fill="#c6c6c6"/>
            <path id="Trazado_602793" data-name="Trazado 602793" d="M49.183,28.724c-7.444-9.468-14.562-4.42-22.076-.907C10.067,36.192,7.09,20.7,21.222,25.351l5.9,2.466c-6.839-6.793-17.679-7.863-24.228.919-7,8.909.93,21.4,3.024,24.379A3.449,3.449,0,0,1,6.5,54.627c.512,4.176,2.989,22.146,7.56,22.146,2.664,0,8.142-4.024,8.479-16-.023-2.64,2.582-4.885,4.443-3.966a4.357,4.357,0,0,1,2.559,3.966c.337,11.98,5.8,16,8.479,16,4.571,0,7.048-17.97,7.56-22.134a3.344,3.344,0,0,1,.582-1.512c2.094-3,10.026-15.493,3.024-24.4Z" transform="translate(-0.06 -22.436)" fill="#e2e2e2"/>
            <path id="Trazado_602794" data-name="Trazado 602794" d="M296.641,96.55A13.546,13.546,0,0,0,283.1,83c-17.97.709-17.97,26.379,0,27.1A13.554,13.554,0,0,0,296.641,96.55Z" transform="translate(-238.272 -75.956)" fill="#fff"/>
          </g>
        </g>
      </g>
      <g id="metal" transform="translate(386 1631.336)">
        <path id="Trazado_602796" data-name="Trazado 602796" d="M26.214,35.2,21,34.551,30.124,15l5.214.652" transform="translate(-6.618 -1.393)" fill="#66676c"/>
        <path id="Trazado_602798" data-name="Trazado 602798" d="M7.214,31.2,2,30.551,11.124,11l5.214.652" fill="#66676c"/>
        <path id="Trazado_602799" data-name="Trazado 602799" d="M20.427,15.91,11.3,35.461,10,31.551,19.124,12Z" transform="translate(-2.786 -0.348)" fill="#86878c"/>
        <g id="Grupo_877273" data-name="Grupo 877273" transform="translate(8.517 15.562)">
          <path id="Trazado_602800" data-name="Trazado 602800" d="M17.865,35.6l-1.3,2.607L12,37.551,21.124,18l4.643.663" transform="translate(-12 -18)" fill="#9d9da0"/>
        </g>
      </g>
    </g>
  </g>
</svg>
