<svg xmlns="http://www.w3.org/2000/svg" width="85" height="85" viewBox="0 0 85 85">
  <g id="Grupo_877696" data-name="Grupo 877696" transform="translate(-758 -1622)">
    <g id="Grupo_877695" data-name="Grupo 877695">
      <circle id="Elipse_5141" data-name="Elipse 5141" cx="42.5" cy="42.5" r="42.5" transform="translate(758 1622)" fill="#0273bc"/>
      <g id="Grupo_877275" data-name="Grupo 877275" transform="translate(420.185)">
        <g id="Layer_2_00000034784958308029718300000006118701938750291337_" transform="translate(353.755 1614.896)">
          <g id="Layer_1-2" transform="translate(0.06 22.436)">
            <g id="healthy_tooth" transform="translate(0 0)">
              <path id="Trazado_602792" data-name="Trazado 602792" d="M107.843,39.692c-1.535.268-2.943.919-2.943,2.373,0,1.954,1.954,3.35,5.92,3.35a21.585,21.585,0,0,0,8.933-2.489C116.38,41.623,111.588,38.8,107.843,39.692Z" transform="translate(-92.706 -37.533)" fill="#c6c6c6"/>
              <path id="Trazado_602793" data-name="Trazado 602793" d="M49.183,28.724c-7.444-9.468-14.562-4.42-22.076-.907C10.067,36.192,7.09,20.7,21.222,25.351l5.9,2.466c-6.839-6.793-17.679-7.863-24.228.919-7,8.909.93,21.4,3.024,24.379A3.449,3.449,0,0,1,6.5,54.627c.512,4.176,2.989,22.146,7.56,22.146,2.664,0,8.142-4.024,8.479-16-.023-2.64,2.582-4.885,4.443-3.966a4.357,4.357,0,0,1,2.559,3.966c.337,11.98,5.8,16,8.479,16,4.571,0,7.048-17.97,7.56-22.134a3.344,3.344,0,0,1,.582-1.512c2.094-3,10.026-15.493,3.024-24.4Z" transform="translate(-0.06 -22.436)" fill="#e2e2e2"/>
              <path id="Trazado_602794" data-name="Trazado 602794" d="M296.641,96.55A13.546,13.546,0,0,0,283.1,83c-17.97.709-17.97,26.379,0,27.1A13.554,13.554,0,0,0,296.641,96.55Z" transform="translate(-238.272 -75.956)" fill="#fff"/>
            </g>
          </g>
        </g>
      </g>
    </g>
    <g id="tarro-de-mantequilla" transform="translate(740.653 1647.93)">
      <path id="Trazado_602806" data-name="Trazado 602806" d="M82.9,82.41h-8.2a2.347,2.347,0,0,1-2.344-2.344v-8.6a2.357,2.357,0,0,1,.469-1.407l1.289-1.719v-.977a.586.586,0,0,1,.586-.586h8.2a.586.586,0,0,1,.586.586v.977l1.289,1.719a2.358,2.358,0,0,1,.469,1.407v8.6A2.347,2.347,0,0,1,82.9,82.41Z" transform="translate(0 -64.438)" fill="#bc8565"/>
      <path id="Trazado_602807" data-name="Trazado 602807" d="M260.688,68.345v-.977a.586.586,0,0,0-.586-.586H256V82.41h4.1a2.347,2.347,0,0,0,2.344-2.344v-8.6a2.358,2.358,0,0,0-.469-1.407Z" transform="translate(-177.207 -64.438)" fill="#b37b5a"/>
      <path id="Trazado_602808" data-name="Trazado 602808" d="M99.006,3.516H90.8A1.758,1.758,0,1,1,90.8,0h8.2a1.758,1.758,0,1,1,0,3.516Z" transform="translate(-16.11)" fill="#5c5f66"/>
      <path id="Trazado_602809" data-name="Trazado 602809" d="M146.748,250.729h-7.032a.586.586,0,0,1-.586-.586v-4.688a.586.586,0,0,1,.586-.586h7.032a.586.586,0,0,1,.586.586v4.688A.586.586,0,0,1,146.748,250.729Z" transform="translate(-64.439 -236.274)" fill="#e6eeff"/>
      <path id="Trazado_602810" data-name="Trazado 602810" d="M259.516,244.87H256v5.86h3.516a.586.586,0,0,0,.586-.586v-4.688A.586.586,0,0,0,259.516,244.87Z" transform="translate(-177.207 -236.275)" fill="#dae2f2"/>
      <path id="Trazado_602811" data-name="Trazado 602811" d="M260.1,0H256V3.516h4.1A1.758,1.758,0,0,0,260.1,0Z" transform="translate(-177.207)" fill="#53565c"/>
    </g>
  </g>
</svg>
