<svg xmlns="http://www.w3.org/2000/svg" width="85" height="85" viewBox="0 0 85 85">
  <g id="Grupo_877681" data-name="Grupo 877681" transform="translate(-758 -545)">
    <g id="Grupo_877678" data-name="Grupo 877678">
      <circle id="Elipse_5141" data-name="Elipse 5141" cx="42.5" cy="42.5" r="42.5" transform="translate(758 545)" fill="#0273bc"/>
      <g id="ordenador-portatil_1_" data-name="ordenador-portatil(1)" transform="translate(769.338 500.33)">
        <path id="Trazado_604501" data-name="Trazado 604501" d="M94.218,96.953H42.158V61.869a.88.88,0,0,1,.88-.88h50.3a.88.88,0,0,1,.88.88Z" transform="translate(-37.026 -0.001)" fill="#dfeaef"/>
        <path id="Trazado_604502" data-name="Trazado 604502" d="M93.338,60.988H86.792a.88.88,0,0,1,.88.88V91.78a1.034,1.034,0,0,1-1.034,1.034H42.158v4.138h52.06V61.868A.88.88,0,0,0,93.338,60.988Z" transform="translate(-37.026)" fill="#bfcfd6"/>
        <path id="Trazado_604503" data-name="Trazado 604503" d="M74.094,118.361v-24.9a.534.534,0,0,1,.534-.534h43.217a.534.534,0,0,1,.534.534v24.9a.534.534,0,0,1-.534.534H74.628A.534.534,0,0,1,74.094,118.361Z" transform="translate(-65.075 -28.049)" fill="#35e5e5"/>
        <path id="Trazado_604504" data-name="Trazado 604504" d="M117.845,92.924h-2.124v22.932a.534.534,0,0,1-.534.534H74.094v1.97a.534.534,0,0,0,.534.534h43.217a.534.534,0,0,0,.534-.534v-24.9A.534.534,0,0,0,117.845,92.924Z" transform="translate(-65.075 -28.049)" fill="#28cec9"/>
        <path id="Trazado_604505" data-name="Trazado 604505" d="M61.1,424.98H1.222A1.222,1.222,0,0,1,0,423.758v-2.386H62.323v2.386A1.222,1.222,0,0,1,61.1,424.98Z" transform="translate(0 -316.516)" fill="#6f98a3"/>
        <path id="Trazado_604506" data-name="Trazado 604506" d="M62.323,348.342H0L5.132,338.22h52.06Z" transform="translate(0 -243.486)" fill="#9ebecc"/>
        <path id="Trazado_604507" data-name="Trazado 604507" d="M57.192,338.22H49.835l3.372,6.652a1.118,1.118,0,0,1-1,1.623H.936L0,348.342H62.323Z" transform="translate(0 -243.486)" fill="#86aebc"/>
        <path id="Trazado_604508" data-name="Trazado 604508" d="M204.719,384.857l-1.228-4.451a.831.831,0,0,0-.8-.61H190.245a.831.831,0,0,0-.8.61l-1.228,4.451Z" transform="translate(-165.306 -280.001)" fill="#dfeaef"/>
        <path id="Trazado_604509" data-name="Trazado 604509" d="M188.727,406.2l-.509,1.847h16.5l-.509-1.847Z" transform="translate(-165.307 -303.191)" fill="#bfcfd6"/>
      </g>
    </g>
    <g id="Grupo_877535" data-name="Grupo 877535" transform="translate(200.121 -118.25)">
      <g id="diente" transform="translate(593 688.138)">
        <g id="Grupo_876708" data-name="Grupo 876708" transform="translate(0 0)">
          <path id="Trazado_602000" data-name="Trazado 602000" d="M36.517,2.953A4,4,0,0,0,34,.255a5.531,5.531,0,0,0-4.6.623A5.531,5.531,0,0,0,24.8.255a4,4,0,0,0-2.516,2.7A5.953,5.953,0,0,0,23.258,8.3a5.748,5.748,0,0,1,1.028,2.254c.076.359.142.754.2,1.173a11.942,11.942,0,0,0,.711,3.008c.371.88.849,1.356,1.422,1.413.033,0,.065,0,.1,0,.564,0,1.035-.506,1.4-1.506a12.416,12.416,0,0,0,.6-2.789,3.012,3.012,0,0,1,.442-1.387.3.3,0,0,1,.485,0,3.012,3.012,0,0,1,.442,1.387,12.417,12.417,0,0,0,.6,2.789c.366,1,.838,1.506,1.4,1.506q.048,0,.1,0c.573-.057,1.051-.533,1.422-1.413a11.944,11.944,0,0,0,.711-3.008c.054-.42.12-.815.2-1.173a5.759,5.759,0,0,1,1.03-2.256A5.953,5.953,0,0,0,36.517,2.953ZM34.785,7.73a6.7,6.7,0,0,0-1.2,2.624c-.081.383-1.156,4.8-1.494,4.849-.071-.025-.314-.259-.575-1.031a12,12,0,0,1-.5-2.423,3.874,3.874,0,0,0-.611-1.83,1.242,1.242,0,0,0-2.024,0,3.875,3.875,0,0,0-.611,1.83,12,12,0,0,1-.5,2.423c-.261.772-.5,1.006-.575,1.031-.338-.045-.954-1.035-1.285-3.6-.057-.445-.127-.865-.208-1.248a6.685,6.685,0,0,0-1.195-2.622,5.008,5.008,0,0,1-.835-4.49,3.076,3.076,0,0,1,1.905-2.089,4.366,4.366,0,0,1,2.832.056,4.6,4.6,0,0,1,1.191.61l.291.228.292-.227a4.6,4.6,0,0,1,1.192-.611,4.366,4.366,0,0,1,2.832-.056h0a3.076,3.076,0,0,1,1.905,2.088A5.008,5.008,0,0,1,34.785,7.73Z" transform="translate(-22.02 0)" fill="#fff"/>
        </g>
      </g>
      <path id="Trazado_604486" data-name="Trazado 604486" d="M5714.41-11009.637s-3.43-2.22-5.691.564.4,5.691.4,5.691a7.82,7.82,0,0,1,1.2,2.986c.057,1.252.863,4.48,1.308,4.764a.877.877,0,0,0,1.251-.4c.121-.443.687-5.328,1.534-5.126s1.413.161,1.574,1.735.807,3.674,1.373,3.795.848-.041.888-.4a39.264,39.264,0,0,1,1.654-5.853c.525-.929,1.05-.888,1.413-2.3s.726-6.217-3.067-6.055S5714.41-11009.637,5714.41-11009.637Z" transform="translate(-5114.481 11699.176)" fill="#fff"/>
    </g>
  </g>
</svg>
