<svg xmlns="http://www.w3.org/2000/svg" width="85" height="85" viewBox="0 0 85 85">
  <g id="Grupo_877680" data-name="Grupo 877680" transform="translate(-1194 -545)">
    <g id="Grupo_877679" data-name="Grupo 877679">
      <g id="Grupo_877277" data-name="Grupo 877277" transform="translate(0 -1077)">
        <circle id="Elipse_5142" data-name="Elipse 5142" cx="42.5" cy="42.5" r="42.5" transform="translate(1194 1622)" fill="#0273bc"/>
      </g>
      <g id="impresora-3d_1_" data-name="impresora-3d(1)" transform="translate(1193.234 560.739)">
        <path id="Trazado_604522" data-name="Trazado 604522" d="M203.113,212.436l-6.972-1.323-6.972,1.323V216.7l6.972.782,6.972-.782Z" transform="translate(-151.339 -187.779)" fill="#35e5e5"/>
        <path id="Trazado_604523" data-name="Trazado 604523" d="M291.562,220.576v4.265l.85.2,1.777-.2v-4.265l-1.641-.311Z" transform="translate(-242.415 -195.92)" fill="#28cec9"/>
        <g id="Grupo_877547" data-name="Grupo 877547" transform="translate(43.973 34.724)">
          <path id="Trazado_604524" data-name="Trazado 604524" d="M245.579,321.2a.829.829,0,0,1-.829-.829V315a.829.829,0,1,1,1.658,0v5.373A.829.829,0,0,1,245.579,321.2Z" transform="translate(-244.75 -314.172)" fill="#dfeaef"/>
        </g>
        <g id="Grupo_877548" data-name="Grupo 877548" transform="translate(26.499 5.907)">
          <path id="Trazado_604525" data-name="Trazado 604525" d="M86.656,53.44v9.046a4.192,4.192,0,0,0,4.187,4.187h28.232a4.192,4.192,0,0,0,4.187-4.187V53.44H119.95v9.046a.878.878,0,0,1-.876.876H90.843a.878.878,0,0,1-.876-.876V53.44Z" transform="translate(-86.656 -53.44)" fill="#dfeaef"/>
        </g>
        <g id="Grupo_877549" data-name="Grupo 877549" transform="translate(27.846 5.907)">
          <path id="Trazado_604526" data-name="Trazado 604526" d="M99.716,63.362h1.964a.878.878,0,0,1-.876-.876V53.44H98.84v9.046A.877.877,0,0,0,99.716,63.362Z" transform="translate(-98.84 -53.44)" fill="#bfcfd6"/>
          <path id="Trazado_604527" data-name="Trazado 604527" d="M366.381,53.44v9.046a4.191,4.191,0,0,1-4.187,4.187h1.964a4.192,4.192,0,0,0,4.187-4.187V53.44Z" transform="translate(-333.086 -53.44)" fill="#bfcfd6"/>
        </g>
        <path id="Trazado_604528" data-name="Trazado 604528" d="M67.421,7.058H22.183a1.846,1.846,0,0,1-1.766-1.31L19.068,1.3A1.007,1.007,0,0,1,20.031,0h49.54a1.007,1.007,0,0,1,.964,1.3L69.187,5.747A1.845,1.845,0,0,1,67.421,7.058Z" transform="translate(0 0)" fill="#9ebecc"/>
        <path id="Trazado_604529" data-name="Trazado 604529" d="M441.647,1.3,440.3,5.747a1.847,1.847,0,0,1-1.766,1.311H436.25a1.845,1.845,0,0,0,1.766-1.311L439.365,1.3A1.007,1.007,0,0,0,438.4,0h2.282A1.007,1.007,0,0,1,441.647,1.3Z" transform="translate(-371.111 0)" fill="#86aebc"/>
        <path id="Trazado_604530" data-name="Trazado 604530" d="M182.183,115.3H165.3a1.314,1.314,0,0,1-1.314-1.314V103.226a1.314,1.314,0,0,1,1.314-1.314h16.883a1.314,1.314,0,0,1,1.314,1.314V113.99A1.314,1.314,0,0,1,182.183,115.3Z" transform="translate(-128.94 -90.648)" fill="#b0caf5"/>
        <path id="Trazado_604531" data-name="Trazado 604531" d="M307.482,101.913h-2.627a1.314,1.314,0,0,1,1.314,1.314v10.764a1.314,1.314,0,0,1-1.314,1.314h2.627a1.314,1.314,0,0,0,1.314-1.314V103.227A1.314,1.314,0,0,0,307.482,101.913Z" transform="translate(-254.239 -90.649)" fill="#89afed"/>
        <path id="Trazado_604532" data-name="Trazado 604532" d="M202.194,266.622l-5.494,3.225a1.107,1.107,0,0,1-1.121,0l-5.494-3.225a1.859,1.859,0,0,1-.918-1.6v-3.351h13.945v3.351A1.859,1.859,0,0,1,202.194,266.622Z" transform="translate(-151.338 -232.747)" fill="#b0caf5"/>
        <path id="Trazado_604533" data-name="Trazado 604533" d="M246.023,261.668v3.351a1.859,1.859,0,0,1-.918,1.6l-4.741,2.783.753.442a1.107,1.107,0,0,0,1.121,0l5.494-3.225a1.859,1.859,0,0,0,.918-1.6v-3.351Z" transform="translate(-196.876 -232.747)" fill="#89afed"/>
        <path id="Trazado_604534" data-name="Trazado 604534" d="M162.279,425.083H136.747v-7.732a1.2,1.2,0,0,1,1.2-1.2h23.123a1.2,1.2,0,0,1,1.2,1.2Z" transform="translate(-104.712 -367.836)" fill="#ffcebf"/>
        <g id="Grupo_877550" data-name="Grupo 877550" transform="translate(21.307 57.103)">
          <path id="Trazado_604536" data-name="Trazado 604536" d="M86.669,490.329a.829.829,0,0,1-.829.829H40.509a.829.829,0,1,1,0-1.658H85.84A.829.829,0,0,1,86.669,490.329Z" transform="translate(-39.68 -489.5)" fill="#838383"/>
        </g>
        <g id="Grupo_877558" data-name="Grupo 877558" transform="translate(25.86 2.7)">
          <path id="Trazado_604541" data-name="Trazado 604541" d="M86.927,26.086H81.7a.829.829,0,1,1,0-1.658h5.223a.829.829,0,1,1,0,1.658Z" transform="translate(-80.875 -24.428)" fill="#ffe000"/>
        </g>
        <circle id="Elipse_5156" data-name="Elipse 5156" cx="0.811" cy="0.811" r="0.811" transform="translate(35.318 2.718)" fill="#666"/>
      </g>
    </g>
    <g id="Grupo_877559" data-name="Grupo 877559" transform="translate(639.877 -84.076)">
      <g id="diente" transform="translate(593 688.138)">
        <g id="Grupo_876708" data-name="Grupo 876708" transform="translate(0 0)">
          <path id="Trazado_602000" data-name="Trazado 602000" d="M32.156,2.065A2.8,2.8,0,0,0,30.4.178a3.867,3.867,0,0,0-3.218.435A3.867,3.867,0,0,0,23.961.178,2.8,2.8,0,0,0,22.2,2.065,4.162,4.162,0,0,0,22.885,5.8,4.019,4.019,0,0,1,23.6,7.375c.053.251.1.527.137.82a8.349,8.349,0,0,0,.5,2.1c.259.616.594.948.994.988.023,0,.045,0,.068,0,.394,0,.723-.354.98-1.053a8.681,8.681,0,0,0,.42-1.95,2.106,2.106,0,0,1,.309-.97.208.208,0,0,1,.339,0,2.106,2.106,0,0,1,.309.97,8.681,8.681,0,0,0,.42,1.95c.256.7.586,1.053.98,1.053q.034,0,.068,0c.4-.04.735-.372.994-.988a8.35,8.35,0,0,0,.5-2.1c.038-.294.084-.57.137-.82a4.027,4.027,0,0,1,.72-1.577A4.162,4.162,0,0,0,32.156,2.065ZM30.945,5.4a4.682,4.682,0,0,0-.836,1.835c-.057.268-.808,3.359-1.044,3.39-.05-.018-.219-.181-.4-.721a8.388,8.388,0,0,1-.348-1.694,2.709,2.709,0,0,0-.427-1.28.868.868,0,0,0-1.415,0,2.709,2.709,0,0,0-.427,1.28A8.39,8.39,0,0,1,25.7,9.909c-.183.54-.352.7-.4.721-.236-.031-.667-.724-.9-2.518-.04-.311-.089-.6-.146-.872a4.674,4.674,0,0,0-.835-1.833,3.5,3.5,0,0,1-.584-3.139A2.151,2.151,0,0,1,24.163.807a3.053,3.053,0,0,1,1.98.039,3.219,3.219,0,0,1,.832.427l.2.159.2-.159a3.218,3.218,0,0,1,.833-.427A3.053,3.053,0,0,1,30.2.807h0a2.151,2.151,0,0,1,1.332,1.46A3.5,3.5,0,0,1,30.945,5.4Z" transform="translate(-22.02 0)" fill="#fff"/>
        </g>
      </g>
      <path id="Trazado_604486" data-name="Trazado 604486" d="M5712.424-11009.889s-2.4-1.553-3.979.395.282,3.979.282,3.979a5.472,5.472,0,0,1,.835,2.088,8.976,8.976,0,0,0,.914,3.331.614.614,0,0,0,.875-.282c.084-.311.479-3.726,1.072-3.584s.987.112,1.1,1.213.564,2.568.959,2.653.593-.028.621-.282a27.511,27.511,0,0,1,1.156-4.092c.367-.65.734-.621.988-1.608s.508-4.347-2.145-4.233S5712.424-11009.889,5712.424-11009.889Z" transform="translate(-5114.581 11699.007)" fill="#fff"/>
    </g>
  </g>
</svg>
